G04 #@! TF.GenerationSoftware,KiCad,Pcbnew,(5.1.0)-1*
G04 #@! TF.CreationDate,2019-04-24T23:49:31-07:00*
G04 #@! TF.ProjectId,ROVPCB,524f5650-4342-42e6-9b69-6361645f7063,rev?*
G04 #@! TF.SameCoordinates,Original*
G04 #@! TF.FileFunction,Legend,Top*
G04 #@! TF.FilePolarity,Positive*
%FSLAX46Y46*%
G04 Gerber Fmt 4.6, Leading zero omitted, Abs format (unit mm)*
G04 Created by KiCad (PCBNEW (5.1.0)-1) date 2019-04-24 23:49:31*
%MOMM*%
%LPD*%
G04 APERTURE LIST*
%ADD10C,0.040000*%
%ADD11C,0.250000*%
%ADD12C,0.120000*%
%ADD13C,0.150000*%
%ADD14C,0.100000*%
%ADD15C,0.203200*%
%ADD16C,0.152400*%
G04 APERTURE END LIST*
D10*
X254746007Y-149009216D02*
G75*
G02X254678989Y-148966744I341485J612963D01*
G01*
X254862402Y-149053102D02*
G75*
G02X254813677Y-149042158I6253J141776D01*
G01*
X254882328Y-149056978D02*
G75*
G02X254881609Y-149060498I-1898J-1446D01*
G01*
X255067111Y-147842991D02*
X255050479Y-147863167D01*
X255073793Y-148018476D02*
X255107837Y-147846317D01*
X254902707Y-148450039D02*
G75*
G02X254766707Y-148617480I-1211381J844959D01*
G01*
X254612745Y-148758240D02*
G75*
G02X254458199Y-148853589I-497752J633851D01*
G01*
X254673565Y-149012196D02*
G75*
G02X254556399Y-148943122I506938J993802D01*
G01*
X255082056Y-147826984D02*
X255067111Y-147842991D01*
X254799743Y-149066619D02*
G75*
G02X254673565Y-149012196I358329J1004253D01*
G01*
X254881609Y-149060498D02*
G75*
G02X254871678Y-149065276I-39862J70147D01*
G01*
X255036441Y-148181395D02*
X255073793Y-148018476D01*
X254538325Y-148874918D02*
G75*
G02X254560930Y-148874077I12437J-30061D01*
G01*
X255098605Y-147815470D02*
G75*
G02X255107837Y-147846317I-25220J-24354D01*
G01*
X254560931Y-148874077D02*
G75*
G02X254594476Y-148891675I-35990J-109376D01*
G01*
X254081140Y-148945184D02*
G75*
G02X254007360Y-148933686I-11802J166739D01*
G01*
X254594475Y-148891675D02*
G75*
G02X254629712Y-148923470I-167357J-220894D01*
G01*
X254678988Y-148966744D02*
G75*
G02X254629712Y-148923470I192741J269170D01*
G01*
X255094534Y-147815309D02*
G75*
G02X255098604Y-147815470I1951J-2208D01*
G01*
X254528198Y-148890067D02*
G75*
G02X254538325Y-148874918I16395J0D01*
G01*
X254813677Y-149042159D02*
G75*
G02X254746007Y-149009215I264088J628448D01*
G01*
X254877503Y-149054254D02*
G75*
G02X254882328Y-149056977I-757J-6977D01*
G01*
X254341813Y-148897813D02*
G75*
G02X254206454Y-148929661I-355558J1207577D01*
G01*
X253985141Y-148923096D02*
G75*
G02X253985545Y-148917354I1551J2776D01*
G01*
X254766707Y-148617480D02*
G75*
G02X254612744Y-148758239I-1014532J955116D01*
G01*
X255003612Y-148274245D02*
G75*
G02X254902706Y-148450039I-1047005J484126D01*
G01*
X254877503Y-149054254D02*
X254862402Y-149053102D01*
X254871679Y-149065276D02*
G75*
G02X254799743Y-149066619I-37745J94482D01*
G01*
X254556399Y-148943121D02*
G75*
G02X254528199Y-148890067I35807J53054D01*
G01*
X254007359Y-148933686D02*
G75*
G02X253985140Y-148923096I70340J176184D01*
G01*
X254206454Y-148929661D02*
G75*
G02X254081140Y-148945184I-210123J1182706D01*
G01*
X254458198Y-148853589D02*
G75*
G02X254341813Y-148897812I-345621J734330D01*
G01*
X253985545Y-148917353D02*
G75*
G02X254002364Y-148913974I18223J-47144D01*
G01*
X255094534Y-147815309D02*
X255082056Y-147826984D01*
X255036440Y-148181394D02*
G75*
G02X255003612Y-148274245I-512741J129057D01*
G01*
X254490937Y-148715337D02*
G75*
G02X254479380Y-148730543I-38511J17273D01*
G01*
X254463992Y-148460973D02*
G75*
G02X254517490Y-148328627I929145J-298603D01*
G01*
X254838687Y-148421343D02*
G75*
G02X254669290Y-148642680I-1447552J932376D01*
G01*
X256458245Y-147978527D02*
G75*
G02X256444840Y-147976165I-5017J10749D01*
G01*
X256444840Y-147976166D02*
G75*
G02X256440963Y-147959870I11297J11297D01*
G01*
X254464035Y-148739094D02*
G75*
G02X254453407Y-148736188I-3148J9375D01*
G01*
X256440964Y-147959870D02*
G75*
G02X256454562Y-147928481I179639J-59182D01*
G01*
X255335839Y-147477832D02*
G75*
G02X255341810Y-147478469I2591J-4017D01*
G01*
X256454562Y-147928481D02*
G75*
G02X256482318Y-147884380I366847J-200106D01*
G01*
X255249882Y-147535724D02*
X255196381Y-147574987D01*
X255042845Y-147703145D02*
X254866331Y-147875882D01*
X256631823Y-147693294D02*
G75*
G02X256643237Y-147696774I5006J-4039D01*
G01*
X254479379Y-148730542D02*
G75*
G02X254464035Y-148739093I-30599J36870D01*
G01*
X254453408Y-148736188D02*
G75*
G02X254445302Y-148720488I28518J24667D01*
G01*
X255148740Y-147535803D02*
G75*
G02X255101087Y-147580712I-486527J468529D01*
G01*
X254992177Y-147837697D02*
G75*
G02X255188199Y-147666938I1335360J-1335030D01*
G01*
X255296101Y-147503831D02*
X255249882Y-147535724D01*
X254435152Y-148583709D02*
G75*
G02X254463992Y-148460973I778414J-118157D01*
G01*
X255007546Y-147989221D02*
G75*
G02X255010768Y-147956505I184625J-1667D01*
G01*
X254395940Y-148833500D02*
G75*
G02X254279379Y-148874616I-460911J1120874D01*
G01*
X254506175Y-148657169D02*
G75*
G02X254500098Y-148689445I-225321J25714D01*
G01*
X255156193Y-147446830D02*
G75*
G02X255177257Y-147435331I74910J-112189D01*
G01*
X254061417Y-148912791D02*
X254002364Y-148913974D01*
X254966461Y-148182435D02*
G75*
G02X254838687Y-148421343I-1533514J666534D01*
G01*
X254792854Y-148056654D02*
G75*
G02X254992176Y-147837697I2437870J-2019039D01*
G01*
X254508198Y-148621589D02*
G75*
G02X254510339Y-148582909I350479J0D01*
G01*
X255208198Y-147451207D02*
G75*
G02X255197492Y-147481064I-46981J-1D01*
G01*
X254162271Y-148902826D02*
G75*
G02X254061417Y-148912791I-108083J578566D01*
G01*
X254279379Y-148874617D02*
G75*
G02X254162271Y-148902827I-331098J1117272D01*
G01*
X255345878Y-147504333D02*
G75*
G02X255316306Y-147549600I-229165J117411D01*
G01*
X254500097Y-148689445D02*
G75*
G02X254490936Y-148715337I-163036J43123D01*
G01*
X254526605Y-148490525D02*
G75*
G02X254538045Y-148451959I384885J-93193D01*
G01*
X255177258Y-147435332D02*
G75*
G02X255193752Y-147432614I13629J-31308D01*
G01*
X255010768Y-147956505D02*
G75*
G02X255019838Y-147922105I248182J-47040D01*
G01*
X254495534Y-148784143D02*
G75*
G02X254395940Y-148833500I-401867J685733D01*
G01*
X254669290Y-148642679D02*
G75*
G02X254495534Y-148784142I-544900J491847D01*
G01*
X255335839Y-147477832D02*
X255296101Y-147503831D01*
X255007546Y-147989221D02*
G75*
G02X254966460Y-148182435I-495920J4478D01*
G01*
X256477033Y-147965515D02*
G75*
G02X256458245Y-147978526I-47538J48574D01*
G01*
X255193751Y-147432613D02*
G75*
G02X255204071Y-147438447I-1191J-14151D01*
G01*
X256501694Y-147936717D02*
X256533790Y-147889114D01*
X255204071Y-147438447D02*
G75*
G02X255208199Y-147451208I-17661J-12761D01*
G01*
X256631824Y-147693294D02*
X256528075Y-147823574D01*
X254625919Y-148278483D02*
G75*
G02X254792855Y-148056655I2463325J-1680041D01*
G01*
X256533790Y-147889114D02*
X256636063Y-147726697D01*
X256501694Y-147936717D02*
G75*
G02X256477033Y-147965515I-175481J125311D01*
G01*
X255341809Y-147478469D02*
G75*
G02X255345877Y-147504332I-15723J-15724D01*
G01*
X254591333Y-148200676D02*
G75*
G02X254702635Y-148054746I1229514J-822350D01*
G01*
X255019838Y-147922105D02*
G75*
G02X255033498Y-147889744I233833J-79643D01*
G01*
X255033498Y-147889744D02*
G75*
G02X255050479Y-147863167I143703J-73103D01*
G01*
X255316306Y-147549599D02*
G75*
G02X255262914Y-147605468I-380037J309747D01*
G01*
X254538045Y-148451959D02*
G75*
G02X254625919Y-148278483I709015J-250155D01*
G01*
X255148740Y-147535803D02*
X255197492Y-147481064D01*
X255042845Y-147703144D02*
G75*
G02X255196381Y-147574987I1321158J-1426731D01*
G01*
X254517490Y-148328627D02*
G75*
G02X254591333Y-148200676I1003664J-493952D01*
G01*
X254510339Y-148582909D02*
X254516966Y-148536683D01*
X256643236Y-147696774D02*
G75*
G02X256636063Y-147726697I-48391J-4220D01*
G01*
X254508199Y-148621589D02*
G75*
G02X254506175Y-148657169I-313798J0D01*
G01*
X254436850Y-148681371D02*
X254445302Y-148720488D01*
X254436851Y-148681372D02*
G75*
G02X254435151Y-148583709I286997J53842D01*
G01*
X254866331Y-147875882D02*
X254702635Y-148054746D01*
X256528075Y-147823574D02*
X256482318Y-147884380D01*
X254516966Y-148536683D02*
X254526605Y-148490525D01*
X255188199Y-147666938D02*
X255262914Y-147605468D01*
X258137239Y-146637501D02*
G75*
G02X258160148Y-146641307I6462J-31952D01*
G01*
X258299384Y-147018615D02*
G75*
G02X258223332Y-147234611I-631594J100996D01*
G01*
X257232971Y-147378791D02*
G75*
G02X257265689Y-147408810I-114188J-157293D01*
G01*
X256446225Y-148173841D02*
G75*
G02X256374075Y-148083819I758284J681669D01*
G01*
X256374075Y-148083819D02*
G75*
G02X256309249Y-147981390I901520J642293D01*
G01*
X258188742Y-146665420D02*
G75*
G02X258223241Y-146711086I-425816J-357550D01*
G01*
X256309249Y-147981390D02*
G75*
G02X256259590Y-147877446I788851J440703D01*
G01*
X256600285Y-148190390D02*
G75*
G02X256437215Y-148044797I375904J585147D01*
G01*
X256203923Y-147736929D02*
X256259590Y-147877446D01*
X256201925Y-147710775D02*
G75*
G02X256211848Y-147709099I5303J-1185D01*
G01*
X257666974Y-147491442D02*
G75*
G02X257474665Y-147428812I145717J774003D01*
G01*
X257324524Y-147507790D02*
X257294129Y-147448977D01*
X257301760Y-148138671D02*
G75*
G02X257224877Y-148225673I-567055J423631D01*
G01*
X258223241Y-146711087D02*
G75*
G02X258262762Y-146782886I-367978J-249322D01*
G01*
X258160147Y-146641306D02*
G75*
G02X258188742Y-146665420I-55210J-94483D01*
G01*
X257244885Y-148027394D02*
G75*
G02X257178412Y-148129908I-336177J145179D01*
G01*
X256274247Y-147811882D02*
X256211848Y-147709099D01*
X258302689Y-146944042D02*
G75*
G02X258299384Y-147018615I-326502J-22891D01*
G01*
X257368105Y-147635112D02*
G75*
G02X257375554Y-147704315I-515536J-90491D01*
G01*
X257189885Y-147352384D02*
G75*
G02X257232971Y-147378790I-147181J-288498D01*
G01*
X257109833Y-147328482D02*
G75*
G02X257108199Y-147321093I15893J7389D01*
G01*
X256698559Y-147026043D02*
X257085513Y-147235923D01*
X255101087Y-147580712D02*
G75*
G02X255088785Y-147575209I-4846J5669D01*
G01*
X255088785Y-147575208D02*
G75*
G02X255093755Y-147545454I80781J1799D01*
G01*
X257324524Y-147507790D02*
G75*
G02X257352606Y-147576336I-716074J-333392D01*
G01*
X257278666Y-147902842D02*
G75*
G02X257244885Y-148027394I-449983J55185D01*
G01*
X257128409Y-147368089D02*
X257150633Y-147414001D01*
X255093755Y-147545454D02*
G75*
G02X255111529Y-147505480I315410J-116306D01*
G01*
X255111529Y-147505480D02*
G75*
G02X255134383Y-147468097I297630J-156277D01*
G01*
X256958506Y-148251455D02*
G75*
G02X256771719Y-148256565I-106461J475047D01*
G01*
X258119025Y-146650187D02*
G75*
G02X258137239Y-146637501I23748J-14678D01*
G01*
X257132194Y-147326002D02*
X257111526Y-147318678D01*
X257231517Y-147587726D02*
G75*
G02X257266021Y-147698706I-746572J-292964D01*
G01*
X257377837Y-147811523D02*
X257375554Y-147704315D01*
X255134383Y-147468097D02*
G75*
G02X255156193Y-147446830I68021J-47941D01*
G01*
X257108198Y-147321093D02*
G75*
G02X257111526Y-147318678I2540J0D01*
G01*
X256437215Y-148044798D02*
G75*
G02X256274247Y-147811882I1497346J1221146D01*
G01*
X257265689Y-147408810D02*
G75*
G02X257294129Y-147448977I-190431J-164981D01*
G01*
X256517791Y-148239857D02*
G75*
G02X256446225Y-148173841I316304J414697D01*
G01*
X257158548Y-147337139D02*
X257132194Y-147326002D01*
X257189885Y-147352384D02*
X257158548Y-147337139D01*
X256884113Y-148352228D02*
G75*
G02X256686242Y-148325473I-13015J648809D01*
G01*
X257347528Y-148054435D02*
G75*
G02X257301760Y-148138671I-313523J115796D01*
G01*
X257281470Y-147802704D02*
G75*
G02X257278666Y-147902842I-532282J-35203D01*
G01*
X257075392Y-148317620D02*
G75*
G02X256884114Y-148352228I-203594J579357D01*
G01*
X256686242Y-148325474D02*
G75*
G02X256517791Y-148239857I149204J502083D01*
G01*
X256771719Y-148256565D02*
G75*
G02X256600285Y-148190390I75331J450300D01*
G01*
X258078425Y-147398614D02*
G75*
G02X257884066Y-147487869I-305025J407974D01*
G01*
X257352606Y-147576336D02*
G75*
G02X257368106Y-147635112I-340939J-121341D01*
G01*
X257377837Y-147811524D02*
G75*
G02X257370864Y-147953390I-1392609J-2650D01*
G01*
X257370864Y-147953390D02*
G75*
G02X257347528Y-148054435I-407874J40979D01*
G01*
X257081384Y-148205483D02*
G75*
G02X256958506Y-148251455I-227501J420877D01*
G01*
X257266021Y-147698706D02*
G75*
G02X257281470Y-147802705I-629404J-146646D01*
G01*
X257085513Y-147235923D02*
X257474665Y-147428812D01*
X258223332Y-147234611D02*
G75*
G02X258078425Y-147398615I-466571J266225D01*
G01*
X257150633Y-147414001D02*
X257177001Y-147466499D01*
X257224877Y-148225672D02*
G75*
G02X257075392Y-148317620I-286783J298753D01*
G01*
X257109832Y-147328482D02*
X257128409Y-147368089D01*
X258262761Y-146782886D02*
G75*
G02X258289911Y-146862989I-461731J-201149D01*
G01*
X258289911Y-146862989D02*
G75*
G02X258302689Y-146944041I-461722J-114322D01*
G01*
X257884066Y-147487869D02*
G75*
G02X257666973Y-147491441I-117244J526789D01*
G01*
X256203923Y-147736929D02*
G75*
G02X256201924Y-147710774I41851J16352D01*
G01*
X257177001Y-147466500D02*
G75*
G02X257231517Y-147587726I-1217446J-620358D01*
G01*
X257178412Y-148129907D02*
G75*
G02X257081384Y-148205482I-273801J251453D01*
G01*
X258181647Y-146805869D02*
G75*
G02X258197138Y-146850860I-262732J-115622D01*
G01*
X258124939Y-146690428D02*
G75*
G02X258116918Y-146663222I249847J88450D01*
G01*
X255427784Y-147970737D02*
G75*
G02X255419981Y-147851523I950838J122093D01*
G01*
X256059350Y-146618565D02*
G75*
G02X256082331Y-146619622I10470J-22724D01*
G01*
X256028473Y-146785030D02*
X256083629Y-146722595D01*
X255864128Y-146978243D02*
X256028473Y-146785030D01*
X255419981Y-147851523D02*
X255422407Y-147769255D01*
X255451826Y-148056777D02*
G75*
G02X255427783Y-147970738I283022J125468D01*
G01*
X256108346Y-146686923D02*
G75*
G02X256083629Y-146722595I-188836J104447D01*
G01*
X255422407Y-147769255D02*
G75*
G02X255430697Y-147705688I472958J-29353D01*
G01*
X258138592Y-146723150D02*
G75*
G02X258124939Y-146690428I290093J140252D01*
G01*
X258208198Y-146958923D02*
G75*
G02X258200680Y-147059477I-676177J0D01*
G01*
X256082331Y-146619621D02*
G75*
G02X256107988Y-146641270I-47610J-82455D01*
G01*
X256107988Y-146641270D02*
G75*
G02X256115155Y-146662114I-23974J-19896D01*
G01*
X255430697Y-147705687D02*
G75*
G02X255447281Y-147645125I440709J-88130D01*
G01*
X258197137Y-146850860D02*
G75*
G02X258205490Y-146899552I-304430J-77284D01*
G01*
X258157191Y-146758001D02*
G75*
G02X258181647Y-146805869I-401683J-235402D01*
G01*
X255701078Y-147196980D02*
X255864128Y-146978243D01*
X255475747Y-147572655D02*
G75*
G02X255562020Y-147407946I1198563J-522849D01*
G01*
X255447281Y-147645125D02*
X255475746Y-147572655D01*
X258177605Y-147138872D02*
G75*
G02X258134270Y-147209676I-286725J126822D01*
G01*
X256029484Y-146639455D02*
G75*
G02X256059350Y-146618565I72796J-72283D01*
G01*
X258138592Y-146723149D02*
X258157191Y-146758001D01*
X258116918Y-146663222D02*
G75*
G02X258119024Y-146650188I16757J3980D01*
G01*
X256029483Y-146639455D02*
X255963631Y-146707785D01*
X256115155Y-146662114D02*
G75*
G02X256108347Y-146686923I-54669J1663D01*
G01*
X255562020Y-147407946D02*
X255701078Y-147196980D01*
X258200679Y-147059476D02*
G75*
G02X258177604Y-147138871I-306927J46155D01*
G01*
X258205491Y-146899552D02*
G75*
G02X258208199Y-146958923I-649478J-59371D01*
G01*
X256388697Y-144796860D02*
G75*
G02X256373445Y-144776939I3988J18853D01*
G01*
X257009563Y-144784778D02*
G75*
G02X257131035Y-144872455I-210575J-419724D01*
G01*
X256524734Y-144772691D02*
G75*
G02X256700271Y-144733532I272754J-809654D01*
G01*
X256691053Y-146434439D02*
G75*
G02X256664881Y-146417095I29661J73176D01*
G01*
X256917467Y-145933645D02*
X256733747Y-146219806D01*
X256578943Y-144661052D02*
G75*
G02X256658199Y-144644434I184770J-683901D01*
G01*
X256524735Y-144772690D02*
G75*
G02X256440424Y-144796448I-278272J826036D01*
G01*
X256945019Y-146089577D02*
X257097070Y-145836015D01*
X256738492Y-146403166D02*
G75*
G02X256712246Y-146431309I-111618J77789D01*
G01*
X256664882Y-146417096D02*
G75*
G02X256645721Y-146389056I64946J64947D01*
G01*
X256733747Y-146219806D02*
X256663734Y-146324299D01*
X257197349Y-145400809D02*
X257077133Y-145649573D01*
X257240673Y-145248083D02*
G75*
G02X257197349Y-145400809I-551761J74013D01*
G01*
X256386586Y-144743468D02*
G75*
G02X256419545Y-144718328I71029J-58948D01*
G01*
X257233846Y-145034285D02*
G75*
G02X257247948Y-145129145I-338493J-98799D01*
G01*
X257247949Y-145129145D02*
G75*
G02X257240674Y-145248083I-825231J-9218D01*
G01*
X256440424Y-144796448D02*
G75*
G02X256388697Y-144796861I-26801J117422D01*
G01*
X256808093Y-146301680D02*
X256945019Y-146089577D01*
X256644700Y-146362799D02*
G75*
G02X256663734Y-146324299I164856J-57544D01*
G01*
X256373444Y-144776939D02*
G75*
G02X256386585Y-144743467I57307J-3182D01*
G01*
X256712245Y-146431309D02*
G75*
G02X256691053Y-146434439I-13256J16449D01*
G01*
X256493920Y-144687983D02*
X256419545Y-144718328D01*
X256645721Y-146389055D02*
G75*
G02X256644701Y-146362799I32874J14425D01*
G01*
X257077133Y-145649573D02*
X256917467Y-145933645D01*
X256738493Y-146403167D02*
X256808093Y-146301680D01*
X257195924Y-144952159D02*
G75*
G02X257233846Y-145034284I-255329J-167720D01*
G01*
X257131035Y-144872456D02*
G75*
G02X257195924Y-144952160I-356511J-356510D01*
G01*
X256864161Y-144737552D02*
G75*
G02X257009563Y-144784778I-82526J-501538D01*
G01*
X256700271Y-144733532D02*
G75*
G02X256864161Y-144737552I67531J-589624D01*
G01*
X256578942Y-144661053D02*
X256493920Y-144687983D01*
X255555867Y-145294328D02*
G75*
G02X255548199Y-145193809I655008J100519D01*
G01*
X255699502Y-145687218D02*
X255622761Y-145514970D01*
X256520272Y-145202019D02*
G75*
G02X256514369Y-145204562I-3419J-186D01*
G01*
X256458575Y-145110467D02*
X256499236Y-145184033D01*
X255786118Y-145872913D02*
X255699502Y-145687218D01*
X256123320Y-144770117D02*
G75*
G02X256242566Y-144825561I-79532J-327007D01*
G01*
X255968199Y-144751523D02*
G75*
G02X256123320Y-144770116I-1J-656405D01*
G01*
X255784305Y-144779564D02*
G75*
G02X255968199Y-144751523I183894J-588972D01*
G01*
X255652667Y-144861534D02*
G75*
G02X255784305Y-144779564I223498J-212238D01*
G01*
X256346910Y-144931484D02*
G75*
G02X256458575Y-145110467I-1458422J-1034216D01*
G01*
X256242566Y-144825561D02*
G75*
G02X256346909Y-144931484I-273835J-374103D01*
G01*
X255622761Y-145514970D02*
G75*
G02X255578707Y-145394163I1135538J482528D01*
G01*
X255548198Y-145193809D02*
G75*
G02X255574499Y-144999806I728663J0D01*
G01*
X256156061Y-145021005D02*
X256120187Y-145120229D01*
X256516530Y-145171524D02*
G75*
G02X256520272Y-145202018I-223727J-42925D01*
G01*
X256377215Y-144861321D02*
G75*
G02X256437160Y-144964617I-1064447J-686757D01*
G01*
X255578707Y-145394163D02*
G75*
G02X255555867Y-145294328I674597J206864D01*
G01*
X256156060Y-145021004D02*
G75*
G02X256189587Y-144953853I412750J-164130D01*
G01*
X255766974Y-144677626D02*
G75*
G02X255911245Y-144655977I157159J-555761D01*
G01*
X255911245Y-144655977D02*
G75*
G02X256058903Y-144670516I13775J-617151D01*
G01*
X256058902Y-144670517D02*
G75*
G02X256199887Y-144720094I-135914J-611756D01*
G01*
X256199887Y-144720094D02*
G75*
G02X256324520Y-144801497I-272641J-553536D01*
G01*
X256324520Y-144801497D02*
G75*
G02X256377216Y-144861321I-172703J-205246D01*
G01*
X256488859Y-145077290D02*
G75*
G02X256516531Y-145171523I-475103J-190697D01*
G01*
X256437161Y-144964618D02*
G75*
G02X256488859Y-145077291I-1135191J-589064D01*
G01*
X256514369Y-145204563D02*
G75*
G02X256499236Y-145184033I74700J70908D01*
G01*
X255574499Y-144999807D02*
G75*
G02X255652666Y-144861535I315564J-87162D01*
G01*
X255494687Y-144898279D02*
G75*
G02X255544449Y-144819025I459296J-233132D01*
G01*
X256658198Y-144644435D02*
G75*
G02X256738545Y-144639323I69831J-463613D01*
G01*
X256946933Y-144661468D02*
X256841571Y-144645913D01*
X255703832Y-145827219D02*
G75*
G02X255658967Y-145797247I159849J287847D01*
G01*
X255624945Y-145763189D02*
G75*
G02X255593846Y-145715849I250649J198544D01*
G01*
X255432185Y-145227440D02*
G75*
G02X255440864Y-145056806I636682J53156D01*
G01*
X255440864Y-145056806D02*
G75*
G02X255494688Y-144898279I579828J-108466D01*
G01*
X255544449Y-144819025D02*
G75*
G02X255603973Y-144757725I285967J-218132D01*
G01*
X257097070Y-145836015D02*
X257232836Y-145597199D01*
X257204338Y-144791804D02*
G75*
G02X257273060Y-144873632I-383721J-392032D01*
G01*
X255676966Y-144711595D02*
G75*
G02X255766974Y-144677626I243660J-509393D01*
G01*
X256841571Y-144645913D02*
X256738545Y-144639323D01*
X257035533Y-144684330D02*
G75*
G02X257122114Y-144725859I-115545J-351908D01*
G01*
X257343970Y-145203027D02*
G75*
G02X257326302Y-145347594I-1118720J63361D01*
G01*
X257319578Y-144962354D02*
G75*
G02X257342630Y-145065235I-342253J-130708D01*
G01*
X257326302Y-145347594D02*
G75*
G02X257290642Y-145473253I-715096J135041D01*
G01*
X257290643Y-145473254D02*
G75*
G02X257232836Y-145597199I-912510J350132D01*
G01*
X257273060Y-144873632D02*
G75*
G02X257319579Y-144962354I-350614J-240388D01*
G01*
X255703833Y-145827218D02*
X255786118Y-145872913D01*
X255658967Y-145797247D02*
G75*
G02X255624945Y-145763189I130478J164361D01*
G01*
X257122114Y-144725859D02*
G75*
G02X257204339Y-144791804I-291781J-448051D01*
G01*
X256946933Y-144661468D02*
G75*
G02X257035533Y-144684330I-132072J-694950D01*
G01*
X255470218Y-145419111D02*
G75*
G02X255432185Y-145227440I828597J264024D01*
G01*
X257342630Y-145065235D02*
G75*
G02X257343970Y-145203028I-1036909J-78988D01*
G01*
X255603973Y-144757724D02*
G75*
G02X255676966Y-144711595I232002J-286293D01*
G01*
X255556740Y-145641523D02*
X255593846Y-145715849D01*
X255556741Y-145641523D02*
G75*
G02X255470218Y-145419111I1732706J802088D01*
G01*
X254534813Y-146823681D02*
G75*
G02X254575941Y-146679668I408884J-38894D01*
G01*
X256632932Y-146633131D02*
X256689935Y-146700727D01*
X254959814Y-146251239D02*
X254857932Y-146318815D01*
X256689935Y-146700727D02*
X256743311Y-146768162D01*
X254673561Y-146539888D02*
G75*
G02X254852302Y-146369370I1753167J-1658776D01*
G01*
X254585935Y-147148409D02*
G75*
G02X254562844Y-147108071I183764J131973D01*
G01*
X254537445Y-147002422D02*
G75*
G02X254534812Y-146823681I811077J101338D01*
G01*
X254562844Y-147108071D02*
G75*
G02X254547917Y-147062757I221110J97949D01*
G01*
X256743311Y-146768162D02*
X256783585Y-146824092D01*
X256506363Y-146496629D02*
X256581051Y-146576243D01*
X254852302Y-146369370D02*
X254957991Y-146277397D01*
X254575942Y-146679668D02*
G75*
G02X254673561Y-146539888I517255J-257263D01*
G01*
X254547917Y-147062757D02*
G75*
G02X254537445Y-147002422I628686J140193D01*
G01*
X256483780Y-146464622D02*
G75*
G02X256483037Y-146443006I21982J11576D01*
G01*
X254959813Y-146251238D02*
G75*
G02X254968746Y-146256740I3168J-4860D01*
G01*
X256783585Y-146824092D02*
X256824420Y-146879294D01*
X256868133Y-146928277D02*
G75*
G02X256824420Y-146879294I478344J470880D01*
G01*
X256581051Y-146576243D02*
X256632932Y-146633131D01*
X254968747Y-146256740D02*
G75*
G02X254957991Y-146277397I-32074J3571D01*
G01*
X256506364Y-146496630D02*
G75*
G02X256483780Y-146464623I111357J102544D01*
G01*
X256483036Y-146443006D02*
G75*
G02X256499759Y-146421879I49131J-21706D01*
G01*
X257022532Y-147036122D02*
X257049330Y-147049681D01*
X256955854Y-146999092D02*
X256990996Y-147019181D01*
X256955854Y-146999092D02*
G75*
G02X256912647Y-146968963I169096J288540D01*
G01*
X256912647Y-146968963D02*
G75*
G02X256868134Y-146928277I363020J441860D01*
G01*
X257668760Y-146414901D02*
G75*
G02X257670743Y-146405728I2307J4302D01*
G01*
X257670743Y-146405728D02*
G75*
G02X257704058Y-146411470I4773J-71825D01*
G01*
X257980136Y-146564760D02*
G75*
G02X257961918Y-146563896I-7778J28488D01*
G01*
X256550154Y-146392160D02*
G75*
G02X256557816Y-146394906I559J-10503D01*
G01*
X257853199Y-146476839D02*
X257704058Y-146411470D01*
X257948542Y-146524331D02*
X257904938Y-146501103D01*
X257983143Y-146545069D02*
G75*
G02X257988199Y-146554201I-5719J-9132D01*
G01*
X256590745Y-146425492D02*
X256557816Y-146394906D01*
X257065020Y-147036566D02*
G75*
G02X257057207Y-147051523I-7813J-5438D01*
G01*
X257057208Y-147051523D02*
G75*
G02X257049330Y-147049681I-1J17764D01*
G01*
X256990996Y-147019181D02*
X257022532Y-147036122D01*
X257904938Y-146501103D02*
X257853199Y-146476839D01*
X257961918Y-146563896D02*
G75*
G02X257919879Y-146545329I148955J394139D01*
G01*
X256543394Y-146393991D02*
X256530419Y-146401152D01*
X257983143Y-146545070D02*
X257948542Y-146524331D01*
X256515353Y-146410696D02*
X256499759Y-146421879D01*
X257988199Y-146554201D02*
G75*
G02X257980136Y-146564760I-10946J0D01*
G01*
X256543393Y-146393991D02*
G75*
G02X256550154Y-146392160I7648J-14839D01*
G01*
X257065021Y-147036565D02*
X256912560Y-146819324D01*
X257793919Y-146480778D02*
X257919879Y-146545329D01*
X256530419Y-146401152D02*
X256515353Y-146410696D01*
X256628738Y-146462493D02*
X256590745Y-146425492D01*
X256671546Y-146506523D02*
X256628738Y-146462493D01*
X256671546Y-146506523D02*
G75*
G02X256766717Y-146619083I-909610J-865603D01*
G01*
X256912560Y-146819324D02*
X256766717Y-146619083D01*
X258204744Y-146304093D02*
X258166543Y-146387950D01*
X258214127Y-145944330D02*
G75*
G02X258225242Y-146074383I-1402414J-185366D01*
G01*
X257104800Y-145967159D02*
G75*
G02X257082421Y-145974220I-50753J121869D01*
G01*
X257807966Y-145695219D02*
X257920734Y-145692385D01*
X257402002Y-145805313D02*
G75*
G02X257542183Y-145742569I533030J-1002901D01*
G01*
X258021191Y-145709108D02*
G75*
G02X258066360Y-145734704I-125307J-273777D01*
G01*
X258130366Y-146452668D02*
X258083157Y-146521903D01*
X257664772Y-145709965D02*
G75*
G02X257807966Y-145695219I186503J-1108439D01*
G01*
X257542183Y-145742569D02*
G75*
G02X257664772Y-145709965I235614J-639131D01*
G01*
X257138433Y-145874734D02*
X257078881Y-145969321D01*
X257978871Y-145696458D02*
G75*
G02X258021191Y-145709107I-24113J-157794D01*
G01*
X257968738Y-146656523D02*
X257918634Y-146708304D01*
X258028237Y-146591282D02*
X257968738Y-146656523D01*
X258083157Y-146521903D02*
X258028237Y-146591282D01*
X258227452Y-146185122D02*
G75*
G02X258221679Y-146247613I-338141J-273D01*
G01*
X258221678Y-146247612D02*
G75*
G02X258204744Y-146304093I-273257J51152D01*
G01*
X257142267Y-145949513D02*
X257190289Y-145922925D01*
X258190109Y-145862192D02*
G75*
G02X258214126Y-145944330I-254237J-118917D01*
G01*
X258066360Y-145734703D02*
G75*
G02X258145051Y-145799040I-345065J-502352D01*
G01*
X257183559Y-145818986D02*
G75*
G02X257234343Y-145777098I218214J-212829D01*
G01*
X258166544Y-146387950D02*
G75*
G02X258130366Y-146452668I-635535J312795D01*
G01*
X257082420Y-145974220D02*
G75*
G02X257078881Y-145969321I-707J3217D01*
G01*
X258145052Y-145799041D02*
G75*
G02X258190110Y-145862192I-148836J-153843D01*
G01*
X257190289Y-145922925D02*
X257402003Y-145805314D01*
X257920733Y-145692385D02*
G75*
G02X257978870Y-145696458I4186J-357140D01*
G01*
X257138432Y-145874734D02*
G75*
G02X257183559Y-145818986I323319J-215579D01*
G01*
X258225242Y-146074383D02*
X258227452Y-146185122D01*
X257142267Y-145949513D02*
G75*
G02X257104800Y-145967159I-212329J402237D01*
G01*
X257830251Y-145592361D02*
G75*
G02X257977812Y-145600959I-129J-1272726D01*
G01*
X258300709Y-146277235D02*
G75*
G02X258258794Y-146385990I-517244J136893D01*
G01*
X256552963Y-146320919D02*
G75*
G02X256582094Y-146301895I229426J-319510D01*
G01*
X256458053Y-146392619D02*
X256508175Y-146353880D01*
X258079026Y-145629116D02*
G75*
G02X258190995Y-145708575I-149710J-329586D01*
G01*
X256282392Y-146509973D02*
G75*
G02X256259196Y-146492626I32759J67986D01*
G01*
X257937869Y-146729296D02*
X258016434Y-146663935D01*
X257977812Y-145600960D02*
G75*
G02X258079026Y-145629117I-39474J-337881D01*
G01*
X258190995Y-145708575D02*
G75*
G02X258272412Y-145827983I-319180J-305090D01*
G01*
X256259196Y-146492625D02*
G75*
G02X256244180Y-146468656I59914J54221D01*
G01*
X258322095Y-146153524D02*
G75*
G02X258300709Y-146277235I-715450J59980D01*
G01*
X257547633Y-145629063D02*
G75*
G02X257675451Y-145601391I206748J-645958D01*
G01*
X257844348Y-146791524D02*
G75*
G02X257843381Y-146789329I1J1311D01*
G01*
X256517003Y-146225825D02*
X256444609Y-146278778D01*
X257877723Y-146751867D02*
X257843381Y-146789329D01*
X256629869Y-146261760D02*
G75*
G02X256582094Y-146301895I-144807J123868D01*
G01*
X256334727Y-146492889D02*
X256409239Y-146432251D01*
X257675451Y-145601391D02*
G75*
G02X257830251Y-145592361I154666J-1320015D01*
G01*
X256508175Y-146353880D02*
X256552963Y-146320919D01*
X256327470Y-146370198D02*
X256265040Y-146424306D01*
X256409239Y-146432251D02*
X256458053Y-146392619D01*
X256334726Y-146492889D02*
G75*
G02X256304149Y-146510696I-76352J95954D01*
G01*
X256304150Y-146510696D02*
G75*
G02X256282392Y-146509973I-10060J25000D01*
G01*
X256244180Y-146468656D02*
G75*
G02X256245425Y-146448767I21409J8644D01*
G01*
X256245424Y-146448767D02*
G75*
G02X256265040Y-146424306I82277J-45883D01*
G01*
X256444609Y-146278778D02*
X256377258Y-146329956D01*
X256583617Y-146179243D02*
X256517003Y-146225825D01*
X258272413Y-145827983D02*
G75*
G02X258317212Y-145979802I-489941J-227093D01*
G01*
X257918634Y-146708304D02*
X257877723Y-146751867D01*
X258258794Y-146385991D02*
G75*
G02X258191922Y-146488153I-529634J273714D01*
G01*
X258191921Y-146488152D02*
G75*
G02X258095340Y-146592293I-840973J683073D01*
G01*
X257867258Y-146783868D02*
G75*
G02X257844349Y-146791523I-22909J30450D01*
G01*
X257867259Y-146783868D02*
X257937869Y-146729296D01*
X258317211Y-145979802D02*
G75*
G02X258322095Y-146153524I-771644J-108622D01*
G01*
X258016434Y-146663935D02*
X258095340Y-146592293D01*
X256377258Y-146329956D02*
X256327470Y-146370198D01*
X254738119Y-146537881D02*
G75*
G02X254761058Y-146536589I13428J-34136D01*
G01*
X254990368Y-146640379D02*
G75*
G02X255018169Y-146658236I-68992J-137981D01*
G01*
X254911005Y-146601523D02*
X254808674Y-146553696D01*
X255018169Y-146658237D02*
G75*
G02X255017082Y-146667077I-3290J-4082D01*
G01*
X254997634Y-146671328D02*
G75*
G02X254932955Y-146660589I671J204190D01*
G01*
X255017082Y-146667077D02*
G75*
G02X254997634Y-146671328I-19297J41674D01*
G01*
X254932955Y-146660589D02*
G75*
G02X254836820Y-146623229I367853J1088924D01*
G01*
X257668760Y-146414901D02*
X257793919Y-146480778D01*
X254744403Y-146579041D02*
G75*
G02X254728199Y-146552444I13727J26597D01*
G01*
X254990368Y-146640378D02*
X254911005Y-146601523D01*
X255929559Y-147021580D02*
G75*
G02X255895984Y-147031523I-33575J51715D01*
G01*
X255895984Y-147031524D02*
G75*
G02X255888655Y-147014792I0J9971D01*
G01*
X255985852Y-146913577D02*
X255888655Y-147014792D01*
X256242089Y-146703104D02*
X256186558Y-146740830D01*
X254761058Y-146536589D02*
G75*
G02X254808674Y-146553696I-79490J-296075D01*
G01*
X256095395Y-146810666D02*
X255985852Y-146913577D01*
X256095394Y-146810666D02*
G75*
G02X256186558Y-146740830I550219J-623829D01*
G01*
X256300092Y-146661780D02*
X256242089Y-146703104D01*
X256352336Y-146622926D02*
X256300092Y-146661780D01*
X254744402Y-146579041D02*
X254836820Y-146623229D01*
X256388199Y-146594059D02*
X256352336Y-146622926D01*
X254728199Y-146552445D02*
G75*
G02X254738119Y-146537881I15649J1D01*
G01*
X256511353Y-146587564D02*
G75*
G02X256521942Y-146601641I-97327J-84232D01*
G01*
X256528207Y-146613116D02*
G75*
G02X256527087Y-146618556I-4321J-1946D01*
G01*
X256196972Y-146847283D02*
X256444351Y-146683544D01*
X255929559Y-147021580D02*
X256196972Y-146847283D01*
X256471463Y-146550942D02*
G75*
G02X256497087Y-146572409I-127157J-177808D01*
G01*
X256527088Y-146618557D02*
G75*
G02X256444351Y-146683544I-468843J511731D01*
G01*
X256454121Y-146547205D02*
G75*
G02X256471463Y-146550942I4354J-21899D01*
G01*
X256433998Y-146556488D02*
X256388199Y-146594059D01*
X256433998Y-146556488D02*
G75*
G02X256454121Y-146547204I29365J-37198D01*
G01*
X256511353Y-146587564D02*
X256497087Y-146572409D01*
X256521942Y-146601641D02*
G75*
G02X256528207Y-146613116I-71574J-46529D01*
G01*
X256697242Y-146104512D02*
X256643953Y-146138798D01*
X256643953Y-146138798D02*
X256583617Y-146179243D01*
X255982395Y-146404231D02*
G75*
G02X255900176Y-146281604I1320235J974078D01*
G01*
X256743055Y-146076080D02*
X256697242Y-146104512D01*
X256743055Y-146076079D02*
G75*
G02X256753352Y-146072726I12133J-19770D01*
G01*
X256753353Y-146072726D02*
G75*
G02X256761680Y-146086951I724J-9126D01*
G01*
X256699668Y-146174502D02*
X256761680Y-146086951D01*
X256629869Y-146261760D02*
X256699668Y-146174502D01*
X256209097Y-146522256D02*
X256169671Y-146474572D01*
X254621830Y-147192909D02*
G75*
G02X254585935Y-147148409I379318J342691D01*
G01*
X254762950Y-147284626D02*
G75*
G02X254621829Y-147192909I101986J311349D01*
G01*
X254450409Y-147068887D02*
G75*
G02X254439417Y-146940810I747390J128655D01*
G01*
X254439417Y-146940810D02*
G75*
G02X254464274Y-146768973I603199J460D01*
G01*
X254464274Y-146768973D02*
G75*
G02X254536962Y-146614646I539754J-159942D01*
G01*
X254870051Y-147410333D02*
G75*
G02X254779395Y-147400652I5670J482426D01*
G01*
X256273133Y-146609251D02*
G75*
G02X256265500Y-146624775I-36128J8125D01*
G01*
X256217756Y-146651523D02*
G75*
G02X256176061Y-146633552I0J57355D01*
G01*
X255530386Y-147178343D02*
X255591668Y-147089273D01*
X255186299Y-147268770D02*
G75*
G02X254952935Y-147310892I-269670J826523D01*
G01*
X255454933Y-147158088D02*
G75*
G02X255186299Y-147268770I-866477J1721677D01*
G01*
X255530387Y-147178344D02*
G75*
G02X255446082Y-147263516I-279362J192206D01*
G01*
X255446082Y-147263516D02*
G75*
G02X255319411Y-147334604I-412377J586412D01*
G01*
X255166407Y-147384822D02*
G75*
G02X255002735Y-147407627I-214231J938797D01*
G01*
X256260345Y-146574925D02*
G75*
G02X256271874Y-146593451I-46184J-41591D01*
G01*
X254870052Y-147410333D02*
X255002735Y-147407627D01*
X254483411Y-147173761D02*
G75*
G02X254450409Y-147068887I371281J174466D01*
G01*
X256169671Y-146474572D02*
X256126236Y-146418661D01*
X255820663Y-146136295D02*
G75*
G02X255823629Y-146131626I2943J1407D01*
G01*
X256265500Y-146624775D02*
G75*
G02X256255119Y-146635010I-56309J46732D01*
G01*
X254779395Y-147400653D02*
G75*
G02X254703648Y-147375664I67839J332936D01*
G01*
X255820663Y-146136295D02*
X255840105Y-146175640D01*
X254536962Y-146614645D02*
G75*
G02X254665226Y-146468135I638701J-429755D01*
G01*
X255870952Y-146146543D02*
G75*
G02X255941940Y-146201970I-431662J-626019D01*
G01*
X256017363Y-146276909D02*
G75*
G02X256084601Y-146361523I-705953J-630003D01*
G01*
X254665226Y-146468136D02*
G75*
G02X254857932Y-146318815I1231577J-1390404D01*
G01*
X254703649Y-147375664D02*
G75*
G02X254622357Y-147330122I265008J568361D01*
G01*
X254622357Y-147330121D02*
G75*
G02X254540309Y-147259421I237551J358636D01*
G01*
X256229149Y-146649594D02*
G75*
G02X256217756Y-146651523I-11393J32686D01*
G01*
X255982396Y-146404231D02*
X256080704Y-146527674D01*
X255866265Y-146224040D02*
X255900176Y-146281604D01*
X256235527Y-146549775D02*
G75*
G02X256209097Y-146522256I218858J236644D01*
G01*
X256235526Y-146549775D02*
G75*
G02X256260345Y-146574925I-262840J-284200D01*
G01*
X256242318Y-146643666D02*
G75*
G02X256229150Y-146649595I-40319J71965D01*
G01*
X254952936Y-147310892D02*
G75*
G02X254762951Y-147284625I-22473J537667D01*
G01*
X256126236Y-146418661D02*
X256084601Y-146361523D01*
X255591668Y-147089273D02*
X255454933Y-147158088D01*
X255319412Y-147334603D02*
G75*
G02X255166407Y-147384822I-346348J797049D01*
G01*
X254540309Y-147259421D02*
G75*
G02X254483412Y-147173761I260765J234931D01*
G01*
X255840105Y-146175640D02*
X255866265Y-146224040D01*
X256271874Y-146593451D02*
G75*
G02X256273133Y-146609251I-24845J-9930D01*
G01*
X256255118Y-146635010D02*
G75*
G02X256242318Y-146643666I-57853J71760D01*
G01*
X256080704Y-146527674D02*
X256176061Y-146633552D01*
X255823629Y-146131627D02*
G75*
G02X255870952Y-146146543I-593J-84407D01*
G01*
X255941940Y-146201969D02*
G75*
G02X256017363Y-146276909I-585974J-665180D01*
G01*
X257646954Y-147387932D02*
G75*
G02X257446055Y-147309029I480227J1517954D01*
G01*
X257801234Y-147408553D02*
G75*
G02X257646954Y-147387931I-18317J450386D01*
G01*
X257213563Y-147195656D02*
X257016193Y-147092031D01*
X256668871Y-146882842D02*
X256533811Y-146794994D01*
X257933750Y-147374220D02*
G75*
G02X257801234Y-147408553I-145681J289377D01*
G01*
X258064468Y-147283877D02*
G75*
G02X257933750Y-147374219I-389768J424227D01*
G01*
X256839184Y-146990280D02*
X256668871Y-146882842D01*
X258134270Y-147209676D02*
G75*
G02X258064468Y-147283878I-543252J441106D01*
G01*
X256410920Y-146770299D02*
G75*
G02X256441906Y-146758594I34544J-44581D01*
G01*
X256441906Y-146758594D02*
G75*
G02X256477314Y-146764823I4825J-76327D01*
G01*
X256477315Y-146764822D02*
G75*
G02X256533811Y-146794994I-162053J-371430D01*
G01*
X257016193Y-147092031D02*
X256839184Y-146990280D01*
X257446055Y-147309029D02*
X257213563Y-147195656D01*
X255368157Y-148111054D02*
G75*
G02X255323116Y-147975621I416878J213846D01*
G01*
X255661385Y-147090525D02*
X255510097Y-147312112D01*
X255826539Y-146868515D02*
X255661385Y-147090525D01*
X255497142Y-148125755D02*
G75*
G02X255451826Y-148056776I185790J171432D01*
G01*
X255457665Y-148228642D02*
G75*
G02X255408940Y-148176258I223419J256664D01*
G01*
X255570393Y-148190815D02*
G75*
G02X255497142Y-148125755I289787J400041D01*
G01*
X256038541Y-148252915D02*
G75*
G02X255874249Y-148283940I-180469J505152D01*
G01*
X255521323Y-148274439D02*
G75*
G02X255457664Y-148228642I214674J365545D01*
G01*
X255426876Y-147461523D02*
G75*
G02X255510097Y-147312112I1090581J-509559D01*
G01*
X255874250Y-148283940D02*
G75*
G02X255714365Y-148262488I-14941J495195D01*
G01*
X255995623Y-148363734D02*
G75*
G02X255861269Y-148373033I-119238J747565D01*
G01*
X255714365Y-148262488D02*
G75*
G02X255570393Y-148190814I143232J468147D01*
G01*
X255861269Y-148373033D02*
G75*
G02X255725420Y-148358289I15497J775976D01*
G01*
X255323116Y-147975621D02*
G75*
G02X255317223Y-147824566I578574J98216D01*
G01*
X255317223Y-147824565D02*
G75*
G02X255351532Y-147654396I796163J-71978D01*
G01*
X256195141Y-148171965D02*
G75*
G02X256038541Y-148252915I-378611J540485D01*
G01*
X256251569Y-148134173D02*
X256195141Y-148171965D01*
X256286825Y-148116050D02*
G75*
G02X256310350Y-148111713I22563J-56414D01*
G01*
X255826539Y-146868516D02*
G75*
G02X255963631Y-146707785I1820798J-1414179D01*
G01*
X256108199Y-148329990D02*
G75*
G02X255995623Y-148363735I-182344J403662D01*
G01*
X255408940Y-148176258D02*
G75*
G02X255368157Y-148111054I362387J272018D01*
G01*
X256251569Y-148134173D02*
G75*
G02X256286825Y-148116050I113388J-177227D01*
G01*
X256310350Y-148111714D02*
G75*
G02X256326468Y-148119439I-339J-21383D01*
G01*
X255351532Y-147654396D02*
G75*
G02X255426877Y-147461523I1526630J-485221D01*
G01*
X256326467Y-148119440D02*
G75*
G02X256327455Y-148154735I-22022J-18277D01*
G01*
X256327456Y-148154735D02*
G75*
G02X256272610Y-148217255I-401868J297224D01*
G01*
X256272610Y-148217254D02*
G75*
G02X256193984Y-148281557I-431109J446912D01*
G01*
X256193984Y-148281557D02*
G75*
G02X256108199Y-148329990I-312199J452788D01*
G01*
X255725421Y-148358288D02*
G75*
G02X255608199Y-148320004I100919J507603D01*
G01*
X255608199Y-148320004D02*
G75*
G02X255521324Y-148274439I431265J927849D01*
G01*
X256116817Y-145213128D02*
G75*
G02X256107581Y-145231988I-168017J70588D01*
G01*
X256099469Y-145244364D02*
G75*
G02X256094702Y-145244694I-2527J1910D01*
G01*
X256126088Y-145188981D02*
G75*
G02X256139009Y-145157486I298345J-104003D01*
G01*
X256116817Y-145213127D02*
X256126088Y-145188981D01*
X256094702Y-145244694D02*
G75*
G02X256088815Y-145221683I16474J16473D01*
G01*
X256107581Y-145231988D02*
G75*
G02X256099469Y-145244365I-96082J54127D01*
G01*
X256120187Y-145120229D02*
X256088815Y-145221683D01*
X255154879Y-145629315D02*
X255082631Y-145614209D01*
X255636757Y-145852689D02*
X255345180Y-145703393D01*
X256317635Y-146226985D02*
X256214907Y-146166838D01*
X256349886Y-146270180D02*
G75*
G02X256333015Y-146295596I-71332J29045D01*
G01*
X255796255Y-146052921D02*
X256046306Y-146191347D01*
X254939660Y-145693373D02*
G75*
G02X255124632Y-145733467I-85389J-840676D01*
G01*
X254641368Y-145767027D02*
G75*
G02X254775894Y-145704677I225146J-309478D01*
G01*
X256139009Y-145157486D02*
X256160387Y-145114697D01*
X256317635Y-146226985D02*
G75*
G02X256346317Y-146250317I-65213J-109460D01*
G01*
X256333015Y-146295596D02*
G75*
G02X256302099Y-146312778I-45547J45546D01*
G01*
X254385514Y-146213992D02*
G75*
G02X254362484Y-146081354I370448J132639D01*
G01*
X254606591Y-146414792D02*
G75*
G02X254608652Y-146434700I-35915J-13779D01*
G01*
X256258578Y-144923254D02*
G75*
G02X256254302Y-144946885I-78517J2005D01*
G01*
X254599800Y-146450194D02*
G75*
G02X254536355Y-146449141I-31109J37485D01*
G01*
X256239981Y-144902489D02*
G75*
G02X256252362Y-144907687I-170J-17749D01*
G01*
X254706269Y-145609818D02*
G75*
G02X254755159Y-145598232I81644J-235565D01*
G01*
X255948176Y-146017931D02*
X255636757Y-145852689D01*
X256046306Y-146191347D02*
X256209318Y-146284084D01*
X255525139Y-145913517D02*
X255796255Y-146052921D01*
X254591336Y-146385869D02*
G75*
G02X254606591Y-146414792I-113298J-78244D01*
G01*
X256254302Y-144946885D02*
G75*
G02X256239352Y-144980096I-190474J65772D01*
G01*
X254467969Y-146126530D02*
G75*
G02X254477945Y-146040753I515835J-16524D01*
G01*
X254446664Y-145824601D02*
G75*
G02X254540635Y-145711822I516390J-334730D01*
G01*
X254755159Y-145598231D02*
G75*
G02X254816970Y-145594440I57750J-435764D01*
G01*
X254918199Y-145597157D02*
X254816970Y-145594440D01*
X256267277Y-146310693D02*
G75*
G02X256209318Y-146284084I133581J367381D01*
G01*
X256210027Y-144923229D02*
G75*
G02X256226262Y-144906918I60784J-44264D01*
G01*
X254540635Y-145711822D02*
G75*
G02X254653617Y-145632222I333313J-353110D01*
G01*
X257432326Y-145673894D02*
X257366936Y-145703540D01*
X257496237Y-145647417D02*
X257432326Y-145673894D01*
X257234343Y-145777098D02*
G75*
G02X257310360Y-145731985I529047J-804859D01*
G01*
X257366936Y-145703540D02*
X257310360Y-145731985D01*
X254529724Y-146300412D02*
X254504732Y-146260330D01*
X257547633Y-145629063D02*
X257496237Y-145647417D01*
X255082631Y-145614209D02*
X255003063Y-145603362D01*
X255217608Y-145648378D02*
G75*
G02X255345180Y-145703393I-394963J-1091287D01*
G01*
X254503107Y-145953307D02*
G75*
G02X254541068Y-145875689I430368J-162392D01*
G01*
X254608653Y-146434699D02*
G75*
G02X254599801Y-146450194I-25069J4045D01*
G01*
X254485006Y-146223825D02*
G75*
G02X254475726Y-146198795I109557J54856D01*
G01*
X254556968Y-146338553D02*
X254529724Y-146300412D01*
X254775894Y-145704677D02*
G75*
G02X254939660Y-145693373I114780J-470962D01*
G01*
X255124632Y-145733467D02*
G75*
G02X255278100Y-145794808I-484766J-1435467D01*
G01*
X255154879Y-145629314D02*
G75*
G02X255217608Y-145648378I-150980J-609543D01*
G01*
X256210027Y-144923229D02*
X256189587Y-144953853D01*
X256214907Y-146166838D02*
X255948176Y-146017931D01*
X256346317Y-146250317D02*
G75*
G02X256349886Y-146270181I-13900J-12750D01*
G01*
X254591335Y-146385869D02*
X254556968Y-146338553D01*
X254536355Y-146449141D02*
G75*
G02X254454003Y-146353003I308578J347669D01*
G01*
X256185604Y-145068896D02*
X256211234Y-145026793D01*
X254383806Y-145953712D02*
G75*
G02X254446665Y-145824601I557770J-191696D01*
G01*
X254475726Y-146198795D02*
G75*
G02X254467969Y-146126530I254458J63865D01*
G01*
X256226262Y-144906918D02*
G75*
G02X256239981Y-144902489I13501J-18357D01*
G01*
X256211234Y-145026793D02*
X256239352Y-144980096D01*
X254362484Y-146081354D02*
G75*
G02X254383806Y-145953712I392718J0D01*
G01*
X254477945Y-146040753D02*
G75*
G02X254503107Y-145953307I553629J-111961D01*
G01*
X254541068Y-145875689D02*
G75*
G02X254641367Y-145767026I323139J-197644D01*
G01*
X256252362Y-144907687D02*
G75*
G02X256258578Y-144923254I-15025J-15024D01*
G01*
X254653617Y-145632221D02*
G75*
G02X254706269Y-145609818I189198J-371570D01*
G01*
X254504732Y-146260330D02*
X254485007Y-146223824D01*
X256302099Y-146312778D02*
G75*
G02X256267276Y-146310693I-13904J59615D01*
G01*
X254454003Y-146353003D02*
G75*
G02X254385514Y-146213992I573074J368723D01*
G01*
X255278100Y-145794808D02*
X255525139Y-145913517D01*
X255003063Y-145603362D02*
X254918199Y-145597157D01*
X256160387Y-145114697D02*
X256185604Y-145068896D01*
X256400960Y-146823365D02*
G75*
G02X256387273Y-146805891I30309J37838D01*
G01*
X256389330Y-146790901D02*
G75*
G02X256410920Y-146770299I110708J-94410D01*
G01*
X256698559Y-147026044D02*
G75*
G02X256454960Y-146865443I1099295J1932459D01*
G01*
X256400961Y-146823365D02*
X256454960Y-146865443D01*
X256387273Y-146805891D02*
G75*
G02X256389329Y-146790900I12727J5891D01*
G01*
D11*
X248818095Y-109907142D02*
X248770476Y-109954761D01*
X248627619Y-110002380D01*
X248532380Y-110002380D01*
X248389523Y-109954761D01*
X248294285Y-109859523D01*
X248246666Y-109764285D01*
X248199047Y-109573809D01*
X248199047Y-109430952D01*
X248246666Y-109240476D01*
X248294285Y-109145238D01*
X248389523Y-109050000D01*
X248532380Y-109002380D01*
X248627619Y-109002380D01*
X248770476Y-109050000D01*
X248818095Y-109097619D01*
X249960952Y-109954761D02*
X250103809Y-110002380D01*
X250341904Y-110002380D01*
X250437142Y-109954761D01*
X250484761Y-109907142D01*
X250532380Y-109811904D01*
X250532380Y-109716666D01*
X250484761Y-109621428D01*
X250437142Y-109573809D01*
X250341904Y-109526190D01*
X250151428Y-109478571D01*
X250056190Y-109430952D01*
X250008571Y-109383333D01*
X249960952Y-109288095D01*
X249960952Y-109192857D01*
X250008571Y-109097619D01*
X250056190Y-109050000D01*
X250151428Y-109002380D01*
X250389523Y-109002380D01*
X250532380Y-109050000D01*
X251341904Y-109954761D02*
X251246666Y-110002380D01*
X251056190Y-110002380D01*
X250960952Y-109954761D01*
X250913333Y-109859523D01*
X250913333Y-109478571D01*
X250960952Y-109383333D01*
X251056190Y-109335714D01*
X251246666Y-109335714D01*
X251341904Y-109383333D01*
X251389523Y-109478571D01*
X251389523Y-109573809D01*
X250913333Y-109669047D01*
X251818095Y-109335714D02*
X251818095Y-110002380D01*
X251818095Y-109430952D02*
X251865714Y-109383333D01*
X251960952Y-109335714D01*
X252103809Y-109335714D01*
X252199047Y-109383333D01*
X252246666Y-109478571D01*
X252246666Y-110002380D01*
X252675238Y-109954761D02*
X252770476Y-110002380D01*
X252960952Y-110002380D01*
X253056190Y-109954761D01*
X253103809Y-109859523D01*
X253103809Y-109811904D01*
X253056190Y-109716666D01*
X252960952Y-109669047D01*
X252818095Y-109669047D01*
X252722857Y-109621428D01*
X252675238Y-109526190D01*
X252675238Y-109478571D01*
X252722857Y-109383333D01*
X252818095Y-109335714D01*
X252960952Y-109335714D01*
X253056190Y-109383333D01*
X253913333Y-109954761D02*
X253818095Y-110002380D01*
X253627619Y-110002380D01*
X253532380Y-109954761D01*
X253484761Y-109859523D01*
X253484761Y-109478571D01*
X253532380Y-109383333D01*
X253627619Y-109335714D01*
X253818095Y-109335714D01*
X253913333Y-109383333D01*
X253960952Y-109478571D01*
X253960952Y-109573809D01*
X253484761Y-109669047D01*
X203229047Y-136722380D02*
X203229047Y-135722380D01*
X203610000Y-135722380D01*
X203705238Y-135770000D01*
X203752857Y-135817619D01*
X203800476Y-135912857D01*
X203800476Y-136055714D01*
X203752857Y-136150952D01*
X203705238Y-136198571D01*
X203610000Y-136246190D01*
X203229047Y-136246190D01*
X204800476Y-136722380D02*
X204467142Y-136246190D01*
X204229047Y-136722380D02*
X204229047Y-135722380D01*
X204610000Y-135722380D01*
X204705238Y-135770000D01*
X204752857Y-135817619D01*
X204800476Y-135912857D01*
X204800476Y-136055714D01*
X204752857Y-136150952D01*
X204705238Y-136198571D01*
X204610000Y-136246190D01*
X204229047Y-136246190D01*
X205562380Y-136198571D02*
X205705238Y-136246190D01*
X205752857Y-136293809D01*
X205800476Y-136389047D01*
X205800476Y-136531904D01*
X205752857Y-136627142D01*
X205705238Y-136674761D01*
X205610000Y-136722380D01*
X205229047Y-136722380D01*
X205229047Y-135722380D01*
X205562380Y-135722380D01*
X205657619Y-135770000D01*
X205705238Y-135817619D01*
X205752857Y-135912857D01*
X205752857Y-136008095D01*
X205705238Y-136103333D01*
X205657619Y-136150952D01*
X205562380Y-136198571D01*
X205229047Y-136198571D01*
X206229047Y-136341428D02*
X206990952Y-136341428D01*
X203229047Y-140222380D02*
X203229047Y-139222380D01*
X203610000Y-139222380D01*
X203705238Y-139270000D01*
X203752857Y-139317619D01*
X203800476Y-139412857D01*
X203800476Y-139555714D01*
X203752857Y-139650952D01*
X203705238Y-139698571D01*
X203610000Y-139746190D01*
X203229047Y-139746190D01*
X204800476Y-140222380D02*
X204467142Y-139746190D01*
X204229047Y-140222380D02*
X204229047Y-139222380D01*
X204610000Y-139222380D01*
X204705238Y-139270000D01*
X204752857Y-139317619D01*
X204800476Y-139412857D01*
X204800476Y-139555714D01*
X204752857Y-139650952D01*
X204705238Y-139698571D01*
X204610000Y-139746190D01*
X204229047Y-139746190D01*
X205562380Y-139698571D02*
X205705238Y-139746190D01*
X205752857Y-139793809D01*
X205800476Y-139889047D01*
X205800476Y-140031904D01*
X205752857Y-140127142D01*
X205705238Y-140174761D01*
X205610000Y-140222380D01*
X205229047Y-140222380D01*
X205229047Y-139222380D01*
X205562380Y-139222380D01*
X205657619Y-139270000D01*
X205705238Y-139317619D01*
X205752857Y-139412857D01*
X205752857Y-139508095D01*
X205705238Y-139603333D01*
X205657619Y-139650952D01*
X205562380Y-139698571D01*
X205229047Y-139698571D01*
X206229047Y-139841428D02*
X206990952Y-139841428D01*
X206610000Y-140222380D02*
X206610000Y-139460476D01*
X215326190Y-117616666D02*
X215802380Y-117616666D01*
X215230952Y-117902380D02*
X215564285Y-116902380D01*
X215897619Y-117902380D01*
X216659523Y-117854761D02*
X216564285Y-117902380D01*
X216373809Y-117902380D01*
X216278571Y-117854761D01*
X216230952Y-117807142D01*
X216183333Y-117711904D01*
X216183333Y-117426190D01*
X216230952Y-117330952D01*
X216278571Y-117283333D01*
X216373809Y-117235714D01*
X216564285Y-117235714D01*
X216659523Y-117283333D01*
X217516666Y-117854761D02*
X217421428Y-117902380D01*
X217230952Y-117902380D01*
X217135714Y-117854761D01*
X217088095Y-117807142D01*
X217040476Y-117711904D01*
X217040476Y-117426190D01*
X217088095Y-117330952D01*
X217135714Y-117283333D01*
X217230952Y-117235714D01*
X217421428Y-117235714D01*
X217516666Y-117283333D01*
X218326190Y-117854761D02*
X218230952Y-117902380D01*
X218040476Y-117902380D01*
X217945238Y-117854761D01*
X217897619Y-117759523D01*
X217897619Y-117378571D01*
X217945238Y-117283333D01*
X218040476Y-117235714D01*
X218230952Y-117235714D01*
X218326190Y-117283333D01*
X218373809Y-117378571D01*
X218373809Y-117473809D01*
X217897619Y-117569047D01*
X218945238Y-117902380D02*
X218850000Y-117854761D01*
X218802380Y-117759523D01*
X218802380Y-116902380D01*
X219326190Y-117807142D02*
X219373809Y-117854761D01*
X219326190Y-117902380D01*
X219278571Y-117854761D01*
X219326190Y-117807142D01*
X219326190Y-117902380D01*
X223762380Y-108012380D02*
X223286190Y-108012380D01*
X223286190Y-107012380D01*
X224524285Y-107345714D02*
X224524285Y-108012380D01*
X224095714Y-107345714D02*
X224095714Y-107869523D01*
X224143333Y-107964761D01*
X224238571Y-108012380D01*
X224381428Y-108012380D01*
X224476666Y-107964761D01*
X224524285Y-107917142D01*
X224905238Y-108012380D02*
X225429047Y-107345714D01*
X224905238Y-107345714D02*
X225429047Y-108012380D01*
X228228095Y-114882380D02*
X228799523Y-114882380D01*
X228513809Y-115882380D02*
X228513809Y-114882380D01*
X229513809Y-115834761D02*
X229418571Y-115882380D01*
X229228095Y-115882380D01*
X229132857Y-115834761D01*
X229085238Y-115739523D01*
X229085238Y-115358571D01*
X229132857Y-115263333D01*
X229228095Y-115215714D01*
X229418571Y-115215714D01*
X229513809Y-115263333D01*
X229561428Y-115358571D01*
X229561428Y-115453809D01*
X229085238Y-115549047D01*
X229990000Y-115882380D02*
X229990000Y-115215714D01*
X229990000Y-115310952D02*
X230037619Y-115263333D01*
X230132857Y-115215714D01*
X230275714Y-115215714D01*
X230370952Y-115263333D01*
X230418571Y-115358571D01*
X230418571Y-115882380D01*
X230418571Y-115358571D02*
X230466190Y-115263333D01*
X230561428Y-115215714D01*
X230704285Y-115215714D01*
X230799523Y-115263333D01*
X230847142Y-115358571D01*
X230847142Y-115882380D01*
X231323333Y-115215714D02*
X231323333Y-116215714D01*
X231323333Y-115263333D02*
X231418571Y-115215714D01*
X231609047Y-115215714D01*
X231704285Y-115263333D01*
X231751904Y-115310952D01*
X231799523Y-115406190D01*
X231799523Y-115691904D01*
X231751904Y-115787142D01*
X231704285Y-115834761D01*
X231609047Y-115882380D01*
X231418571Y-115882380D01*
X231323333Y-115834761D01*
X232942380Y-114834761D02*
X232085238Y-116120476D01*
X233275714Y-115882380D02*
X233275714Y-114882380D01*
X233656666Y-114882380D01*
X233751904Y-114930000D01*
X233799523Y-114977619D01*
X233847142Y-115072857D01*
X233847142Y-115215714D01*
X233799523Y-115310952D01*
X233751904Y-115358571D01*
X233656666Y-115406190D01*
X233275714Y-115406190D01*
X234275714Y-115882380D02*
X234275714Y-115215714D01*
X234275714Y-115406190D02*
X234323333Y-115310952D01*
X234370952Y-115263333D01*
X234466190Y-115215714D01*
X234561428Y-115215714D01*
X235275714Y-115834761D02*
X235180476Y-115882380D01*
X234990000Y-115882380D01*
X234894761Y-115834761D01*
X234847142Y-115739523D01*
X234847142Y-115358571D01*
X234894761Y-115263333D01*
X234990000Y-115215714D01*
X235180476Y-115215714D01*
X235275714Y-115263333D01*
X235323333Y-115358571D01*
X235323333Y-115453809D01*
X234847142Y-115549047D01*
X235704285Y-115834761D02*
X235799523Y-115882380D01*
X235990000Y-115882380D01*
X236085238Y-115834761D01*
X236132857Y-115739523D01*
X236132857Y-115691904D01*
X236085238Y-115596666D01*
X235990000Y-115549047D01*
X235847142Y-115549047D01*
X235751904Y-115501428D01*
X235704285Y-115406190D01*
X235704285Y-115358571D01*
X235751904Y-115263333D01*
X235847142Y-115215714D01*
X235990000Y-115215714D01*
X236085238Y-115263333D01*
X236513809Y-115834761D02*
X236609047Y-115882380D01*
X236799523Y-115882380D01*
X236894761Y-115834761D01*
X236942380Y-115739523D01*
X236942380Y-115691904D01*
X236894761Y-115596666D01*
X236799523Y-115549047D01*
X236656666Y-115549047D01*
X236561428Y-115501428D01*
X236513809Y-115406190D01*
X236513809Y-115358571D01*
X236561428Y-115263333D01*
X236656666Y-115215714D01*
X236799523Y-115215714D01*
X236894761Y-115263333D01*
X238085238Y-114834761D02*
X237228095Y-116120476D01*
X238418571Y-115882380D02*
X238418571Y-114882380D01*
X238418571Y-115358571D02*
X238990000Y-115358571D01*
X238990000Y-115882380D02*
X238990000Y-114882380D01*
X239894761Y-115215714D02*
X239894761Y-115882380D01*
X239466190Y-115215714D02*
X239466190Y-115739523D01*
X239513809Y-115834761D01*
X239609047Y-115882380D01*
X239751904Y-115882380D01*
X239847142Y-115834761D01*
X239894761Y-115787142D01*
X240370952Y-115882380D02*
X240370952Y-115215714D01*
X240370952Y-115310952D02*
X240418571Y-115263333D01*
X240513809Y-115215714D01*
X240656666Y-115215714D01*
X240751904Y-115263333D01*
X240799523Y-115358571D01*
X240799523Y-115882380D01*
X240799523Y-115358571D02*
X240847142Y-115263333D01*
X240942380Y-115215714D01*
X241085238Y-115215714D01*
X241180476Y-115263333D01*
X241228095Y-115358571D01*
X241228095Y-115882380D01*
X241704285Y-115882380D02*
X241704285Y-115215714D01*
X241704285Y-114882380D02*
X241656666Y-114930000D01*
X241704285Y-114977619D01*
X241751904Y-114930000D01*
X241704285Y-114882380D01*
X241704285Y-114977619D01*
X242609047Y-115882380D02*
X242609047Y-114882380D01*
X242609047Y-115834761D02*
X242513809Y-115882380D01*
X242323333Y-115882380D01*
X242228095Y-115834761D01*
X242180476Y-115787142D01*
X242132857Y-115691904D01*
X242132857Y-115406190D01*
X242180476Y-115310952D01*
X242228095Y-115263333D01*
X242323333Y-115215714D01*
X242513809Y-115215714D01*
X242609047Y-115263333D01*
X242952380Y-143077380D02*
X243190476Y-144077380D01*
X243380952Y-143363095D01*
X243571428Y-144077380D01*
X243809523Y-143077380D01*
X244095238Y-143077380D02*
X244333333Y-144077380D01*
X244523809Y-143363095D01*
X244714285Y-144077380D01*
X244952380Y-143077380D01*
X245333333Y-143077380D02*
X245333333Y-143886904D01*
X245380952Y-143982142D01*
X245428571Y-144029761D01*
X245523809Y-144077380D01*
X245714285Y-144077380D01*
X245809523Y-144029761D01*
X245857142Y-143982142D01*
X245904761Y-143886904D01*
X245904761Y-143077380D01*
X247714285Y-144077380D02*
X247380952Y-143601190D01*
X247142857Y-144077380D02*
X247142857Y-143077380D01*
X247523809Y-143077380D01*
X247619047Y-143125000D01*
X247666666Y-143172619D01*
X247714285Y-143267857D01*
X247714285Y-143410714D01*
X247666666Y-143505952D01*
X247619047Y-143553571D01*
X247523809Y-143601190D01*
X247142857Y-143601190D01*
X248285714Y-144077380D02*
X248190476Y-144029761D01*
X248142857Y-143982142D01*
X248095238Y-143886904D01*
X248095238Y-143601190D01*
X248142857Y-143505952D01*
X248190476Y-143458333D01*
X248285714Y-143410714D01*
X248428571Y-143410714D01*
X248523809Y-143458333D01*
X248571428Y-143505952D01*
X248619047Y-143601190D01*
X248619047Y-143886904D01*
X248571428Y-143982142D01*
X248523809Y-144029761D01*
X248428571Y-144077380D01*
X248285714Y-144077380D01*
X249000000Y-144029761D02*
X249095238Y-144077380D01*
X249285714Y-144077380D01*
X249380952Y-144029761D01*
X249428571Y-143934523D01*
X249428571Y-143886904D01*
X249380952Y-143791666D01*
X249285714Y-143744047D01*
X249142857Y-143744047D01*
X249047619Y-143696428D01*
X249000000Y-143601190D01*
X249000000Y-143553571D01*
X249047619Y-143458333D01*
X249142857Y-143410714D01*
X249285714Y-143410714D01*
X249380952Y-143458333D01*
X250285714Y-144077380D02*
X250285714Y-143553571D01*
X250238095Y-143458333D01*
X250142857Y-143410714D01*
X249952380Y-143410714D01*
X249857142Y-143458333D01*
X250285714Y-144029761D02*
X250190476Y-144077380D01*
X249952380Y-144077380D01*
X249857142Y-144029761D01*
X249809523Y-143934523D01*
X249809523Y-143839285D01*
X249857142Y-143744047D01*
X249952380Y-143696428D01*
X250190476Y-143696428D01*
X250285714Y-143648809D01*
X250761904Y-144077380D02*
X250761904Y-143410714D01*
X250761904Y-143601190D02*
X250809523Y-143505952D01*
X250857142Y-143458333D01*
X250952380Y-143410714D01*
X251047619Y-143410714D01*
X251380952Y-144077380D02*
X251380952Y-143410714D01*
X251380952Y-143077380D02*
X251333333Y-143125000D01*
X251380952Y-143172619D01*
X251428571Y-143125000D01*
X251380952Y-143077380D01*
X251380952Y-143172619D01*
X252000000Y-144077380D02*
X251904761Y-144029761D01*
X251857142Y-143982142D01*
X251809523Y-143886904D01*
X251809523Y-143601190D01*
X251857142Y-143505952D01*
X251904761Y-143458333D01*
X252000000Y-143410714D01*
X252142857Y-143410714D01*
X252238095Y-143458333D01*
X252285714Y-143505952D01*
X252333333Y-143601190D01*
X252333333Y-143886904D01*
X252285714Y-143982142D01*
X252238095Y-144029761D01*
X252142857Y-144077380D01*
X252000000Y-144077380D01*
X254095238Y-144077380D02*
X253761904Y-143601190D01*
X253523809Y-144077380D02*
X253523809Y-143077380D01*
X253904761Y-143077380D01*
X254000000Y-143125000D01*
X254047619Y-143172619D01*
X254095238Y-143267857D01*
X254095238Y-143410714D01*
X254047619Y-143505952D01*
X254000000Y-143553571D01*
X253904761Y-143601190D01*
X253523809Y-143601190D01*
X254714285Y-143077380D02*
X254904761Y-143077380D01*
X255000000Y-143125000D01*
X255095238Y-143220238D01*
X255142857Y-143410714D01*
X255142857Y-143744047D01*
X255095238Y-143934523D01*
X255000000Y-144029761D01*
X254904761Y-144077380D01*
X254714285Y-144077380D01*
X254619047Y-144029761D01*
X254523809Y-143934523D01*
X254476190Y-143744047D01*
X254476190Y-143410714D01*
X254523809Y-143220238D01*
X254619047Y-143125000D01*
X254714285Y-143077380D01*
X255428571Y-143077380D02*
X255761904Y-144077380D01*
X256095238Y-143077380D01*
X245809523Y-144827380D02*
X245809523Y-145541666D01*
X245761904Y-145684523D01*
X245666666Y-145779761D01*
X245523809Y-145827380D01*
X245428571Y-145827380D01*
X246714285Y-145827380D02*
X246714285Y-145303571D01*
X246666666Y-145208333D01*
X246571428Y-145160714D01*
X246380952Y-145160714D01*
X246285714Y-145208333D01*
X246714285Y-145779761D02*
X246619047Y-145827380D01*
X246380952Y-145827380D01*
X246285714Y-145779761D01*
X246238095Y-145684523D01*
X246238095Y-145589285D01*
X246285714Y-145494047D01*
X246380952Y-145446428D01*
X246619047Y-145446428D01*
X246714285Y-145398809D01*
X247619047Y-145779761D02*
X247523809Y-145827380D01*
X247333333Y-145827380D01*
X247238095Y-145779761D01*
X247190476Y-145732142D01*
X247142857Y-145636904D01*
X247142857Y-145351190D01*
X247190476Y-145255952D01*
X247238095Y-145208333D01*
X247333333Y-145160714D01*
X247523809Y-145160714D01*
X247619047Y-145208333D01*
X248190476Y-145827380D02*
X248095238Y-145779761D01*
X248047619Y-145732142D01*
X248000000Y-145636904D01*
X248000000Y-145351190D01*
X248047619Y-145255952D01*
X248095238Y-145208333D01*
X248190476Y-145160714D01*
X248333333Y-145160714D01*
X248428571Y-145208333D01*
X248476190Y-145255952D01*
X248523809Y-145351190D01*
X248523809Y-145636904D01*
X248476190Y-145732142D01*
X248428571Y-145779761D01*
X248333333Y-145827380D01*
X248190476Y-145827380D01*
X248952380Y-145827380D02*
X248952380Y-144827380D01*
X248952380Y-145208333D02*
X249047619Y-145160714D01*
X249238095Y-145160714D01*
X249333333Y-145208333D01*
X249380952Y-145255952D01*
X249428571Y-145351190D01*
X249428571Y-145636904D01*
X249380952Y-145732142D01*
X249333333Y-145779761D01*
X249238095Y-145827380D01*
X249047619Y-145827380D01*
X248952380Y-145779761D01*
X250619047Y-145827380D02*
X250619047Y-144827380D01*
X251190476Y-145827380D01*
X251190476Y-144827380D01*
X252047619Y-145779761D02*
X251952380Y-145827380D01*
X251761904Y-145827380D01*
X251666666Y-145779761D01*
X251619047Y-145684523D01*
X251619047Y-145303571D01*
X251666666Y-145208333D01*
X251761904Y-145160714D01*
X251952380Y-145160714D01*
X252047619Y-145208333D01*
X252095238Y-145303571D01*
X252095238Y-145398809D01*
X251619047Y-145494047D01*
X252952380Y-145827380D02*
X252952380Y-145303571D01*
X252904761Y-145208333D01*
X252809523Y-145160714D01*
X252619047Y-145160714D01*
X252523809Y-145208333D01*
X252952380Y-145779761D02*
X252857142Y-145827380D01*
X252619047Y-145827380D01*
X252523809Y-145779761D01*
X252476190Y-145684523D01*
X252476190Y-145589285D01*
X252523809Y-145494047D01*
X252619047Y-145446428D01*
X252857142Y-145446428D01*
X252952380Y-145398809D01*
X253571428Y-145827380D02*
X253476190Y-145779761D01*
X253428571Y-145684523D01*
X253428571Y-144827380D01*
X200810000Y-111082380D02*
X200810000Y-110082380D01*
X201190952Y-110082380D01*
X201286190Y-110130000D01*
X201333809Y-110177619D01*
X201381428Y-110272857D01*
X201381428Y-110415714D01*
X201333809Y-110510952D01*
X201286190Y-110558571D01*
X201190952Y-110606190D01*
X200810000Y-110606190D01*
X201810000Y-111082380D02*
X201810000Y-110415714D01*
X201810000Y-110606190D02*
X201857619Y-110510952D01*
X201905238Y-110463333D01*
X202000476Y-110415714D01*
X202095714Y-110415714D01*
X202810000Y-111034761D02*
X202714761Y-111082380D01*
X202524285Y-111082380D01*
X202429047Y-111034761D01*
X202381428Y-110939523D01*
X202381428Y-110558571D01*
X202429047Y-110463333D01*
X202524285Y-110415714D01*
X202714761Y-110415714D01*
X202810000Y-110463333D01*
X202857619Y-110558571D01*
X202857619Y-110653809D01*
X202381428Y-110749047D01*
X203238571Y-111034761D02*
X203333809Y-111082380D01*
X203524285Y-111082380D01*
X203619523Y-111034761D01*
X203667142Y-110939523D01*
X203667142Y-110891904D01*
X203619523Y-110796666D01*
X203524285Y-110749047D01*
X203381428Y-110749047D01*
X203286190Y-110701428D01*
X203238571Y-110606190D01*
X203238571Y-110558571D01*
X203286190Y-110463333D01*
X203381428Y-110415714D01*
X203524285Y-110415714D01*
X203619523Y-110463333D01*
X204048095Y-111034761D02*
X204143333Y-111082380D01*
X204333809Y-111082380D01*
X204429047Y-111034761D01*
X204476666Y-110939523D01*
X204476666Y-110891904D01*
X204429047Y-110796666D01*
X204333809Y-110749047D01*
X204190952Y-110749047D01*
X204095714Y-110701428D01*
X204048095Y-110606190D01*
X204048095Y-110558571D01*
X204095714Y-110463333D01*
X204190952Y-110415714D01*
X204333809Y-110415714D01*
X204429047Y-110463333D01*
X205333809Y-110415714D02*
X205333809Y-111082380D01*
X204905238Y-110415714D02*
X204905238Y-110939523D01*
X204952857Y-111034761D01*
X205048095Y-111082380D01*
X205190952Y-111082380D01*
X205286190Y-111034761D01*
X205333809Y-110987142D01*
X205810000Y-111082380D02*
X205810000Y-110415714D01*
X205810000Y-110606190D02*
X205857619Y-110510952D01*
X205905238Y-110463333D01*
X206000476Y-110415714D01*
X206095714Y-110415714D01*
X206810000Y-111034761D02*
X206714761Y-111082380D01*
X206524285Y-111082380D01*
X206429047Y-111034761D01*
X206381428Y-110939523D01*
X206381428Y-110558571D01*
X206429047Y-110463333D01*
X206524285Y-110415714D01*
X206714761Y-110415714D01*
X206810000Y-110463333D01*
X206857619Y-110558571D01*
X206857619Y-110653809D01*
X206381428Y-110749047D01*
X201976666Y-105002380D02*
X202548095Y-105002380D01*
X202262380Y-106002380D02*
X202262380Y-105002380D01*
X203262380Y-105954761D02*
X203167142Y-106002380D01*
X202976666Y-106002380D01*
X202881428Y-105954761D01*
X202833809Y-105859523D01*
X202833809Y-105478571D01*
X202881428Y-105383333D01*
X202976666Y-105335714D01*
X203167142Y-105335714D01*
X203262380Y-105383333D01*
X203310000Y-105478571D01*
X203310000Y-105573809D01*
X202833809Y-105669047D01*
X203738571Y-106002380D02*
X203738571Y-105335714D01*
X203738571Y-105430952D02*
X203786190Y-105383333D01*
X203881428Y-105335714D01*
X204024285Y-105335714D01*
X204119523Y-105383333D01*
X204167142Y-105478571D01*
X204167142Y-106002380D01*
X204167142Y-105478571D02*
X204214761Y-105383333D01*
X204310000Y-105335714D01*
X204452857Y-105335714D01*
X204548095Y-105383333D01*
X204595714Y-105478571D01*
X204595714Y-106002380D01*
X205071904Y-105335714D02*
X205071904Y-106335714D01*
X205071904Y-105383333D02*
X205167142Y-105335714D01*
X205357619Y-105335714D01*
X205452857Y-105383333D01*
X205500476Y-105430952D01*
X205548095Y-105526190D01*
X205548095Y-105811904D01*
X205500476Y-105907142D01*
X205452857Y-105954761D01*
X205357619Y-106002380D01*
X205167142Y-106002380D01*
X205071904Y-105954761D01*
D12*
X207380000Y-103250000D02*
X207380000Y-106850000D01*
X207380000Y-106850000D02*
X214230000Y-106850000D01*
X214230000Y-106850000D02*
X214230000Y-103250000D01*
X214230000Y-103250000D02*
X207380000Y-103250000D01*
X207070000Y-105250000D02*
X207070000Y-107160000D01*
X207070000Y-107160000D02*
X208980000Y-107160000D01*
X207380000Y-105550000D02*
X207680000Y-105550000D01*
X207680000Y-105550000D02*
X207680000Y-106550000D01*
X207680000Y-106550000D02*
X213930000Y-106550000D01*
X213930000Y-106550000D02*
X213930000Y-105550000D01*
X213930000Y-105550000D02*
X214230000Y-105550000D01*
X207380000Y-104800000D02*
X207680000Y-104800000D01*
X207680000Y-104800000D02*
X207680000Y-103700000D01*
X207680000Y-103700000D02*
X207980000Y-103700000D01*
X207980000Y-103700000D02*
X207980000Y-103250000D01*
X214230000Y-104800000D02*
X213930000Y-104800000D01*
X213930000Y-104800000D02*
X213930000Y-103700000D01*
X213930000Y-103700000D02*
X213630000Y-103700000D01*
X213630000Y-103700000D02*
X213630000Y-103250000D01*
X207980000Y-103700000D02*
X209180000Y-103700000D01*
X209180000Y-103700000D02*
X209180000Y-103400000D01*
X209180000Y-103400000D02*
X209930000Y-103400000D01*
X209930000Y-103400000D02*
X209930000Y-103700000D01*
X209930000Y-103700000D02*
X211680000Y-103700000D01*
X211680000Y-103700000D02*
X211680000Y-103400000D01*
X211680000Y-103400000D02*
X212430000Y-103400000D01*
X212430000Y-103400000D02*
X212430000Y-103700000D01*
X212430000Y-103700000D02*
X213630000Y-103700000D01*
X212430000Y-108780000D02*
X213630000Y-108780000D01*
X212430000Y-108480000D02*
X212430000Y-108780000D01*
X211680000Y-108480000D02*
X212430000Y-108480000D01*
X211680000Y-108780000D02*
X211680000Y-108480000D01*
X209930000Y-108780000D02*
X211680000Y-108780000D01*
X209930000Y-108480000D02*
X209930000Y-108780000D01*
X209180000Y-108480000D02*
X209930000Y-108480000D01*
X209180000Y-108780000D02*
X209180000Y-108480000D01*
X207980000Y-108780000D02*
X209180000Y-108780000D01*
X213630000Y-108780000D02*
X213630000Y-108330000D01*
X213930000Y-108780000D02*
X213630000Y-108780000D01*
X213930000Y-109880000D02*
X213930000Y-108780000D01*
X214230000Y-109880000D02*
X213930000Y-109880000D01*
X207980000Y-108780000D02*
X207980000Y-108330000D01*
X207680000Y-108780000D02*
X207980000Y-108780000D01*
X207680000Y-109880000D02*
X207680000Y-108780000D01*
X207380000Y-109880000D02*
X207680000Y-109880000D01*
X213930000Y-110630000D02*
X214230000Y-110630000D01*
X213930000Y-111630000D02*
X213930000Y-110630000D01*
X207680000Y-111630000D02*
X213930000Y-111630000D01*
X207680000Y-110630000D02*
X207680000Y-111630000D01*
X207380000Y-110630000D02*
X207680000Y-110630000D01*
X207070000Y-112240000D02*
X208980000Y-112240000D01*
X207070000Y-110330000D02*
X207070000Y-112240000D01*
X214230000Y-108330000D02*
X207380000Y-108330000D01*
X214230000Y-111930000D02*
X214230000Y-108330000D01*
X207380000Y-111930000D02*
X214230000Y-111930000D01*
X207380000Y-108330000D02*
X207380000Y-111930000D01*
X214400000Y-125754721D02*
X214400000Y-126080279D01*
X213380000Y-125754721D02*
X213380000Y-126080279D01*
X217180000Y-126174721D02*
X217180000Y-126500279D01*
X216160000Y-126174721D02*
X216160000Y-126500279D01*
X218800000Y-121745279D02*
X218800000Y-121419721D01*
X217780000Y-121745279D02*
X217780000Y-121419721D01*
D13*
X215600000Y-119320000D02*
X215600000Y-119845000D01*
X211300000Y-123620000D02*
X211300000Y-123095000D01*
X215600000Y-123620000D02*
X215600000Y-123095000D01*
X211300000Y-119320000D02*
X211825000Y-119320000D01*
X211300000Y-123620000D02*
X211825000Y-123620000D01*
X215600000Y-123620000D02*
X215075000Y-123620000D01*
X215600000Y-119320000D02*
X215075000Y-119320000D01*
D14*
X231585000Y-109375000D02*
X231585000Y-109525000D01*
X231595000Y-109375000D02*
X231745000Y-109375000D01*
X231595000Y-112075000D02*
X231745000Y-112075000D01*
X231595000Y-112075000D02*
X231595000Y-111925000D01*
X234295000Y-111925000D02*
X234295000Y-112075000D01*
X234295000Y-112075000D02*
X234145000Y-112075000D01*
X234145000Y-109375000D02*
X234395000Y-109375000D01*
D15*
X224244000Y-104059000D02*
G75*
G03X224244000Y-104059000I-200000J0D01*
G01*
D13*
X234140000Y-138780000D02*
X222140000Y-138780000D01*
X222140000Y-127780000D02*
X234140000Y-127780000D01*
D12*
X237451422Y-110200000D02*
X237968578Y-110200000D01*
X237451422Y-108780000D02*
X237968578Y-108780000D01*
X236213922Y-112940000D02*
X236731078Y-112940000D01*
X236213922Y-114360000D02*
X236731078Y-114360000D01*
X249690000Y-103629721D02*
X249690000Y-103955279D01*
X250710000Y-103629721D02*
X250710000Y-103955279D01*
X248935279Y-101760000D02*
X248609721Y-101760000D01*
X248935279Y-100740000D02*
X248609721Y-100740000D01*
X244839721Y-100740000D02*
X245165279Y-100740000D01*
X244839721Y-101760000D02*
X245165279Y-101760000D01*
X243380000Y-107606078D02*
X243380000Y-107088922D01*
X244800000Y-107606078D02*
X244800000Y-107088922D01*
D16*
X247630300Y-102200201D02*
X245623700Y-102200201D01*
X245623700Y-105349801D02*
X247630300Y-105349801D01*
D13*
X230955000Y-105015000D02*
X230955000Y-105240000D01*
X234305000Y-105015000D02*
X234305000Y-105315000D01*
X234305000Y-108365000D02*
X234305000Y-108065000D01*
X230955000Y-108365000D02*
X230955000Y-108065000D01*
X230955000Y-105015000D02*
X234305000Y-105015000D01*
X230955000Y-108365000D02*
X234305000Y-108365000D01*
X230955000Y-105240000D02*
X229730000Y-105240000D01*
X203566666Y-103952380D02*
X203566666Y-104666666D01*
X203519047Y-104809523D01*
X203423809Y-104904761D01*
X203280952Y-104952380D01*
X203185714Y-104952380D01*
X204566666Y-104952380D02*
X203995238Y-104952380D01*
X204280952Y-104952380D02*
X204280952Y-103952380D01*
X204185714Y-104095238D01*
X204090476Y-104190476D01*
X203995238Y-104238095D01*
X203466666Y-108952380D02*
X203466666Y-109666666D01*
X203419047Y-109809523D01*
X203323809Y-109904761D01*
X203180952Y-109952380D01*
X203085714Y-109952380D01*
X203895238Y-109047619D02*
X203942857Y-109000000D01*
X204038095Y-108952380D01*
X204276190Y-108952380D01*
X204371428Y-109000000D01*
X204419047Y-109047619D01*
X204466666Y-109142857D01*
X204466666Y-109238095D01*
X204419047Y-109380952D01*
X203847619Y-109952380D01*
X204466666Y-109952380D01*
X215677142Y-126084166D02*
X215724761Y-126131785D01*
X215772380Y-126274642D01*
X215772380Y-126369880D01*
X215724761Y-126512738D01*
X215629523Y-126607976D01*
X215534285Y-126655595D01*
X215343809Y-126703214D01*
X215200952Y-126703214D01*
X215010476Y-126655595D01*
X214915238Y-126607976D01*
X214820000Y-126512738D01*
X214772380Y-126369880D01*
X214772380Y-126274642D01*
X214820000Y-126131785D01*
X214867619Y-126084166D01*
X215772380Y-125131785D02*
X215772380Y-125703214D01*
X215772380Y-125417500D02*
X214772380Y-125417500D01*
X214915238Y-125512738D01*
X215010476Y-125607976D01*
X215058095Y-125703214D01*
X218457142Y-126504166D02*
X218504761Y-126551785D01*
X218552380Y-126694642D01*
X218552380Y-126789880D01*
X218504761Y-126932738D01*
X218409523Y-127027976D01*
X218314285Y-127075595D01*
X218123809Y-127123214D01*
X217980952Y-127123214D01*
X217790476Y-127075595D01*
X217695238Y-127027976D01*
X217600000Y-126932738D01*
X217552380Y-126789880D01*
X217552380Y-126694642D01*
X217600000Y-126551785D01*
X217647619Y-126504166D01*
X217647619Y-126123214D02*
X217600000Y-126075595D01*
X217552380Y-125980357D01*
X217552380Y-125742261D01*
X217600000Y-125647023D01*
X217647619Y-125599404D01*
X217742857Y-125551785D01*
X217838095Y-125551785D01*
X217980952Y-125599404D01*
X218552380Y-126170833D01*
X218552380Y-125551785D01*
X217217142Y-121749166D02*
X217264761Y-121796785D01*
X217312380Y-121939642D01*
X217312380Y-122034880D01*
X217264761Y-122177738D01*
X217169523Y-122272976D01*
X217074285Y-122320595D01*
X216883809Y-122368214D01*
X216740952Y-122368214D01*
X216550476Y-122320595D01*
X216455238Y-122272976D01*
X216360000Y-122177738D01*
X216312380Y-122034880D01*
X216312380Y-121939642D01*
X216360000Y-121796785D01*
X216407619Y-121749166D01*
X216312380Y-121415833D02*
X216312380Y-120796785D01*
X216693333Y-121130119D01*
X216693333Y-120987261D01*
X216740952Y-120892023D01*
X216788571Y-120844404D01*
X216883809Y-120796785D01*
X217121904Y-120796785D01*
X217217142Y-120844404D01*
X217264761Y-120892023D01*
X217312380Y-120987261D01*
X217312380Y-121272976D01*
X217264761Y-121368214D01*
X217217142Y-121415833D01*
X208228095Y-120782380D02*
X208228095Y-121591904D01*
X208275714Y-121687142D01*
X208323333Y-121734761D01*
X208418571Y-121782380D01*
X208609047Y-121782380D01*
X208704285Y-121734761D01*
X208751904Y-121687142D01*
X208799523Y-121591904D01*
X208799523Y-120782380D01*
X209799523Y-121782380D02*
X209228095Y-121782380D01*
X209513809Y-121782380D02*
X209513809Y-120782380D01*
X209418571Y-120925238D01*
X209323333Y-121020476D01*
X209228095Y-121068095D01*
X232138095Y-112652380D02*
X232138095Y-113461904D01*
X232185714Y-113557142D01*
X232233333Y-113604761D01*
X232328571Y-113652380D01*
X232519047Y-113652380D01*
X232614285Y-113604761D01*
X232661904Y-113557142D01*
X232709523Y-113461904D01*
X232709523Y-112652380D01*
X233138095Y-112747619D02*
X233185714Y-112700000D01*
X233280952Y-112652380D01*
X233519047Y-112652380D01*
X233614285Y-112700000D01*
X233661904Y-112747619D01*
X233709523Y-112842857D01*
X233709523Y-112938095D01*
X233661904Y-113080952D01*
X233090476Y-113652380D01*
X233709523Y-113652380D01*
X227378095Y-134732380D02*
X227378095Y-135541904D01*
X227425714Y-135637142D01*
X227473333Y-135684761D01*
X227568571Y-135732380D01*
X227759047Y-135732380D01*
X227854285Y-135684761D01*
X227901904Y-135637142D01*
X227949523Y-135541904D01*
X227949523Y-134732380D01*
X228901904Y-134732380D02*
X228425714Y-134732380D01*
X228378095Y-135208571D01*
X228425714Y-135160952D01*
X228520952Y-135113333D01*
X228759047Y-135113333D01*
X228854285Y-135160952D01*
X228901904Y-135208571D01*
X228949523Y-135303809D01*
X228949523Y-135541904D01*
X228901904Y-135637142D01*
X228854285Y-135684761D01*
X228759047Y-135732380D01*
X228520952Y-135732380D01*
X228425714Y-135684761D01*
X228378095Y-135637142D01*
X224919523Y-132266666D02*
X225395714Y-132266666D01*
X224824285Y-132552380D02*
X225157619Y-131552380D01*
X225490952Y-132552380D01*
X225681428Y-131885714D02*
X226062380Y-131885714D01*
X225824285Y-131552380D02*
X225824285Y-132409523D01*
X225871904Y-132504761D01*
X225967142Y-132552380D01*
X226062380Y-132552380D01*
X226538571Y-132552380D02*
X226443333Y-132504761D01*
X226395714Y-132409523D01*
X226395714Y-131552380D01*
X227348095Y-132552380D02*
X227348095Y-132028571D01*
X227300476Y-131933333D01*
X227205238Y-131885714D01*
X227014761Y-131885714D01*
X226919523Y-131933333D01*
X227348095Y-132504761D02*
X227252857Y-132552380D01*
X227014761Y-132552380D01*
X226919523Y-132504761D01*
X226871904Y-132409523D01*
X226871904Y-132314285D01*
X226919523Y-132219047D01*
X227014761Y-132171428D01*
X227252857Y-132171428D01*
X227348095Y-132123809D01*
X227776666Y-132504761D02*
X227871904Y-132552380D01*
X228062380Y-132552380D01*
X228157619Y-132504761D01*
X228205238Y-132409523D01*
X228205238Y-132361904D01*
X228157619Y-132266666D01*
X228062380Y-132219047D01*
X227919523Y-132219047D01*
X227824285Y-132171428D01*
X227776666Y-132076190D01*
X227776666Y-132028571D01*
X227824285Y-131933333D01*
X227919523Y-131885714D01*
X228062380Y-131885714D01*
X228157619Y-131933333D01*
X228824285Y-131552380D02*
X229014761Y-131552380D01*
X229110000Y-131600000D01*
X229205238Y-131695238D01*
X229252857Y-131885714D01*
X229252857Y-132219047D01*
X229205238Y-132409523D01*
X229110000Y-132504761D01*
X229014761Y-132552380D01*
X228824285Y-132552380D01*
X228729047Y-132504761D01*
X228633809Y-132409523D01*
X228586190Y-132219047D01*
X228586190Y-131885714D01*
X228633809Y-131695238D01*
X228729047Y-131600000D01*
X228824285Y-131552380D01*
X229681428Y-132028571D02*
X230014761Y-132028571D01*
X230157619Y-132552380D02*
X229681428Y-132552380D01*
X229681428Y-131552380D01*
X230157619Y-131552380D01*
X230586190Y-132552380D02*
X230586190Y-131552380D01*
X230919523Y-132266666D01*
X231252857Y-131552380D01*
X231252857Y-132552380D01*
X210992380Y-138188333D02*
X211706666Y-138188333D01*
X211849523Y-138235952D01*
X211944761Y-138331190D01*
X211992380Y-138474047D01*
X211992380Y-138569285D01*
X210992380Y-137807380D02*
X210992380Y-137188333D01*
X211373333Y-137521666D01*
X211373333Y-137378809D01*
X211420952Y-137283571D01*
X211468571Y-137235952D01*
X211563809Y-137188333D01*
X211801904Y-137188333D01*
X211897142Y-137235952D01*
X211944761Y-137283571D01*
X211992380Y-137378809D01*
X211992380Y-137664523D01*
X211944761Y-137759761D01*
X211897142Y-137807380D01*
X237543333Y-108292380D02*
X237210000Y-107816190D01*
X236971904Y-108292380D02*
X236971904Y-107292380D01*
X237352857Y-107292380D01*
X237448095Y-107340000D01*
X237495714Y-107387619D01*
X237543333Y-107482857D01*
X237543333Y-107625714D01*
X237495714Y-107720952D01*
X237448095Y-107768571D01*
X237352857Y-107816190D01*
X236971904Y-107816190D01*
X238495714Y-108292380D02*
X237924285Y-108292380D01*
X238210000Y-108292380D02*
X238210000Y-107292380D01*
X238114761Y-107435238D01*
X238019523Y-107530476D01*
X237924285Y-107578095D01*
X236305833Y-112452380D02*
X235972500Y-111976190D01*
X235734404Y-112452380D02*
X235734404Y-111452380D01*
X236115357Y-111452380D01*
X236210595Y-111500000D01*
X236258214Y-111547619D01*
X236305833Y-111642857D01*
X236305833Y-111785714D01*
X236258214Y-111880952D01*
X236210595Y-111928571D01*
X236115357Y-111976190D01*
X235734404Y-111976190D01*
X236686785Y-111547619D02*
X236734404Y-111500000D01*
X236829642Y-111452380D01*
X237067738Y-111452380D01*
X237162976Y-111500000D01*
X237210595Y-111547619D01*
X237258214Y-111642857D01*
X237258214Y-111738095D01*
X237210595Y-111880952D01*
X236639166Y-112452380D01*
X237258214Y-112452380D01*
X251987142Y-103959166D02*
X252034761Y-104006785D01*
X252082380Y-104149642D01*
X252082380Y-104244880D01*
X252034761Y-104387738D01*
X251939523Y-104482976D01*
X251844285Y-104530595D01*
X251653809Y-104578214D01*
X251510952Y-104578214D01*
X251320476Y-104530595D01*
X251225238Y-104482976D01*
X251130000Y-104387738D01*
X251082380Y-104244880D01*
X251082380Y-104149642D01*
X251130000Y-104006785D01*
X251177619Y-103959166D01*
X251415714Y-103102023D02*
X252082380Y-103102023D01*
X251034761Y-103340119D02*
X251749047Y-103578214D01*
X251749047Y-102959166D01*
X250973333Y-101257142D02*
X250925714Y-101304761D01*
X250782857Y-101352380D01*
X250687619Y-101352380D01*
X250544761Y-101304761D01*
X250449523Y-101209523D01*
X250401904Y-101114285D01*
X250354285Y-100923809D01*
X250354285Y-100780952D01*
X250401904Y-100590476D01*
X250449523Y-100495238D01*
X250544761Y-100400000D01*
X250687619Y-100352380D01*
X250782857Y-100352380D01*
X250925714Y-100400000D01*
X250973333Y-100447619D01*
X251878095Y-100352380D02*
X251401904Y-100352380D01*
X251354285Y-100828571D01*
X251401904Y-100780952D01*
X251497142Y-100733333D01*
X251735238Y-100733333D01*
X251830476Y-100780952D01*
X251878095Y-100828571D01*
X251925714Y-100923809D01*
X251925714Y-101161904D01*
X251878095Y-101257142D01*
X251830476Y-101304761D01*
X251735238Y-101352380D01*
X251497142Y-101352380D01*
X251401904Y-101304761D01*
X251354285Y-101257142D01*
X242203333Y-101537142D02*
X242155714Y-101584761D01*
X242012857Y-101632380D01*
X241917619Y-101632380D01*
X241774761Y-101584761D01*
X241679523Y-101489523D01*
X241631904Y-101394285D01*
X241584285Y-101203809D01*
X241584285Y-101060952D01*
X241631904Y-100870476D01*
X241679523Y-100775238D01*
X241774761Y-100680000D01*
X241917619Y-100632380D01*
X242012857Y-100632380D01*
X242155714Y-100680000D01*
X242203333Y-100727619D01*
X243060476Y-100632380D02*
X242870000Y-100632380D01*
X242774761Y-100680000D01*
X242727142Y-100727619D01*
X242631904Y-100870476D01*
X242584285Y-101060952D01*
X242584285Y-101441904D01*
X242631904Y-101537142D01*
X242679523Y-101584761D01*
X242774761Y-101632380D01*
X242965238Y-101632380D01*
X243060476Y-101584761D01*
X243108095Y-101537142D01*
X243155714Y-101441904D01*
X243155714Y-101203809D01*
X243108095Y-101108571D01*
X243060476Y-101060952D01*
X242965238Y-101013333D01*
X242774761Y-101013333D01*
X242679523Y-101060952D01*
X242631904Y-101108571D01*
X242584285Y-101203809D01*
X242892380Y-107514166D02*
X242416190Y-107847500D01*
X242892380Y-108085595D02*
X241892380Y-108085595D01*
X241892380Y-107704642D01*
X241940000Y-107609404D01*
X241987619Y-107561785D01*
X242082857Y-107514166D01*
X242225714Y-107514166D01*
X242320952Y-107561785D01*
X242368571Y-107609404D01*
X242416190Y-107704642D01*
X242416190Y-108085595D01*
X241892380Y-107180833D02*
X241892380Y-106561785D01*
X242273333Y-106895119D01*
X242273333Y-106752261D01*
X242320952Y-106657023D01*
X242368571Y-106609404D01*
X242463809Y-106561785D01*
X242701904Y-106561785D01*
X242797142Y-106609404D01*
X242844761Y-106657023D01*
X242892380Y-106752261D01*
X242892380Y-107037976D01*
X242844761Y-107133214D01*
X242797142Y-107180833D01*
X245838095Y-105852380D02*
X245838095Y-106661904D01*
X245885714Y-106757142D01*
X245933333Y-106804761D01*
X246028571Y-106852380D01*
X246219047Y-106852380D01*
X246314285Y-106804761D01*
X246361904Y-106757142D01*
X246409523Y-106661904D01*
X246409523Y-105852380D01*
X247314285Y-105852380D02*
X247123809Y-105852380D01*
X247028571Y-105900000D01*
X246980952Y-105947619D01*
X246885714Y-106090476D01*
X246838095Y-106280952D01*
X246838095Y-106661904D01*
X246885714Y-106757142D01*
X246933333Y-106804761D01*
X247028571Y-106852380D01*
X247219047Y-106852380D01*
X247314285Y-106804761D01*
X247361904Y-106757142D01*
X247409523Y-106661904D01*
X247409523Y-106423809D01*
X247361904Y-106328571D01*
X247314285Y-106280952D01*
X247219047Y-106233333D01*
X247028571Y-106233333D01*
X246933333Y-106280952D01*
X246885714Y-106328571D01*
X246838095Y-106423809D01*
X240461904Y-104066666D02*
X240938095Y-104066666D01*
X240366666Y-104352380D02*
X240700000Y-103352380D01*
X241033333Y-104352380D01*
X241366666Y-104352380D02*
X241366666Y-103352380D01*
X241604761Y-103352380D01*
X241747619Y-103400000D01*
X241842857Y-103495238D01*
X241890476Y-103590476D01*
X241938095Y-103780952D01*
X241938095Y-103923809D01*
X241890476Y-104114285D01*
X241842857Y-104209523D01*
X241747619Y-104304761D01*
X241604761Y-104352380D01*
X241366666Y-104352380D01*
X242938095Y-104257142D02*
X242890476Y-104304761D01*
X242747619Y-104352380D01*
X242652380Y-104352380D01*
X242509523Y-104304761D01*
X242414285Y-104209523D01*
X242366666Y-104114285D01*
X242319047Y-103923809D01*
X242319047Y-103780952D01*
X242366666Y-103590476D01*
X242414285Y-103495238D01*
X242509523Y-103400000D01*
X242652380Y-103352380D01*
X242747619Y-103352380D01*
X242890476Y-103400000D01*
X242938095Y-103447619D01*
X248024000Y-105751781D02*
X248024000Y-105989877D01*
X247785904Y-105894639D02*
X248024000Y-105989877D01*
X248262095Y-105894639D01*
X247881142Y-106180353D02*
X248024000Y-105989877D01*
X248166857Y-106180353D01*
X231868095Y-103542380D02*
X231868095Y-104351904D01*
X231915714Y-104447142D01*
X231963333Y-104494761D01*
X232058571Y-104542380D01*
X232249047Y-104542380D01*
X232344285Y-104494761D01*
X232391904Y-104447142D01*
X232439523Y-104351904D01*
X232439523Y-103542380D01*
X233344285Y-103875714D02*
X233344285Y-104542380D01*
X233106190Y-103494761D02*
X232868095Y-104209047D01*
X233487142Y-104209047D01*
M02*
