M48
; DRILL file {KiCad (5.1.0)-1} date 04/25/19 00:02:26
; FORMAT={-:-/ absolute / metric / decimal}
; #@! TF.CreationDate,2019-04-25T00:02:26-07:00
; #@! TF.GenerationSoftware,Kicad,Pcbnew,(5.1.0)-1
; #@! TF.FileFunction,Plated,1,2,PTH
FMAT,2
METRIC
T1C0.600
T2C0.800
T3C1.000
%
G90
G05
T1
X206.46Y-118.74
X207.7Y-128.52
X208.87Y-115.03
X208.97Y-120.28
X210.18Y-103.3
X210.66Y-118.53
X211.28Y-116.81
X211.43Y-101.32
X213.19Y-115.03
X213.19Y-118.13
X219.24Y-133.27
X220.5Y-114.91
X220.57Y-122.62
X222.54Y-104.52
X222.6Y-101.17
X228.6Y-122.62
X228.69Y-104.99
X228.69Y-107.18
X228.69Y-108.62
X228.69Y-111.78
X228.69Y-113.7
X228.69Y-116.58
X230.43Y-110.38
X233.36Y-112.65
X235.93Y-104.86
X236.27Y-101.17
X236.34Y-111.03
X236.43Y-106.63
X237.74Y-107.43
X237.82Y-103.3
X239.3Y-113.65
X239.46Y-107.72
X239.46Y-112.1
X239.52Y-105.72
X241.9Y-133.54
X242.38Y-101.5
X243.8Y-102.93
X246.14Y-106.35
X255.12Y-102.99
X255.9Y-116.47
X208.93Y-105.55
X210.18Y-105.55
X211.43Y-105.55
X212.68Y-105.55
X208.93Y-110.63
X210.18Y-110.63
X211.43Y-110.63
X212.68Y-110.63
T2
X249.97Y-107.56
X209.04Y-135.95
X209.04Y-139.76
T3
X208.37Y-96.23
X208.37Y-98.77
X210.91Y-96.23
X210.91Y-98.77
X213.45Y-96.23
X213.45Y-98.77
X215.99Y-96.23
X215.99Y-98.77
X218.53Y-96.23
X218.53Y-98.77
X221.07Y-96.23
X221.07Y-98.77
X223.61Y-96.23
X223.61Y-98.77
X226.15Y-96.23
X226.15Y-98.77
X228.69Y-96.23
X228.69Y-98.77
X231.23Y-96.23
X231.23Y-98.77
X233.77Y-96.23
X233.77Y-98.77
X236.31Y-96.23
X236.31Y-98.77
X238.85Y-96.23
X238.85Y-98.77
X241.39Y-96.23
X241.39Y-98.77
X243.93Y-96.23
X243.93Y-98.77
X246.47Y-96.23
X246.47Y-98.77
X249.01Y-96.23
X249.01Y-98.77
X251.55Y-96.23
X251.55Y-98.77
X254.09Y-96.23
X254.09Y-98.77
X256.63Y-96.23
X256.63Y-98.77
T0
M30
