G04 #@! TF.GenerationSoftware,KiCad,Pcbnew,(5.1.0)-1*
G04 #@! TF.CreationDate,2019-05-14T12:18:10-07:00*
G04 #@! TF.ProjectId,ROVPCB,524f5650-4342-42e6-9b69-6361645f7063,rev?*
G04 #@! TF.SameCoordinates,Original*
G04 #@! TF.FileFunction,Legend,Top*
G04 #@! TF.FilePolarity,Positive*
%FSLAX46Y46*%
G04 Gerber Fmt 4.6, Leading zero omitted, Abs format (unit mm)*
G04 Created by KiCad (PCBNEW (5.1.0)-1) date 2019-05-14 12:18:10*
%MOMM*%
%LPD*%
G04 APERTURE LIST*
%ADD10C,0.108000*%
%ADD11C,0.250000*%
%ADD12C,0.120000*%
%ADD13C,0.150000*%
%ADD14C,0.100000*%
%ADD15C,0.203200*%
%ADD16C,0.152400*%
G04 APERTURE END LIST*
D10*
X249999658Y-139735819D02*
G75*
G02X250196974Y-139394161I3199012J-1619705D01*
G01*
X250897501Y-138672203D02*
X250766943Y-138764190D01*
X249733850Y-140217479D02*
X249591099Y-140223345D01*
X251021425Y-138592025D02*
G75*
G02X251065087Y-138579479I43662J-69704D01*
G01*
X251084915Y-138561251D02*
G75*
G02X251077749Y-138574363I-24584J4922D01*
G01*
X246545571Y-143397801D02*
G75*
G02X246378871Y-142983284I1335285J777768D01*
G01*
X246378871Y-142983284D02*
G75*
G02X246337396Y-142537242I1511112J365460D01*
G01*
X247229756Y-140871771D02*
G75*
G02X247641942Y-140608309I1487925J-1873688D01*
G01*
X246337395Y-142537242D02*
G75*
G02X246417755Y-142059459I2112372J-109637D01*
G01*
X250422516Y-139088214D02*
G75*
G02X250653084Y-138854687I1449494J-1200545D01*
G01*
X250766943Y-138764190D02*
X250653084Y-138854687D01*
X251086791Y-138535770D02*
G75*
G02X251084915Y-138561251I-103059J-5224D01*
G01*
X246417756Y-142059459D02*
G75*
G02X246598874Y-141619642I2095818J-605866D01*
G01*
X250196975Y-139394162D02*
G75*
G02X250422516Y-139088214I2818495J-1841661D01*
G01*
X248756488Y-140308821D02*
X248409024Y-140366360D01*
X249291864Y-140249643D02*
X248983555Y-140280600D01*
X249853762Y-140077980D02*
G75*
G02X249999658Y-139735819I2675847J-938789D01*
G01*
X246598874Y-141619642D02*
G75*
G02X246875270Y-141215910I2141101J-1169328D01*
G01*
X246875270Y-141215910D02*
G75*
G02X247229757Y-140871771I1901851J-1604397D01*
G01*
X247641942Y-140608310D02*
G75*
G02X247861131Y-140513706I912147J-1812151D01*
G01*
X248114033Y-140433935D02*
X247861131Y-140513706D01*
X249591099Y-140223345D02*
X249291864Y-140249643D01*
X251077749Y-138574363D02*
G75*
G02X251065087Y-138579479I-12662J13110D01*
G01*
X249804819Y-140217479D02*
X249733850Y-140217479D01*
X248409024Y-140366360D02*
X248114033Y-140433935D01*
X248983555Y-140280600D02*
X248756488Y-140308821D01*
X251021425Y-138592025D02*
X250897501Y-138672203D01*
X249853761Y-140077979D02*
X249804819Y-140217479D01*
X250479170Y-138396653D02*
X250498128Y-138342271D01*
X250830988Y-137664969D02*
X250604503Y-137660837D01*
X250604503Y-137660837D02*
X250514955Y-137655352D01*
X252005488Y-138278947D02*
X252005488Y-138529678D01*
X249977820Y-138491556D02*
G75*
G02X249943346Y-138460534I173216J227154D01*
G01*
X250395557Y-138469040D02*
G75*
G02X250306994Y-138488383I-139766J427510D01*
G01*
X250514955Y-137655352D02*
G75*
G02X250470738Y-137645748I20109J199166D01*
G01*
X250049462Y-138507761D02*
G75*
G02X250007106Y-138504669I-8090J180832D01*
G01*
X251950828Y-137975847D02*
X252005488Y-138028215D01*
X250336458Y-137540805D02*
X250240572Y-137536489D01*
X249883258Y-138370896D02*
X249919015Y-138429372D01*
X249774458Y-137540745D02*
X249705505Y-137547656D01*
X249807822Y-138228479D02*
G75*
G02X249714933Y-138006043I2099431J1007328D01*
G01*
X251075066Y-137669602D02*
X250830988Y-137664969D01*
X251312488Y-137723240D02*
G75*
G02X251482745Y-137839255I-315724J-646279D01*
G01*
X251083318Y-138488420D02*
X251086791Y-138535771D01*
X250882515Y-138352315D02*
X250969367Y-138358378D01*
X250479170Y-138396653D02*
G75*
G02X250448911Y-138439872I-91606J31934D01*
G01*
X250157496Y-138501819D02*
X250306994Y-138488383D01*
X250049462Y-138507761D02*
X250157496Y-138501819D01*
X250336457Y-137540805D02*
G75*
G02X250393275Y-137549190I-33928J-426607D01*
G01*
X250424571Y-137565269D02*
G75*
G02X250437167Y-137579045I-66354J-73319D01*
G01*
X252005488Y-138529678D02*
X251964988Y-138518825D01*
X251170743Y-137676485D02*
G75*
G02X251236683Y-137691720I-38200J-315649D01*
G01*
X251793681Y-138507479D02*
X251785818Y-138394979D01*
X251632883Y-138009960D02*
G75*
G02X251740899Y-138205469I-838596J-590902D01*
G01*
X251883742Y-137871777D02*
G75*
G02X251849965Y-137719273I613462J215864D01*
G01*
X251859084Y-138507725D02*
X251793681Y-138507479D01*
X249943346Y-138460534D02*
G75*
G02X249919015Y-138429372I153330J144798D01*
G01*
X249657802Y-137799708D02*
G75*
G02X249638607Y-137634526I1011102J201205D01*
G01*
X251887092Y-138508614D02*
X251859084Y-138507725D01*
X251849965Y-137719272D02*
G75*
G02X251852761Y-137551963I730150J71475D01*
G01*
X251236684Y-137691720D02*
G75*
G02X251312488Y-137723240I-222848J-642853D01*
G01*
X251482745Y-137839255D02*
G75*
G02X251632884Y-138009959I-715412J-780601D01*
G01*
X251078396Y-138451987D02*
X251083318Y-138488420D01*
X250007106Y-138504669D02*
G75*
G02X249977819Y-138491556I13293J68951D01*
G01*
X250393275Y-137549191D02*
G75*
G02X250424570Y-137565269I-14458J-66635D01*
G01*
X251944909Y-138514632D02*
X251917172Y-138511087D01*
X251061995Y-138389787D02*
G75*
G02X251070849Y-138417811I-313236J-114373D01*
G01*
X249807822Y-138228479D02*
X249844494Y-138301208D01*
X249879578Y-137536611D02*
X249774458Y-137540745D01*
X251053158Y-138375920D02*
G75*
G02X251061996Y-138389787I-26985J-26947D01*
G01*
X250969367Y-138358378D02*
X251033123Y-138365916D01*
X251075066Y-137669602D02*
G75*
G02X251170743Y-137676485I-22897J-986665D01*
G01*
X251917172Y-138511087D02*
X251887092Y-138508614D01*
X249674801Y-137560023D02*
G75*
G02X249705505Y-137547656I39728J-54332D01*
G01*
X250498128Y-138342271D02*
X250764938Y-138348375D01*
X249714934Y-138006043D02*
G75*
G02X249657803Y-137799708I1369023J490135D01*
G01*
X251740900Y-138205468D02*
G75*
G02X251785818Y-138394979I-553927J-231371D01*
G01*
X250050011Y-137535479D02*
X249879578Y-137536611D01*
X250240572Y-137536489D02*
X250050011Y-137535479D01*
X252005488Y-138028215D02*
X252005488Y-138278947D01*
X251950827Y-137975847D02*
G75*
G02X251883742Y-137871776I184532J192609D01*
G01*
X250437166Y-137579045D02*
G75*
G02X250447818Y-137595767I-100268J-75622D01*
G01*
X251944910Y-138514633D02*
G75*
G02X251964988Y-138518825I-27352J-181176D01*
G01*
X250455125Y-137612772D02*
G75*
G02X250457488Y-137627259I-43218J-14487D01*
G01*
X250764938Y-138348375D02*
X250882515Y-138352315D01*
X250448911Y-138439872D02*
G75*
G02X250395557Y-138469039I-104905J128514D01*
G01*
X249844494Y-138301208D02*
X249883258Y-138370896D01*
X250447818Y-137595767D02*
G75*
G02X250455124Y-137612772I-99354J-52758D01*
G01*
X249638606Y-137634526D02*
G75*
G02X249674801Y-137560024I88412J3091D01*
G01*
X250470738Y-137645748D02*
G75*
G02X250457488Y-137627259I6274J18489D01*
G01*
X251070849Y-138417812D02*
G75*
G02X251078396Y-138451987I-379221J-101664D01*
G01*
X251033123Y-138365917D02*
G75*
G02X251053158Y-138375920I-4926J-34929D01*
G01*
X246540745Y-142442174D02*
G75*
G02X246529086Y-142437759I5546J32252D01*
G01*
X246797104Y-142485202D02*
X246956713Y-142510372D01*
X246501624Y-142481511D02*
G75*
G02X246511765Y-142443177I129888J-13851D01*
G01*
X246504226Y-142670886D02*
X246498772Y-142554958D01*
X246660416Y-142462621D02*
X246797104Y-142485202D01*
X246511765Y-142443177D02*
G75*
G02X246529086Y-142437759I11008J-4797D01*
G01*
X246498771Y-142554958D02*
G75*
G02X246501624Y-142481511I545346J15598D01*
G01*
X246540746Y-142442174D02*
X246660416Y-142462621D01*
X251769096Y-142978205D02*
X251852488Y-142885931D01*
X250560369Y-142925364D02*
X250588400Y-142956803D01*
X250384959Y-142859110D02*
G75*
G02X250470988Y-142868438I-58483J-940730D01*
G01*
X254232953Y-144167938D02*
X254001098Y-144258532D01*
X253415430Y-143240718D02*
G75*
G02X253211872Y-143207462I20019J762153D01*
G01*
X255499866Y-143598138D02*
X255260468Y-143715074D01*
X253616488Y-143217070D02*
G75*
G02X253415431Y-143240718I-182452J684695D01*
G01*
X250028429Y-142838647D02*
X250168467Y-142846549D01*
X256129332Y-142889764D02*
X256112119Y-143103922D01*
X253021463Y-143119933D02*
G75*
G02X252858961Y-142984711I436409J689708D01*
G01*
X247384501Y-143999707D02*
G75*
G02X246952241Y-143649020I1130312J1834975D01*
G01*
X251219383Y-143238507D02*
G75*
G02X250915942Y-143189872I-32866J765859D01*
G01*
X254001098Y-144258532D02*
X253840072Y-144317887D01*
X255260468Y-143715074D02*
X255026867Y-143827119D01*
X256087245Y-143308734D02*
X255499866Y-143598138D01*
X256147007Y-142650912D02*
X256129332Y-142889764D01*
X256142320Y-142638312D02*
G75*
G02X256147007Y-142650912I-11420J-11420D01*
G01*
X252306891Y-142882575D02*
X252761295Y-142879220D01*
X256112119Y-143103922D02*
X256098188Y-143228897D01*
X254064735Y-142912185D02*
X254130579Y-142816584D01*
X250517132Y-142881800D02*
G75*
G02X250544826Y-142904942I-25456J-58604D01*
G01*
X256079701Y-142641205D02*
X256136343Y-142636133D01*
X255248191Y-142727793D02*
X255680427Y-142686460D01*
X254798374Y-142767619D02*
X255248191Y-142727793D01*
X254064735Y-142912185D02*
G75*
G02X253979946Y-143012148I-538875J371136D01*
G01*
X250470989Y-142868438D02*
G75*
G02X250517133Y-142881800I-28866J-186041D01*
G01*
X252761295Y-142879220D02*
X252858961Y-142984711D01*
X253748705Y-143169420D02*
G75*
G02X253616488Y-143217070I-344153J747691D01*
G01*
X253979945Y-143012148D02*
G75*
G02X253872298Y-143099582I-567757J589030D01*
G01*
X250560369Y-142925364D02*
G75*
G02X250544826Y-142904942I156166J134985D01*
G01*
X249786599Y-142823008D02*
X249897099Y-142830496D01*
X246545350Y-142939993D02*
G75*
G02X246504226Y-142670886I1536467J372492D01*
G01*
X246631392Y-143188209D02*
G75*
G02X246545350Y-142939993I1248063J571649D01*
G01*
X246766066Y-143422214D02*
G75*
G02X246631392Y-143188209I1190993J841199D01*
G01*
X246952240Y-143649020D02*
G75*
G02X246766066Y-143422213I1470861J1397171D01*
G01*
X247935389Y-144269086D02*
G75*
G02X247384500Y-143999708I1104574J2956884D01*
G01*
X248628673Y-144466338D02*
G75*
G02X247935389Y-144269086I878709J4405383D01*
G01*
X253211872Y-143207462D02*
G75*
G02X253021463Y-143119932I231262J753946D01*
G01*
X250588400Y-142956803D02*
X250621676Y-142991870D01*
X249494488Y-144598706D02*
G75*
G02X248628673Y-144466338I1031301J9643554D01*
G01*
X251769096Y-142978205D02*
G75*
G02X251519336Y-143164071I-592546J535502D01*
G01*
X250620026Y-144662554D02*
G75*
G02X249494488Y-144598705I76854J11307364D01*
G01*
X254484096Y-144066938D02*
X254232953Y-144167938D01*
X254826084Y-143921648D02*
X254714488Y-143971250D01*
X251852488Y-142885931D02*
X252306891Y-142882575D01*
X256136343Y-142636133D02*
G75*
G02X256142320Y-142638312I649J-7506D01*
G01*
X251880985Y-144626143D02*
X250620025Y-144662554D01*
X253048994Y-144509008D02*
X251880985Y-144626143D01*
X255026867Y-143827119D02*
X254826084Y-143921648D01*
X256098188Y-143228897D02*
X256087245Y-143308734D01*
X255938186Y-142657198D02*
X256014438Y-142647955D01*
X254714488Y-143971250D02*
X254484096Y-144066938D01*
X249897099Y-142830496D02*
X250028429Y-142838647D01*
X256014438Y-142647955D02*
X256079701Y-142641205D01*
X254449533Y-142794496D02*
X254798374Y-142767619D01*
X253840073Y-144317886D02*
G75*
G02X253048994Y-144509008I-1332097J3780976D01*
G01*
X255680427Y-142686460D02*
X255938186Y-142657198D01*
X251519336Y-143164071D02*
G75*
G02X251219383Y-143238507I-333243J701285D01*
G01*
X250915942Y-143189872D02*
G75*
G02X250656120Y-143025969I270187J716195D01*
G01*
X250168467Y-142846549D02*
X250384960Y-142859110D01*
X249736120Y-142818381D02*
X249786599Y-142823008D01*
X254130579Y-142816584D02*
X254449533Y-142794496D01*
X250621676Y-142991870D02*
X250656120Y-143025969D01*
X253872299Y-143099582D02*
G75*
G02X253748705Y-143169420I-481754J708284D01*
G01*
X251852761Y-137551963D02*
G75*
G02X251894709Y-137402569I540741J-71246D01*
G01*
X251894708Y-137402569D02*
G75*
G02X251926591Y-137345821I312444J-138209D01*
G01*
X251965894Y-137302694D02*
G75*
G02X252018450Y-137268115I171977J-204160D01*
G01*
X251926591Y-137345821D02*
G75*
G02X251965893Y-137302693I182399J-126747D01*
G01*
X252018450Y-137268114D02*
G75*
G02X252091151Y-137237092I292396J-584538D01*
G01*
X252279786Y-137213183D02*
X252167272Y-137219896D01*
X252769440Y-138675830D02*
G75*
G02X252831124Y-138748260I-147223J-187862D01*
G01*
X252670725Y-138615123D02*
G75*
G02X252769439Y-138675830I-217314J-463975D01*
G01*
X250816743Y-137743123D02*
X250912777Y-137744069D01*
X250507907Y-137921064D02*
X250504346Y-137856876D01*
X252670726Y-138615123D02*
X252581488Y-138573326D01*
X250912777Y-137744069D02*
X250996329Y-137746542D01*
X250648751Y-137745847D02*
X250723375Y-137743674D01*
X252698530Y-137517298D02*
G75*
G02X252704202Y-137708773I-1300446J-134350D01*
G01*
X250500053Y-137819713D02*
X250489015Y-137752946D01*
X252393999Y-137216024D02*
G75*
G02X252477429Y-137230272I-28055J-415668D01*
G01*
X250723375Y-137743674D02*
X250816743Y-137743123D01*
X252831123Y-138748259D02*
G75*
G02X252884628Y-138871827I-613658J-339082D01*
G01*
X253279794Y-140240718D02*
X253190051Y-139908351D01*
X250511289Y-138070979D02*
X250510403Y-137995447D01*
X251130094Y-138354359D02*
G75*
G02X251168413Y-138453038I-220514J-142408D01*
G01*
X251588776Y-138496177D02*
X251528175Y-138500782D01*
X251426349Y-137905250D02*
G75*
G02X251558590Y-138058120I-736916J-771102D01*
G01*
X252698121Y-137809028D02*
X252704202Y-137708773D01*
X252689007Y-137863421D02*
G75*
G02X252671824Y-137906514I-180249J46902D01*
G01*
X252393998Y-137216024D02*
X252279786Y-137213183D01*
X253084611Y-139533948D02*
X252977909Y-139171052D01*
X253368096Y-140591958D02*
X253355559Y-140550640D01*
X253342119Y-140500546D02*
X253329112Y-140444885D01*
X253375594Y-140606068D02*
G75*
G02X253368096Y-140591958I35021J27657D01*
G01*
X251528175Y-138500782D02*
X251454864Y-138506308D01*
X251558590Y-138058120D02*
G75*
G02X251659945Y-138233689I-873377J-621235D01*
G01*
X253387191Y-140614955D02*
G75*
G02X253375593Y-140606068I11713J27296D01*
G01*
X252091151Y-137237092D02*
G75*
G02X252167272Y-137219896I108986J-305366D01*
G01*
X253329112Y-140444885D02*
X253279794Y-140240718D01*
X253190051Y-139908351D02*
X253084611Y-139533948D01*
X250511488Y-138255479D02*
X250511289Y-138070979D01*
X250695988Y-138256794D02*
X250511488Y-138255479D01*
X252698121Y-137809028D02*
G75*
G02X252689007Y-137863422I-310892J24131D01*
G01*
X250933370Y-138265786D02*
G75*
G02X251059566Y-138295489I-27460J-399606D01*
G01*
X251318671Y-138516478D02*
X251180854Y-138526676D01*
X252477429Y-137230272D02*
G75*
G02X252586591Y-137286335I-81225J-292460D01*
G01*
X251454864Y-138506308D02*
X251381027Y-138511842D01*
X252977909Y-139171052D02*
X252884628Y-138871827D01*
X251721064Y-138486073D02*
X251588776Y-138496177D01*
X250489015Y-137752946D02*
X250648751Y-137745847D01*
X250500053Y-137819713D02*
G75*
G02X250504346Y-137856876I-377993J-62491D01*
G01*
X250510403Y-137995447D02*
X250507907Y-137921064D01*
X253355559Y-140550640D02*
X253342119Y-140500546D01*
X252586591Y-137286335D02*
G75*
G02X252659947Y-137379369I-166460J-206689D01*
G01*
X251381027Y-138511842D02*
X251318671Y-138516478D01*
X251659945Y-138233689D02*
G75*
G02X251709244Y-138402276I-555238J-253865D01*
G01*
X252659946Y-137379369D02*
G75*
G02X252698529Y-137517298I-382918J-181474D01*
G01*
X252671824Y-137906515D02*
G75*
G02X252639169Y-137958699I-491601J271312D01*
G01*
X252581488Y-138306929D02*
X252581488Y-138040532D01*
X250933370Y-138265787D02*
X250695988Y-138256794D01*
X251059566Y-138295489D02*
G75*
G02X251130094Y-138354358I-59276J-142697D01*
G01*
X252581488Y-138040532D02*
X252639169Y-137958699D01*
X251709244Y-138402276D02*
X251721064Y-138486073D01*
X252581488Y-138573326D02*
X252581488Y-138306929D01*
X251180854Y-138526676D02*
X251168413Y-138453038D01*
X251284329Y-137804900D02*
G75*
G02X251426350Y-137905249I-266441J-527758D01*
G01*
X256332739Y-143628017D02*
X256484125Y-143700479D01*
X256877747Y-143889479D02*
X257263516Y-143889479D01*
X247523488Y-144292099D02*
X247731080Y-144391984D01*
X254389246Y-144313859D02*
X254805995Y-144133344D01*
X257688111Y-141447085D02*
G75*
G02X257781957Y-141566882I-650335J-606114D01*
G01*
X256088992Y-143512606D02*
X256204209Y-143566998D01*
X255212736Y-143946645D02*
X255566957Y-143772504D01*
X257926720Y-141882936D02*
G75*
G02X258008911Y-142254662I-1964805J-629382D01*
G01*
X250255037Y-144851216D02*
X251060488Y-144856132D01*
X255763148Y-143672423D02*
X255929397Y-143588155D01*
X257880468Y-143604005D02*
X257926804Y-143479583D01*
X253416984Y-140626657D02*
X253387190Y-140614955D01*
X256376842Y-141524624D02*
X256253312Y-141603708D01*
X253453928Y-140638414D02*
X253416984Y-140626657D01*
X253494775Y-140648653D02*
X253453928Y-140638414D01*
X253494775Y-140648653D02*
G75*
G02X253730441Y-140721217I-331976J-1497131D01*
G01*
X249568852Y-144810660D02*
X250255037Y-144851216D01*
X248956664Y-144731509D02*
X249568852Y-144810660D01*
X251060488Y-144856132D02*
X251987572Y-144821060D01*
X254241652Y-140930484D02*
X253730441Y-140721217D01*
X256034334Y-141738727D02*
G75*
G02X256015081Y-141738194I-8986J23417D01*
G01*
X247325808Y-144181268D02*
G75*
G02X247150270Y-144063217I1232295J2021911D01*
G01*
X256204209Y-143566998D02*
X256332739Y-143628017D01*
X255818643Y-141649666D02*
X255595346Y-141546479D01*
X257506622Y-141296419D02*
X257100555Y-141308240D01*
X254805995Y-144133344D02*
X255212736Y-143946645D01*
X246834498Y-143782618D02*
G75*
G02X246545571Y-143397802I1498295J1425824D01*
G01*
X248135952Y-144542600D02*
X248377315Y-144609595D01*
X247325809Y-144181269D02*
X247523488Y-144292099D01*
X256484125Y-143700479D02*
X256877747Y-143889479D01*
X254807642Y-141176392D02*
X254241652Y-140930484D01*
X256015081Y-141738194D02*
X255818643Y-141649666D01*
X255334979Y-141422144D02*
X254807642Y-141176392D01*
X257100555Y-141308240D02*
X256694488Y-141320062D01*
X255595346Y-141546479D02*
X255334979Y-141422144D01*
X257781957Y-141566882D02*
G75*
G02X257860861Y-141711145I-879510J-574754D01*
G01*
X258008911Y-142254661D02*
G75*
G02X258036085Y-142687962I-3443892J-433484D01*
G01*
X256052021Y-141729943D02*
G75*
G02X256034334Y-141738727I-55153J88851D01*
G01*
X256145201Y-141671899D02*
X256052020Y-141729943D01*
X256253312Y-141603708D02*
X256145201Y-141671899D01*
X256694488Y-141320062D02*
X256376842Y-141524624D01*
X257577555Y-141348631D02*
X257506622Y-141296419D01*
X254004174Y-144469445D02*
X254389246Y-144313859D01*
X257834091Y-143696967D02*
G75*
G02X257781736Y-143770181I-448030J265057D01*
G01*
X252799463Y-144742876D02*
X253481181Y-144625563D01*
X248377315Y-144609595D02*
X248956664Y-144731509D01*
X257649285Y-143889479D02*
X257717640Y-143833135D01*
X256083964Y-143511480D02*
G75*
G02X256088992Y-143512606I1J-11781D01*
G01*
X255566957Y-143772504D02*
X255763148Y-143672423D01*
X251987572Y-144821060D02*
X252799463Y-144742876D01*
X247731080Y-144391984D02*
X247928009Y-144472738D01*
X257577555Y-141348631D02*
G75*
G02X257688111Y-141447085I-472385J-641754D01*
G01*
X254004174Y-144469445D02*
G75*
G02X253481181Y-144625563I-1236747J3189023D01*
G01*
X247928009Y-144472738D02*
X248135952Y-144542600D01*
X247150271Y-144063217D02*
G75*
G02X246989076Y-143932234I1353362J1830198D01*
G01*
X246834498Y-143782618D02*
X246989076Y-143932234D01*
X257263516Y-143889479D02*
X257649285Y-143889479D01*
X256078942Y-143512674D02*
G75*
G02X256083965Y-143511479I5023J-9955D01*
G01*
X255929397Y-143588155D02*
X256078942Y-143512675D01*
X257860862Y-141711145D02*
G75*
G02X257926720Y-141882936I-1497089J-672447D01*
G01*
X257880467Y-143604006D02*
G75*
G02X257834091Y-143696968I-672369J277381D01*
G01*
X257781736Y-143770181D02*
G75*
G02X257717640Y-143833135I-392785J335802D01*
G01*
X258036086Y-142687962D02*
G75*
G02X258009048Y-143118047I-3431329J-180D01*
G01*
X258009047Y-143118046D02*
G75*
G02X257926804Y-143479583I-1878704J237249D01*
G01*
X251803726Y-139229198D02*
G75*
G02X251866818Y-139237514I773J-237631D01*
G01*
X252501766Y-138034774D02*
G75*
G02X252508112Y-138065942I-92361J-35035D01*
G01*
X251223152Y-137777849D02*
G75*
G02X251284329Y-137804900I-233391J-610522D01*
G01*
X252315780Y-137958966D02*
G75*
G02X252390855Y-137970286I-24722J-418599D01*
G01*
X246956713Y-142510372D02*
X247142598Y-142538269D01*
X252162987Y-137977346D02*
G75*
G02X252237501Y-137961249I121297J-380966D01*
G01*
X252509488Y-138136176D02*
X252508671Y-138191424D01*
X252485887Y-138582435D02*
X252430187Y-138572799D01*
X252508671Y-138191424D02*
X252506021Y-138265362D01*
X252486861Y-138014554D02*
G75*
G02X252501766Y-138034774I-28704J-36762D01*
G01*
X251101857Y-137752736D02*
G75*
G02X251168494Y-137761982I-41072J-540789D01*
G01*
X249134591Y-143215398D02*
G75*
G02X248852814Y-143232070I-187020J771375D01*
G01*
X252430187Y-138572799D02*
X252399468Y-138567777D01*
X251743196Y-139237999D02*
G75*
G02X251803726Y-139229198I61237J-208609D01*
G01*
X251652432Y-139680113D02*
G75*
G02X251565416Y-139548103I145671J190704D01*
G01*
X249653753Y-142809071D02*
X249736120Y-142818381D01*
X248489023Y-143087860D02*
G75*
G02X248387337Y-142990895I783383J923324D01*
G01*
X248387337Y-142990895D02*
G75*
G02X248297600Y-142882842I884750J826062D01*
G01*
X248136452Y-142670395D02*
X248162488Y-142674955D01*
X247895933Y-142639101D02*
X248026025Y-142655808D01*
X251578154Y-139387550D02*
G75*
G02X251685823Y-139263382I248373J-106605D01*
G01*
X252390855Y-137970286D02*
G75*
G02X252455798Y-137994640I-69827J-284970D01*
G01*
X252225988Y-138542250D02*
X252077488Y-138521338D01*
X251837457Y-139729402D02*
G75*
G02X251803881Y-139731412I-33334J275453D01*
G01*
X251909000Y-139714300D02*
G75*
G02X251874375Y-139723272I-117277J381291D01*
G01*
X252502207Y-138344218D02*
X252497687Y-138416192D01*
X252077488Y-138262953D02*
X252077488Y-138004569D01*
X251935177Y-139703606D02*
G75*
G02X251908999Y-139714300I-72720J140627D01*
G01*
X248581365Y-143149377D02*
G75*
G02X248489024Y-143087861I217975J427268D01*
G01*
X251565416Y-139548103D02*
G75*
G02X251578154Y-139387550I243625J61453D01*
G01*
X252025813Y-139614476D02*
G75*
G02X251935177Y-139703606I-189500J102054D01*
G01*
X252077488Y-138521338D02*
X252077488Y-138262953D01*
X251803881Y-139731413D02*
G75*
G02X251652432Y-139680113I218J249852D01*
G01*
X252497687Y-138416192D02*
X252485887Y-138582435D01*
X248026025Y-142655808D02*
X248136452Y-142670395D01*
X252508112Y-138065942D02*
X252509488Y-138136176D01*
X252455798Y-137994640D02*
G75*
G02X252486861Y-138014554I-91419J-176785D01*
G01*
X252023795Y-139351425D02*
G75*
G02X252058439Y-139482917I-240388J-133643D01*
G01*
X249587358Y-142905473D02*
X249653753Y-142809071D01*
X249390390Y-143101640D02*
G75*
G02X249134592Y-143215398I-439427J643627D01*
G01*
X249587358Y-142905474D02*
G75*
G02X249390389Y-143101641I-624593J430174D01*
G01*
X248852814Y-143232070D02*
G75*
G02X248581364Y-143149376I96719J804365D01*
G01*
X252347227Y-138559850D02*
X252286926Y-138550963D01*
X251685823Y-139263383D02*
G75*
G02X251743195Y-139238000I125014J-205038D01*
G01*
X252058439Y-139482916D02*
G75*
G02X252025813Y-139614475I-272950J-2136D01*
G01*
X248297600Y-142882842D02*
G75*
G02X248242683Y-142786633I384226J283100D01*
G01*
X248221295Y-142741083D02*
X248242683Y-142786633D01*
X248200573Y-142707225D02*
G75*
G02X248221295Y-142741083I-219333J-157500D01*
G01*
X251874375Y-139723272D02*
G75*
G02X251837458Y-139729403I-87872J414909D01*
G01*
X248180809Y-142684621D02*
G75*
G02X248200573Y-142707224I-107870J-114257D01*
G01*
X247748488Y-142620773D02*
X247895933Y-142639101D01*
X252237502Y-137961249D02*
G75*
G02X252315781Y-137958967I52051J-441786D01*
G01*
X252077488Y-138004569D02*
X252162988Y-137977346D01*
X247359979Y-142569224D02*
X247573974Y-142598426D01*
X251931727Y-139262582D02*
G75*
G02X252023795Y-139351424I-99719J-195466D01*
G01*
X252399468Y-138567777D02*
X252347227Y-138559850D01*
X248162487Y-142674955D02*
G75*
G02X248180810Y-142684620I-8218J-37778D01*
G01*
X252506021Y-138265362D02*
X252502207Y-138344218D01*
X247573974Y-142598426D02*
X247748488Y-142620773D01*
X247142598Y-142538269D02*
X247359979Y-142569224D01*
X251866818Y-139237515D02*
G75*
G02X251931728Y-139262582I-88570J-325911D01*
G01*
X250996329Y-137746542D02*
X251101857Y-137752736D01*
X252286926Y-138550963D02*
X252225988Y-138542250D01*
X251168494Y-137761982D02*
G75*
G02X251223152Y-137777849I-68494J-338018D01*
G01*
D11*
X248818095Y-109907142D02*
X248770476Y-109954761D01*
X248627619Y-110002380D01*
X248532380Y-110002380D01*
X248389523Y-109954761D01*
X248294285Y-109859523D01*
X248246666Y-109764285D01*
X248199047Y-109573809D01*
X248199047Y-109430952D01*
X248246666Y-109240476D01*
X248294285Y-109145238D01*
X248389523Y-109050000D01*
X248532380Y-109002380D01*
X248627619Y-109002380D01*
X248770476Y-109050000D01*
X248818095Y-109097619D01*
X249960952Y-109954761D02*
X250103809Y-110002380D01*
X250341904Y-110002380D01*
X250437142Y-109954761D01*
X250484761Y-109907142D01*
X250532380Y-109811904D01*
X250532380Y-109716666D01*
X250484761Y-109621428D01*
X250437142Y-109573809D01*
X250341904Y-109526190D01*
X250151428Y-109478571D01*
X250056190Y-109430952D01*
X250008571Y-109383333D01*
X249960952Y-109288095D01*
X249960952Y-109192857D01*
X250008571Y-109097619D01*
X250056190Y-109050000D01*
X250151428Y-109002380D01*
X250389523Y-109002380D01*
X250532380Y-109050000D01*
X251341904Y-109954761D02*
X251246666Y-110002380D01*
X251056190Y-110002380D01*
X250960952Y-109954761D01*
X250913333Y-109859523D01*
X250913333Y-109478571D01*
X250960952Y-109383333D01*
X251056190Y-109335714D01*
X251246666Y-109335714D01*
X251341904Y-109383333D01*
X251389523Y-109478571D01*
X251389523Y-109573809D01*
X250913333Y-109669047D01*
X251818095Y-109335714D02*
X251818095Y-110002380D01*
X251818095Y-109430952D02*
X251865714Y-109383333D01*
X251960952Y-109335714D01*
X252103809Y-109335714D01*
X252199047Y-109383333D01*
X252246666Y-109478571D01*
X252246666Y-110002380D01*
X252675238Y-109954761D02*
X252770476Y-110002380D01*
X252960952Y-110002380D01*
X253056190Y-109954761D01*
X253103809Y-109859523D01*
X253103809Y-109811904D01*
X253056190Y-109716666D01*
X252960952Y-109669047D01*
X252818095Y-109669047D01*
X252722857Y-109621428D01*
X252675238Y-109526190D01*
X252675238Y-109478571D01*
X252722857Y-109383333D01*
X252818095Y-109335714D01*
X252960952Y-109335714D01*
X253056190Y-109383333D01*
X253913333Y-109954761D02*
X253818095Y-110002380D01*
X253627619Y-110002380D01*
X253532380Y-109954761D01*
X253484761Y-109859523D01*
X253484761Y-109478571D01*
X253532380Y-109383333D01*
X253627619Y-109335714D01*
X253818095Y-109335714D01*
X253913333Y-109383333D01*
X253960952Y-109478571D01*
X253960952Y-109573809D01*
X253484761Y-109669047D01*
X203229047Y-136722380D02*
X203229047Y-135722380D01*
X203610000Y-135722380D01*
X203705238Y-135770000D01*
X203752857Y-135817619D01*
X203800476Y-135912857D01*
X203800476Y-136055714D01*
X203752857Y-136150952D01*
X203705238Y-136198571D01*
X203610000Y-136246190D01*
X203229047Y-136246190D01*
X204800476Y-136722380D02*
X204467142Y-136246190D01*
X204229047Y-136722380D02*
X204229047Y-135722380D01*
X204610000Y-135722380D01*
X204705238Y-135770000D01*
X204752857Y-135817619D01*
X204800476Y-135912857D01*
X204800476Y-136055714D01*
X204752857Y-136150952D01*
X204705238Y-136198571D01*
X204610000Y-136246190D01*
X204229047Y-136246190D01*
X205562380Y-136198571D02*
X205705238Y-136246190D01*
X205752857Y-136293809D01*
X205800476Y-136389047D01*
X205800476Y-136531904D01*
X205752857Y-136627142D01*
X205705238Y-136674761D01*
X205610000Y-136722380D01*
X205229047Y-136722380D01*
X205229047Y-135722380D01*
X205562380Y-135722380D01*
X205657619Y-135770000D01*
X205705238Y-135817619D01*
X205752857Y-135912857D01*
X205752857Y-136008095D01*
X205705238Y-136103333D01*
X205657619Y-136150952D01*
X205562380Y-136198571D01*
X205229047Y-136198571D01*
X206229047Y-136341428D02*
X206990952Y-136341428D01*
X203229047Y-140222380D02*
X203229047Y-139222380D01*
X203610000Y-139222380D01*
X203705238Y-139270000D01*
X203752857Y-139317619D01*
X203800476Y-139412857D01*
X203800476Y-139555714D01*
X203752857Y-139650952D01*
X203705238Y-139698571D01*
X203610000Y-139746190D01*
X203229047Y-139746190D01*
X204800476Y-140222380D02*
X204467142Y-139746190D01*
X204229047Y-140222380D02*
X204229047Y-139222380D01*
X204610000Y-139222380D01*
X204705238Y-139270000D01*
X204752857Y-139317619D01*
X204800476Y-139412857D01*
X204800476Y-139555714D01*
X204752857Y-139650952D01*
X204705238Y-139698571D01*
X204610000Y-139746190D01*
X204229047Y-139746190D01*
X205562380Y-139698571D02*
X205705238Y-139746190D01*
X205752857Y-139793809D01*
X205800476Y-139889047D01*
X205800476Y-140031904D01*
X205752857Y-140127142D01*
X205705238Y-140174761D01*
X205610000Y-140222380D01*
X205229047Y-140222380D01*
X205229047Y-139222380D01*
X205562380Y-139222380D01*
X205657619Y-139270000D01*
X205705238Y-139317619D01*
X205752857Y-139412857D01*
X205752857Y-139508095D01*
X205705238Y-139603333D01*
X205657619Y-139650952D01*
X205562380Y-139698571D01*
X205229047Y-139698571D01*
X206229047Y-139841428D02*
X206990952Y-139841428D01*
X206610000Y-140222380D02*
X206610000Y-139460476D01*
X215326190Y-117616666D02*
X215802380Y-117616666D01*
X215230952Y-117902380D02*
X215564285Y-116902380D01*
X215897619Y-117902380D01*
X216659523Y-117854761D02*
X216564285Y-117902380D01*
X216373809Y-117902380D01*
X216278571Y-117854761D01*
X216230952Y-117807142D01*
X216183333Y-117711904D01*
X216183333Y-117426190D01*
X216230952Y-117330952D01*
X216278571Y-117283333D01*
X216373809Y-117235714D01*
X216564285Y-117235714D01*
X216659523Y-117283333D01*
X217516666Y-117854761D02*
X217421428Y-117902380D01*
X217230952Y-117902380D01*
X217135714Y-117854761D01*
X217088095Y-117807142D01*
X217040476Y-117711904D01*
X217040476Y-117426190D01*
X217088095Y-117330952D01*
X217135714Y-117283333D01*
X217230952Y-117235714D01*
X217421428Y-117235714D01*
X217516666Y-117283333D01*
X218326190Y-117854761D02*
X218230952Y-117902380D01*
X218040476Y-117902380D01*
X217945238Y-117854761D01*
X217897619Y-117759523D01*
X217897619Y-117378571D01*
X217945238Y-117283333D01*
X218040476Y-117235714D01*
X218230952Y-117235714D01*
X218326190Y-117283333D01*
X218373809Y-117378571D01*
X218373809Y-117473809D01*
X217897619Y-117569047D01*
X218945238Y-117902380D02*
X218850000Y-117854761D01*
X218802380Y-117759523D01*
X218802380Y-116902380D01*
X219326190Y-117807142D02*
X219373809Y-117854761D01*
X219326190Y-117902380D01*
X219278571Y-117854761D01*
X219326190Y-117807142D01*
X219326190Y-117902380D01*
X223762380Y-108012380D02*
X223286190Y-108012380D01*
X223286190Y-107012380D01*
X224524285Y-107345714D02*
X224524285Y-108012380D01*
X224095714Y-107345714D02*
X224095714Y-107869523D01*
X224143333Y-107964761D01*
X224238571Y-108012380D01*
X224381428Y-108012380D01*
X224476666Y-107964761D01*
X224524285Y-107917142D01*
X224905238Y-108012380D02*
X225429047Y-107345714D01*
X224905238Y-107345714D02*
X225429047Y-108012380D01*
X228228095Y-114882380D02*
X228799523Y-114882380D01*
X228513809Y-115882380D02*
X228513809Y-114882380D01*
X229513809Y-115834761D02*
X229418571Y-115882380D01*
X229228095Y-115882380D01*
X229132857Y-115834761D01*
X229085238Y-115739523D01*
X229085238Y-115358571D01*
X229132857Y-115263333D01*
X229228095Y-115215714D01*
X229418571Y-115215714D01*
X229513809Y-115263333D01*
X229561428Y-115358571D01*
X229561428Y-115453809D01*
X229085238Y-115549047D01*
X229990000Y-115882380D02*
X229990000Y-115215714D01*
X229990000Y-115310952D02*
X230037619Y-115263333D01*
X230132857Y-115215714D01*
X230275714Y-115215714D01*
X230370952Y-115263333D01*
X230418571Y-115358571D01*
X230418571Y-115882380D01*
X230418571Y-115358571D02*
X230466190Y-115263333D01*
X230561428Y-115215714D01*
X230704285Y-115215714D01*
X230799523Y-115263333D01*
X230847142Y-115358571D01*
X230847142Y-115882380D01*
X231323333Y-115215714D02*
X231323333Y-116215714D01*
X231323333Y-115263333D02*
X231418571Y-115215714D01*
X231609047Y-115215714D01*
X231704285Y-115263333D01*
X231751904Y-115310952D01*
X231799523Y-115406190D01*
X231799523Y-115691904D01*
X231751904Y-115787142D01*
X231704285Y-115834761D01*
X231609047Y-115882380D01*
X231418571Y-115882380D01*
X231323333Y-115834761D01*
X232942380Y-114834761D02*
X232085238Y-116120476D01*
X233275714Y-115882380D02*
X233275714Y-114882380D01*
X233656666Y-114882380D01*
X233751904Y-114930000D01*
X233799523Y-114977619D01*
X233847142Y-115072857D01*
X233847142Y-115215714D01*
X233799523Y-115310952D01*
X233751904Y-115358571D01*
X233656666Y-115406190D01*
X233275714Y-115406190D01*
X234275714Y-115882380D02*
X234275714Y-115215714D01*
X234275714Y-115406190D02*
X234323333Y-115310952D01*
X234370952Y-115263333D01*
X234466190Y-115215714D01*
X234561428Y-115215714D01*
X235275714Y-115834761D02*
X235180476Y-115882380D01*
X234990000Y-115882380D01*
X234894761Y-115834761D01*
X234847142Y-115739523D01*
X234847142Y-115358571D01*
X234894761Y-115263333D01*
X234990000Y-115215714D01*
X235180476Y-115215714D01*
X235275714Y-115263333D01*
X235323333Y-115358571D01*
X235323333Y-115453809D01*
X234847142Y-115549047D01*
X235704285Y-115834761D02*
X235799523Y-115882380D01*
X235990000Y-115882380D01*
X236085238Y-115834761D01*
X236132857Y-115739523D01*
X236132857Y-115691904D01*
X236085238Y-115596666D01*
X235990000Y-115549047D01*
X235847142Y-115549047D01*
X235751904Y-115501428D01*
X235704285Y-115406190D01*
X235704285Y-115358571D01*
X235751904Y-115263333D01*
X235847142Y-115215714D01*
X235990000Y-115215714D01*
X236085238Y-115263333D01*
X236513809Y-115834761D02*
X236609047Y-115882380D01*
X236799523Y-115882380D01*
X236894761Y-115834761D01*
X236942380Y-115739523D01*
X236942380Y-115691904D01*
X236894761Y-115596666D01*
X236799523Y-115549047D01*
X236656666Y-115549047D01*
X236561428Y-115501428D01*
X236513809Y-115406190D01*
X236513809Y-115358571D01*
X236561428Y-115263333D01*
X236656666Y-115215714D01*
X236799523Y-115215714D01*
X236894761Y-115263333D01*
X238085238Y-114834761D02*
X237228095Y-116120476D01*
X238418571Y-115882380D02*
X238418571Y-114882380D01*
X238418571Y-115358571D02*
X238990000Y-115358571D01*
X238990000Y-115882380D02*
X238990000Y-114882380D01*
X239894761Y-115215714D02*
X239894761Y-115882380D01*
X239466190Y-115215714D02*
X239466190Y-115739523D01*
X239513809Y-115834761D01*
X239609047Y-115882380D01*
X239751904Y-115882380D01*
X239847142Y-115834761D01*
X239894761Y-115787142D01*
X240370952Y-115882380D02*
X240370952Y-115215714D01*
X240370952Y-115310952D02*
X240418571Y-115263333D01*
X240513809Y-115215714D01*
X240656666Y-115215714D01*
X240751904Y-115263333D01*
X240799523Y-115358571D01*
X240799523Y-115882380D01*
X240799523Y-115358571D02*
X240847142Y-115263333D01*
X240942380Y-115215714D01*
X241085238Y-115215714D01*
X241180476Y-115263333D01*
X241228095Y-115358571D01*
X241228095Y-115882380D01*
X241704285Y-115882380D02*
X241704285Y-115215714D01*
X241704285Y-114882380D02*
X241656666Y-114930000D01*
X241704285Y-114977619D01*
X241751904Y-114930000D01*
X241704285Y-114882380D01*
X241704285Y-114977619D01*
X242609047Y-115882380D02*
X242609047Y-114882380D01*
X242609047Y-115834761D02*
X242513809Y-115882380D01*
X242323333Y-115882380D01*
X242228095Y-115834761D01*
X242180476Y-115787142D01*
X242132857Y-115691904D01*
X242132857Y-115406190D01*
X242180476Y-115310952D01*
X242228095Y-115263333D01*
X242323333Y-115215714D01*
X242513809Y-115215714D01*
X242609047Y-115263333D01*
X244852380Y-145877380D02*
X245090476Y-146877380D01*
X245280952Y-146163095D01*
X245471428Y-146877380D01*
X245709523Y-145877380D01*
X245995238Y-145877380D02*
X246233333Y-146877380D01*
X246423809Y-146163095D01*
X246614285Y-146877380D01*
X246852380Y-145877380D01*
X247233333Y-145877380D02*
X247233333Y-146686904D01*
X247280952Y-146782142D01*
X247328571Y-146829761D01*
X247423809Y-146877380D01*
X247614285Y-146877380D01*
X247709523Y-146829761D01*
X247757142Y-146782142D01*
X247804761Y-146686904D01*
X247804761Y-145877380D01*
X249614285Y-146877380D02*
X249280952Y-146401190D01*
X249042857Y-146877380D02*
X249042857Y-145877380D01*
X249423809Y-145877380D01*
X249519047Y-145925000D01*
X249566666Y-145972619D01*
X249614285Y-146067857D01*
X249614285Y-146210714D01*
X249566666Y-146305952D01*
X249519047Y-146353571D01*
X249423809Y-146401190D01*
X249042857Y-146401190D01*
X250185714Y-146877380D02*
X250090476Y-146829761D01*
X250042857Y-146782142D01*
X249995238Y-146686904D01*
X249995238Y-146401190D01*
X250042857Y-146305952D01*
X250090476Y-146258333D01*
X250185714Y-146210714D01*
X250328571Y-146210714D01*
X250423809Y-146258333D01*
X250471428Y-146305952D01*
X250519047Y-146401190D01*
X250519047Y-146686904D01*
X250471428Y-146782142D01*
X250423809Y-146829761D01*
X250328571Y-146877380D01*
X250185714Y-146877380D01*
X250900000Y-146829761D02*
X250995238Y-146877380D01*
X251185714Y-146877380D01*
X251280952Y-146829761D01*
X251328571Y-146734523D01*
X251328571Y-146686904D01*
X251280952Y-146591666D01*
X251185714Y-146544047D01*
X251042857Y-146544047D01*
X250947619Y-146496428D01*
X250900000Y-146401190D01*
X250900000Y-146353571D01*
X250947619Y-146258333D01*
X251042857Y-146210714D01*
X251185714Y-146210714D01*
X251280952Y-146258333D01*
X252185714Y-146877380D02*
X252185714Y-146353571D01*
X252138095Y-146258333D01*
X252042857Y-146210714D01*
X251852380Y-146210714D01*
X251757142Y-146258333D01*
X252185714Y-146829761D02*
X252090476Y-146877380D01*
X251852380Y-146877380D01*
X251757142Y-146829761D01*
X251709523Y-146734523D01*
X251709523Y-146639285D01*
X251757142Y-146544047D01*
X251852380Y-146496428D01*
X252090476Y-146496428D01*
X252185714Y-146448809D01*
X252661904Y-146877380D02*
X252661904Y-146210714D01*
X252661904Y-146401190D02*
X252709523Y-146305952D01*
X252757142Y-146258333D01*
X252852380Y-146210714D01*
X252947619Y-146210714D01*
X253280952Y-146877380D02*
X253280952Y-146210714D01*
X253280952Y-145877380D02*
X253233333Y-145925000D01*
X253280952Y-145972619D01*
X253328571Y-145925000D01*
X253280952Y-145877380D01*
X253280952Y-145972619D01*
X253900000Y-146877380D02*
X253804761Y-146829761D01*
X253757142Y-146782142D01*
X253709523Y-146686904D01*
X253709523Y-146401190D01*
X253757142Y-146305952D01*
X253804761Y-146258333D01*
X253900000Y-146210714D01*
X254042857Y-146210714D01*
X254138095Y-146258333D01*
X254185714Y-146305952D01*
X254233333Y-146401190D01*
X254233333Y-146686904D01*
X254185714Y-146782142D01*
X254138095Y-146829761D01*
X254042857Y-146877380D01*
X253900000Y-146877380D01*
X255995238Y-146877380D02*
X255661904Y-146401190D01*
X255423809Y-146877380D02*
X255423809Y-145877380D01*
X255804761Y-145877380D01*
X255900000Y-145925000D01*
X255947619Y-145972619D01*
X255995238Y-146067857D01*
X255995238Y-146210714D01*
X255947619Y-146305952D01*
X255900000Y-146353571D01*
X255804761Y-146401190D01*
X255423809Y-146401190D01*
X256614285Y-145877380D02*
X256804761Y-145877380D01*
X256900000Y-145925000D01*
X256995238Y-146020238D01*
X257042857Y-146210714D01*
X257042857Y-146544047D01*
X256995238Y-146734523D01*
X256900000Y-146829761D01*
X256804761Y-146877380D01*
X256614285Y-146877380D01*
X256519047Y-146829761D01*
X256423809Y-146734523D01*
X256376190Y-146544047D01*
X256376190Y-146210714D01*
X256423809Y-146020238D01*
X256519047Y-145925000D01*
X256614285Y-145877380D01*
X257328571Y-145877380D02*
X257661904Y-146877380D01*
X257995238Y-145877380D01*
X247709523Y-147627380D02*
X247709523Y-148341666D01*
X247661904Y-148484523D01*
X247566666Y-148579761D01*
X247423809Y-148627380D01*
X247328571Y-148627380D01*
X248614285Y-148627380D02*
X248614285Y-148103571D01*
X248566666Y-148008333D01*
X248471428Y-147960714D01*
X248280952Y-147960714D01*
X248185714Y-148008333D01*
X248614285Y-148579761D02*
X248519047Y-148627380D01*
X248280952Y-148627380D01*
X248185714Y-148579761D01*
X248138095Y-148484523D01*
X248138095Y-148389285D01*
X248185714Y-148294047D01*
X248280952Y-148246428D01*
X248519047Y-148246428D01*
X248614285Y-148198809D01*
X249519047Y-148579761D02*
X249423809Y-148627380D01*
X249233333Y-148627380D01*
X249138095Y-148579761D01*
X249090476Y-148532142D01*
X249042857Y-148436904D01*
X249042857Y-148151190D01*
X249090476Y-148055952D01*
X249138095Y-148008333D01*
X249233333Y-147960714D01*
X249423809Y-147960714D01*
X249519047Y-148008333D01*
X250090476Y-148627380D02*
X249995238Y-148579761D01*
X249947619Y-148532142D01*
X249900000Y-148436904D01*
X249900000Y-148151190D01*
X249947619Y-148055952D01*
X249995238Y-148008333D01*
X250090476Y-147960714D01*
X250233333Y-147960714D01*
X250328571Y-148008333D01*
X250376190Y-148055952D01*
X250423809Y-148151190D01*
X250423809Y-148436904D01*
X250376190Y-148532142D01*
X250328571Y-148579761D01*
X250233333Y-148627380D01*
X250090476Y-148627380D01*
X250852380Y-148627380D02*
X250852380Y-147627380D01*
X250852380Y-148008333D02*
X250947619Y-147960714D01*
X251138095Y-147960714D01*
X251233333Y-148008333D01*
X251280952Y-148055952D01*
X251328571Y-148151190D01*
X251328571Y-148436904D01*
X251280952Y-148532142D01*
X251233333Y-148579761D01*
X251138095Y-148627380D01*
X250947619Y-148627380D01*
X250852380Y-148579761D01*
X252519047Y-148627380D02*
X252519047Y-147627380D01*
X253090476Y-148627380D01*
X253090476Y-147627380D01*
X253947619Y-148579761D02*
X253852380Y-148627380D01*
X253661904Y-148627380D01*
X253566666Y-148579761D01*
X253519047Y-148484523D01*
X253519047Y-148103571D01*
X253566666Y-148008333D01*
X253661904Y-147960714D01*
X253852380Y-147960714D01*
X253947619Y-148008333D01*
X253995238Y-148103571D01*
X253995238Y-148198809D01*
X253519047Y-148294047D01*
X254852380Y-148627380D02*
X254852380Y-148103571D01*
X254804761Y-148008333D01*
X254709523Y-147960714D01*
X254519047Y-147960714D01*
X254423809Y-148008333D01*
X254852380Y-148579761D02*
X254757142Y-148627380D01*
X254519047Y-148627380D01*
X254423809Y-148579761D01*
X254376190Y-148484523D01*
X254376190Y-148389285D01*
X254423809Y-148294047D01*
X254519047Y-148246428D01*
X254757142Y-148246428D01*
X254852380Y-148198809D01*
X255471428Y-148627380D02*
X255376190Y-148579761D01*
X255328571Y-148484523D01*
X255328571Y-147627380D01*
X200810000Y-111082380D02*
X200810000Y-110082380D01*
X201190952Y-110082380D01*
X201286190Y-110130000D01*
X201333809Y-110177619D01*
X201381428Y-110272857D01*
X201381428Y-110415714D01*
X201333809Y-110510952D01*
X201286190Y-110558571D01*
X201190952Y-110606190D01*
X200810000Y-110606190D01*
X201810000Y-111082380D02*
X201810000Y-110415714D01*
X201810000Y-110606190D02*
X201857619Y-110510952D01*
X201905238Y-110463333D01*
X202000476Y-110415714D01*
X202095714Y-110415714D01*
X202810000Y-111034761D02*
X202714761Y-111082380D01*
X202524285Y-111082380D01*
X202429047Y-111034761D01*
X202381428Y-110939523D01*
X202381428Y-110558571D01*
X202429047Y-110463333D01*
X202524285Y-110415714D01*
X202714761Y-110415714D01*
X202810000Y-110463333D01*
X202857619Y-110558571D01*
X202857619Y-110653809D01*
X202381428Y-110749047D01*
X203238571Y-111034761D02*
X203333809Y-111082380D01*
X203524285Y-111082380D01*
X203619523Y-111034761D01*
X203667142Y-110939523D01*
X203667142Y-110891904D01*
X203619523Y-110796666D01*
X203524285Y-110749047D01*
X203381428Y-110749047D01*
X203286190Y-110701428D01*
X203238571Y-110606190D01*
X203238571Y-110558571D01*
X203286190Y-110463333D01*
X203381428Y-110415714D01*
X203524285Y-110415714D01*
X203619523Y-110463333D01*
X204048095Y-111034761D02*
X204143333Y-111082380D01*
X204333809Y-111082380D01*
X204429047Y-111034761D01*
X204476666Y-110939523D01*
X204476666Y-110891904D01*
X204429047Y-110796666D01*
X204333809Y-110749047D01*
X204190952Y-110749047D01*
X204095714Y-110701428D01*
X204048095Y-110606190D01*
X204048095Y-110558571D01*
X204095714Y-110463333D01*
X204190952Y-110415714D01*
X204333809Y-110415714D01*
X204429047Y-110463333D01*
X205333809Y-110415714D02*
X205333809Y-111082380D01*
X204905238Y-110415714D02*
X204905238Y-110939523D01*
X204952857Y-111034761D01*
X205048095Y-111082380D01*
X205190952Y-111082380D01*
X205286190Y-111034761D01*
X205333809Y-110987142D01*
X205810000Y-111082380D02*
X205810000Y-110415714D01*
X205810000Y-110606190D02*
X205857619Y-110510952D01*
X205905238Y-110463333D01*
X206000476Y-110415714D01*
X206095714Y-110415714D01*
X206810000Y-111034761D02*
X206714761Y-111082380D01*
X206524285Y-111082380D01*
X206429047Y-111034761D01*
X206381428Y-110939523D01*
X206381428Y-110558571D01*
X206429047Y-110463333D01*
X206524285Y-110415714D01*
X206714761Y-110415714D01*
X206810000Y-110463333D01*
X206857619Y-110558571D01*
X206857619Y-110653809D01*
X206381428Y-110749047D01*
X201976666Y-105002380D02*
X202548095Y-105002380D01*
X202262380Y-106002380D02*
X202262380Y-105002380D01*
X203262380Y-105954761D02*
X203167142Y-106002380D01*
X202976666Y-106002380D01*
X202881428Y-105954761D01*
X202833809Y-105859523D01*
X202833809Y-105478571D01*
X202881428Y-105383333D01*
X202976666Y-105335714D01*
X203167142Y-105335714D01*
X203262380Y-105383333D01*
X203310000Y-105478571D01*
X203310000Y-105573809D01*
X202833809Y-105669047D01*
X203738571Y-106002380D02*
X203738571Y-105335714D01*
X203738571Y-105430952D02*
X203786190Y-105383333D01*
X203881428Y-105335714D01*
X204024285Y-105335714D01*
X204119523Y-105383333D01*
X204167142Y-105478571D01*
X204167142Y-106002380D01*
X204167142Y-105478571D02*
X204214761Y-105383333D01*
X204310000Y-105335714D01*
X204452857Y-105335714D01*
X204548095Y-105383333D01*
X204595714Y-105478571D01*
X204595714Y-106002380D01*
X205071904Y-105335714D02*
X205071904Y-106335714D01*
X205071904Y-105383333D02*
X205167142Y-105335714D01*
X205357619Y-105335714D01*
X205452857Y-105383333D01*
X205500476Y-105430952D01*
X205548095Y-105526190D01*
X205548095Y-105811904D01*
X205500476Y-105907142D01*
X205452857Y-105954761D01*
X205357619Y-106002380D01*
X205167142Y-106002380D01*
X205071904Y-105954761D01*
D12*
X207380000Y-103250000D02*
X207380000Y-106850000D01*
X207380000Y-106850000D02*
X214230000Y-106850000D01*
X214230000Y-106850000D02*
X214230000Y-103250000D01*
X214230000Y-103250000D02*
X207380000Y-103250000D01*
X207070000Y-105250000D02*
X207070000Y-107160000D01*
X207070000Y-107160000D02*
X208980000Y-107160000D01*
X207380000Y-105550000D02*
X207680000Y-105550000D01*
X207680000Y-105550000D02*
X207680000Y-106550000D01*
X207680000Y-106550000D02*
X213930000Y-106550000D01*
X213930000Y-106550000D02*
X213930000Y-105550000D01*
X213930000Y-105550000D02*
X214230000Y-105550000D01*
X207380000Y-104800000D02*
X207680000Y-104800000D01*
X207680000Y-104800000D02*
X207680000Y-103700000D01*
X207680000Y-103700000D02*
X207980000Y-103700000D01*
X207980000Y-103700000D02*
X207980000Y-103250000D01*
X214230000Y-104800000D02*
X213930000Y-104800000D01*
X213930000Y-104800000D02*
X213930000Y-103700000D01*
X213930000Y-103700000D02*
X213630000Y-103700000D01*
X213630000Y-103700000D02*
X213630000Y-103250000D01*
X207980000Y-103700000D02*
X209180000Y-103700000D01*
X209180000Y-103700000D02*
X209180000Y-103400000D01*
X209180000Y-103400000D02*
X209930000Y-103400000D01*
X209930000Y-103400000D02*
X209930000Y-103700000D01*
X209930000Y-103700000D02*
X211680000Y-103700000D01*
X211680000Y-103700000D02*
X211680000Y-103400000D01*
X211680000Y-103400000D02*
X212430000Y-103400000D01*
X212430000Y-103400000D02*
X212430000Y-103700000D01*
X212430000Y-103700000D02*
X213630000Y-103700000D01*
X212430000Y-108780000D02*
X213630000Y-108780000D01*
X212430000Y-108480000D02*
X212430000Y-108780000D01*
X211680000Y-108480000D02*
X212430000Y-108480000D01*
X211680000Y-108780000D02*
X211680000Y-108480000D01*
X209930000Y-108780000D02*
X211680000Y-108780000D01*
X209930000Y-108480000D02*
X209930000Y-108780000D01*
X209180000Y-108480000D02*
X209930000Y-108480000D01*
X209180000Y-108780000D02*
X209180000Y-108480000D01*
X207980000Y-108780000D02*
X209180000Y-108780000D01*
X213630000Y-108780000D02*
X213630000Y-108330000D01*
X213930000Y-108780000D02*
X213630000Y-108780000D01*
X213930000Y-109880000D02*
X213930000Y-108780000D01*
X214230000Y-109880000D02*
X213930000Y-109880000D01*
X207980000Y-108780000D02*
X207980000Y-108330000D01*
X207680000Y-108780000D02*
X207980000Y-108780000D01*
X207680000Y-109880000D02*
X207680000Y-108780000D01*
X207380000Y-109880000D02*
X207680000Y-109880000D01*
X213930000Y-110630000D02*
X214230000Y-110630000D01*
X213930000Y-111630000D02*
X213930000Y-110630000D01*
X207680000Y-111630000D02*
X213930000Y-111630000D01*
X207680000Y-110630000D02*
X207680000Y-111630000D01*
X207380000Y-110630000D02*
X207680000Y-110630000D01*
X207070000Y-112240000D02*
X208980000Y-112240000D01*
X207070000Y-110330000D02*
X207070000Y-112240000D01*
X214230000Y-108330000D02*
X207380000Y-108330000D01*
X214230000Y-111930000D02*
X214230000Y-108330000D01*
X207380000Y-111930000D02*
X214230000Y-111930000D01*
X207380000Y-108330000D02*
X207380000Y-111930000D01*
X214400000Y-125754721D02*
X214400000Y-126080279D01*
X213380000Y-125754721D02*
X213380000Y-126080279D01*
X217180000Y-126174721D02*
X217180000Y-126500279D01*
X216160000Y-126174721D02*
X216160000Y-126500279D01*
X218800000Y-121745279D02*
X218800000Y-121419721D01*
X217780000Y-121745279D02*
X217780000Y-121419721D01*
D13*
X215600000Y-119320000D02*
X215600000Y-119845000D01*
X211300000Y-123620000D02*
X211300000Y-123095000D01*
X215600000Y-123620000D02*
X215600000Y-123095000D01*
X211300000Y-119320000D02*
X211825000Y-119320000D01*
X211300000Y-123620000D02*
X211825000Y-123620000D01*
X215600000Y-123620000D02*
X215075000Y-123620000D01*
X215600000Y-119320000D02*
X215075000Y-119320000D01*
D14*
X231585000Y-109375000D02*
X231585000Y-109525000D01*
X231595000Y-109375000D02*
X231745000Y-109375000D01*
X231595000Y-112075000D02*
X231745000Y-112075000D01*
X231595000Y-112075000D02*
X231595000Y-111925000D01*
X234295000Y-111925000D02*
X234295000Y-112075000D01*
X234295000Y-112075000D02*
X234145000Y-112075000D01*
X234145000Y-109375000D02*
X234395000Y-109375000D01*
D15*
X224244000Y-104059000D02*
G75*
G03X224244000Y-104059000I-200000J0D01*
G01*
D13*
X234140000Y-138780000D02*
X222140000Y-138780000D01*
X222140000Y-127780000D02*
X234140000Y-127780000D01*
D12*
X237451422Y-110200000D02*
X237968578Y-110200000D01*
X237451422Y-108780000D02*
X237968578Y-108780000D01*
X236213922Y-112940000D02*
X236731078Y-112940000D01*
X236213922Y-114360000D02*
X236731078Y-114360000D01*
X249690000Y-103629721D02*
X249690000Y-103955279D01*
X250710000Y-103629721D02*
X250710000Y-103955279D01*
X248935279Y-101760000D02*
X248609721Y-101760000D01*
X248935279Y-100740000D02*
X248609721Y-100740000D01*
X244839721Y-100740000D02*
X245165279Y-100740000D01*
X244839721Y-101760000D02*
X245165279Y-101760000D01*
X243380000Y-107606078D02*
X243380000Y-107088922D01*
X244800000Y-107606078D02*
X244800000Y-107088922D01*
D16*
X247630300Y-102200201D02*
X245623700Y-102200201D01*
X245623700Y-105349801D02*
X247630300Y-105349801D01*
D13*
X230955000Y-105015000D02*
X230955000Y-105240000D01*
X234305000Y-105015000D02*
X234305000Y-105315000D01*
X234305000Y-108365000D02*
X234305000Y-108065000D01*
X230955000Y-108365000D02*
X230955000Y-108065000D01*
X230955000Y-105015000D02*
X234305000Y-105015000D01*
X230955000Y-108365000D02*
X234305000Y-108365000D01*
X230955000Y-105240000D02*
X229730000Y-105240000D01*
X203566666Y-103952380D02*
X203566666Y-104666666D01*
X203519047Y-104809523D01*
X203423809Y-104904761D01*
X203280952Y-104952380D01*
X203185714Y-104952380D01*
X204566666Y-104952380D02*
X203995238Y-104952380D01*
X204280952Y-104952380D02*
X204280952Y-103952380D01*
X204185714Y-104095238D01*
X204090476Y-104190476D01*
X203995238Y-104238095D01*
X203466666Y-108952380D02*
X203466666Y-109666666D01*
X203419047Y-109809523D01*
X203323809Y-109904761D01*
X203180952Y-109952380D01*
X203085714Y-109952380D01*
X203895238Y-109047619D02*
X203942857Y-109000000D01*
X204038095Y-108952380D01*
X204276190Y-108952380D01*
X204371428Y-109000000D01*
X204419047Y-109047619D01*
X204466666Y-109142857D01*
X204466666Y-109238095D01*
X204419047Y-109380952D01*
X203847619Y-109952380D01*
X204466666Y-109952380D01*
X215677142Y-126084166D02*
X215724761Y-126131785D01*
X215772380Y-126274642D01*
X215772380Y-126369880D01*
X215724761Y-126512738D01*
X215629523Y-126607976D01*
X215534285Y-126655595D01*
X215343809Y-126703214D01*
X215200952Y-126703214D01*
X215010476Y-126655595D01*
X214915238Y-126607976D01*
X214820000Y-126512738D01*
X214772380Y-126369880D01*
X214772380Y-126274642D01*
X214820000Y-126131785D01*
X214867619Y-126084166D01*
X215772380Y-125131785D02*
X215772380Y-125703214D01*
X215772380Y-125417500D02*
X214772380Y-125417500D01*
X214915238Y-125512738D01*
X215010476Y-125607976D01*
X215058095Y-125703214D01*
X218457142Y-126504166D02*
X218504761Y-126551785D01*
X218552380Y-126694642D01*
X218552380Y-126789880D01*
X218504761Y-126932738D01*
X218409523Y-127027976D01*
X218314285Y-127075595D01*
X218123809Y-127123214D01*
X217980952Y-127123214D01*
X217790476Y-127075595D01*
X217695238Y-127027976D01*
X217600000Y-126932738D01*
X217552380Y-126789880D01*
X217552380Y-126694642D01*
X217600000Y-126551785D01*
X217647619Y-126504166D01*
X217647619Y-126123214D02*
X217600000Y-126075595D01*
X217552380Y-125980357D01*
X217552380Y-125742261D01*
X217600000Y-125647023D01*
X217647619Y-125599404D01*
X217742857Y-125551785D01*
X217838095Y-125551785D01*
X217980952Y-125599404D01*
X218552380Y-126170833D01*
X218552380Y-125551785D01*
X217217142Y-121749166D02*
X217264761Y-121796785D01*
X217312380Y-121939642D01*
X217312380Y-122034880D01*
X217264761Y-122177738D01*
X217169523Y-122272976D01*
X217074285Y-122320595D01*
X216883809Y-122368214D01*
X216740952Y-122368214D01*
X216550476Y-122320595D01*
X216455238Y-122272976D01*
X216360000Y-122177738D01*
X216312380Y-122034880D01*
X216312380Y-121939642D01*
X216360000Y-121796785D01*
X216407619Y-121749166D01*
X216312380Y-121415833D02*
X216312380Y-120796785D01*
X216693333Y-121130119D01*
X216693333Y-120987261D01*
X216740952Y-120892023D01*
X216788571Y-120844404D01*
X216883809Y-120796785D01*
X217121904Y-120796785D01*
X217217142Y-120844404D01*
X217264761Y-120892023D01*
X217312380Y-120987261D01*
X217312380Y-121272976D01*
X217264761Y-121368214D01*
X217217142Y-121415833D01*
X208228095Y-120782380D02*
X208228095Y-121591904D01*
X208275714Y-121687142D01*
X208323333Y-121734761D01*
X208418571Y-121782380D01*
X208609047Y-121782380D01*
X208704285Y-121734761D01*
X208751904Y-121687142D01*
X208799523Y-121591904D01*
X208799523Y-120782380D01*
X209799523Y-121782380D02*
X209228095Y-121782380D01*
X209513809Y-121782380D02*
X209513809Y-120782380D01*
X209418571Y-120925238D01*
X209323333Y-121020476D01*
X209228095Y-121068095D01*
X232138095Y-112652380D02*
X232138095Y-113461904D01*
X232185714Y-113557142D01*
X232233333Y-113604761D01*
X232328571Y-113652380D01*
X232519047Y-113652380D01*
X232614285Y-113604761D01*
X232661904Y-113557142D01*
X232709523Y-113461904D01*
X232709523Y-112652380D01*
X233138095Y-112747619D02*
X233185714Y-112700000D01*
X233280952Y-112652380D01*
X233519047Y-112652380D01*
X233614285Y-112700000D01*
X233661904Y-112747619D01*
X233709523Y-112842857D01*
X233709523Y-112938095D01*
X233661904Y-113080952D01*
X233090476Y-113652380D01*
X233709523Y-113652380D01*
X227378095Y-134732380D02*
X227378095Y-135541904D01*
X227425714Y-135637142D01*
X227473333Y-135684761D01*
X227568571Y-135732380D01*
X227759047Y-135732380D01*
X227854285Y-135684761D01*
X227901904Y-135637142D01*
X227949523Y-135541904D01*
X227949523Y-134732380D01*
X228901904Y-134732380D02*
X228425714Y-134732380D01*
X228378095Y-135208571D01*
X228425714Y-135160952D01*
X228520952Y-135113333D01*
X228759047Y-135113333D01*
X228854285Y-135160952D01*
X228901904Y-135208571D01*
X228949523Y-135303809D01*
X228949523Y-135541904D01*
X228901904Y-135637142D01*
X228854285Y-135684761D01*
X228759047Y-135732380D01*
X228520952Y-135732380D01*
X228425714Y-135684761D01*
X228378095Y-135637142D01*
X224919523Y-132266666D02*
X225395714Y-132266666D01*
X224824285Y-132552380D02*
X225157619Y-131552380D01*
X225490952Y-132552380D01*
X225681428Y-131885714D02*
X226062380Y-131885714D01*
X225824285Y-131552380D02*
X225824285Y-132409523D01*
X225871904Y-132504761D01*
X225967142Y-132552380D01*
X226062380Y-132552380D01*
X226538571Y-132552380D02*
X226443333Y-132504761D01*
X226395714Y-132409523D01*
X226395714Y-131552380D01*
X227348095Y-132552380D02*
X227348095Y-132028571D01*
X227300476Y-131933333D01*
X227205238Y-131885714D01*
X227014761Y-131885714D01*
X226919523Y-131933333D01*
X227348095Y-132504761D02*
X227252857Y-132552380D01*
X227014761Y-132552380D01*
X226919523Y-132504761D01*
X226871904Y-132409523D01*
X226871904Y-132314285D01*
X226919523Y-132219047D01*
X227014761Y-132171428D01*
X227252857Y-132171428D01*
X227348095Y-132123809D01*
X227776666Y-132504761D02*
X227871904Y-132552380D01*
X228062380Y-132552380D01*
X228157619Y-132504761D01*
X228205238Y-132409523D01*
X228205238Y-132361904D01*
X228157619Y-132266666D01*
X228062380Y-132219047D01*
X227919523Y-132219047D01*
X227824285Y-132171428D01*
X227776666Y-132076190D01*
X227776666Y-132028571D01*
X227824285Y-131933333D01*
X227919523Y-131885714D01*
X228062380Y-131885714D01*
X228157619Y-131933333D01*
X228824285Y-131552380D02*
X229014761Y-131552380D01*
X229110000Y-131600000D01*
X229205238Y-131695238D01*
X229252857Y-131885714D01*
X229252857Y-132219047D01*
X229205238Y-132409523D01*
X229110000Y-132504761D01*
X229014761Y-132552380D01*
X228824285Y-132552380D01*
X228729047Y-132504761D01*
X228633809Y-132409523D01*
X228586190Y-132219047D01*
X228586190Y-131885714D01*
X228633809Y-131695238D01*
X228729047Y-131600000D01*
X228824285Y-131552380D01*
X229681428Y-132028571D02*
X230014761Y-132028571D01*
X230157619Y-132552380D02*
X229681428Y-132552380D01*
X229681428Y-131552380D01*
X230157619Y-131552380D01*
X230586190Y-132552380D02*
X230586190Y-131552380D01*
X230919523Y-132266666D01*
X231252857Y-131552380D01*
X231252857Y-132552380D01*
X210992380Y-138188333D02*
X211706666Y-138188333D01*
X211849523Y-138235952D01*
X211944761Y-138331190D01*
X211992380Y-138474047D01*
X211992380Y-138569285D01*
X210992380Y-137807380D02*
X210992380Y-137188333D01*
X211373333Y-137521666D01*
X211373333Y-137378809D01*
X211420952Y-137283571D01*
X211468571Y-137235952D01*
X211563809Y-137188333D01*
X211801904Y-137188333D01*
X211897142Y-137235952D01*
X211944761Y-137283571D01*
X211992380Y-137378809D01*
X211992380Y-137664523D01*
X211944761Y-137759761D01*
X211897142Y-137807380D01*
X237543333Y-108292380D02*
X237210000Y-107816190D01*
X236971904Y-108292380D02*
X236971904Y-107292380D01*
X237352857Y-107292380D01*
X237448095Y-107340000D01*
X237495714Y-107387619D01*
X237543333Y-107482857D01*
X237543333Y-107625714D01*
X237495714Y-107720952D01*
X237448095Y-107768571D01*
X237352857Y-107816190D01*
X236971904Y-107816190D01*
X238495714Y-108292380D02*
X237924285Y-108292380D01*
X238210000Y-108292380D02*
X238210000Y-107292380D01*
X238114761Y-107435238D01*
X238019523Y-107530476D01*
X237924285Y-107578095D01*
X236305833Y-112452380D02*
X235972500Y-111976190D01*
X235734404Y-112452380D02*
X235734404Y-111452380D01*
X236115357Y-111452380D01*
X236210595Y-111500000D01*
X236258214Y-111547619D01*
X236305833Y-111642857D01*
X236305833Y-111785714D01*
X236258214Y-111880952D01*
X236210595Y-111928571D01*
X236115357Y-111976190D01*
X235734404Y-111976190D01*
X236686785Y-111547619D02*
X236734404Y-111500000D01*
X236829642Y-111452380D01*
X237067738Y-111452380D01*
X237162976Y-111500000D01*
X237210595Y-111547619D01*
X237258214Y-111642857D01*
X237258214Y-111738095D01*
X237210595Y-111880952D01*
X236639166Y-112452380D01*
X237258214Y-112452380D01*
X251987142Y-103959166D02*
X252034761Y-104006785D01*
X252082380Y-104149642D01*
X252082380Y-104244880D01*
X252034761Y-104387738D01*
X251939523Y-104482976D01*
X251844285Y-104530595D01*
X251653809Y-104578214D01*
X251510952Y-104578214D01*
X251320476Y-104530595D01*
X251225238Y-104482976D01*
X251130000Y-104387738D01*
X251082380Y-104244880D01*
X251082380Y-104149642D01*
X251130000Y-104006785D01*
X251177619Y-103959166D01*
X251415714Y-103102023D02*
X252082380Y-103102023D01*
X251034761Y-103340119D02*
X251749047Y-103578214D01*
X251749047Y-102959166D01*
X250973333Y-101257142D02*
X250925714Y-101304761D01*
X250782857Y-101352380D01*
X250687619Y-101352380D01*
X250544761Y-101304761D01*
X250449523Y-101209523D01*
X250401904Y-101114285D01*
X250354285Y-100923809D01*
X250354285Y-100780952D01*
X250401904Y-100590476D01*
X250449523Y-100495238D01*
X250544761Y-100400000D01*
X250687619Y-100352380D01*
X250782857Y-100352380D01*
X250925714Y-100400000D01*
X250973333Y-100447619D01*
X251878095Y-100352380D02*
X251401904Y-100352380D01*
X251354285Y-100828571D01*
X251401904Y-100780952D01*
X251497142Y-100733333D01*
X251735238Y-100733333D01*
X251830476Y-100780952D01*
X251878095Y-100828571D01*
X251925714Y-100923809D01*
X251925714Y-101161904D01*
X251878095Y-101257142D01*
X251830476Y-101304761D01*
X251735238Y-101352380D01*
X251497142Y-101352380D01*
X251401904Y-101304761D01*
X251354285Y-101257142D01*
X242203333Y-101537142D02*
X242155714Y-101584761D01*
X242012857Y-101632380D01*
X241917619Y-101632380D01*
X241774761Y-101584761D01*
X241679523Y-101489523D01*
X241631904Y-101394285D01*
X241584285Y-101203809D01*
X241584285Y-101060952D01*
X241631904Y-100870476D01*
X241679523Y-100775238D01*
X241774761Y-100680000D01*
X241917619Y-100632380D01*
X242012857Y-100632380D01*
X242155714Y-100680000D01*
X242203333Y-100727619D01*
X243060476Y-100632380D02*
X242870000Y-100632380D01*
X242774761Y-100680000D01*
X242727142Y-100727619D01*
X242631904Y-100870476D01*
X242584285Y-101060952D01*
X242584285Y-101441904D01*
X242631904Y-101537142D01*
X242679523Y-101584761D01*
X242774761Y-101632380D01*
X242965238Y-101632380D01*
X243060476Y-101584761D01*
X243108095Y-101537142D01*
X243155714Y-101441904D01*
X243155714Y-101203809D01*
X243108095Y-101108571D01*
X243060476Y-101060952D01*
X242965238Y-101013333D01*
X242774761Y-101013333D01*
X242679523Y-101060952D01*
X242631904Y-101108571D01*
X242584285Y-101203809D01*
X242892380Y-107514166D02*
X242416190Y-107847500D01*
X242892380Y-108085595D02*
X241892380Y-108085595D01*
X241892380Y-107704642D01*
X241940000Y-107609404D01*
X241987619Y-107561785D01*
X242082857Y-107514166D01*
X242225714Y-107514166D01*
X242320952Y-107561785D01*
X242368571Y-107609404D01*
X242416190Y-107704642D01*
X242416190Y-108085595D01*
X241892380Y-107180833D02*
X241892380Y-106561785D01*
X242273333Y-106895119D01*
X242273333Y-106752261D01*
X242320952Y-106657023D01*
X242368571Y-106609404D01*
X242463809Y-106561785D01*
X242701904Y-106561785D01*
X242797142Y-106609404D01*
X242844761Y-106657023D01*
X242892380Y-106752261D01*
X242892380Y-107037976D01*
X242844761Y-107133214D01*
X242797142Y-107180833D01*
X245838095Y-105852380D02*
X245838095Y-106661904D01*
X245885714Y-106757142D01*
X245933333Y-106804761D01*
X246028571Y-106852380D01*
X246219047Y-106852380D01*
X246314285Y-106804761D01*
X246361904Y-106757142D01*
X246409523Y-106661904D01*
X246409523Y-105852380D01*
X247314285Y-105852380D02*
X247123809Y-105852380D01*
X247028571Y-105900000D01*
X246980952Y-105947619D01*
X246885714Y-106090476D01*
X246838095Y-106280952D01*
X246838095Y-106661904D01*
X246885714Y-106757142D01*
X246933333Y-106804761D01*
X247028571Y-106852380D01*
X247219047Y-106852380D01*
X247314285Y-106804761D01*
X247361904Y-106757142D01*
X247409523Y-106661904D01*
X247409523Y-106423809D01*
X247361904Y-106328571D01*
X247314285Y-106280952D01*
X247219047Y-106233333D01*
X247028571Y-106233333D01*
X246933333Y-106280952D01*
X246885714Y-106328571D01*
X246838095Y-106423809D01*
X240461904Y-104066666D02*
X240938095Y-104066666D01*
X240366666Y-104352380D02*
X240700000Y-103352380D01*
X241033333Y-104352380D01*
X241366666Y-104352380D02*
X241366666Y-103352380D01*
X241604761Y-103352380D01*
X241747619Y-103400000D01*
X241842857Y-103495238D01*
X241890476Y-103590476D01*
X241938095Y-103780952D01*
X241938095Y-103923809D01*
X241890476Y-104114285D01*
X241842857Y-104209523D01*
X241747619Y-104304761D01*
X241604761Y-104352380D01*
X241366666Y-104352380D01*
X242938095Y-104257142D02*
X242890476Y-104304761D01*
X242747619Y-104352380D01*
X242652380Y-104352380D01*
X242509523Y-104304761D01*
X242414285Y-104209523D01*
X242366666Y-104114285D01*
X242319047Y-103923809D01*
X242319047Y-103780952D01*
X242366666Y-103590476D01*
X242414285Y-103495238D01*
X242509523Y-103400000D01*
X242652380Y-103352380D01*
X242747619Y-103352380D01*
X242890476Y-103400000D01*
X242938095Y-103447619D01*
X248024000Y-105751781D02*
X248024000Y-105989877D01*
X247785904Y-105894639D02*
X248024000Y-105989877D01*
X248262095Y-105894639D01*
X247881142Y-106180353D02*
X248024000Y-105989877D01*
X248166857Y-106180353D01*
X231868095Y-103542380D02*
X231868095Y-104351904D01*
X231915714Y-104447142D01*
X231963333Y-104494761D01*
X232058571Y-104542380D01*
X232249047Y-104542380D01*
X232344285Y-104494761D01*
X232391904Y-104447142D01*
X232439523Y-104351904D01*
X232439523Y-103542380D01*
X233344285Y-103875714D02*
X233344285Y-104542380D01*
X233106190Y-103494761D02*
X232868095Y-104209047D01*
X233487142Y-104209047D01*
M02*
