G04 #@! TF.GenerationSoftware,KiCad,Pcbnew,(5.1.0)-1*
G04 #@! TF.CreationDate,2019-05-14T12:18:11-07:00*
G04 #@! TF.ProjectId,ROVPCB,524f5650-4342-42e6-9b69-6361645f7063,rev?*
G04 #@! TF.SameCoordinates,Original*
G04 #@! TF.FileFunction,Soldermask,Bot*
G04 #@! TF.FilePolarity,Negative*
%FSLAX46Y46*%
G04 Gerber Fmt 4.6, Leading zero omitted, Abs format (unit mm)*
G04 Created by KiCad (PCBNEW (5.1.0)-1) date 2019-05-14 12:18:11*
%MOMM*%
%LPD*%
G04 APERTURE LIST*
%ADD10C,0.150000*%
G04 APERTURE END LIST*
D10*
G36*
X203893779Y-145201879D02*
G01*
X204139463Y-145303645D01*
X204139465Y-145303646D01*
X204250769Y-145378017D01*
X204360574Y-145451386D01*
X204548614Y-145639426D01*
X204696355Y-145860537D01*
X204798121Y-146106221D01*
X204850000Y-146367035D01*
X204850000Y-146632965D01*
X204798121Y-146893779D01*
X204696355Y-147139463D01*
X204696354Y-147139465D01*
X204548613Y-147360575D01*
X204360575Y-147548613D01*
X204139465Y-147696354D01*
X204139464Y-147696355D01*
X204139463Y-147696355D01*
X203893779Y-147798121D01*
X203632965Y-147850000D01*
X203367035Y-147850000D01*
X203106221Y-147798121D01*
X202860537Y-147696355D01*
X202860536Y-147696355D01*
X202860535Y-147696354D01*
X202639425Y-147548613D01*
X202451387Y-147360575D01*
X202303646Y-147139465D01*
X202303645Y-147139463D01*
X202201879Y-146893779D01*
X202150000Y-146632965D01*
X202150000Y-146367035D01*
X202201879Y-146106221D01*
X202303645Y-145860537D01*
X202451386Y-145639426D01*
X202639426Y-145451386D01*
X202749231Y-145378017D01*
X202860535Y-145303646D01*
X202860537Y-145303645D01*
X203106221Y-145201879D01*
X203367035Y-145150000D01*
X203632965Y-145150000D01*
X203893779Y-145201879D01*
X203893779Y-145201879D01*
G37*
G36*
X261893779Y-145201879D02*
G01*
X262139463Y-145303645D01*
X262139465Y-145303646D01*
X262250769Y-145378017D01*
X262360574Y-145451386D01*
X262548614Y-145639426D01*
X262696355Y-145860537D01*
X262798121Y-146106221D01*
X262850000Y-146367035D01*
X262850000Y-146632965D01*
X262798121Y-146893779D01*
X262696355Y-147139463D01*
X262696354Y-147139465D01*
X262548613Y-147360575D01*
X262360575Y-147548613D01*
X262139465Y-147696354D01*
X262139464Y-147696355D01*
X262139463Y-147696355D01*
X261893779Y-147798121D01*
X261632965Y-147850000D01*
X261367035Y-147850000D01*
X261106221Y-147798121D01*
X260860537Y-147696355D01*
X260860536Y-147696355D01*
X260860535Y-147696354D01*
X260639425Y-147548613D01*
X260451387Y-147360575D01*
X260303646Y-147139465D01*
X260303645Y-147139463D01*
X260201879Y-146893779D01*
X260150000Y-146632965D01*
X260150000Y-146367035D01*
X260201879Y-146106221D01*
X260303645Y-145860537D01*
X260451386Y-145639426D01*
X260639426Y-145451386D01*
X260749231Y-145378017D01*
X260860535Y-145303646D01*
X260860537Y-145303645D01*
X261106221Y-145201879D01*
X261367035Y-145150000D01*
X261632965Y-145150000D01*
X261893779Y-145201879D01*
X261893779Y-145201879D01*
G37*
G36*
X209331539Y-138798919D02*
G01*
X209513437Y-138874264D01*
X209677135Y-138983643D01*
X209816357Y-139122865D01*
X209925736Y-139286563D01*
X210001081Y-139468461D01*
X210039490Y-139661557D01*
X210039490Y-139858443D01*
X210001081Y-140051539D01*
X209925736Y-140233437D01*
X209816357Y-140397135D01*
X209677135Y-140536357D01*
X209513437Y-140645736D01*
X209331539Y-140721081D01*
X209138443Y-140759490D01*
X208941557Y-140759490D01*
X208748461Y-140721081D01*
X208566563Y-140645736D01*
X208402865Y-140536357D01*
X208263643Y-140397135D01*
X208154264Y-140233437D01*
X208078919Y-140051539D01*
X208040510Y-139858443D01*
X208040510Y-139661557D01*
X208078919Y-139468461D01*
X208154264Y-139286563D01*
X208263643Y-139122865D01*
X208402865Y-138983643D01*
X208566563Y-138874264D01*
X208748461Y-138798919D01*
X208941557Y-138760510D01*
X209138443Y-138760510D01*
X209331539Y-138798919D01*
X209331539Y-138798919D01*
G37*
G36*
X210039490Y-136949490D02*
G01*
X208040510Y-136949490D01*
X208040510Y-134950510D01*
X210039490Y-134950510D01*
X210039490Y-136949490D01*
X210039490Y-136949490D01*
G37*
G36*
X210268214Y-109936511D02*
G01*
X210353040Y-109962243D01*
X210353042Y-109962244D01*
X210431214Y-110004028D01*
X210499738Y-110060263D01*
X210555972Y-110128785D01*
X210569984Y-110155000D01*
X210597757Y-110206959D01*
X210623489Y-110291785D01*
X210630000Y-110357895D01*
X210630000Y-110902105D01*
X210623489Y-110968215D01*
X210597757Y-111053041D01*
X210597756Y-111053043D01*
X210555972Y-111131215D01*
X210499738Y-111199738D01*
X210431215Y-111255972D01*
X210382563Y-111281977D01*
X210353041Y-111297757D01*
X210268215Y-111323489D01*
X210180000Y-111332177D01*
X210091786Y-111323489D01*
X210006960Y-111297757D01*
X209977438Y-111281977D01*
X209928786Y-111255972D01*
X209860263Y-111199738D01*
X209804030Y-111131217D01*
X209762243Y-111053041D01*
X209736511Y-110968213D01*
X209730000Y-110902106D01*
X209730000Y-110357895D01*
X209736511Y-110291788D01*
X209736511Y-110291786D01*
X209762243Y-110206960D01*
X209762245Y-110206957D01*
X209804028Y-110128786D01*
X209860263Y-110060262D01*
X209928785Y-110004028D01*
X210006957Y-109962244D01*
X210006959Y-109962243D01*
X210091785Y-109936511D01*
X210180000Y-109927823D01*
X210268214Y-109936511D01*
X210268214Y-109936511D01*
G37*
G36*
X211518214Y-109936511D02*
G01*
X211603040Y-109962243D01*
X211603042Y-109962244D01*
X211681214Y-110004028D01*
X211749738Y-110060263D01*
X211805972Y-110128785D01*
X211819984Y-110155000D01*
X211847757Y-110206959D01*
X211873489Y-110291785D01*
X211880000Y-110357895D01*
X211880000Y-110902105D01*
X211873489Y-110968215D01*
X211847757Y-111053041D01*
X211847756Y-111053043D01*
X211805972Y-111131215D01*
X211749738Y-111199738D01*
X211681215Y-111255972D01*
X211632563Y-111281977D01*
X211603041Y-111297757D01*
X211518215Y-111323489D01*
X211430000Y-111332177D01*
X211341786Y-111323489D01*
X211256960Y-111297757D01*
X211227438Y-111281977D01*
X211178786Y-111255972D01*
X211110263Y-111199738D01*
X211054030Y-111131217D01*
X211012243Y-111053041D01*
X210986511Y-110968213D01*
X210980000Y-110902106D01*
X210980000Y-110357895D01*
X210986511Y-110291788D01*
X210986511Y-110291786D01*
X211012243Y-110206960D01*
X211012245Y-110206957D01*
X211054028Y-110128786D01*
X211110263Y-110060262D01*
X211178785Y-110004028D01*
X211256957Y-109962244D01*
X211256959Y-109962243D01*
X211341785Y-109936511D01*
X211430000Y-109927823D01*
X211518214Y-109936511D01*
X211518214Y-109936511D01*
G37*
G36*
X212768214Y-109936511D02*
G01*
X212853040Y-109962243D01*
X212853042Y-109962244D01*
X212931214Y-110004028D01*
X212999738Y-110060263D01*
X213055972Y-110128785D01*
X213069984Y-110155000D01*
X213097757Y-110206959D01*
X213123489Y-110291785D01*
X213130000Y-110357895D01*
X213130000Y-110902105D01*
X213123489Y-110968215D01*
X213097757Y-111053041D01*
X213097756Y-111053043D01*
X213055972Y-111131215D01*
X212999738Y-111199738D01*
X212931215Y-111255972D01*
X212882563Y-111281977D01*
X212853041Y-111297757D01*
X212768215Y-111323489D01*
X212680000Y-111332177D01*
X212591786Y-111323489D01*
X212506960Y-111297757D01*
X212477438Y-111281977D01*
X212428786Y-111255972D01*
X212360263Y-111199738D01*
X212304030Y-111131217D01*
X212262243Y-111053041D01*
X212236511Y-110968213D01*
X212230000Y-110902106D01*
X212230000Y-110357895D01*
X212236511Y-110291788D01*
X212236511Y-110291786D01*
X212262243Y-110206960D01*
X212262245Y-110206957D01*
X212304028Y-110128786D01*
X212360263Y-110060262D01*
X212428785Y-110004028D01*
X212506957Y-109962244D01*
X212506959Y-109962243D01*
X212591785Y-109936511D01*
X212680000Y-109927823D01*
X212768214Y-109936511D01*
X212768214Y-109936511D01*
G37*
G36*
X209249083Y-109933715D02*
G01*
X209279454Y-109942928D01*
X209307445Y-109957890D01*
X209331977Y-109978023D01*
X209352110Y-110002555D01*
X209367072Y-110030546D01*
X209376285Y-110060917D01*
X209380000Y-110098640D01*
X209380000Y-111161360D01*
X209376285Y-111199083D01*
X209367072Y-111229454D01*
X209352110Y-111257445D01*
X209331977Y-111281977D01*
X209307445Y-111302110D01*
X209279454Y-111317072D01*
X209249083Y-111326285D01*
X209211360Y-111330000D01*
X208648640Y-111330000D01*
X208610917Y-111326285D01*
X208580546Y-111317072D01*
X208552555Y-111302110D01*
X208528023Y-111281977D01*
X208507890Y-111257445D01*
X208492928Y-111229454D01*
X208483715Y-111199083D01*
X208480000Y-111161360D01*
X208480000Y-110098640D01*
X208483715Y-110060917D01*
X208492928Y-110030546D01*
X208507890Y-110002555D01*
X208528023Y-109978023D01*
X208552555Y-109957890D01*
X208580546Y-109942928D01*
X208610917Y-109933715D01*
X208648640Y-109930000D01*
X209211360Y-109930000D01*
X209249083Y-109933715D01*
X209249083Y-109933715D01*
G37*
G36*
X250261539Y-106598919D02*
G01*
X250443437Y-106674264D01*
X250607135Y-106783643D01*
X250746357Y-106922865D01*
X250855736Y-107086563D01*
X250931081Y-107268461D01*
X250969490Y-107461557D01*
X250969490Y-107658443D01*
X250931081Y-107851539D01*
X250855736Y-108033437D01*
X250746357Y-108197135D01*
X250607135Y-108336357D01*
X250443437Y-108445736D01*
X250261539Y-108521081D01*
X250068443Y-108559490D01*
X249871557Y-108559490D01*
X249678461Y-108521081D01*
X249496563Y-108445736D01*
X249332865Y-108336357D01*
X249193643Y-108197135D01*
X249084264Y-108033437D01*
X249008919Y-107851539D01*
X248970510Y-107658443D01*
X248970510Y-107461557D01*
X249008919Y-107268461D01*
X249084264Y-107086563D01*
X249193643Y-106922865D01*
X249332865Y-106783643D01*
X249496563Y-106674264D01*
X249678461Y-106598919D01*
X249871557Y-106560510D01*
X250068443Y-106560510D01*
X250261539Y-106598919D01*
X250261539Y-106598919D01*
G37*
G36*
X212768214Y-104856511D02*
G01*
X212853040Y-104882243D01*
X212853042Y-104882244D01*
X212931214Y-104924028D01*
X212999738Y-104980263D01*
X213055972Y-105048785D01*
X213069984Y-105075000D01*
X213097757Y-105126959D01*
X213123489Y-105211785D01*
X213130000Y-105277895D01*
X213130000Y-105822105D01*
X213123489Y-105888215D01*
X213097757Y-105973041D01*
X213097756Y-105973043D01*
X213055972Y-106051215D01*
X212999738Y-106119738D01*
X212931215Y-106175972D01*
X212882563Y-106201977D01*
X212853041Y-106217757D01*
X212768215Y-106243489D01*
X212680000Y-106252177D01*
X212591786Y-106243489D01*
X212506960Y-106217757D01*
X212477438Y-106201977D01*
X212428786Y-106175972D01*
X212360263Y-106119738D01*
X212304030Y-106051217D01*
X212262243Y-105973041D01*
X212236511Y-105888213D01*
X212230000Y-105822106D01*
X212230000Y-105277895D01*
X212236511Y-105211788D01*
X212236511Y-105211786D01*
X212262243Y-105126960D01*
X212262245Y-105126957D01*
X212304028Y-105048786D01*
X212360263Y-104980262D01*
X212428785Y-104924028D01*
X212506957Y-104882244D01*
X212506959Y-104882243D01*
X212591785Y-104856511D01*
X212680000Y-104847823D01*
X212768214Y-104856511D01*
X212768214Y-104856511D01*
G37*
G36*
X211518214Y-104856511D02*
G01*
X211603040Y-104882243D01*
X211603042Y-104882244D01*
X211681214Y-104924028D01*
X211749738Y-104980263D01*
X211805972Y-105048785D01*
X211819984Y-105075000D01*
X211847757Y-105126959D01*
X211873489Y-105211785D01*
X211880000Y-105277895D01*
X211880000Y-105822105D01*
X211873489Y-105888215D01*
X211847757Y-105973041D01*
X211847756Y-105973043D01*
X211805972Y-106051215D01*
X211749738Y-106119738D01*
X211681215Y-106175972D01*
X211632563Y-106201977D01*
X211603041Y-106217757D01*
X211518215Y-106243489D01*
X211430000Y-106252177D01*
X211341786Y-106243489D01*
X211256960Y-106217757D01*
X211227438Y-106201977D01*
X211178786Y-106175972D01*
X211110263Y-106119738D01*
X211054030Y-106051217D01*
X211012243Y-105973041D01*
X210986511Y-105888213D01*
X210980000Y-105822106D01*
X210980000Y-105277895D01*
X210986511Y-105211788D01*
X210986511Y-105211786D01*
X211012243Y-105126960D01*
X211012245Y-105126957D01*
X211054028Y-105048786D01*
X211110263Y-104980262D01*
X211178785Y-104924028D01*
X211256957Y-104882244D01*
X211256959Y-104882243D01*
X211341785Y-104856511D01*
X211430000Y-104847823D01*
X211518214Y-104856511D01*
X211518214Y-104856511D01*
G37*
G36*
X210268214Y-104856511D02*
G01*
X210353040Y-104882243D01*
X210353042Y-104882244D01*
X210431214Y-104924028D01*
X210499738Y-104980263D01*
X210555972Y-105048785D01*
X210569984Y-105075000D01*
X210597757Y-105126959D01*
X210623489Y-105211785D01*
X210630000Y-105277895D01*
X210630000Y-105822105D01*
X210623489Y-105888215D01*
X210597757Y-105973041D01*
X210597756Y-105973043D01*
X210555972Y-106051215D01*
X210499738Y-106119738D01*
X210431215Y-106175972D01*
X210382563Y-106201977D01*
X210353041Y-106217757D01*
X210268215Y-106243489D01*
X210180000Y-106252177D01*
X210091786Y-106243489D01*
X210006960Y-106217757D01*
X209977438Y-106201977D01*
X209928786Y-106175972D01*
X209860263Y-106119738D01*
X209804030Y-106051217D01*
X209762243Y-105973041D01*
X209736511Y-105888213D01*
X209730000Y-105822106D01*
X209730000Y-105277895D01*
X209736511Y-105211788D01*
X209736511Y-105211786D01*
X209762243Y-105126960D01*
X209762245Y-105126957D01*
X209804028Y-105048786D01*
X209860263Y-104980262D01*
X209928785Y-104924028D01*
X210006957Y-104882244D01*
X210006959Y-104882243D01*
X210091785Y-104856511D01*
X210180000Y-104847823D01*
X210268214Y-104856511D01*
X210268214Y-104856511D01*
G37*
G36*
X209249083Y-104853715D02*
G01*
X209279454Y-104862928D01*
X209307445Y-104877890D01*
X209331977Y-104898023D01*
X209352110Y-104922555D01*
X209367072Y-104950546D01*
X209376285Y-104980917D01*
X209380000Y-105018640D01*
X209380000Y-106081360D01*
X209376285Y-106119083D01*
X209367072Y-106149454D01*
X209352110Y-106177445D01*
X209331977Y-106201977D01*
X209307445Y-106222110D01*
X209279454Y-106237072D01*
X209249083Y-106246285D01*
X209211360Y-106250000D01*
X208648640Y-106250000D01*
X208610917Y-106246285D01*
X208580546Y-106237072D01*
X208552555Y-106222110D01*
X208528023Y-106201977D01*
X208507890Y-106177445D01*
X208492928Y-106149454D01*
X208483715Y-106119083D01*
X208480000Y-106081360D01*
X208480000Y-105018640D01*
X208483715Y-104980917D01*
X208492928Y-104950546D01*
X208507890Y-104922555D01*
X208528023Y-104898023D01*
X208552555Y-104877890D01*
X208580546Y-104862928D01*
X208610917Y-104853715D01*
X208648640Y-104850000D01*
X209211360Y-104850000D01*
X209249083Y-104853715D01*
X209249083Y-104853715D01*
G37*
G36*
X241556627Y-97932299D02*
G01*
X241636742Y-97956601D01*
X241716855Y-97980903D01*
X241716857Y-97980904D01*
X241864518Y-98059831D01*
X241993949Y-98166051D01*
X242100169Y-98295482D01*
X242179096Y-98443143D01*
X242227701Y-98603373D01*
X242244112Y-98770000D01*
X242227701Y-98936627D01*
X242179096Y-99096857D01*
X242100169Y-99244518D01*
X241993949Y-99373949D01*
X241864518Y-99480169D01*
X241716857Y-99559096D01*
X241716855Y-99559097D01*
X241636742Y-99583398D01*
X241556627Y-99607701D01*
X241431752Y-99620000D01*
X241348248Y-99620000D01*
X241223373Y-99607701D01*
X241143258Y-99583398D01*
X241063145Y-99559097D01*
X241063143Y-99559096D01*
X240915482Y-99480169D01*
X240786051Y-99373949D01*
X240679831Y-99244518D01*
X240600904Y-99096857D01*
X240552299Y-98936627D01*
X240535888Y-98770000D01*
X240552299Y-98603373D01*
X240600904Y-98443143D01*
X240679831Y-98295482D01*
X240786051Y-98166051D01*
X240915482Y-98059831D01*
X241063143Y-97980904D01*
X241063145Y-97980903D01*
X241143258Y-97956601D01*
X241223373Y-97932299D01*
X241348248Y-97920000D01*
X241431752Y-97920000D01*
X241556627Y-97932299D01*
X241556627Y-97932299D01*
G37*
G36*
X256796627Y-97932299D02*
G01*
X256876742Y-97956601D01*
X256956855Y-97980903D01*
X256956857Y-97980904D01*
X257104518Y-98059831D01*
X257233949Y-98166051D01*
X257340169Y-98295482D01*
X257419096Y-98443143D01*
X257467701Y-98603373D01*
X257484112Y-98770000D01*
X257467701Y-98936627D01*
X257419096Y-99096857D01*
X257340169Y-99244518D01*
X257233949Y-99373949D01*
X257104518Y-99480169D01*
X256956857Y-99559096D01*
X256956855Y-99559097D01*
X256876742Y-99583398D01*
X256796627Y-99607701D01*
X256671752Y-99620000D01*
X256588248Y-99620000D01*
X256463373Y-99607701D01*
X256383258Y-99583398D01*
X256303145Y-99559097D01*
X256303143Y-99559096D01*
X256155482Y-99480169D01*
X256026051Y-99373949D01*
X255919831Y-99244518D01*
X255840904Y-99096857D01*
X255792299Y-98936627D01*
X255775888Y-98770000D01*
X255792299Y-98603373D01*
X255840904Y-98443143D01*
X255919831Y-98295482D01*
X256026051Y-98166051D01*
X256155482Y-98059831D01*
X256303143Y-97980904D01*
X256303145Y-97980903D01*
X256383258Y-97956601D01*
X256463373Y-97932299D01*
X256588248Y-97920000D01*
X256671752Y-97920000D01*
X256796627Y-97932299D01*
X256796627Y-97932299D01*
G37*
G36*
X254256627Y-97932299D02*
G01*
X254336742Y-97956601D01*
X254416855Y-97980903D01*
X254416857Y-97980904D01*
X254564518Y-98059831D01*
X254693949Y-98166051D01*
X254800169Y-98295482D01*
X254879096Y-98443143D01*
X254927701Y-98603373D01*
X254944112Y-98770000D01*
X254927701Y-98936627D01*
X254879096Y-99096857D01*
X254800169Y-99244518D01*
X254693949Y-99373949D01*
X254564518Y-99480169D01*
X254416857Y-99559096D01*
X254416855Y-99559097D01*
X254336742Y-99583398D01*
X254256627Y-99607701D01*
X254131752Y-99620000D01*
X254048248Y-99620000D01*
X253923373Y-99607701D01*
X253843258Y-99583398D01*
X253763145Y-99559097D01*
X253763143Y-99559096D01*
X253615482Y-99480169D01*
X253486051Y-99373949D01*
X253379831Y-99244518D01*
X253300904Y-99096857D01*
X253252299Y-98936627D01*
X253235888Y-98770000D01*
X253252299Y-98603373D01*
X253300904Y-98443143D01*
X253379831Y-98295482D01*
X253486051Y-98166051D01*
X253615482Y-98059831D01*
X253763143Y-97980904D01*
X253763145Y-97980903D01*
X253843258Y-97956601D01*
X253923373Y-97932299D01*
X254048248Y-97920000D01*
X254131752Y-97920000D01*
X254256627Y-97932299D01*
X254256627Y-97932299D01*
G37*
G36*
X251716627Y-97932299D02*
G01*
X251796742Y-97956601D01*
X251876855Y-97980903D01*
X251876857Y-97980904D01*
X252024518Y-98059831D01*
X252153949Y-98166051D01*
X252260169Y-98295482D01*
X252339096Y-98443143D01*
X252387701Y-98603373D01*
X252404112Y-98770000D01*
X252387701Y-98936627D01*
X252339096Y-99096857D01*
X252260169Y-99244518D01*
X252153949Y-99373949D01*
X252024518Y-99480169D01*
X251876857Y-99559096D01*
X251876855Y-99559097D01*
X251796742Y-99583398D01*
X251716627Y-99607701D01*
X251591752Y-99620000D01*
X251508248Y-99620000D01*
X251383373Y-99607701D01*
X251303258Y-99583398D01*
X251223145Y-99559097D01*
X251223143Y-99559096D01*
X251075482Y-99480169D01*
X250946051Y-99373949D01*
X250839831Y-99244518D01*
X250760904Y-99096857D01*
X250712299Y-98936627D01*
X250695888Y-98770000D01*
X250712299Y-98603373D01*
X250760904Y-98443143D01*
X250839831Y-98295482D01*
X250946051Y-98166051D01*
X251075482Y-98059831D01*
X251223143Y-97980904D01*
X251223145Y-97980903D01*
X251303258Y-97956601D01*
X251383373Y-97932299D01*
X251508248Y-97920000D01*
X251591752Y-97920000D01*
X251716627Y-97932299D01*
X251716627Y-97932299D01*
G37*
G36*
X249176627Y-97932299D02*
G01*
X249256742Y-97956601D01*
X249336855Y-97980903D01*
X249336857Y-97980904D01*
X249484518Y-98059831D01*
X249613949Y-98166051D01*
X249720169Y-98295482D01*
X249799096Y-98443143D01*
X249847701Y-98603373D01*
X249864112Y-98770000D01*
X249847701Y-98936627D01*
X249799096Y-99096857D01*
X249720169Y-99244518D01*
X249613949Y-99373949D01*
X249484518Y-99480169D01*
X249336857Y-99559096D01*
X249336855Y-99559097D01*
X249256742Y-99583398D01*
X249176627Y-99607701D01*
X249051752Y-99620000D01*
X248968248Y-99620000D01*
X248843373Y-99607701D01*
X248763258Y-99583398D01*
X248683145Y-99559097D01*
X248683143Y-99559096D01*
X248535482Y-99480169D01*
X248406051Y-99373949D01*
X248299831Y-99244518D01*
X248220904Y-99096857D01*
X248172299Y-98936627D01*
X248155888Y-98770000D01*
X248172299Y-98603373D01*
X248220904Y-98443143D01*
X248299831Y-98295482D01*
X248406051Y-98166051D01*
X248535482Y-98059831D01*
X248683143Y-97980904D01*
X248683145Y-97980903D01*
X248763258Y-97956601D01*
X248843373Y-97932299D01*
X248968248Y-97920000D01*
X249051752Y-97920000D01*
X249176627Y-97932299D01*
X249176627Y-97932299D01*
G37*
G36*
X244096627Y-97932299D02*
G01*
X244176742Y-97956601D01*
X244256855Y-97980903D01*
X244256857Y-97980904D01*
X244404518Y-98059831D01*
X244533949Y-98166051D01*
X244640169Y-98295482D01*
X244719096Y-98443143D01*
X244767701Y-98603373D01*
X244784112Y-98770000D01*
X244767701Y-98936627D01*
X244719096Y-99096857D01*
X244640169Y-99244518D01*
X244533949Y-99373949D01*
X244404518Y-99480169D01*
X244256857Y-99559096D01*
X244256855Y-99559097D01*
X244176742Y-99583398D01*
X244096627Y-99607701D01*
X243971752Y-99620000D01*
X243888248Y-99620000D01*
X243763373Y-99607701D01*
X243683258Y-99583398D01*
X243603145Y-99559097D01*
X243603143Y-99559096D01*
X243455482Y-99480169D01*
X243326051Y-99373949D01*
X243219831Y-99244518D01*
X243140904Y-99096857D01*
X243092299Y-98936627D01*
X243075888Y-98770000D01*
X243092299Y-98603373D01*
X243140904Y-98443143D01*
X243219831Y-98295482D01*
X243326051Y-98166051D01*
X243455482Y-98059831D01*
X243603143Y-97980904D01*
X243603145Y-97980903D01*
X243683258Y-97956601D01*
X243763373Y-97932299D01*
X243888248Y-97920000D01*
X243971752Y-97920000D01*
X244096627Y-97932299D01*
X244096627Y-97932299D01*
G37*
G36*
X239016627Y-97932299D02*
G01*
X239096742Y-97956601D01*
X239176855Y-97980903D01*
X239176857Y-97980904D01*
X239324518Y-98059831D01*
X239453949Y-98166051D01*
X239560169Y-98295482D01*
X239639096Y-98443143D01*
X239687701Y-98603373D01*
X239704112Y-98770000D01*
X239687701Y-98936627D01*
X239639096Y-99096857D01*
X239560169Y-99244518D01*
X239453949Y-99373949D01*
X239324518Y-99480169D01*
X239176857Y-99559096D01*
X239176855Y-99559097D01*
X239096742Y-99583398D01*
X239016627Y-99607701D01*
X238891752Y-99620000D01*
X238808248Y-99620000D01*
X238683373Y-99607701D01*
X238603258Y-99583398D01*
X238523145Y-99559097D01*
X238523143Y-99559096D01*
X238375482Y-99480169D01*
X238246051Y-99373949D01*
X238139831Y-99244518D01*
X238060904Y-99096857D01*
X238012299Y-98936627D01*
X237995888Y-98770000D01*
X238012299Y-98603373D01*
X238060904Y-98443143D01*
X238139831Y-98295482D01*
X238246051Y-98166051D01*
X238375482Y-98059831D01*
X238523143Y-97980904D01*
X238523145Y-97980903D01*
X238603258Y-97956601D01*
X238683373Y-97932299D01*
X238808248Y-97920000D01*
X238891752Y-97920000D01*
X239016627Y-97932299D01*
X239016627Y-97932299D01*
G37*
G36*
X236476627Y-97932299D02*
G01*
X236556742Y-97956601D01*
X236636855Y-97980903D01*
X236636857Y-97980904D01*
X236784518Y-98059831D01*
X236913949Y-98166051D01*
X237020169Y-98295482D01*
X237099096Y-98443143D01*
X237147701Y-98603373D01*
X237164112Y-98770000D01*
X237147701Y-98936627D01*
X237099096Y-99096857D01*
X237020169Y-99244518D01*
X236913949Y-99373949D01*
X236784518Y-99480169D01*
X236636857Y-99559096D01*
X236636855Y-99559097D01*
X236556742Y-99583398D01*
X236476627Y-99607701D01*
X236351752Y-99620000D01*
X236268248Y-99620000D01*
X236143373Y-99607701D01*
X236063258Y-99583398D01*
X235983145Y-99559097D01*
X235983143Y-99559096D01*
X235835482Y-99480169D01*
X235706051Y-99373949D01*
X235599831Y-99244518D01*
X235520904Y-99096857D01*
X235472299Y-98936627D01*
X235455888Y-98770000D01*
X235472299Y-98603373D01*
X235520904Y-98443143D01*
X235599831Y-98295482D01*
X235706051Y-98166051D01*
X235835482Y-98059831D01*
X235983143Y-97980904D01*
X235983145Y-97980903D01*
X236063258Y-97956601D01*
X236143373Y-97932299D01*
X236268248Y-97920000D01*
X236351752Y-97920000D01*
X236476627Y-97932299D01*
X236476627Y-97932299D01*
G37*
G36*
X233936627Y-97932299D02*
G01*
X234016742Y-97956601D01*
X234096855Y-97980903D01*
X234096857Y-97980904D01*
X234244518Y-98059831D01*
X234373949Y-98166051D01*
X234480169Y-98295482D01*
X234559096Y-98443143D01*
X234607701Y-98603373D01*
X234624112Y-98770000D01*
X234607701Y-98936627D01*
X234559096Y-99096857D01*
X234480169Y-99244518D01*
X234373949Y-99373949D01*
X234244518Y-99480169D01*
X234096857Y-99559096D01*
X234096855Y-99559097D01*
X234016742Y-99583398D01*
X233936627Y-99607701D01*
X233811752Y-99620000D01*
X233728248Y-99620000D01*
X233603373Y-99607701D01*
X233523258Y-99583398D01*
X233443145Y-99559097D01*
X233443143Y-99559096D01*
X233295482Y-99480169D01*
X233166051Y-99373949D01*
X233059831Y-99244518D01*
X232980904Y-99096857D01*
X232932299Y-98936627D01*
X232915888Y-98770000D01*
X232932299Y-98603373D01*
X232980904Y-98443143D01*
X233059831Y-98295482D01*
X233166051Y-98166051D01*
X233295482Y-98059831D01*
X233443143Y-97980904D01*
X233443145Y-97980903D01*
X233523258Y-97956601D01*
X233603373Y-97932299D01*
X233728248Y-97920000D01*
X233811752Y-97920000D01*
X233936627Y-97932299D01*
X233936627Y-97932299D01*
G37*
G36*
X231396627Y-97932299D02*
G01*
X231476742Y-97956601D01*
X231556855Y-97980903D01*
X231556857Y-97980904D01*
X231704518Y-98059831D01*
X231833949Y-98166051D01*
X231940169Y-98295482D01*
X232019096Y-98443143D01*
X232067701Y-98603373D01*
X232084112Y-98770000D01*
X232067701Y-98936627D01*
X232019096Y-99096857D01*
X231940169Y-99244518D01*
X231833949Y-99373949D01*
X231704518Y-99480169D01*
X231556857Y-99559096D01*
X231556855Y-99559097D01*
X231476742Y-99583398D01*
X231396627Y-99607701D01*
X231271752Y-99620000D01*
X231188248Y-99620000D01*
X231063373Y-99607701D01*
X230983258Y-99583398D01*
X230903145Y-99559097D01*
X230903143Y-99559096D01*
X230755482Y-99480169D01*
X230626051Y-99373949D01*
X230519831Y-99244518D01*
X230440904Y-99096857D01*
X230392299Y-98936627D01*
X230375888Y-98770000D01*
X230392299Y-98603373D01*
X230440904Y-98443143D01*
X230519831Y-98295482D01*
X230626051Y-98166051D01*
X230755482Y-98059831D01*
X230903143Y-97980904D01*
X230903145Y-97980903D01*
X230983258Y-97956601D01*
X231063373Y-97932299D01*
X231188248Y-97920000D01*
X231271752Y-97920000D01*
X231396627Y-97932299D01*
X231396627Y-97932299D01*
G37*
G36*
X226316627Y-97932299D02*
G01*
X226396742Y-97956601D01*
X226476855Y-97980903D01*
X226476857Y-97980904D01*
X226624518Y-98059831D01*
X226753949Y-98166051D01*
X226860169Y-98295482D01*
X226939096Y-98443143D01*
X226987701Y-98603373D01*
X227004112Y-98770000D01*
X226987701Y-98936627D01*
X226939096Y-99096857D01*
X226860169Y-99244518D01*
X226753949Y-99373949D01*
X226624518Y-99480169D01*
X226476857Y-99559096D01*
X226476855Y-99559097D01*
X226396742Y-99583398D01*
X226316627Y-99607701D01*
X226191752Y-99620000D01*
X226108248Y-99620000D01*
X225983373Y-99607701D01*
X225903258Y-99583398D01*
X225823145Y-99559097D01*
X225823143Y-99559096D01*
X225675482Y-99480169D01*
X225546051Y-99373949D01*
X225439831Y-99244518D01*
X225360904Y-99096857D01*
X225312299Y-98936627D01*
X225295888Y-98770000D01*
X225312299Y-98603373D01*
X225360904Y-98443143D01*
X225439831Y-98295482D01*
X225546051Y-98166051D01*
X225675482Y-98059831D01*
X225823143Y-97980904D01*
X225823145Y-97980903D01*
X225903258Y-97956601D01*
X225983373Y-97932299D01*
X226108248Y-97920000D01*
X226191752Y-97920000D01*
X226316627Y-97932299D01*
X226316627Y-97932299D01*
G37*
G36*
X223776627Y-97932299D02*
G01*
X223856742Y-97956601D01*
X223936855Y-97980903D01*
X223936857Y-97980904D01*
X224084518Y-98059831D01*
X224213949Y-98166051D01*
X224320169Y-98295482D01*
X224399096Y-98443143D01*
X224447701Y-98603373D01*
X224464112Y-98770000D01*
X224447701Y-98936627D01*
X224399096Y-99096857D01*
X224320169Y-99244518D01*
X224213949Y-99373949D01*
X224084518Y-99480169D01*
X223936857Y-99559096D01*
X223936855Y-99559097D01*
X223856742Y-99583398D01*
X223776627Y-99607701D01*
X223651752Y-99620000D01*
X223568248Y-99620000D01*
X223443373Y-99607701D01*
X223363258Y-99583398D01*
X223283145Y-99559097D01*
X223283143Y-99559096D01*
X223135482Y-99480169D01*
X223006051Y-99373949D01*
X222899831Y-99244518D01*
X222820904Y-99096857D01*
X222772299Y-98936627D01*
X222755888Y-98770000D01*
X222772299Y-98603373D01*
X222820904Y-98443143D01*
X222899831Y-98295482D01*
X223006051Y-98166051D01*
X223135482Y-98059831D01*
X223283143Y-97980904D01*
X223283145Y-97980903D01*
X223363258Y-97956601D01*
X223443373Y-97932299D01*
X223568248Y-97920000D01*
X223651752Y-97920000D01*
X223776627Y-97932299D01*
X223776627Y-97932299D01*
G37*
G36*
X221236627Y-97932299D02*
G01*
X221316742Y-97956601D01*
X221396855Y-97980903D01*
X221396857Y-97980904D01*
X221544518Y-98059831D01*
X221673949Y-98166051D01*
X221780169Y-98295482D01*
X221859096Y-98443143D01*
X221907701Y-98603373D01*
X221924112Y-98770000D01*
X221907701Y-98936627D01*
X221859096Y-99096857D01*
X221780169Y-99244518D01*
X221673949Y-99373949D01*
X221544518Y-99480169D01*
X221396857Y-99559096D01*
X221396855Y-99559097D01*
X221316742Y-99583398D01*
X221236627Y-99607701D01*
X221111752Y-99620000D01*
X221028248Y-99620000D01*
X220903373Y-99607701D01*
X220823258Y-99583398D01*
X220743145Y-99559097D01*
X220743143Y-99559096D01*
X220595482Y-99480169D01*
X220466051Y-99373949D01*
X220359831Y-99244518D01*
X220280904Y-99096857D01*
X220232299Y-98936627D01*
X220215888Y-98770000D01*
X220232299Y-98603373D01*
X220280904Y-98443143D01*
X220359831Y-98295482D01*
X220466051Y-98166051D01*
X220595482Y-98059831D01*
X220743143Y-97980904D01*
X220743145Y-97980903D01*
X220823258Y-97956601D01*
X220903373Y-97932299D01*
X221028248Y-97920000D01*
X221111752Y-97920000D01*
X221236627Y-97932299D01*
X221236627Y-97932299D01*
G37*
G36*
X246636627Y-97932299D02*
G01*
X246716742Y-97956601D01*
X246796855Y-97980903D01*
X246796857Y-97980904D01*
X246944518Y-98059831D01*
X247073949Y-98166051D01*
X247180169Y-98295482D01*
X247259096Y-98443143D01*
X247307701Y-98603373D01*
X247324112Y-98770000D01*
X247307701Y-98936627D01*
X247259096Y-99096857D01*
X247180169Y-99244518D01*
X247073949Y-99373949D01*
X246944518Y-99480169D01*
X246796857Y-99559096D01*
X246796855Y-99559097D01*
X246716742Y-99583398D01*
X246636627Y-99607701D01*
X246511752Y-99620000D01*
X246428248Y-99620000D01*
X246303373Y-99607701D01*
X246223258Y-99583398D01*
X246143145Y-99559097D01*
X246143143Y-99559096D01*
X245995482Y-99480169D01*
X245866051Y-99373949D01*
X245759831Y-99244518D01*
X245680904Y-99096857D01*
X245632299Y-98936627D01*
X245615888Y-98770000D01*
X245632299Y-98603373D01*
X245680904Y-98443143D01*
X245759831Y-98295482D01*
X245866051Y-98166051D01*
X245995482Y-98059831D01*
X246143143Y-97980904D01*
X246143145Y-97980903D01*
X246223258Y-97956601D01*
X246303373Y-97932299D01*
X246428248Y-97920000D01*
X246511752Y-97920000D01*
X246636627Y-97932299D01*
X246636627Y-97932299D01*
G37*
G36*
X216156627Y-97932299D02*
G01*
X216236742Y-97956601D01*
X216316855Y-97980903D01*
X216316857Y-97980904D01*
X216464518Y-98059831D01*
X216593949Y-98166051D01*
X216700169Y-98295482D01*
X216779096Y-98443143D01*
X216827701Y-98603373D01*
X216844112Y-98770000D01*
X216827701Y-98936627D01*
X216779096Y-99096857D01*
X216700169Y-99244518D01*
X216593949Y-99373949D01*
X216464518Y-99480169D01*
X216316857Y-99559096D01*
X216316855Y-99559097D01*
X216236742Y-99583398D01*
X216156627Y-99607701D01*
X216031752Y-99620000D01*
X215948248Y-99620000D01*
X215823373Y-99607701D01*
X215743258Y-99583398D01*
X215663145Y-99559097D01*
X215663143Y-99559096D01*
X215515482Y-99480169D01*
X215386051Y-99373949D01*
X215279831Y-99244518D01*
X215200904Y-99096857D01*
X215152299Y-98936627D01*
X215135888Y-98770000D01*
X215152299Y-98603373D01*
X215200904Y-98443143D01*
X215279831Y-98295482D01*
X215386051Y-98166051D01*
X215515482Y-98059831D01*
X215663143Y-97980904D01*
X215663145Y-97980903D01*
X215743258Y-97956601D01*
X215823373Y-97932299D01*
X215948248Y-97920000D01*
X216031752Y-97920000D01*
X216156627Y-97932299D01*
X216156627Y-97932299D01*
G37*
G36*
X213616627Y-97932299D02*
G01*
X213696742Y-97956601D01*
X213776855Y-97980903D01*
X213776857Y-97980904D01*
X213924518Y-98059831D01*
X214053949Y-98166051D01*
X214160169Y-98295482D01*
X214239096Y-98443143D01*
X214287701Y-98603373D01*
X214304112Y-98770000D01*
X214287701Y-98936627D01*
X214239096Y-99096857D01*
X214160169Y-99244518D01*
X214053949Y-99373949D01*
X213924518Y-99480169D01*
X213776857Y-99559096D01*
X213776855Y-99559097D01*
X213696742Y-99583398D01*
X213616627Y-99607701D01*
X213491752Y-99620000D01*
X213408248Y-99620000D01*
X213283373Y-99607701D01*
X213203258Y-99583398D01*
X213123145Y-99559097D01*
X213123143Y-99559096D01*
X212975482Y-99480169D01*
X212846051Y-99373949D01*
X212739831Y-99244518D01*
X212660904Y-99096857D01*
X212612299Y-98936627D01*
X212595888Y-98770000D01*
X212612299Y-98603373D01*
X212660904Y-98443143D01*
X212739831Y-98295482D01*
X212846051Y-98166051D01*
X212975482Y-98059831D01*
X213123143Y-97980904D01*
X213123145Y-97980903D01*
X213203258Y-97956601D01*
X213283373Y-97932299D01*
X213408248Y-97920000D01*
X213491752Y-97920000D01*
X213616627Y-97932299D01*
X213616627Y-97932299D01*
G37*
G36*
X209220000Y-99620000D02*
G01*
X207520000Y-99620000D01*
X207520000Y-97920000D01*
X209220000Y-97920000D01*
X209220000Y-99620000D01*
X209220000Y-99620000D01*
G37*
G36*
X218696627Y-97932299D02*
G01*
X218776742Y-97956601D01*
X218856855Y-97980903D01*
X218856857Y-97980904D01*
X219004518Y-98059831D01*
X219133949Y-98166051D01*
X219240169Y-98295482D01*
X219319096Y-98443143D01*
X219367701Y-98603373D01*
X219384112Y-98770000D01*
X219367701Y-98936627D01*
X219319096Y-99096857D01*
X219240169Y-99244518D01*
X219133949Y-99373949D01*
X219004518Y-99480169D01*
X218856857Y-99559096D01*
X218856855Y-99559097D01*
X218776742Y-99583398D01*
X218696627Y-99607701D01*
X218571752Y-99620000D01*
X218488248Y-99620000D01*
X218363373Y-99607701D01*
X218283258Y-99583398D01*
X218203145Y-99559097D01*
X218203143Y-99559096D01*
X218055482Y-99480169D01*
X217926051Y-99373949D01*
X217819831Y-99244518D01*
X217740904Y-99096857D01*
X217692299Y-98936627D01*
X217675888Y-98770000D01*
X217692299Y-98603373D01*
X217740904Y-98443143D01*
X217819831Y-98295482D01*
X217926051Y-98166051D01*
X218055482Y-98059831D01*
X218203143Y-97980904D01*
X218203145Y-97980903D01*
X218283258Y-97956601D01*
X218363373Y-97932299D01*
X218488248Y-97920000D01*
X218571752Y-97920000D01*
X218696627Y-97932299D01*
X218696627Y-97932299D01*
G37*
G36*
X211076627Y-97932299D02*
G01*
X211156742Y-97956601D01*
X211236855Y-97980903D01*
X211236857Y-97980904D01*
X211384518Y-98059831D01*
X211513949Y-98166051D01*
X211620169Y-98295482D01*
X211699096Y-98443143D01*
X211747701Y-98603373D01*
X211764112Y-98770000D01*
X211747701Y-98936627D01*
X211699096Y-99096857D01*
X211620169Y-99244518D01*
X211513949Y-99373949D01*
X211384518Y-99480169D01*
X211236857Y-99559096D01*
X211236855Y-99559097D01*
X211156742Y-99583398D01*
X211076627Y-99607701D01*
X210951752Y-99620000D01*
X210868248Y-99620000D01*
X210743373Y-99607701D01*
X210663258Y-99583398D01*
X210583145Y-99559097D01*
X210583143Y-99559096D01*
X210435482Y-99480169D01*
X210306051Y-99373949D01*
X210199831Y-99244518D01*
X210120904Y-99096857D01*
X210072299Y-98936627D01*
X210055888Y-98770000D01*
X210072299Y-98603373D01*
X210120904Y-98443143D01*
X210199831Y-98295482D01*
X210306051Y-98166051D01*
X210435482Y-98059831D01*
X210583143Y-97980904D01*
X210583145Y-97980903D01*
X210663258Y-97956601D01*
X210743373Y-97932299D01*
X210868248Y-97920000D01*
X210951752Y-97920000D01*
X211076627Y-97932299D01*
X211076627Y-97932299D01*
G37*
G36*
X228856627Y-97932299D02*
G01*
X228936742Y-97956601D01*
X229016855Y-97980903D01*
X229016857Y-97980904D01*
X229164518Y-98059831D01*
X229293949Y-98166051D01*
X229400169Y-98295482D01*
X229479096Y-98443143D01*
X229527701Y-98603373D01*
X229544112Y-98770000D01*
X229527701Y-98936627D01*
X229479096Y-99096857D01*
X229400169Y-99244518D01*
X229293949Y-99373949D01*
X229164518Y-99480169D01*
X229016857Y-99559096D01*
X229016855Y-99559097D01*
X228936742Y-99583398D01*
X228856627Y-99607701D01*
X228731752Y-99620000D01*
X228648248Y-99620000D01*
X228523373Y-99607701D01*
X228443258Y-99583398D01*
X228363145Y-99559097D01*
X228363143Y-99559096D01*
X228215482Y-99480169D01*
X228086051Y-99373949D01*
X227979831Y-99244518D01*
X227900904Y-99096857D01*
X227852299Y-98936627D01*
X227835888Y-98770000D01*
X227852299Y-98603373D01*
X227900904Y-98443143D01*
X227979831Y-98295482D01*
X228086051Y-98166051D01*
X228215482Y-98059831D01*
X228363143Y-97980904D01*
X228363145Y-97980903D01*
X228443258Y-97956601D01*
X228523373Y-97932299D01*
X228648248Y-97920000D01*
X228731752Y-97920000D01*
X228856627Y-97932299D01*
X228856627Y-97932299D01*
G37*
G36*
X261893779Y-96201879D02*
G01*
X262139463Y-96303645D01*
X262139465Y-96303646D01*
X262250769Y-96378017D01*
X262360574Y-96451386D01*
X262548614Y-96639426D01*
X262696355Y-96860537D01*
X262798121Y-97106221D01*
X262850000Y-97367035D01*
X262850000Y-97632965D01*
X262798121Y-97893779D01*
X262696355Y-98139463D01*
X262592108Y-98295481D01*
X262548613Y-98360575D01*
X262360575Y-98548613D01*
X262139465Y-98696354D01*
X262139464Y-98696355D01*
X262139463Y-98696355D01*
X261893779Y-98798121D01*
X261632965Y-98850000D01*
X261367035Y-98850000D01*
X261106221Y-98798121D01*
X260860537Y-98696355D01*
X260860536Y-98696355D01*
X260860535Y-98696354D01*
X260639425Y-98548613D01*
X260451387Y-98360575D01*
X260407893Y-98295481D01*
X260303645Y-98139463D01*
X260201879Y-97893779D01*
X260150000Y-97632965D01*
X260150000Y-97367035D01*
X260201879Y-97106221D01*
X260303645Y-96860537D01*
X260451386Y-96639426D01*
X260639426Y-96451386D01*
X260749231Y-96378017D01*
X260860535Y-96303646D01*
X260860537Y-96303645D01*
X261106221Y-96201879D01*
X261367035Y-96150000D01*
X261632965Y-96150000D01*
X261893779Y-96201879D01*
X261893779Y-96201879D01*
G37*
G36*
X203893779Y-96201879D02*
G01*
X204139463Y-96303645D01*
X204139465Y-96303646D01*
X204250769Y-96378017D01*
X204360574Y-96451386D01*
X204548614Y-96639426D01*
X204696355Y-96860537D01*
X204798121Y-97106221D01*
X204850000Y-97367035D01*
X204850000Y-97632965D01*
X204798121Y-97893779D01*
X204696355Y-98139463D01*
X204592108Y-98295481D01*
X204548613Y-98360575D01*
X204360575Y-98548613D01*
X204139465Y-98696354D01*
X204139464Y-98696355D01*
X204139463Y-98696355D01*
X203893779Y-98798121D01*
X203632965Y-98850000D01*
X203367035Y-98850000D01*
X203106221Y-98798121D01*
X202860537Y-98696355D01*
X202860536Y-98696355D01*
X202860535Y-98696354D01*
X202639425Y-98548613D01*
X202451387Y-98360575D01*
X202407893Y-98295481D01*
X202303645Y-98139463D01*
X202201879Y-97893779D01*
X202150000Y-97632965D01*
X202150000Y-97367035D01*
X202201879Y-97106221D01*
X202303645Y-96860537D01*
X202451386Y-96639426D01*
X202639426Y-96451386D01*
X202749231Y-96378017D01*
X202860535Y-96303646D01*
X202860537Y-96303645D01*
X203106221Y-96201879D01*
X203367035Y-96150000D01*
X203632965Y-96150000D01*
X203893779Y-96201879D01*
X203893779Y-96201879D01*
G37*
G36*
X236476627Y-95392299D02*
G01*
X236556742Y-95416601D01*
X236636855Y-95440903D01*
X236636857Y-95440904D01*
X236784518Y-95519831D01*
X236913949Y-95626051D01*
X237020169Y-95755482D01*
X237099096Y-95903143D01*
X237147701Y-96063373D01*
X237164112Y-96230000D01*
X237147701Y-96396627D01*
X237099096Y-96556857D01*
X237020169Y-96704518D01*
X236913949Y-96833949D01*
X236784518Y-96940169D01*
X236636857Y-97019096D01*
X236636855Y-97019097D01*
X236556742Y-97043399D01*
X236476627Y-97067701D01*
X236351752Y-97080000D01*
X236268248Y-97080000D01*
X236143373Y-97067701D01*
X236063258Y-97043399D01*
X235983145Y-97019097D01*
X235983143Y-97019096D01*
X235835482Y-96940169D01*
X235706051Y-96833949D01*
X235599831Y-96704518D01*
X235520904Y-96556857D01*
X235472299Y-96396627D01*
X235455888Y-96230000D01*
X235472299Y-96063373D01*
X235520904Y-95903143D01*
X235599831Y-95755482D01*
X235706051Y-95626051D01*
X235835482Y-95519831D01*
X235983143Y-95440904D01*
X235983145Y-95440903D01*
X236063258Y-95416601D01*
X236143373Y-95392299D01*
X236268248Y-95380000D01*
X236351752Y-95380000D01*
X236476627Y-95392299D01*
X236476627Y-95392299D01*
G37*
G36*
X233936627Y-95392299D02*
G01*
X234016742Y-95416601D01*
X234096855Y-95440903D01*
X234096857Y-95440904D01*
X234244518Y-95519831D01*
X234373949Y-95626051D01*
X234480169Y-95755482D01*
X234559096Y-95903143D01*
X234607701Y-96063373D01*
X234624112Y-96230000D01*
X234607701Y-96396627D01*
X234559096Y-96556857D01*
X234480169Y-96704518D01*
X234373949Y-96833949D01*
X234244518Y-96940169D01*
X234096857Y-97019096D01*
X234096855Y-97019097D01*
X234016742Y-97043399D01*
X233936627Y-97067701D01*
X233811752Y-97080000D01*
X233728248Y-97080000D01*
X233603373Y-97067701D01*
X233523258Y-97043399D01*
X233443145Y-97019097D01*
X233443143Y-97019096D01*
X233295482Y-96940169D01*
X233166051Y-96833949D01*
X233059831Y-96704518D01*
X232980904Y-96556857D01*
X232932299Y-96396627D01*
X232915888Y-96230000D01*
X232932299Y-96063373D01*
X232980904Y-95903143D01*
X233059831Y-95755482D01*
X233166051Y-95626051D01*
X233295482Y-95519831D01*
X233443143Y-95440904D01*
X233443145Y-95440903D01*
X233523258Y-95416601D01*
X233603373Y-95392299D01*
X233728248Y-95380000D01*
X233811752Y-95380000D01*
X233936627Y-95392299D01*
X233936627Y-95392299D01*
G37*
G36*
X231396627Y-95392299D02*
G01*
X231476742Y-95416601D01*
X231556855Y-95440903D01*
X231556857Y-95440904D01*
X231704518Y-95519831D01*
X231833949Y-95626051D01*
X231940169Y-95755482D01*
X232019096Y-95903143D01*
X232067701Y-96063373D01*
X232084112Y-96230000D01*
X232067701Y-96396627D01*
X232019096Y-96556857D01*
X231940169Y-96704518D01*
X231833949Y-96833949D01*
X231704518Y-96940169D01*
X231556857Y-97019096D01*
X231556855Y-97019097D01*
X231476742Y-97043399D01*
X231396627Y-97067701D01*
X231271752Y-97080000D01*
X231188248Y-97080000D01*
X231063373Y-97067701D01*
X230983258Y-97043399D01*
X230903145Y-97019097D01*
X230903143Y-97019096D01*
X230755482Y-96940169D01*
X230626051Y-96833949D01*
X230519831Y-96704518D01*
X230440904Y-96556857D01*
X230392299Y-96396627D01*
X230375888Y-96230000D01*
X230392299Y-96063373D01*
X230440904Y-95903143D01*
X230519831Y-95755482D01*
X230626051Y-95626051D01*
X230755482Y-95519831D01*
X230903143Y-95440904D01*
X230903145Y-95440903D01*
X230983258Y-95416601D01*
X231063373Y-95392299D01*
X231188248Y-95380000D01*
X231271752Y-95380000D01*
X231396627Y-95392299D01*
X231396627Y-95392299D01*
G37*
G36*
X228856627Y-95392299D02*
G01*
X228936742Y-95416601D01*
X229016855Y-95440903D01*
X229016857Y-95440904D01*
X229164518Y-95519831D01*
X229293949Y-95626051D01*
X229400169Y-95755482D01*
X229479096Y-95903143D01*
X229527701Y-96063373D01*
X229544112Y-96230000D01*
X229527701Y-96396627D01*
X229479096Y-96556857D01*
X229400169Y-96704518D01*
X229293949Y-96833949D01*
X229164518Y-96940169D01*
X229016857Y-97019096D01*
X229016855Y-97019097D01*
X228936742Y-97043399D01*
X228856627Y-97067701D01*
X228731752Y-97080000D01*
X228648248Y-97080000D01*
X228523373Y-97067701D01*
X228443258Y-97043399D01*
X228363145Y-97019097D01*
X228363143Y-97019096D01*
X228215482Y-96940169D01*
X228086051Y-96833949D01*
X227979831Y-96704518D01*
X227900904Y-96556857D01*
X227852299Y-96396627D01*
X227835888Y-96230000D01*
X227852299Y-96063373D01*
X227900904Y-95903143D01*
X227979831Y-95755482D01*
X228086051Y-95626051D01*
X228215482Y-95519831D01*
X228363143Y-95440904D01*
X228363145Y-95440903D01*
X228443258Y-95416601D01*
X228523373Y-95392299D01*
X228648248Y-95380000D01*
X228731752Y-95380000D01*
X228856627Y-95392299D01*
X228856627Y-95392299D01*
G37*
G36*
X216156627Y-95392299D02*
G01*
X216236742Y-95416601D01*
X216316855Y-95440903D01*
X216316857Y-95440904D01*
X216464518Y-95519831D01*
X216593949Y-95626051D01*
X216700169Y-95755482D01*
X216779096Y-95903143D01*
X216827701Y-96063373D01*
X216844112Y-96230000D01*
X216827701Y-96396627D01*
X216779096Y-96556857D01*
X216700169Y-96704518D01*
X216593949Y-96833949D01*
X216464518Y-96940169D01*
X216316857Y-97019096D01*
X216316855Y-97019097D01*
X216236742Y-97043399D01*
X216156627Y-97067701D01*
X216031752Y-97080000D01*
X215948248Y-97080000D01*
X215823373Y-97067701D01*
X215743258Y-97043399D01*
X215663145Y-97019097D01*
X215663143Y-97019096D01*
X215515482Y-96940169D01*
X215386051Y-96833949D01*
X215279831Y-96704518D01*
X215200904Y-96556857D01*
X215152299Y-96396627D01*
X215135888Y-96230000D01*
X215152299Y-96063373D01*
X215200904Y-95903143D01*
X215279831Y-95755482D01*
X215386051Y-95626051D01*
X215515482Y-95519831D01*
X215663143Y-95440904D01*
X215663145Y-95440903D01*
X215743258Y-95416601D01*
X215823373Y-95392299D01*
X215948248Y-95380000D01*
X216031752Y-95380000D01*
X216156627Y-95392299D01*
X216156627Y-95392299D01*
G37*
G36*
X226316627Y-95392299D02*
G01*
X226396742Y-95416601D01*
X226476855Y-95440903D01*
X226476857Y-95440904D01*
X226624518Y-95519831D01*
X226753949Y-95626051D01*
X226860169Y-95755482D01*
X226939096Y-95903143D01*
X226987701Y-96063373D01*
X227004112Y-96230000D01*
X226987701Y-96396627D01*
X226939096Y-96556857D01*
X226860169Y-96704518D01*
X226753949Y-96833949D01*
X226624518Y-96940169D01*
X226476857Y-97019096D01*
X226476855Y-97019097D01*
X226396742Y-97043399D01*
X226316627Y-97067701D01*
X226191752Y-97080000D01*
X226108248Y-97080000D01*
X225983373Y-97067701D01*
X225903258Y-97043399D01*
X225823145Y-97019097D01*
X225823143Y-97019096D01*
X225675482Y-96940169D01*
X225546051Y-96833949D01*
X225439831Y-96704518D01*
X225360904Y-96556857D01*
X225312299Y-96396627D01*
X225295888Y-96230000D01*
X225312299Y-96063373D01*
X225360904Y-95903143D01*
X225439831Y-95755482D01*
X225546051Y-95626051D01*
X225675482Y-95519831D01*
X225823143Y-95440904D01*
X225823145Y-95440903D01*
X225903258Y-95416601D01*
X225983373Y-95392299D01*
X226108248Y-95380000D01*
X226191752Y-95380000D01*
X226316627Y-95392299D01*
X226316627Y-95392299D01*
G37*
G36*
X223776627Y-95392299D02*
G01*
X223856742Y-95416601D01*
X223936855Y-95440903D01*
X223936857Y-95440904D01*
X224084518Y-95519831D01*
X224213949Y-95626051D01*
X224320169Y-95755482D01*
X224399096Y-95903143D01*
X224447701Y-96063373D01*
X224464112Y-96230000D01*
X224447701Y-96396627D01*
X224399096Y-96556857D01*
X224320169Y-96704518D01*
X224213949Y-96833949D01*
X224084518Y-96940169D01*
X223936857Y-97019096D01*
X223936855Y-97019097D01*
X223856742Y-97043399D01*
X223776627Y-97067701D01*
X223651752Y-97080000D01*
X223568248Y-97080000D01*
X223443373Y-97067701D01*
X223363258Y-97043399D01*
X223283145Y-97019097D01*
X223283143Y-97019096D01*
X223135482Y-96940169D01*
X223006051Y-96833949D01*
X222899831Y-96704518D01*
X222820904Y-96556857D01*
X222772299Y-96396627D01*
X222755888Y-96230000D01*
X222772299Y-96063373D01*
X222820904Y-95903143D01*
X222899831Y-95755482D01*
X223006051Y-95626051D01*
X223135482Y-95519831D01*
X223283143Y-95440904D01*
X223283145Y-95440903D01*
X223363258Y-95416601D01*
X223443373Y-95392299D01*
X223568248Y-95380000D01*
X223651752Y-95380000D01*
X223776627Y-95392299D01*
X223776627Y-95392299D01*
G37*
G36*
X218696627Y-95392299D02*
G01*
X218776742Y-95416601D01*
X218856855Y-95440903D01*
X218856857Y-95440904D01*
X219004518Y-95519831D01*
X219133949Y-95626051D01*
X219240169Y-95755482D01*
X219319096Y-95903143D01*
X219367701Y-96063373D01*
X219384112Y-96230000D01*
X219367701Y-96396627D01*
X219319096Y-96556857D01*
X219240169Y-96704518D01*
X219133949Y-96833949D01*
X219004518Y-96940169D01*
X218856857Y-97019096D01*
X218856855Y-97019097D01*
X218776742Y-97043399D01*
X218696627Y-97067701D01*
X218571752Y-97080000D01*
X218488248Y-97080000D01*
X218363373Y-97067701D01*
X218283258Y-97043399D01*
X218203145Y-97019097D01*
X218203143Y-97019096D01*
X218055482Y-96940169D01*
X217926051Y-96833949D01*
X217819831Y-96704518D01*
X217740904Y-96556857D01*
X217692299Y-96396627D01*
X217675888Y-96230000D01*
X217692299Y-96063373D01*
X217740904Y-95903143D01*
X217819831Y-95755482D01*
X217926051Y-95626051D01*
X218055482Y-95519831D01*
X218203143Y-95440904D01*
X218203145Y-95440903D01*
X218283258Y-95416601D01*
X218363373Y-95392299D01*
X218488248Y-95380000D01*
X218571752Y-95380000D01*
X218696627Y-95392299D01*
X218696627Y-95392299D01*
G37*
G36*
X208536627Y-95392299D02*
G01*
X208616742Y-95416601D01*
X208696855Y-95440903D01*
X208696857Y-95440904D01*
X208844518Y-95519831D01*
X208973949Y-95626051D01*
X209080169Y-95755482D01*
X209159096Y-95903143D01*
X209207701Y-96063373D01*
X209224112Y-96230000D01*
X209207701Y-96396627D01*
X209159096Y-96556857D01*
X209080169Y-96704518D01*
X208973949Y-96833949D01*
X208844518Y-96940169D01*
X208696857Y-97019096D01*
X208696855Y-97019097D01*
X208616742Y-97043399D01*
X208536627Y-97067701D01*
X208411752Y-97080000D01*
X208328248Y-97080000D01*
X208203373Y-97067701D01*
X208123258Y-97043399D01*
X208043145Y-97019097D01*
X208043143Y-97019096D01*
X207895482Y-96940169D01*
X207766051Y-96833949D01*
X207659831Y-96704518D01*
X207580904Y-96556857D01*
X207532299Y-96396627D01*
X207515888Y-96230000D01*
X207532299Y-96063373D01*
X207580904Y-95903143D01*
X207659831Y-95755482D01*
X207766051Y-95626051D01*
X207895482Y-95519831D01*
X208043143Y-95440904D01*
X208043145Y-95440903D01*
X208123258Y-95416601D01*
X208203373Y-95392299D01*
X208328248Y-95380000D01*
X208411752Y-95380000D01*
X208536627Y-95392299D01*
X208536627Y-95392299D01*
G37*
G36*
X211076627Y-95392299D02*
G01*
X211156742Y-95416601D01*
X211236855Y-95440903D01*
X211236857Y-95440904D01*
X211384518Y-95519831D01*
X211513949Y-95626051D01*
X211620169Y-95755482D01*
X211699096Y-95903143D01*
X211747701Y-96063373D01*
X211764112Y-96230000D01*
X211747701Y-96396627D01*
X211699096Y-96556857D01*
X211620169Y-96704518D01*
X211513949Y-96833949D01*
X211384518Y-96940169D01*
X211236857Y-97019096D01*
X211236855Y-97019097D01*
X211156742Y-97043399D01*
X211076627Y-97067701D01*
X210951752Y-97080000D01*
X210868248Y-97080000D01*
X210743373Y-97067701D01*
X210663258Y-97043399D01*
X210583145Y-97019097D01*
X210583143Y-97019096D01*
X210435482Y-96940169D01*
X210306051Y-96833949D01*
X210199831Y-96704518D01*
X210120904Y-96556857D01*
X210072299Y-96396627D01*
X210055888Y-96230000D01*
X210072299Y-96063373D01*
X210120904Y-95903143D01*
X210199831Y-95755482D01*
X210306051Y-95626051D01*
X210435482Y-95519831D01*
X210583143Y-95440904D01*
X210583145Y-95440903D01*
X210663258Y-95416601D01*
X210743373Y-95392299D01*
X210868248Y-95380000D01*
X210951752Y-95380000D01*
X211076627Y-95392299D01*
X211076627Y-95392299D01*
G37*
G36*
X213616627Y-95392299D02*
G01*
X213696742Y-95416601D01*
X213776855Y-95440903D01*
X213776857Y-95440904D01*
X213924518Y-95519831D01*
X214053949Y-95626051D01*
X214160169Y-95755482D01*
X214239096Y-95903143D01*
X214287701Y-96063373D01*
X214304112Y-96230000D01*
X214287701Y-96396627D01*
X214239096Y-96556857D01*
X214160169Y-96704518D01*
X214053949Y-96833949D01*
X213924518Y-96940169D01*
X213776857Y-97019096D01*
X213776855Y-97019097D01*
X213696742Y-97043399D01*
X213616627Y-97067701D01*
X213491752Y-97080000D01*
X213408248Y-97080000D01*
X213283373Y-97067701D01*
X213203258Y-97043399D01*
X213123145Y-97019097D01*
X213123143Y-97019096D01*
X212975482Y-96940169D01*
X212846051Y-96833949D01*
X212739831Y-96704518D01*
X212660904Y-96556857D01*
X212612299Y-96396627D01*
X212595888Y-96230000D01*
X212612299Y-96063373D01*
X212660904Y-95903143D01*
X212739831Y-95755482D01*
X212846051Y-95626051D01*
X212975482Y-95519831D01*
X213123143Y-95440904D01*
X213123145Y-95440903D01*
X213203258Y-95416601D01*
X213283373Y-95392299D01*
X213408248Y-95380000D01*
X213491752Y-95380000D01*
X213616627Y-95392299D01*
X213616627Y-95392299D01*
G37*
G36*
X221236627Y-95392299D02*
G01*
X221316742Y-95416601D01*
X221396855Y-95440903D01*
X221396857Y-95440904D01*
X221544518Y-95519831D01*
X221673949Y-95626051D01*
X221780169Y-95755482D01*
X221859096Y-95903143D01*
X221907701Y-96063373D01*
X221924112Y-96230000D01*
X221907701Y-96396627D01*
X221859096Y-96556857D01*
X221780169Y-96704518D01*
X221673949Y-96833949D01*
X221544518Y-96940169D01*
X221396857Y-97019096D01*
X221396855Y-97019097D01*
X221316742Y-97043399D01*
X221236627Y-97067701D01*
X221111752Y-97080000D01*
X221028248Y-97080000D01*
X220903373Y-97067701D01*
X220823258Y-97043399D01*
X220743145Y-97019097D01*
X220743143Y-97019096D01*
X220595482Y-96940169D01*
X220466051Y-96833949D01*
X220359831Y-96704518D01*
X220280904Y-96556857D01*
X220232299Y-96396627D01*
X220215888Y-96230000D01*
X220232299Y-96063373D01*
X220280904Y-95903143D01*
X220359831Y-95755482D01*
X220466051Y-95626051D01*
X220595482Y-95519831D01*
X220743143Y-95440904D01*
X220743145Y-95440903D01*
X220823258Y-95416601D01*
X220903373Y-95392299D01*
X221028248Y-95380000D01*
X221111752Y-95380000D01*
X221236627Y-95392299D01*
X221236627Y-95392299D01*
G37*
G36*
X239016627Y-95392299D02*
G01*
X239096742Y-95416601D01*
X239176855Y-95440903D01*
X239176857Y-95440904D01*
X239324518Y-95519831D01*
X239453949Y-95626051D01*
X239560169Y-95755482D01*
X239639096Y-95903143D01*
X239687701Y-96063373D01*
X239704112Y-96230000D01*
X239687701Y-96396627D01*
X239639096Y-96556857D01*
X239560169Y-96704518D01*
X239453949Y-96833949D01*
X239324518Y-96940169D01*
X239176857Y-97019096D01*
X239176855Y-97019097D01*
X239096742Y-97043399D01*
X239016627Y-97067701D01*
X238891752Y-97080000D01*
X238808248Y-97080000D01*
X238683373Y-97067701D01*
X238603258Y-97043399D01*
X238523145Y-97019097D01*
X238523143Y-97019096D01*
X238375482Y-96940169D01*
X238246051Y-96833949D01*
X238139831Y-96704518D01*
X238060904Y-96556857D01*
X238012299Y-96396627D01*
X237995888Y-96230000D01*
X238012299Y-96063373D01*
X238060904Y-95903143D01*
X238139831Y-95755482D01*
X238246051Y-95626051D01*
X238375482Y-95519831D01*
X238523143Y-95440904D01*
X238523145Y-95440903D01*
X238603258Y-95416601D01*
X238683373Y-95392299D01*
X238808248Y-95380000D01*
X238891752Y-95380000D01*
X239016627Y-95392299D01*
X239016627Y-95392299D01*
G37*
G36*
X249176627Y-95392299D02*
G01*
X249256742Y-95416601D01*
X249336855Y-95440903D01*
X249336857Y-95440904D01*
X249484518Y-95519831D01*
X249613949Y-95626051D01*
X249720169Y-95755482D01*
X249799096Y-95903143D01*
X249847701Y-96063373D01*
X249864112Y-96230000D01*
X249847701Y-96396627D01*
X249799096Y-96556857D01*
X249720169Y-96704518D01*
X249613949Y-96833949D01*
X249484518Y-96940169D01*
X249336857Y-97019096D01*
X249336855Y-97019097D01*
X249256742Y-97043399D01*
X249176627Y-97067701D01*
X249051752Y-97080000D01*
X248968248Y-97080000D01*
X248843373Y-97067701D01*
X248763258Y-97043399D01*
X248683145Y-97019097D01*
X248683143Y-97019096D01*
X248535482Y-96940169D01*
X248406051Y-96833949D01*
X248299831Y-96704518D01*
X248220904Y-96556857D01*
X248172299Y-96396627D01*
X248155888Y-96230000D01*
X248172299Y-96063373D01*
X248220904Y-95903143D01*
X248299831Y-95755482D01*
X248406051Y-95626051D01*
X248535482Y-95519831D01*
X248683143Y-95440904D01*
X248683145Y-95440903D01*
X248763258Y-95416601D01*
X248843373Y-95392299D01*
X248968248Y-95380000D01*
X249051752Y-95380000D01*
X249176627Y-95392299D01*
X249176627Y-95392299D01*
G37*
G36*
X246636627Y-95392299D02*
G01*
X246716742Y-95416601D01*
X246796855Y-95440903D01*
X246796857Y-95440904D01*
X246944518Y-95519831D01*
X247073949Y-95626051D01*
X247180169Y-95755482D01*
X247259096Y-95903143D01*
X247307701Y-96063373D01*
X247324112Y-96230000D01*
X247307701Y-96396627D01*
X247259096Y-96556857D01*
X247180169Y-96704518D01*
X247073949Y-96833949D01*
X246944518Y-96940169D01*
X246796857Y-97019096D01*
X246796855Y-97019097D01*
X246716742Y-97043399D01*
X246636627Y-97067701D01*
X246511752Y-97080000D01*
X246428248Y-97080000D01*
X246303373Y-97067701D01*
X246223258Y-97043399D01*
X246143145Y-97019097D01*
X246143143Y-97019096D01*
X245995482Y-96940169D01*
X245866051Y-96833949D01*
X245759831Y-96704518D01*
X245680904Y-96556857D01*
X245632299Y-96396627D01*
X245615888Y-96230000D01*
X245632299Y-96063373D01*
X245680904Y-95903143D01*
X245759831Y-95755482D01*
X245866051Y-95626051D01*
X245995482Y-95519831D01*
X246143143Y-95440904D01*
X246143145Y-95440903D01*
X246223258Y-95416601D01*
X246303373Y-95392299D01*
X246428248Y-95380000D01*
X246511752Y-95380000D01*
X246636627Y-95392299D01*
X246636627Y-95392299D01*
G37*
G36*
X256796627Y-95392299D02*
G01*
X256876742Y-95416601D01*
X256956855Y-95440903D01*
X256956857Y-95440904D01*
X257104518Y-95519831D01*
X257233949Y-95626051D01*
X257340169Y-95755482D01*
X257419096Y-95903143D01*
X257467701Y-96063373D01*
X257484112Y-96230000D01*
X257467701Y-96396627D01*
X257419096Y-96556857D01*
X257340169Y-96704518D01*
X257233949Y-96833949D01*
X257104518Y-96940169D01*
X256956857Y-97019096D01*
X256956855Y-97019097D01*
X256876742Y-97043399D01*
X256796627Y-97067701D01*
X256671752Y-97080000D01*
X256588248Y-97080000D01*
X256463373Y-97067701D01*
X256383258Y-97043399D01*
X256303145Y-97019097D01*
X256303143Y-97019096D01*
X256155482Y-96940169D01*
X256026051Y-96833949D01*
X255919831Y-96704518D01*
X255840904Y-96556857D01*
X255792299Y-96396627D01*
X255775888Y-96230000D01*
X255792299Y-96063373D01*
X255840904Y-95903143D01*
X255919831Y-95755482D01*
X256026051Y-95626051D01*
X256155482Y-95519831D01*
X256303143Y-95440904D01*
X256303145Y-95440903D01*
X256383258Y-95416601D01*
X256463373Y-95392299D01*
X256588248Y-95380000D01*
X256671752Y-95380000D01*
X256796627Y-95392299D01*
X256796627Y-95392299D01*
G37*
G36*
X244096627Y-95392299D02*
G01*
X244176742Y-95416601D01*
X244256855Y-95440903D01*
X244256857Y-95440904D01*
X244404518Y-95519831D01*
X244533949Y-95626051D01*
X244640169Y-95755482D01*
X244719096Y-95903143D01*
X244767701Y-96063373D01*
X244784112Y-96230000D01*
X244767701Y-96396627D01*
X244719096Y-96556857D01*
X244640169Y-96704518D01*
X244533949Y-96833949D01*
X244404518Y-96940169D01*
X244256857Y-97019096D01*
X244256855Y-97019097D01*
X244176742Y-97043399D01*
X244096627Y-97067701D01*
X243971752Y-97080000D01*
X243888248Y-97080000D01*
X243763373Y-97067701D01*
X243683258Y-97043399D01*
X243603145Y-97019097D01*
X243603143Y-97019096D01*
X243455482Y-96940169D01*
X243326051Y-96833949D01*
X243219831Y-96704518D01*
X243140904Y-96556857D01*
X243092299Y-96396627D01*
X243075888Y-96230000D01*
X243092299Y-96063373D01*
X243140904Y-95903143D01*
X243219831Y-95755482D01*
X243326051Y-95626051D01*
X243455482Y-95519831D01*
X243603143Y-95440904D01*
X243603145Y-95440903D01*
X243683258Y-95416601D01*
X243763373Y-95392299D01*
X243888248Y-95380000D01*
X243971752Y-95380000D01*
X244096627Y-95392299D01*
X244096627Y-95392299D01*
G37*
G36*
X254256627Y-95392299D02*
G01*
X254336742Y-95416601D01*
X254416855Y-95440903D01*
X254416857Y-95440904D01*
X254564518Y-95519831D01*
X254693949Y-95626051D01*
X254800169Y-95755482D01*
X254879096Y-95903143D01*
X254927701Y-96063373D01*
X254944112Y-96230000D01*
X254927701Y-96396627D01*
X254879096Y-96556857D01*
X254800169Y-96704518D01*
X254693949Y-96833949D01*
X254564518Y-96940169D01*
X254416857Y-97019096D01*
X254416855Y-97019097D01*
X254336742Y-97043399D01*
X254256627Y-97067701D01*
X254131752Y-97080000D01*
X254048248Y-97080000D01*
X253923373Y-97067701D01*
X253843258Y-97043399D01*
X253763145Y-97019097D01*
X253763143Y-97019096D01*
X253615482Y-96940169D01*
X253486051Y-96833949D01*
X253379831Y-96704518D01*
X253300904Y-96556857D01*
X253252299Y-96396627D01*
X253235888Y-96230000D01*
X253252299Y-96063373D01*
X253300904Y-95903143D01*
X253379831Y-95755482D01*
X253486051Y-95626051D01*
X253615482Y-95519831D01*
X253763143Y-95440904D01*
X253763145Y-95440903D01*
X253843258Y-95416601D01*
X253923373Y-95392299D01*
X254048248Y-95380000D01*
X254131752Y-95380000D01*
X254256627Y-95392299D01*
X254256627Y-95392299D01*
G37*
G36*
X241556627Y-95392299D02*
G01*
X241636742Y-95416601D01*
X241716855Y-95440903D01*
X241716857Y-95440904D01*
X241864518Y-95519831D01*
X241993949Y-95626051D01*
X242100169Y-95755482D01*
X242179096Y-95903143D01*
X242227701Y-96063373D01*
X242244112Y-96230000D01*
X242227701Y-96396627D01*
X242179096Y-96556857D01*
X242100169Y-96704518D01*
X241993949Y-96833949D01*
X241864518Y-96940169D01*
X241716857Y-97019096D01*
X241716855Y-97019097D01*
X241636742Y-97043399D01*
X241556627Y-97067701D01*
X241431752Y-97080000D01*
X241348248Y-97080000D01*
X241223373Y-97067701D01*
X241143258Y-97043399D01*
X241063145Y-97019097D01*
X241063143Y-97019096D01*
X240915482Y-96940169D01*
X240786051Y-96833949D01*
X240679831Y-96704518D01*
X240600904Y-96556857D01*
X240552299Y-96396627D01*
X240535888Y-96230000D01*
X240552299Y-96063373D01*
X240600904Y-95903143D01*
X240679831Y-95755482D01*
X240786051Y-95626051D01*
X240915482Y-95519831D01*
X241063143Y-95440904D01*
X241063145Y-95440903D01*
X241143258Y-95416601D01*
X241223373Y-95392299D01*
X241348248Y-95380000D01*
X241431752Y-95380000D01*
X241556627Y-95392299D01*
X241556627Y-95392299D01*
G37*
G36*
X251716627Y-95392299D02*
G01*
X251796742Y-95416601D01*
X251876855Y-95440903D01*
X251876857Y-95440904D01*
X252024518Y-95519831D01*
X252153949Y-95626051D01*
X252260169Y-95755482D01*
X252339096Y-95903143D01*
X252387701Y-96063373D01*
X252404112Y-96230000D01*
X252387701Y-96396627D01*
X252339096Y-96556857D01*
X252260169Y-96704518D01*
X252153949Y-96833949D01*
X252024518Y-96940169D01*
X251876857Y-97019096D01*
X251876855Y-97019097D01*
X251796742Y-97043399D01*
X251716627Y-97067701D01*
X251591752Y-97080000D01*
X251508248Y-97080000D01*
X251383373Y-97067701D01*
X251303258Y-97043399D01*
X251223145Y-97019097D01*
X251223143Y-97019096D01*
X251075482Y-96940169D01*
X250946051Y-96833949D01*
X250839831Y-96704518D01*
X250760904Y-96556857D01*
X250712299Y-96396627D01*
X250695888Y-96230000D01*
X250712299Y-96063373D01*
X250760904Y-95903143D01*
X250839831Y-95755482D01*
X250946051Y-95626051D01*
X251075482Y-95519831D01*
X251223143Y-95440904D01*
X251223145Y-95440903D01*
X251303258Y-95416601D01*
X251383373Y-95392299D01*
X251508248Y-95380000D01*
X251591752Y-95380000D01*
X251716627Y-95392299D01*
X251716627Y-95392299D01*
G37*
M02*
