G04 #@! TF.GenerationSoftware,KiCad,Pcbnew,(5.1.0)-1*
G04 #@! TF.CreationDate,2019-05-14T12:18:10-07:00*
G04 #@! TF.ProjectId,ROVPCB,524f5650-4342-42e6-9b69-6361645f7063,rev?*
G04 #@! TF.SameCoordinates,Original*
G04 #@! TF.FileFunction,Copper,L2,Bot*
G04 #@! TF.FilePolarity,Positive*
%FSLAX46Y46*%
G04 Gerber Fmt 4.6, Leading zero omitted, Abs format (unit mm)*
G04 Created by KiCad (PCBNEW (5.1.0)-1) date 2019-05-14 12:18:10*
%MOMM*%
%LPD*%
G04 APERTURE LIST*
%ADD10R,1.700000X1.700000*%
%ADD11O,1.700000X1.700000*%
%ADD12C,0.150000*%
%ADD13C,0.900000*%
%ADD14O,0.900000X1.400000*%
%ADD15R,1.998980X1.998980*%
%ADD16C,1.998980*%
%ADD17C,0.200000*%
%ADD18C,0.254000*%
G04 APERTURE END LIST*
D10*
X208370000Y-98770000D03*
D11*
X208370000Y-96230000D03*
X210910000Y-98770000D03*
X210910000Y-96230000D03*
X213450000Y-98770000D03*
X213450000Y-96230000D03*
X215990000Y-98770000D03*
X215990000Y-96230000D03*
X218530000Y-98770000D03*
X218530000Y-96230000D03*
X221070000Y-98770000D03*
X221070000Y-96230000D03*
X223610000Y-98770000D03*
X223610000Y-96230000D03*
X226150000Y-98770000D03*
X226150000Y-96230000D03*
X228690000Y-98770000D03*
X228690000Y-96230000D03*
X231230000Y-98770000D03*
X231230000Y-96230000D03*
X233770000Y-98770000D03*
X233770000Y-96230000D03*
X236310000Y-98770000D03*
X236310000Y-96230000D03*
X238850000Y-98770000D03*
X238850000Y-96230000D03*
X241390000Y-98770000D03*
X241390000Y-96230000D03*
X243930000Y-98770000D03*
X243930000Y-96230000D03*
X246470000Y-98770000D03*
X246470000Y-96230000D03*
X249010000Y-98770000D03*
X249010000Y-96230000D03*
X251550000Y-98770000D03*
X251550000Y-96230000D03*
X254090000Y-98770000D03*
X254090000Y-96230000D03*
X256630000Y-98770000D03*
X256630000Y-96230000D03*
D12*
G36*
X209177054Y-104851083D02*
G01*
X209198895Y-104854323D01*
X209220314Y-104859688D01*
X209241104Y-104867127D01*
X209261064Y-104876568D01*
X209280003Y-104887919D01*
X209297738Y-104901073D01*
X209314099Y-104915901D01*
X209328927Y-104932262D01*
X209342081Y-104949997D01*
X209353432Y-104968936D01*
X209362873Y-104988896D01*
X209370312Y-105009686D01*
X209375677Y-105031105D01*
X209378917Y-105052946D01*
X209380000Y-105075000D01*
X209380000Y-106025000D01*
X209378917Y-106047054D01*
X209375677Y-106068895D01*
X209370312Y-106090314D01*
X209362873Y-106111104D01*
X209353432Y-106131064D01*
X209342081Y-106150003D01*
X209328927Y-106167738D01*
X209314099Y-106184099D01*
X209297738Y-106198927D01*
X209280003Y-106212081D01*
X209261064Y-106223432D01*
X209241104Y-106232873D01*
X209220314Y-106240312D01*
X209198895Y-106245677D01*
X209177054Y-106248917D01*
X209155000Y-106250000D01*
X208705000Y-106250000D01*
X208682946Y-106248917D01*
X208661105Y-106245677D01*
X208639686Y-106240312D01*
X208618896Y-106232873D01*
X208598936Y-106223432D01*
X208579997Y-106212081D01*
X208562262Y-106198927D01*
X208545901Y-106184099D01*
X208531073Y-106167738D01*
X208517919Y-106150003D01*
X208506568Y-106131064D01*
X208497127Y-106111104D01*
X208489688Y-106090314D01*
X208484323Y-106068895D01*
X208481083Y-106047054D01*
X208480000Y-106025000D01*
X208480000Y-105075000D01*
X208481083Y-105052946D01*
X208484323Y-105031105D01*
X208489688Y-105009686D01*
X208497127Y-104988896D01*
X208506568Y-104968936D01*
X208517919Y-104949997D01*
X208531073Y-104932262D01*
X208545901Y-104915901D01*
X208562262Y-104901073D01*
X208579997Y-104887919D01*
X208598936Y-104876568D01*
X208618896Y-104867127D01*
X208639686Y-104859688D01*
X208661105Y-104854323D01*
X208682946Y-104851083D01*
X208705000Y-104850000D01*
X209155000Y-104850000D01*
X209177054Y-104851083D01*
X209177054Y-104851083D01*
G37*
D13*
X208930000Y-105550000D03*
D14*
X210180000Y-105550000D03*
X211430000Y-105550000D03*
X212680000Y-105550000D03*
X212680000Y-110630000D03*
X211430000Y-110630000D03*
X210180000Y-110630000D03*
D12*
G36*
X209177054Y-109931083D02*
G01*
X209198895Y-109934323D01*
X209220314Y-109939688D01*
X209241104Y-109947127D01*
X209261064Y-109956568D01*
X209280003Y-109967919D01*
X209297738Y-109981073D01*
X209314099Y-109995901D01*
X209328927Y-110012262D01*
X209342081Y-110029997D01*
X209353432Y-110048936D01*
X209362873Y-110068896D01*
X209370312Y-110089686D01*
X209375677Y-110111105D01*
X209378917Y-110132946D01*
X209380000Y-110155000D01*
X209380000Y-111105000D01*
X209378917Y-111127054D01*
X209375677Y-111148895D01*
X209370312Y-111170314D01*
X209362873Y-111191104D01*
X209353432Y-111211064D01*
X209342081Y-111230003D01*
X209328927Y-111247738D01*
X209314099Y-111264099D01*
X209297738Y-111278927D01*
X209280003Y-111292081D01*
X209261064Y-111303432D01*
X209241104Y-111312873D01*
X209220314Y-111320312D01*
X209198895Y-111325677D01*
X209177054Y-111328917D01*
X209155000Y-111330000D01*
X208705000Y-111330000D01*
X208682946Y-111328917D01*
X208661105Y-111325677D01*
X208639686Y-111320312D01*
X208618896Y-111312873D01*
X208598936Y-111303432D01*
X208579997Y-111292081D01*
X208562262Y-111278927D01*
X208545901Y-111264099D01*
X208531073Y-111247738D01*
X208517919Y-111230003D01*
X208506568Y-111211064D01*
X208497127Y-111191104D01*
X208489688Y-111170314D01*
X208484323Y-111148895D01*
X208481083Y-111127054D01*
X208480000Y-111105000D01*
X208480000Y-110155000D01*
X208481083Y-110132946D01*
X208484323Y-110111105D01*
X208489688Y-110089686D01*
X208497127Y-110068896D01*
X208506568Y-110048936D01*
X208517919Y-110029997D01*
X208531073Y-110012262D01*
X208545901Y-109995901D01*
X208562262Y-109981073D01*
X208579997Y-109967919D01*
X208598936Y-109956568D01*
X208618896Y-109947127D01*
X208639686Y-109939688D01*
X208661105Y-109934323D01*
X208682946Y-109931083D01*
X208705000Y-109930000D01*
X209155000Y-109930000D01*
X209177054Y-109931083D01*
X209177054Y-109931083D01*
G37*
D13*
X208930000Y-110630000D03*
D15*
X209040000Y-135950000D03*
D16*
X209040000Y-139760000D03*
X249970000Y-107560000D03*
D13*
X228600000Y-122620000D03*
X220570000Y-122620000D03*
X220500000Y-114910000D03*
X208870000Y-115030000D03*
X208970000Y-120280000D03*
X213190000Y-118130000D03*
X213190000Y-115030000D03*
X228690000Y-104990000D03*
X219240000Y-133270000D03*
X228690000Y-113700000D03*
X228690000Y-116580000D03*
X255900000Y-116470000D03*
X255120000Y-102990000D03*
X228690000Y-108620000D03*
X228690000Y-111780000D03*
X228690000Y-107180000D03*
X233360000Y-112650000D03*
X230430000Y-110380000D03*
X210660000Y-118530000D03*
X210180000Y-103300000D03*
X207700000Y-128520000D03*
X206460000Y-118740000D03*
X237740000Y-107430000D03*
X237820000Y-103300000D03*
X211280000Y-116810000D03*
X211430000Y-101320000D03*
X222540000Y-104520000D03*
X222600000Y-101170000D03*
X236270000Y-101170000D03*
X235930000Y-104860000D03*
X241900000Y-133540000D03*
X242380000Y-101500000D03*
X239460000Y-112100000D03*
X239520000Y-105720000D03*
X239460000Y-107720000D03*
X236340000Y-111030000D03*
X236430000Y-106630000D03*
X239300000Y-113650000D03*
X243800000Y-102930000D03*
X246140000Y-106350000D03*
D17*
X208930000Y-105550000D02*
X208930000Y-110630000D01*
X208370000Y-104990000D02*
X208930000Y-105550000D01*
X208370000Y-98770000D02*
X208370000Y-104990000D01*
X228690000Y-122530000D02*
X228600000Y-122620000D01*
X220570000Y-122620000D02*
X220570000Y-114980000D01*
X220570000Y-114980000D02*
X220500000Y-114910000D01*
X208870000Y-115030000D02*
X208870000Y-120180000D01*
X208870000Y-120180000D02*
X208970000Y-120280000D01*
X213190000Y-118130000D02*
X213190000Y-115030000D01*
X208870000Y-110690000D02*
X208930000Y-110630000D01*
X208870000Y-115030000D02*
X208870000Y-110690000D01*
X228690000Y-98770000D02*
X228690000Y-104990000D01*
X219240000Y-123950000D02*
X220570000Y-122620000D01*
X219240000Y-133270000D02*
X219240000Y-123950000D01*
X228690000Y-109640000D02*
X228690000Y-111020000D01*
X228690000Y-113700000D02*
X228690000Y-116580000D01*
X228690000Y-116580000D02*
X228690000Y-122530000D01*
X255900000Y-116470000D02*
X255120000Y-115690000D01*
X255120000Y-115690000D02*
X255120000Y-102990000D01*
X228690000Y-108620000D02*
X228690000Y-109640000D01*
X228690000Y-111020000D02*
X228690000Y-111780000D01*
X228690000Y-111780000D02*
X228690000Y-113700000D01*
X228690000Y-107440000D02*
X228690000Y-108620000D01*
X228690000Y-104990000D02*
X228690000Y-107180000D01*
X228690000Y-107180000D02*
X228690000Y-107440000D01*
X210160000Y-110650000D02*
X210180000Y-110630000D01*
X210180000Y-105550000D02*
X210180000Y-110630000D01*
X210180000Y-104650000D02*
X210180000Y-105550000D01*
X210910000Y-99972081D02*
X210180000Y-100702081D01*
X210910000Y-98770000D02*
X210910000Y-99972081D01*
X210660000Y-118530000D02*
X210180000Y-118050000D01*
X210180000Y-118050000D02*
X210180000Y-115940000D01*
X210180000Y-115940000D02*
X210180000Y-110630000D01*
X210180000Y-102500000D02*
X210180000Y-103300000D01*
X210180000Y-100702081D02*
X210180000Y-102500000D01*
X210180000Y-103300000D02*
X210180000Y-104650000D01*
X207700000Y-128520000D02*
X206460000Y-127280000D01*
X206460000Y-127280000D02*
X206460000Y-118740000D01*
X237740000Y-103380000D02*
X237820000Y-103300000D01*
X237740000Y-107430000D02*
X237740000Y-103380000D01*
X211430000Y-106450000D02*
X211430000Y-110630000D01*
X211430000Y-105550000D02*
X211430000Y-106450000D01*
X213450000Y-98770000D02*
X211430000Y-100790000D01*
X211430000Y-110630000D02*
X211430000Y-116660000D01*
X211430000Y-116660000D02*
X211280000Y-116810000D01*
X211430000Y-101320000D02*
X211430000Y-105550000D01*
X211430000Y-100790000D02*
X211430000Y-101320000D01*
X222540000Y-101230000D02*
X222600000Y-101170000D01*
X222540000Y-104520000D02*
X222540000Y-101230000D01*
X236310000Y-101210000D02*
X236270000Y-101170000D01*
X235930000Y-101510000D02*
X236270000Y-101170000D01*
X235930000Y-104860000D02*
X235930000Y-101510000D01*
X241900000Y-133540000D02*
X242380000Y-133060000D01*
X242380000Y-133060000D02*
X242380000Y-101500000D01*
X239460000Y-105780000D02*
X239520000Y-105720000D01*
X239460000Y-112100000D02*
X239460000Y-107720000D01*
X239460000Y-107720000D02*
X239460000Y-105780000D01*
X236340000Y-111030000D02*
X236340000Y-106720000D01*
X236340000Y-106720000D02*
X236430000Y-106630000D01*
X236680000Y-111030000D02*
X236340000Y-111030000D01*
X239300000Y-113650000D02*
X236680000Y-111030000D01*
X243800000Y-102930000D02*
X246140000Y-105270000D01*
X246140000Y-105270000D02*
X246140000Y-106350000D01*
D18*
G36*
X262449016Y-94732312D02*
G01*
X262880930Y-94862714D01*
X263279285Y-95074524D01*
X263628914Y-95359675D01*
X263916497Y-95707303D01*
X264131086Y-96104177D01*
X264264498Y-96535161D01*
X264315001Y-97015663D01*
X264315000Y-146966495D01*
X264267688Y-147449016D01*
X264137287Y-147880927D01*
X263925480Y-148279280D01*
X263640325Y-148628914D01*
X263292697Y-148916497D01*
X262895825Y-149131085D01*
X262464834Y-149264500D01*
X261984346Y-149315000D01*
X203033504Y-149315000D01*
X202550984Y-149267688D01*
X202119073Y-149137287D01*
X201720720Y-148925480D01*
X201371086Y-148640325D01*
X201083503Y-148292697D01*
X200868915Y-147895825D01*
X200735500Y-147464834D01*
X200685000Y-146984346D01*
X200685000Y-146304495D01*
X201515000Y-146304495D01*
X201515000Y-146695505D01*
X201591282Y-147079003D01*
X201740915Y-147440250D01*
X201958149Y-147765364D01*
X202234636Y-148041851D01*
X202559750Y-148259085D01*
X202920997Y-148408718D01*
X203304495Y-148485000D01*
X203695505Y-148485000D01*
X204079003Y-148408718D01*
X204440250Y-148259085D01*
X204765364Y-148041851D01*
X205041851Y-147765364D01*
X205259085Y-147440250D01*
X205408718Y-147079003D01*
X205485000Y-146695505D01*
X205485000Y-146304495D01*
X259515000Y-146304495D01*
X259515000Y-146695505D01*
X259591282Y-147079003D01*
X259740915Y-147440250D01*
X259958149Y-147765364D01*
X260234636Y-148041851D01*
X260559750Y-148259085D01*
X260920997Y-148408718D01*
X261304495Y-148485000D01*
X261695505Y-148485000D01*
X262079003Y-148408718D01*
X262440250Y-148259085D01*
X262765364Y-148041851D01*
X263041851Y-147765364D01*
X263259085Y-147440250D01*
X263408718Y-147079003D01*
X263485000Y-146695505D01*
X263485000Y-146304495D01*
X263408718Y-145920997D01*
X263259085Y-145559750D01*
X263041851Y-145234636D01*
X262765364Y-144958149D01*
X262440250Y-144740915D01*
X262079003Y-144591282D01*
X261695505Y-144515000D01*
X261304495Y-144515000D01*
X260920997Y-144591282D01*
X260559750Y-144740915D01*
X260234636Y-144958149D01*
X259958149Y-145234636D01*
X259740915Y-145559750D01*
X259591282Y-145920997D01*
X259515000Y-146304495D01*
X205485000Y-146304495D01*
X205408718Y-145920997D01*
X205259085Y-145559750D01*
X205041851Y-145234636D01*
X204765364Y-144958149D01*
X204440250Y-144740915D01*
X204079003Y-144591282D01*
X203695505Y-144515000D01*
X203304495Y-144515000D01*
X202920997Y-144591282D01*
X202559750Y-144740915D01*
X202234636Y-144958149D01*
X201958149Y-145234636D01*
X201740915Y-145559750D01*
X201591282Y-145920997D01*
X201515000Y-146304495D01*
X200685000Y-146304495D01*
X200685000Y-139599017D01*
X207405510Y-139599017D01*
X207405510Y-139920983D01*
X207468322Y-140236763D01*
X207591533Y-140534222D01*
X207770408Y-140801927D01*
X207998073Y-141029592D01*
X208265778Y-141208467D01*
X208563237Y-141331678D01*
X208879017Y-141394490D01*
X209200983Y-141394490D01*
X209516763Y-141331678D01*
X209814222Y-141208467D01*
X210081927Y-141029592D01*
X210309592Y-140801927D01*
X210488467Y-140534222D01*
X210611678Y-140236763D01*
X210674490Y-139920983D01*
X210674490Y-139599017D01*
X210611678Y-139283237D01*
X210488467Y-138985778D01*
X210309592Y-138718073D01*
X210081927Y-138490408D01*
X209814222Y-138311533D01*
X209516763Y-138188322D01*
X209200983Y-138125510D01*
X208879017Y-138125510D01*
X208563237Y-138188322D01*
X208265778Y-138311533D01*
X207998073Y-138490408D01*
X207770408Y-138718073D01*
X207591533Y-138985778D01*
X207468322Y-139283237D01*
X207405510Y-139599017D01*
X200685000Y-139599017D01*
X200685000Y-134950510D01*
X207402438Y-134950510D01*
X207402438Y-136949490D01*
X207414698Y-137073972D01*
X207451008Y-137193670D01*
X207509973Y-137303984D01*
X207589325Y-137400675D01*
X207686016Y-137480027D01*
X207796330Y-137538992D01*
X207916028Y-137575302D01*
X208040510Y-137587562D01*
X210039490Y-137587562D01*
X210163972Y-137575302D01*
X210283670Y-137538992D01*
X210393984Y-137480027D01*
X210490675Y-137400675D01*
X210570027Y-137303984D01*
X210628992Y-137193670D01*
X210665302Y-137073972D01*
X210677562Y-136949490D01*
X210677562Y-134950510D01*
X210665302Y-134826028D01*
X210628992Y-134706330D01*
X210570027Y-134596016D01*
X210490675Y-134499325D01*
X210393984Y-134419973D01*
X210283670Y-134361008D01*
X210163972Y-134324698D01*
X210039490Y-134312438D01*
X208040510Y-134312438D01*
X207916028Y-134324698D01*
X207796330Y-134361008D01*
X207686016Y-134419973D01*
X207589325Y-134499325D01*
X207509973Y-134596016D01*
X207451008Y-134706330D01*
X207414698Y-134826028D01*
X207402438Y-134950510D01*
X200685000Y-134950510D01*
X200685000Y-133163137D01*
X218155000Y-133163137D01*
X218155000Y-133376863D01*
X218196696Y-133586483D01*
X218278485Y-133783940D01*
X218397225Y-133961647D01*
X218548353Y-134112775D01*
X218726060Y-134231515D01*
X218923517Y-134313304D01*
X219133137Y-134355000D01*
X219346863Y-134355000D01*
X219556483Y-134313304D01*
X219753940Y-134231515D01*
X219931647Y-134112775D01*
X220082775Y-133961647D01*
X220201515Y-133783940D01*
X220283304Y-133586483D01*
X220313806Y-133433137D01*
X240815000Y-133433137D01*
X240815000Y-133646863D01*
X240856696Y-133856483D01*
X240938485Y-134053940D01*
X241057225Y-134231647D01*
X241208353Y-134382775D01*
X241386060Y-134501515D01*
X241583517Y-134583304D01*
X241793137Y-134625000D01*
X242006863Y-134625000D01*
X242216483Y-134583304D01*
X242413940Y-134501515D01*
X242591647Y-134382775D01*
X242742775Y-134231647D01*
X242861515Y-134053940D01*
X242943304Y-133856483D01*
X242985000Y-133646863D01*
X242985000Y-133481392D01*
X242994087Y-133470320D01*
X243024146Y-133414084D01*
X243062337Y-133342634D01*
X243104365Y-133204085D01*
X243118556Y-133060000D01*
X243115000Y-133023895D01*
X243115000Y-103777216D01*
X243286060Y-103891515D01*
X243483517Y-103973304D01*
X243693137Y-104015000D01*
X243845554Y-104015000D01*
X245393066Y-105562512D01*
X245297225Y-105658353D01*
X245178485Y-105836060D01*
X245096696Y-106033517D01*
X245055000Y-106243137D01*
X245055000Y-106456863D01*
X245096696Y-106666483D01*
X245178485Y-106863940D01*
X245297225Y-107041647D01*
X245448353Y-107192775D01*
X245626060Y-107311515D01*
X245823517Y-107393304D01*
X246033137Y-107435000D01*
X246246863Y-107435000D01*
X246427761Y-107399017D01*
X248335510Y-107399017D01*
X248335510Y-107720983D01*
X248398322Y-108036763D01*
X248521533Y-108334222D01*
X248700408Y-108601927D01*
X248928073Y-108829592D01*
X249195778Y-109008467D01*
X249493237Y-109131678D01*
X249809017Y-109194490D01*
X250130983Y-109194490D01*
X250446763Y-109131678D01*
X250744222Y-109008467D01*
X251011927Y-108829592D01*
X251239592Y-108601927D01*
X251418467Y-108334222D01*
X251541678Y-108036763D01*
X251604490Y-107720983D01*
X251604490Y-107399017D01*
X251541678Y-107083237D01*
X251418467Y-106785778D01*
X251239592Y-106518073D01*
X251011927Y-106290408D01*
X250744222Y-106111533D01*
X250446763Y-105988322D01*
X250130983Y-105925510D01*
X249809017Y-105925510D01*
X249493237Y-105988322D01*
X249195778Y-106111533D01*
X248928073Y-106290408D01*
X248700408Y-106518073D01*
X248521533Y-106785778D01*
X248398322Y-107083237D01*
X248335510Y-107399017D01*
X246427761Y-107399017D01*
X246456483Y-107393304D01*
X246653940Y-107311515D01*
X246831647Y-107192775D01*
X246982775Y-107041647D01*
X247101515Y-106863940D01*
X247183304Y-106666483D01*
X247225000Y-106456863D01*
X247225000Y-106243137D01*
X247183304Y-106033517D01*
X247101515Y-105836060D01*
X246982775Y-105658353D01*
X246875000Y-105550578D01*
X246875000Y-105306105D01*
X246878556Y-105270000D01*
X246864365Y-105125915D01*
X246822337Y-104987366D01*
X246754087Y-104859680D01*
X246685253Y-104775806D01*
X246685250Y-104775803D01*
X246662237Y-104747762D01*
X246634197Y-104724750D01*
X244885000Y-102975554D01*
X244885000Y-102883137D01*
X254035000Y-102883137D01*
X254035000Y-103096863D01*
X254076696Y-103306483D01*
X254158485Y-103503940D01*
X254277225Y-103681647D01*
X254385001Y-103789423D01*
X254385000Y-115653895D01*
X254381444Y-115690000D01*
X254395635Y-115834085D01*
X254400003Y-115848485D01*
X254437663Y-115972632D01*
X254505913Y-116100319D01*
X254597762Y-116212237D01*
X254625808Y-116235254D01*
X254815000Y-116424446D01*
X254815000Y-116576863D01*
X254856696Y-116786483D01*
X254938485Y-116983940D01*
X255057225Y-117161647D01*
X255208353Y-117312775D01*
X255386060Y-117431515D01*
X255583517Y-117513304D01*
X255793137Y-117555000D01*
X256006863Y-117555000D01*
X256216483Y-117513304D01*
X256413940Y-117431515D01*
X256591647Y-117312775D01*
X256742775Y-117161647D01*
X256861515Y-116983940D01*
X256943304Y-116786483D01*
X256985000Y-116576863D01*
X256985000Y-116363137D01*
X256943304Y-116153517D01*
X256861515Y-115956060D01*
X256742775Y-115778353D01*
X256591647Y-115627225D01*
X256413940Y-115508485D01*
X256216483Y-115426696D01*
X256006863Y-115385000D01*
X255855000Y-115385000D01*
X255855000Y-103789422D01*
X255962775Y-103681647D01*
X256081515Y-103503940D01*
X256163304Y-103306483D01*
X256205000Y-103096863D01*
X256205000Y-102883137D01*
X256163304Y-102673517D01*
X256081515Y-102476060D01*
X255962775Y-102298353D01*
X255811647Y-102147225D01*
X255633940Y-102028485D01*
X255436483Y-101946696D01*
X255226863Y-101905000D01*
X255013137Y-101905000D01*
X254803517Y-101946696D01*
X254606060Y-102028485D01*
X254428353Y-102147225D01*
X254277225Y-102298353D01*
X254158485Y-102476060D01*
X254076696Y-102673517D01*
X254035000Y-102883137D01*
X244885000Y-102883137D01*
X244885000Y-102823137D01*
X244843304Y-102613517D01*
X244761515Y-102416060D01*
X244642775Y-102238353D01*
X244491647Y-102087225D01*
X244313940Y-101968485D01*
X244116483Y-101886696D01*
X243906863Y-101845000D01*
X243693137Y-101845000D01*
X243483517Y-101886696D01*
X243375727Y-101931344D01*
X243423304Y-101816483D01*
X243465000Y-101606863D01*
X243465000Y-101393137D01*
X243423304Y-101183517D01*
X243341515Y-100986060D01*
X243222775Y-100808353D01*
X243071647Y-100657225D01*
X242893940Y-100538485D01*
X242696483Y-100456696D01*
X242486863Y-100415000D01*
X242273137Y-100415000D01*
X242063517Y-100456696D01*
X241866060Y-100538485D01*
X241688353Y-100657225D01*
X241537225Y-100808353D01*
X241418485Y-100986060D01*
X241336696Y-101183517D01*
X241295000Y-101393137D01*
X241295000Y-101606863D01*
X241336696Y-101816483D01*
X241418485Y-102013940D01*
X241537225Y-102191647D01*
X241645001Y-102299423D01*
X241645000Y-132484466D01*
X241583517Y-132496696D01*
X241386060Y-132578485D01*
X241208353Y-132697225D01*
X241057225Y-132848353D01*
X240938485Y-133026060D01*
X240856696Y-133223517D01*
X240815000Y-133433137D01*
X220313806Y-133433137D01*
X220325000Y-133376863D01*
X220325000Y-133163137D01*
X220283304Y-132953517D01*
X220201515Y-132756060D01*
X220082775Y-132578353D01*
X219975000Y-132470578D01*
X219975000Y-124254446D01*
X220524447Y-123705000D01*
X220676863Y-123705000D01*
X220886483Y-123663304D01*
X221083940Y-123581515D01*
X221261647Y-123462775D01*
X221412775Y-123311647D01*
X221531515Y-123133940D01*
X221613304Y-122936483D01*
X221655000Y-122726863D01*
X221655000Y-122513137D01*
X221613304Y-122303517D01*
X221531515Y-122106060D01*
X221412775Y-121928353D01*
X221305000Y-121820578D01*
X221305000Y-115639422D01*
X221342775Y-115601647D01*
X221461515Y-115423940D01*
X221543304Y-115226483D01*
X221585000Y-115016863D01*
X221585000Y-114803137D01*
X221543304Y-114593517D01*
X221461515Y-114396060D01*
X221342775Y-114218353D01*
X221191647Y-114067225D01*
X221013940Y-113948485D01*
X220816483Y-113866696D01*
X220606863Y-113825000D01*
X220393137Y-113825000D01*
X220183517Y-113866696D01*
X219986060Y-113948485D01*
X219808353Y-114067225D01*
X219657225Y-114218353D01*
X219538485Y-114396060D01*
X219456696Y-114593517D01*
X219415000Y-114803137D01*
X219415000Y-115016863D01*
X219456696Y-115226483D01*
X219538485Y-115423940D01*
X219657225Y-115601647D01*
X219808353Y-115752775D01*
X219835001Y-115770581D01*
X219835000Y-121820578D01*
X219727225Y-121928353D01*
X219608485Y-122106060D01*
X219526696Y-122303517D01*
X219485000Y-122513137D01*
X219485000Y-122665553D01*
X218745808Y-123404746D01*
X218717763Y-123427762D01*
X218625914Y-123539680D01*
X218603553Y-123581515D01*
X218557664Y-123667367D01*
X218515635Y-123805915D01*
X218501444Y-123950000D01*
X218505001Y-123986115D01*
X218505000Y-132470578D01*
X218397225Y-132578353D01*
X218278485Y-132756060D01*
X218196696Y-132953517D01*
X218155000Y-133163137D01*
X200685000Y-133163137D01*
X200685000Y-118633137D01*
X205375000Y-118633137D01*
X205375000Y-118846863D01*
X205416696Y-119056483D01*
X205498485Y-119253940D01*
X205617225Y-119431647D01*
X205725001Y-119539423D01*
X205725000Y-127243895D01*
X205721444Y-127280000D01*
X205725000Y-127316104D01*
X205735635Y-127424084D01*
X205777663Y-127562632D01*
X205845913Y-127690319D01*
X205937762Y-127802237D01*
X205965808Y-127825254D01*
X206615000Y-128474447D01*
X206615000Y-128626863D01*
X206656696Y-128836483D01*
X206738485Y-129033940D01*
X206857225Y-129211647D01*
X207008353Y-129362775D01*
X207186060Y-129481515D01*
X207383517Y-129563304D01*
X207593137Y-129605000D01*
X207806863Y-129605000D01*
X208016483Y-129563304D01*
X208213940Y-129481515D01*
X208391647Y-129362775D01*
X208542775Y-129211647D01*
X208661515Y-129033940D01*
X208743304Y-128836483D01*
X208785000Y-128626863D01*
X208785000Y-128413137D01*
X208743304Y-128203517D01*
X208661515Y-128006060D01*
X208542775Y-127828353D01*
X208391647Y-127677225D01*
X208213940Y-127558485D01*
X208016483Y-127476696D01*
X207806863Y-127435000D01*
X207654447Y-127435000D01*
X207195000Y-126975554D01*
X207195000Y-119539422D01*
X207302775Y-119431647D01*
X207421515Y-119253940D01*
X207503304Y-119056483D01*
X207545000Y-118846863D01*
X207545000Y-118633137D01*
X207503304Y-118423517D01*
X207421515Y-118226060D01*
X207302775Y-118048353D01*
X207151647Y-117897225D01*
X206973940Y-117778485D01*
X206776483Y-117696696D01*
X206566863Y-117655000D01*
X206353137Y-117655000D01*
X206143517Y-117696696D01*
X205946060Y-117778485D01*
X205768353Y-117897225D01*
X205617225Y-118048353D01*
X205498485Y-118226060D01*
X205416696Y-118423517D01*
X205375000Y-118633137D01*
X200685000Y-118633137D01*
X200685000Y-97304495D01*
X201515000Y-97304495D01*
X201515000Y-97695505D01*
X201591282Y-98079003D01*
X201740915Y-98440250D01*
X201958149Y-98765364D01*
X202234636Y-99041851D01*
X202559750Y-99259085D01*
X202920997Y-99408718D01*
X203304495Y-99485000D01*
X203695505Y-99485000D01*
X204079003Y-99408718D01*
X204440250Y-99259085D01*
X204765364Y-99041851D01*
X205041851Y-98765364D01*
X205259085Y-98440250D01*
X205408718Y-98079003D01*
X205485000Y-97695505D01*
X205485000Y-97304495D01*
X205408718Y-96920997D01*
X205259085Y-96559750D01*
X205041851Y-96234636D01*
X205037215Y-96230000D01*
X206877815Y-96230000D01*
X206906487Y-96521111D01*
X206991401Y-96801034D01*
X207129294Y-97059014D01*
X207314866Y-97285134D01*
X207344687Y-97309607D01*
X207275820Y-97330498D01*
X207165506Y-97389463D01*
X207068815Y-97468815D01*
X206989463Y-97565506D01*
X206930498Y-97675820D01*
X206894188Y-97795518D01*
X206881928Y-97920000D01*
X206881928Y-99620000D01*
X206894188Y-99744482D01*
X206930498Y-99864180D01*
X206989463Y-99974494D01*
X207068815Y-100071185D01*
X207165506Y-100150537D01*
X207275820Y-100209502D01*
X207395518Y-100245812D01*
X207520000Y-100258072D01*
X207635000Y-100258072D01*
X207635001Y-104953885D01*
X207631444Y-104990000D01*
X207645635Y-105134085D01*
X207667469Y-105206060D01*
X207687664Y-105272633D01*
X207755914Y-105400320D01*
X207841928Y-105505128D01*
X207841928Y-106025000D01*
X207858512Y-106193377D01*
X207907625Y-106355283D01*
X207987382Y-106504497D01*
X208094716Y-106635284D01*
X208195000Y-106717585D01*
X208195001Y-109462415D01*
X208094716Y-109544716D01*
X207987382Y-109675503D01*
X207907625Y-109824717D01*
X207858512Y-109986623D01*
X207841928Y-110155000D01*
X207841928Y-111105000D01*
X207858512Y-111273377D01*
X207907625Y-111435283D01*
X207987382Y-111584497D01*
X208094716Y-111715284D01*
X208135001Y-111748345D01*
X208135000Y-114230578D01*
X208027225Y-114338353D01*
X207908485Y-114516060D01*
X207826696Y-114713517D01*
X207785000Y-114923137D01*
X207785000Y-115136863D01*
X207826696Y-115346483D01*
X207908485Y-115543940D01*
X208027225Y-115721647D01*
X208135000Y-115829422D01*
X208135001Y-119580577D01*
X208127225Y-119588353D01*
X208008485Y-119766060D01*
X207926696Y-119963517D01*
X207885000Y-120173137D01*
X207885000Y-120386863D01*
X207926696Y-120596483D01*
X208008485Y-120793940D01*
X208127225Y-120971647D01*
X208278353Y-121122775D01*
X208456060Y-121241515D01*
X208653517Y-121323304D01*
X208863137Y-121365000D01*
X209076863Y-121365000D01*
X209286483Y-121323304D01*
X209483940Y-121241515D01*
X209661647Y-121122775D01*
X209812775Y-120971647D01*
X209931515Y-120793940D01*
X210013304Y-120596483D01*
X210055000Y-120386863D01*
X210055000Y-120173137D01*
X210013304Y-119963517D01*
X209931515Y-119766060D01*
X209812775Y-119588353D01*
X209661647Y-119437225D01*
X209605000Y-119399375D01*
X209605000Y-118787683D01*
X209616696Y-118846483D01*
X209698485Y-119043940D01*
X209817225Y-119221647D01*
X209968353Y-119372775D01*
X210146060Y-119491515D01*
X210343517Y-119573304D01*
X210553137Y-119615000D01*
X210766863Y-119615000D01*
X210976483Y-119573304D01*
X211173940Y-119491515D01*
X211351647Y-119372775D01*
X211502775Y-119221647D01*
X211621515Y-119043940D01*
X211703304Y-118846483D01*
X211745000Y-118636863D01*
X211745000Y-118423137D01*
X211703304Y-118213517D01*
X211621515Y-118016060D01*
X211522586Y-117868003D01*
X211596483Y-117853304D01*
X211793940Y-117771515D01*
X211971647Y-117652775D01*
X212122775Y-117501647D01*
X212241515Y-117323940D01*
X212323304Y-117126483D01*
X212365000Y-116916863D01*
X212365000Y-116703137D01*
X212323304Y-116493517D01*
X212241515Y-116296060D01*
X212165000Y-116181547D01*
X212165000Y-115390673D01*
X212228485Y-115543940D01*
X212347225Y-115721647D01*
X212455001Y-115829423D01*
X212455000Y-117330578D01*
X212347225Y-117438353D01*
X212228485Y-117616060D01*
X212146696Y-117813517D01*
X212105000Y-118023137D01*
X212105000Y-118236863D01*
X212146696Y-118446483D01*
X212228485Y-118643940D01*
X212347225Y-118821647D01*
X212498353Y-118972775D01*
X212676060Y-119091515D01*
X212873517Y-119173304D01*
X213083137Y-119215000D01*
X213296863Y-119215000D01*
X213506483Y-119173304D01*
X213703940Y-119091515D01*
X213881647Y-118972775D01*
X214032775Y-118821647D01*
X214151515Y-118643940D01*
X214233304Y-118446483D01*
X214275000Y-118236863D01*
X214275000Y-118023137D01*
X214233304Y-117813517D01*
X214151515Y-117616060D01*
X214032775Y-117438353D01*
X213925000Y-117330578D01*
X213925000Y-115829422D01*
X214032775Y-115721647D01*
X214151515Y-115543940D01*
X214233304Y-115346483D01*
X214275000Y-115136863D01*
X214275000Y-114923137D01*
X214233304Y-114713517D01*
X214151515Y-114516060D01*
X214032775Y-114338353D01*
X213881647Y-114187225D01*
X213703940Y-114068485D01*
X213506483Y-113986696D01*
X213296863Y-113945000D01*
X213083137Y-113945000D01*
X212873517Y-113986696D01*
X212676060Y-114068485D01*
X212498353Y-114187225D01*
X212347225Y-114338353D01*
X212228485Y-114516060D01*
X212165000Y-114669327D01*
X212165000Y-111846142D01*
X212305437Y-111913279D01*
X212385999Y-111924408D01*
X212553000Y-111797502D01*
X212553000Y-110757000D01*
X212807000Y-110757000D01*
X212807000Y-111797502D01*
X212974001Y-111924408D01*
X213054563Y-111913279D01*
X213248949Y-111820351D01*
X213421470Y-111691286D01*
X213565497Y-111531044D01*
X213675495Y-111345782D01*
X213747236Y-111142621D01*
X213777964Y-110929367D01*
X213613419Y-110757000D01*
X212807000Y-110757000D01*
X212553000Y-110757000D01*
X212533000Y-110757000D01*
X212533000Y-110503000D01*
X212553000Y-110503000D01*
X212553000Y-109462498D01*
X212807000Y-109462498D01*
X212807000Y-110503000D01*
X213613419Y-110503000D01*
X213777964Y-110330633D01*
X213747236Y-110117379D01*
X213675495Y-109914218D01*
X213565497Y-109728956D01*
X213421470Y-109568714D01*
X213248949Y-109439649D01*
X213054563Y-109346721D01*
X212974001Y-109335592D01*
X212807000Y-109462498D01*
X212553000Y-109462498D01*
X212385999Y-109335592D01*
X212305437Y-109346721D01*
X212165000Y-109413858D01*
X212165000Y-106766142D01*
X212305437Y-106833279D01*
X212385999Y-106844408D01*
X212553000Y-106717502D01*
X212553000Y-105677000D01*
X212807000Y-105677000D01*
X212807000Y-106717502D01*
X212974001Y-106844408D01*
X213054563Y-106833279D01*
X213248949Y-106740351D01*
X213421470Y-106611286D01*
X213565497Y-106451044D01*
X213675495Y-106265782D01*
X213747236Y-106062621D01*
X213777964Y-105849367D01*
X213613419Y-105677000D01*
X212807000Y-105677000D01*
X212553000Y-105677000D01*
X212533000Y-105677000D01*
X212533000Y-105423000D01*
X212553000Y-105423000D01*
X212553000Y-104382498D01*
X212807000Y-104382498D01*
X212807000Y-105423000D01*
X213613419Y-105423000D01*
X213777964Y-105250633D01*
X213747236Y-105037379D01*
X213675495Y-104834218D01*
X213565497Y-104648956D01*
X213421470Y-104488714D01*
X213320447Y-104413137D01*
X221455000Y-104413137D01*
X221455000Y-104626863D01*
X221496696Y-104836483D01*
X221578485Y-105033940D01*
X221697225Y-105211647D01*
X221848353Y-105362775D01*
X222026060Y-105481515D01*
X222223517Y-105563304D01*
X222433137Y-105605000D01*
X222646863Y-105605000D01*
X222856483Y-105563304D01*
X223053940Y-105481515D01*
X223231647Y-105362775D01*
X223382775Y-105211647D01*
X223501515Y-105033940D01*
X223583304Y-104836483D01*
X223625000Y-104626863D01*
X223625000Y-104413137D01*
X223583304Y-104203517D01*
X223501515Y-104006060D01*
X223382775Y-103828353D01*
X223275000Y-103720578D01*
X223275000Y-102023898D01*
X223291647Y-102012775D01*
X223442775Y-101861647D01*
X223561515Y-101683940D01*
X223643304Y-101486483D01*
X223685000Y-101276863D01*
X223685000Y-101063137D01*
X223643304Y-100853517D01*
X223561515Y-100656060D01*
X223442775Y-100478353D01*
X223291647Y-100327225D01*
X223113940Y-100208485D01*
X222916483Y-100126696D01*
X222706863Y-100085000D01*
X222493137Y-100085000D01*
X222283517Y-100126696D01*
X222086060Y-100208485D01*
X221908353Y-100327225D01*
X221757225Y-100478353D01*
X221638485Y-100656060D01*
X221556696Y-100853517D01*
X221515000Y-101063137D01*
X221515000Y-101276863D01*
X221556696Y-101486483D01*
X221638485Y-101683940D01*
X221757225Y-101861647D01*
X221805001Y-101909423D01*
X221805000Y-103720578D01*
X221697225Y-103828353D01*
X221578485Y-104006060D01*
X221496696Y-104203517D01*
X221455000Y-104413137D01*
X213320447Y-104413137D01*
X213248949Y-104359649D01*
X213054563Y-104266721D01*
X212974001Y-104255592D01*
X212807000Y-104382498D01*
X212553000Y-104382498D01*
X212385999Y-104255592D01*
X212305437Y-104266721D01*
X212165000Y-104333858D01*
X212165000Y-102119422D01*
X212272775Y-102011647D01*
X212391515Y-101833940D01*
X212473304Y-101636483D01*
X212515000Y-101426863D01*
X212515000Y-101213137D01*
X212473304Y-101003517D01*
X212409637Y-100849810D01*
X213056878Y-100202568D01*
X213158889Y-100233513D01*
X213377050Y-100255000D01*
X213522950Y-100255000D01*
X213741111Y-100233513D01*
X214021034Y-100148599D01*
X214279014Y-100010706D01*
X214505134Y-99825134D01*
X214690706Y-99599014D01*
X214720000Y-99544209D01*
X214749294Y-99599014D01*
X214934866Y-99825134D01*
X215160986Y-100010706D01*
X215418966Y-100148599D01*
X215698889Y-100233513D01*
X215917050Y-100255000D01*
X216062950Y-100255000D01*
X216281111Y-100233513D01*
X216561034Y-100148599D01*
X216819014Y-100010706D01*
X217045134Y-99825134D01*
X217230706Y-99599014D01*
X217265201Y-99534477D01*
X217334822Y-99651355D01*
X217529731Y-99867588D01*
X217763080Y-100041641D01*
X218025901Y-100166825D01*
X218173110Y-100211476D01*
X218403000Y-100090155D01*
X218403000Y-98897000D01*
X218383000Y-98897000D01*
X218383000Y-98643000D01*
X218403000Y-98643000D01*
X218403000Y-98623000D01*
X218657000Y-98623000D01*
X218657000Y-98643000D01*
X218677000Y-98643000D01*
X218677000Y-98897000D01*
X218657000Y-98897000D01*
X218657000Y-100090155D01*
X218886890Y-100211476D01*
X219034099Y-100166825D01*
X219296920Y-100041641D01*
X219530269Y-99867588D01*
X219725178Y-99651355D01*
X219794799Y-99534477D01*
X219829294Y-99599014D01*
X220014866Y-99825134D01*
X220240986Y-100010706D01*
X220498966Y-100148599D01*
X220778889Y-100233513D01*
X220997050Y-100255000D01*
X221142950Y-100255000D01*
X221361111Y-100233513D01*
X221641034Y-100148599D01*
X221899014Y-100010706D01*
X222125134Y-99825134D01*
X222310706Y-99599014D01*
X222340000Y-99544209D01*
X222369294Y-99599014D01*
X222554866Y-99825134D01*
X222780986Y-100010706D01*
X223038966Y-100148599D01*
X223318889Y-100233513D01*
X223537050Y-100255000D01*
X223682950Y-100255000D01*
X223901111Y-100233513D01*
X224181034Y-100148599D01*
X224439014Y-100010706D01*
X224665134Y-99825134D01*
X224850706Y-99599014D01*
X224880000Y-99544209D01*
X224909294Y-99599014D01*
X225094866Y-99825134D01*
X225320986Y-100010706D01*
X225578966Y-100148599D01*
X225858889Y-100233513D01*
X226077050Y-100255000D01*
X226222950Y-100255000D01*
X226441111Y-100233513D01*
X226721034Y-100148599D01*
X226979014Y-100010706D01*
X227205134Y-99825134D01*
X227390706Y-99599014D01*
X227420000Y-99544209D01*
X227449294Y-99599014D01*
X227634866Y-99825134D01*
X227860986Y-100010706D01*
X227955000Y-100060958D01*
X227955001Y-104190577D01*
X227847225Y-104298353D01*
X227728485Y-104476060D01*
X227646696Y-104673517D01*
X227605000Y-104883137D01*
X227605000Y-105096863D01*
X227646696Y-105306483D01*
X227728485Y-105503940D01*
X227847225Y-105681647D01*
X227955000Y-105789422D01*
X227955001Y-106380577D01*
X227847225Y-106488353D01*
X227728485Y-106666060D01*
X227646696Y-106863517D01*
X227605000Y-107073137D01*
X227605000Y-107286863D01*
X227646696Y-107496483D01*
X227728485Y-107693940D01*
X227847225Y-107871647D01*
X227875578Y-107900000D01*
X227847225Y-107928353D01*
X227728485Y-108106060D01*
X227646696Y-108303517D01*
X227605000Y-108513137D01*
X227605000Y-108726863D01*
X227646696Y-108936483D01*
X227728485Y-109133940D01*
X227847225Y-109311647D01*
X227955001Y-109419423D01*
X227955001Y-109603887D01*
X227955000Y-109603896D01*
X227955001Y-110980577D01*
X227847225Y-111088353D01*
X227728485Y-111266060D01*
X227646696Y-111463517D01*
X227605000Y-111673137D01*
X227605000Y-111886863D01*
X227646696Y-112096483D01*
X227728485Y-112293940D01*
X227847225Y-112471647D01*
X227955000Y-112579422D01*
X227955001Y-112900577D01*
X227847225Y-113008353D01*
X227728485Y-113186060D01*
X227646696Y-113383517D01*
X227605000Y-113593137D01*
X227605000Y-113806863D01*
X227646696Y-114016483D01*
X227728485Y-114213940D01*
X227847225Y-114391647D01*
X227955000Y-114499422D01*
X227955001Y-115780577D01*
X227847225Y-115888353D01*
X227728485Y-116066060D01*
X227646696Y-116263517D01*
X227605000Y-116473137D01*
X227605000Y-116686863D01*
X227646696Y-116896483D01*
X227728485Y-117093940D01*
X227847225Y-117271647D01*
X227955000Y-117379422D01*
X227955001Y-121746056D01*
X227908353Y-121777225D01*
X227757225Y-121928353D01*
X227638485Y-122106060D01*
X227556696Y-122303517D01*
X227515000Y-122513137D01*
X227515000Y-122726863D01*
X227556696Y-122936483D01*
X227638485Y-123133940D01*
X227757225Y-123311647D01*
X227908353Y-123462775D01*
X228086060Y-123581515D01*
X228283517Y-123663304D01*
X228493137Y-123705000D01*
X228706863Y-123705000D01*
X228916483Y-123663304D01*
X229113940Y-123581515D01*
X229291647Y-123462775D01*
X229442775Y-123311647D01*
X229561515Y-123133940D01*
X229643304Y-122936483D01*
X229685000Y-122726863D01*
X229685000Y-122513137D01*
X229643304Y-122303517D01*
X229561515Y-122106060D01*
X229442775Y-121928353D01*
X229425000Y-121910578D01*
X229425000Y-117379422D01*
X229532775Y-117271647D01*
X229651515Y-117093940D01*
X229733304Y-116896483D01*
X229775000Y-116686863D01*
X229775000Y-116473137D01*
X229733304Y-116263517D01*
X229651515Y-116066060D01*
X229532775Y-115888353D01*
X229425000Y-115780578D01*
X229425000Y-114499422D01*
X229532775Y-114391647D01*
X229651515Y-114213940D01*
X229733304Y-114016483D01*
X229775000Y-113806863D01*
X229775000Y-113593137D01*
X229733304Y-113383517D01*
X229651515Y-113186060D01*
X229532775Y-113008353D01*
X229425000Y-112900578D01*
X229425000Y-112579422D01*
X229532775Y-112471647D01*
X229651515Y-112293940D01*
X229733304Y-112096483D01*
X229775000Y-111886863D01*
X229775000Y-111673137D01*
X229733304Y-111463517D01*
X229651515Y-111266060D01*
X229532775Y-111088353D01*
X229425000Y-110980578D01*
X229425000Y-109419422D01*
X229532775Y-109311647D01*
X229651515Y-109133940D01*
X229733304Y-108936483D01*
X229775000Y-108726863D01*
X229775000Y-108513137D01*
X229733304Y-108303517D01*
X229651515Y-108106060D01*
X229532775Y-107928353D01*
X229504422Y-107900000D01*
X229532775Y-107871647D01*
X229651515Y-107693940D01*
X229733304Y-107496483D01*
X229775000Y-107286863D01*
X229775000Y-107073137D01*
X229733304Y-106863517D01*
X229651515Y-106666060D01*
X229532775Y-106488353D01*
X229425000Y-106380578D01*
X229425000Y-105789422D01*
X229532775Y-105681647D01*
X229651515Y-105503940D01*
X229733304Y-105306483D01*
X229775000Y-105096863D01*
X229775000Y-104883137D01*
X229733304Y-104673517D01*
X229651515Y-104476060D01*
X229532775Y-104298353D01*
X229425000Y-104190578D01*
X229425000Y-100060957D01*
X229519014Y-100010706D01*
X229745134Y-99825134D01*
X229930706Y-99599014D01*
X229960000Y-99544209D01*
X229989294Y-99599014D01*
X230174866Y-99825134D01*
X230400986Y-100010706D01*
X230658966Y-100148599D01*
X230938889Y-100233513D01*
X231157050Y-100255000D01*
X231302950Y-100255000D01*
X231521111Y-100233513D01*
X231801034Y-100148599D01*
X232059014Y-100010706D01*
X232285134Y-99825134D01*
X232470706Y-99599014D01*
X232500000Y-99544209D01*
X232529294Y-99599014D01*
X232714866Y-99825134D01*
X232940986Y-100010706D01*
X233198966Y-100148599D01*
X233478889Y-100233513D01*
X233697050Y-100255000D01*
X233842950Y-100255000D01*
X234061111Y-100233513D01*
X234341034Y-100148599D01*
X234599014Y-100010706D01*
X234825134Y-99825134D01*
X235010706Y-99599014D01*
X235040000Y-99544209D01*
X235069294Y-99599014D01*
X235254866Y-99825134D01*
X235480986Y-100010706D01*
X235738966Y-100148599D01*
X235832291Y-100176909D01*
X235756060Y-100208485D01*
X235578353Y-100327225D01*
X235427225Y-100478353D01*
X235308485Y-100656060D01*
X235226696Y-100853517D01*
X235185000Y-101063137D01*
X235185000Y-101276863D01*
X235204668Y-101375738D01*
X235191444Y-101510000D01*
X235195001Y-101546115D01*
X235195000Y-104060578D01*
X235087225Y-104168353D01*
X234968485Y-104346060D01*
X234886696Y-104543517D01*
X234845000Y-104753137D01*
X234845000Y-104966863D01*
X234886696Y-105176483D01*
X234968485Y-105373940D01*
X235087225Y-105551647D01*
X235238353Y-105702775D01*
X235416060Y-105821515D01*
X235613517Y-105903304D01*
X235620821Y-105904757D01*
X235587225Y-105938353D01*
X235468485Y-106116060D01*
X235386696Y-106313517D01*
X235345000Y-106523137D01*
X235345000Y-106736863D01*
X235386696Y-106946483D01*
X235468485Y-107143940D01*
X235587225Y-107321647D01*
X235605001Y-107339423D01*
X235605000Y-110230578D01*
X235497225Y-110338353D01*
X235378485Y-110516060D01*
X235296696Y-110713517D01*
X235255000Y-110923137D01*
X235255000Y-111136863D01*
X235296696Y-111346483D01*
X235378485Y-111543940D01*
X235497225Y-111721647D01*
X235648353Y-111872775D01*
X235826060Y-111991515D01*
X236023517Y-112073304D01*
X236233137Y-112115000D01*
X236446863Y-112115000D01*
X236656483Y-112073304D01*
X236675840Y-112065286D01*
X238215000Y-113604447D01*
X238215000Y-113756863D01*
X238256696Y-113966483D01*
X238338485Y-114163940D01*
X238457225Y-114341647D01*
X238608353Y-114492775D01*
X238786060Y-114611515D01*
X238983517Y-114693304D01*
X239193137Y-114735000D01*
X239406863Y-114735000D01*
X239616483Y-114693304D01*
X239813940Y-114611515D01*
X239991647Y-114492775D01*
X240142775Y-114341647D01*
X240261515Y-114163940D01*
X240343304Y-113966483D01*
X240385000Y-113756863D01*
X240385000Y-113543137D01*
X240343304Y-113333517D01*
X240261515Y-113136060D01*
X240142775Y-112958353D01*
X240136990Y-112952568D01*
X240151647Y-112942775D01*
X240302775Y-112791647D01*
X240421515Y-112613940D01*
X240503304Y-112416483D01*
X240545000Y-112206863D01*
X240545000Y-111993137D01*
X240503304Y-111783517D01*
X240421515Y-111586060D01*
X240302775Y-111408353D01*
X240195000Y-111300578D01*
X240195000Y-108519422D01*
X240302775Y-108411647D01*
X240421515Y-108233940D01*
X240503304Y-108036483D01*
X240545000Y-107826863D01*
X240545000Y-107613137D01*
X240503304Y-107403517D01*
X240421515Y-107206060D01*
X240302775Y-107028353D01*
X240195000Y-106920578D01*
X240195000Y-106573898D01*
X240211647Y-106562775D01*
X240362775Y-106411647D01*
X240481515Y-106233940D01*
X240563304Y-106036483D01*
X240605000Y-105826863D01*
X240605000Y-105613137D01*
X240563304Y-105403517D01*
X240481515Y-105206060D01*
X240362775Y-105028353D01*
X240211647Y-104877225D01*
X240033940Y-104758485D01*
X239836483Y-104676696D01*
X239626863Y-104635000D01*
X239413137Y-104635000D01*
X239203517Y-104676696D01*
X239006060Y-104758485D01*
X238828353Y-104877225D01*
X238677225Y-105028353D01*
X238558485Y-105206060D01*
X238476696Y-105403517D01*
X238475000Y-105412043D01*
X238475000Y-104167262D01*
X238511647Y-104142775D01*
X238662775Y-103991647D01*
X238781515Y-103813940D01*
X238863304Y-103616483D01*
X238905000Y-103406863D01*
X238905000Y-103193137D01*
X238863304Y-102983517D01*
X238781515Y-102786060D01*
X238662775Y-102608353D01*
X238511647Y-102457225D01*
X238333940Y-102338485D01*
X238136483Y-102256696D01*
X237926863Y-102215000D01*
X237713137Y-102215000D01*
X237503517Y-102256696D01*
X237306060Y-102338485D01*
X237128353Y-102457225D01*
X236977225Y-102608353D01*
X236858485Y-102786060D01*
X236776696Y-102983517D01*
X236735000Y-103193137D01*
X236735000Y-103406863D01*
X236776696Y-103616483D01*
X236858485Y-103813940D01*
X236977225Y-103991647D01*
X237005001Y-104019423D01*
X237005001Y-104702867D01*
X236973304Y-104543517D01*
X236891515Y-104346060D01*
X236772775Y-104168353D01*
X236665000Y-104060578D01*
X236665000Y-102180781D01*
X236783940Y-102131515D01*
X236961647Y-102012775D01*
X237112775Y-101861647D01*
X237231515Y-101683940D01*
X237313304Y-101486483D01*
X237355000Y-101276863D01*
X237355000Y-101063137D01*
X237313304Y-100853517D01*
X237231515Y-100656060D01*
X237112775Y-100478353D01*
X236961647Y-100327225D01*
X236783940Y-100208485D01*
X236741529Y-100190918D01*
X236881034Y-100148599D01*
X237139014Y-100010706D01*
X237365134Y-99825134D01*
X237550706Y-99599014D01*
X237585201Y-99534477D01*
X237654822Y-99651355D01*
X237849731Y-99867588D01*
X238083080Y-100041641D01*
X238345901Y-100166825D01*
X238493110Y-100211476D01*
X238723000Y-100090155D01*
X238723000Y-98897000D01*
X238703000Y-98897000D01*
X238703000Y-98643000D01*
X238723000Y-98643000D01*
X238723000Y-98623000D01*
X238977000Y-98623000D01*
X238977000Y-98643000D01*
X238997000Y-98643000D01*
X238997000Y-98897000D01*
X238977000Y-98897000D01*
X238977000Y-100090155D01*
X239206890Y-100211476D01*
X239354099Y-100166825D01*
X239616920Y-100041641D01*
X239850269Y-99867588D01*
X240045178Y-99651355D01*
X240114799Y-99534477D01*
X240149294Y-99599014D01*
X240334866Y-99825134D01*
X240560986Y-100010706D01*
X240818966Y-100148599D01*
X241098889Y-100233513D01*
X241317050Y-100255000D01*
X241462950Y-100255000D01*
X241681111Y-100233513D01*
X241961034Y-100148599D01*
X242219014Y-100010706D01*
X242445134Y-99825134D01*
X242630706Y-99599014D01*
X242660000Y-99544209D01*
X242689294Y-99599014D01*
X242874866Y-99825134D01*
X243100986Y-100010706D01*
X243358966Y-100148599D01*
X243638889Y-100233513D01*
X243857050Y-100255000D01*
X244002950Y-100255000D01*
X244221111Y-100233513D01*
X244501034Y-100148599D01*
X244759014Y-100010706D01*
X244985134Y-99825134D01*
X245170706Y-99599014D01*
X245200000Y-99544209D01*
X245229294Y-99599014D01*
X245414866Y-99825134D01*
X245640986Y-100010706D01*
X245898966Y-100148599D01*
X246178889Y-100233513D01*
X246397050Y-100255000D01*
X246542950Y-100255000D01*
X246761111Y-100233513D01*
X247041034Y-100148599D01*
X247299014Y-100010706D01*
X247525134Y-99825134D01*
X247710706Y-99599014D01*
X247740000Y-99544209D01*
X247769294Y-99599014D01*
X247954866Y-99825134D01*
X248180986Y-100010706D01*
X248438966Y-100148599D01*
X248718889Y-100233513D01*
X248937050Y-100255000D01*
X249082950Y-100255000D01*
X249301111Y-100233513D01*
X249581034Y-100148599D01*
X249839014Y-100010706D01*
X250065134Y-99825134D01*
X250250706Y-99599014D01*
X250280000Y-99544209D01*
X250309294Y-99599014D01*
X250494866Y-99825134D01*
X250720986Y-100010706D01*
X250978966Y-100148599D01*
X251258889Y-100233513D01*
X251477050Y-100255000D01*
X251622950Y-100255000D01*
X251841111Y-100233513D01*
X252121034Y-100148599D01*
X252379014Y-100010706D01*
X252605134Y-99825134D01*
X252790706Y-99599014D01*
X252820000Y-99544209D01*
X252849294Y-99599014D01*
X253034866Y-99825134D01*
X253260986Y-100010706D01*
X253518966Y-100148599D01*
X253798889Y-100233513D01*
X254017050Y-100255000D01*
X254162950Y-100255000D01*
X254381111Y-100233513D01*
X254661034Y-100148599D01*
X254919014Y-100010706D01*
X255145134Y-99825134D01*
X255330706Y-99599014D01*
X255365201Y-99534477D01*
X255434822Y-99651355D01*
X255629731Y-99867588D01*
X255863080Y-100041641D01*
X256125901Y-100166825D01*
X256273110Y-100211476D01*
X256503000Y-100090155D01*
X256503000Y-98897000D01*
X256757000Y-98897000D01*
X256757000Y-100090155D01*
X256986890Y-100211476D01*
X257134099Y-100166825D01*
X257396920Y-100041641D01*
X257630269Y-99867588D01*
X257825178Y-99651355D01*
X257974157Y-99401252D01*
X258071481Y-99126891D01*
X257950814Y-98897000D01*
X256757000Y-98897000D01*
X256503000Y-98897000D01*
X256483000Y-98897000D01*
X256483000Y-98643000D01*
X256503000Y-98643000D01*
X256503000Y-98623000D01*
X256757000Y-98623000D01*
X256757000Y-98643000D01*
X257950814Y-98643000D01*
X258071481Y-98413109D01*
X257974157Y-98138748D01*
X257825178Y-97888645D01*
X257630269Y-97672412D01*
X257401244Y-97501584D01*
X257459014Y-97470706D01*
X257661542Y-97304495D01*
X259515000Y-97304495D01*
X259515000Y-97695505D01*
X259591282Y-98079003D01*
X259740915Y-98440250D01*
X259958149Y-98765364D01*
X260234636Y-99041851D01*
X260559750Y-99259085D01*
X260920997Y-99408718D01*
X261304495Y-99485000D01*
X261695505Y-99485000D01*
X262079003Y-99408718D01*
X262440250Y-99259085D01*
X262765364Y-99041851D01*
X263041851Y-98765364D01*
X263259085Y-98440250D01*
X263408718Y-98079003D01*
X263485000Y-97695505D01*
X263485000Y-97304495D01*
X263408718Y-96920997D01*
X263259085Y-96559750D01*
X263041851Y-96234636D01*
X262765364Y-95958149D01*
X262440250Y-95740915D01*
X262079003Y-95591282D01*
X261695505Y-95515000D01*
X261304495Y-95515000D01*
X260920997Y-95591282D01*
X260559750Y-95740915D01*
X260234636Y-95958149D01*
X259958149Y-96234636D01*
X259740915Y-96559750D01*
X259591282Y-96920997D01*
X259515000Y-97304495D01*
X257661542Y-97304495D01*
X257685134Y-97285134D01*
X257870706Y-97059014D01*
X258008599Y-96801034D01*
X258093513Y-96521111D01*
X258122185Y-96230000D01*
X258093513Y-95938889D01*
X258008599Y-95658966D01*
X257870706Y-95400986D01*
X257685134Y-95174866D01*
X257459014Y-94989294D01*
X257201034Y-94851401D01*
X256921111Y-94766487D01*
X256702950Y-94745000D01*
X256557050Y-94745000D01*
X256338889Y-94766487D01*
X256058966Y-94851401D01*
X255800986Y-94989294D01*
X255574866Y-95174866D01*
X255389294Y-95400986D01*
X255360000Y-95455791D01*
X255330706Y-95400986D01*
X255145134Y-95174866D01*
X254919014Y-94989294D01*
X254661034Y-94851401D01*
X254381111Y-94766487D01*
X254162950Y-94745000D01*
X254017050Y-94745000D01*
X253798889Y-94766487D01*
X253518966Y-94851401D01*
X253260986Y-94989294D01*
X253034866Y-95174866D01*
X252849294Y-95400986D01*
X252820000Y-95455791D01*
X252790706Y-95400986D01*
X252605134Y-95174866D01*
X252379014Y-94989294D01*
X252121034Y-94851401D01*
X251841111Y-94766487D01*
X251622950Y-94745000D01*
X251477050Y-94745000D01*
X251258889Y-94766487D01*
X250978966Y-94851401D01*
X250720986Y-94989294D01*
X250494866Y-95174866D01*
X250309294Y-95400986D01*
X250274799Y-95465523D01*
X250205178Y-95348645D01*
X250010269Y-95132412D01*
X249776920Y-94958359D01*
X249514099Y-94833175D01*
X249366890Y-94788524D01*
X249137000Y-94909845D01*
X249137000Y-96103000D01*
X249157000Y-96103000D01*
X249157000Y-96357000D01*
X249137000Y-96357000D01*
X249137000Y-96377000D01*
X248883000Y-96377000D01*
X248883000Y-96357000D01*
X248863000Y-96357000D01*
X248863000Y-96103000D01*
X248883000Y-96103000D01*
X248883000Y-94909845D01*
X248653110Y-94788524D01*
X248505901Y-94833175D01*
X248243080Y-94958359D01*
X248009731Y-95132412D01*
X247814822Y-95348645D01*
X247745201Y-95465523D01*
X247710706Y-95400986D01*
X247525134Y-95174866D01*
X247299014Y-94989294D01*
X247041034Y-94851401D01*
X246761111Y-94766487D01*
X246542950Y-94745000D01*
X246397050Y-94745000D01*
X246178889Y-94766487D01*
X245898966Y-94851401D01*
X245640986Y-94989294D01*
X245414866Y-95174866D01*
X245229294Y-95400986D01*
X245194799Y-95465523D01*
X245125178Y-95348645D01*
X244930269Y-95132412D01*
X244696920Y-94958359D01*
X244434099Y-94833175D01*
X244286890Y-94788524D01*
X244057000Y-94909845D01*
X244057000Y-96103000D01*
X244077000Y-96103000D01*
X244077000Y-96357000D01*
X244057000Y-96357000D01*
X244057000Y-96377000D01*
X243803000Y-96377000D01*
X243803000Y-96357000D01*
X243783000Y-96357000D01*
X243783000Y-96103000D01*
X243803000Y-96103000D01*
X243803000Y-94909845D01*
X243573110Y-94788524D01*
X243425901Y-94833175D01*
X243163080Y-94958359D01*
X242929731Y-95132412D01*
X242734822Y-95348645D01*
X242665201Y-95465523D01*
X242630706Y-95400986D01*
X242445134Y-95174866D01*
X242219014Y-94989294D01*
X241961034Y-94851401D01*
X241681111Y-94766487D01*
X241462950Y-94745000D01*
X241317050Y-94745000D01*
X241098889Y-94766487D01*
X240818966Y-94851401D01*
X240560986Y-94989294D01*
X240334866Y-95174866D01*
X240149294Y-95400986D01*
X240120000Y-95455791D01*
X240090706Y-95400986D01*
X239905134Y-95174866D01*
X239679014Y-94989294D01*
X239421034Y-94851401D01*
X239141111Y-94766487D01*
X238922950Y-94745000D01*
X238777050Y-94745000D01*
X238558889Y-94766487D01*
X238278966Y-94851401D01*
X238020986Y-94989294D01*
X237794866Y-95174866D01*
X237609294Y-95400986D01*
X237580000Y-95455791D01*
X237550706Y-95400986D01*
X237365134Y-95174866D01*
X237139014Y-94989294D01*
X236881034Y-94851401D01*
X236601111Y-94766487D01*
X236382950Y-94745000D01*
X236237050Y-94745000D01*
X236018889Y-94766487D01*
X235738966Y-94851401D01*
X235480986Y-94989294D01*
X235254866Y-95174866D01*
X235069294Y-95400986D01*
X235040000Y-95455791D01*
X235010706Y-95400986D01*
X234825134Y-95174866D01*
X234599014Y-94989294D01*
X234341034Y-94851401D01*
X234061111Y-94766487D01*
X233842950Y-94745000D01*
X233697050Y-94745000D01*
X233478889Y-94766487D01*
X233198966Y-94851401D01*
X232940986Y-94989294D01*
X232714866Y-95174866D01*
X232529294Y-95400986D01*
X232494799Y-95465523D01*
X232425178Y-95348645D01*
X232230269Y-95132412D01*
X231996920Y-94958359D01*
X231734099Y-94833175D01*
X231586890Y-94788524D01*
X231357000Y-94909845D01*
X231357000Y-96103000D01*
X231377000Y-96103000D01*
X231377000Y-96357000D01*
X231357000Y-96357000D01*
X231357000Y-96377000D01*
X231103000Y-96377000D01*
X231103000Y-96357000D01*
X231083000Y-96357000D01*
X231083000Y-96103000D01*
X231103000Y-96103000D01*
X231103000Y-94909845D01*
X230873110Y-94788524D01*
X230725901Y-94833175D01*
X230463080Y-94958359D01*
X230229731Y-95132412D01*
X230034822Y-95348645D01*
X229965201Y-95465523D01*
X229930706Y-95400986D01*
X229745134Y-95174866D01*
X229519014Y-94989294D01*
X229261034Y-94851401D01*
X228981111Y-94766487D01*
X228762950Y-94745000D01*
X228617050Y-94745000D01*
X228398889Y-94766487D01*
X228118966Y-94851401D01*
X227860986Y-94989294D01*
X227634866Y-95174866D01*
X227449294Y-95400986D01*
X227420000Y-95455791D01*
X227390706Y-95400986D01*
X227205134Y-95174866D01*
X226979014Y-94989294D01*
X226721034Y-94851401D01*
X226441111Y-94766487D01*
X226222950Y-94745000D01*
X226077050Y-94745000D01*
X225858889Y-94766487D01*
X225578966Y-94851401D01*
X225320986Y-94989294D01*
X225094866Y-95174866D01*
X224909294Y-95400986D01*
X224874799Y-95465523D01*
X224805178Y-95348645D01*
X224610269Y-95132412D01*
X224376920Y-94958359D01*
X224114099Y-94833175D01*
X223966890Y-94788524D01*
X223737000Y-94909845D01*
X223737000Y-96103000D01*
X223757000Y-96103000D01*
X223757000Y-96357000D01*
X223737000Y-96357000D01*
X223737000Y-96377000D01*
X223483000Y-96377000D01*
X223483000Y-96357000D01*
X223463000Y-96357000D01*
X223463000Y-96103000D01*
X223483000Y-96103000D01*
X223483000Y-94909845D01*
X223253110Y-94788524D01*
X223105901Y-94833175D01*
X222843080Y-94958359D01*
X222609731Y-95132412D01*
X222414822Y-95348645D01*
X222345201Y-95465523D01*
X222310706Y-95400986D01*
X222125134Y-95174866D01*
X221899014Y-94989294D01*
X221641034Y-94851401D01*
X221361111Y-94766487D01*
X221142950Y-94745000D01*
X220997050Y-94745000D01*
X220778889Y-94766487D01*
X220498966Y-94851401D01*
X220240986Y-94989294D01*
X220014866Y-95174866D01*
X219829294Y-95400986D01*
X219800000Y-95455791D01*
X219770706Y-95400986D01*
X219585134Y-95174866D01*
X219359014Y-94989294D01*
X219101034Y-94851401D01*
X218821111Y-94766487D01*
X218602950Y-94745000D01*
X218457050Y-94745000D01*
X218238889Y-94766487D01*
X217958966Y-94851401D01*
X217700986Y-94989294D01*
X217474866Y-95174866D01*
X217289294Y-95400986D01*
X217260000Y-95455791D01*
X217230706Y-95400986D01*
X217045134Y-95174866D01*
X216819014Y-94989294D01*
X216561034Y-94851401D01*
X216281111Y-94766487D01*
X216062950Y-94745000D01*
X215917050Y-94745000D01*
X215698889Y-94766487D01*
X215418966Y-94851401D01*
X215160986Y-94989294D01*
X214934866Y-95174866D01*
X214749294Y-95400986D01*
X214714799Y-95465523D01*
X214645178Y-95348645D01*
X214450269Y-95132412D01*
X214216920Y-94958359D01*
X213954099Y-94833175D01*
X213806890Y-94788524D01*
X213577000Y-94909845D01*
X213577000Y-96103000D01*
X213597000Y-96103000D01*
X213597000Y-96357000D01*
X213577000Y-96357000D01*
X213577000Y-96377000D01*
X213323000Y-96377000D01*
X213323000Y-96357000D01*
X213303000Y-96357000D01*
X213303000Y-96103000D01*
X213323000Y-96103000D01*
X213323000Y-94909845D01*
X213093110Y-94788524D01*
X212945901Y-94833175D01*
X212683080Y-94958359D01*
X212449731Y-95132412D01*
X212254822Y-95348645D01*
X212185201Y-95465523D01*
X212150706Y-95400986D01*
X211965134Y-95174866D01*
X211739014Y-94989294D01*
X211481034Y-94851401D01*
X211201111Y-94766487D01*
X210982950Y-94745000D01*
X210837050Y-94745000D01*
X210618889Y-94766487D01*
X210338966Y-94851401D01*
X210080986Y-94989294D01*
X209854866Y-95174866D01*
X209669294Y-95400986D01*
X209640000Y-95455791D01*
X209610706Y-95400986D01*
X209425134Y-95174866D01*
X209199014Y-94989294D01*
X208941034Y-94851401D01*
X208661111Y-94766487D01*
X208442950Y-94745000D01*
X208297050Y-94745000D01*
X208078889Y-94766487D01*
X207798966Y-94851401D01*
X207540986Y-94989294D01*
X207314866Y-95174866D01*
X207129294Y-95400986D01*
X206991401Y-95658966D01*
X206906487Y-95938889D01*
X206877815Y-96230000D01*
X205037215Y-96230000D01*
X204765364Y-95958149D01*
X204440250Y-95740915D01*
X204079003Y-95591282D01*
X203695505Y-95515000D01*
X203304495Y-95515000D01*
X202920997Y-95591282D01*
X202559750Y-95740915D01*
X202234636Y-95958149D01*
X201958149Y-96234636D01*
X201740915Y-96559750D01*
X201591282Y-96920997D01*
X201515000Y-97304495D01*
X200685000Y-97304495D01*
X200685000Y-97033505D01*
X200732312Y-96550984D01*
X200862714Y-96119070D01*
X201074524Y-95720715D01*
X201359675Y-95371086D01*
X201707303Y-95083503D01*
X202104177Y-94868914D01*
X202535161Y-94735502D01*
X203015654Y-94685000D01*
X261966495Y-94685000D01*
X262449016Y-94732312D01*
X262449016Y-94732312D01*
G37*
X262449016Y-94732312D02*
X262880930Y-94862714D01*
X263279285Y-95074524D01*
X263628914Y-95359675D01*
X263916497Y-95707303D01*
X264131086Y-96104177D01*
X264264498Y-96535161D01*
X264315001Y-97015663D01*
X264315000Y-146966495D01*
X264267688Y-147449016D01*
X264137287Y-147880927D01*
X263925480Y-148279280D01*
X263640325Y-148628914D01*
X263292697Y-148916497D01*
X262895825Y-149131085D01*
X262464834Y-149264500D01*
X261984346Y-149315000D01*
X203033504Y-149315000D01*
X202550984Y-149267688D01*
X202119073Y-149137287D01*
X201720720Y-148925480D01*
X201371086Y-148640325D01*
X201083503Y-148292697D01*
X200868915Y-147895825D01*
X200735500Y-147464834D01*
X200685000Y-146984346D01*
X200685000Y-146304495D01*
X201515000Y-146304495D01*
X201515000Y-146695505D01*
X201591282Y-147079003D01*
X201740915Y-147440250D01*
X201958149Y-147765364D01*
X202234636Y-148041851D01*
X202559750Y-148259085D01*
X202920997Y-148408718D01*
X203304495Y-148485000D01*
X203695505Y-148485000D01*
X204079003Y-148408718D01*
X204440250Y-148259085D01*
X204765364Y-148041851D01*
X205041851Y-147765364D01*
X205259085Y-147440250D01*
X205408718Y-147079003D01*
X205485000Y-146695505D01*
X205485000Y-146304495D01*
X259515000Y-146304495D01*
X259515000Y-146695505D01*
X259591282Y-147079003D01*
X259740915Y-147440250D01*
X259958149Y-147765364D01*
X260234636Y-148041851D01*
X260559750Y-148259085D01*
X260920997Y-148408718D01*
X261304495Y-148485000D01*
X261695505Y-148485000D01*
X262079003Y-148408718D01*
X262440250Y-148259085D01*
X262765364Y-148041851D01*
X263041851Y-147765364D01*
X263259085Y-147440250D01*
X263408718Y-147079003D01*
X263485000Y-146695505D01*
X263485000Y-146304495D01*
X263408718Y-145920997D01*
X263259085Y-145559750D01*
X263041851Y-145234636D01*
X262765364Y-144958149D01*
X262440250Y-144740915D01*
X262079003Y-144591282D01*
X261695505Y-144515000D01*
X261304495Y-144515000D01*
X260920997Y-144591282D01*
X260559750Y-144740915D01*
X260234636Y-144958149D01*
X259958149Y-145234636D01*
X259740915Y-145559750D01*
X259591282Y-145920997D01*
X259515000Y-146304495D01*
X205485000Y-146304495D01*
X205408718Y-145920997D01*
X205259085Y-145559750D01*
X205041851Y-145234636D01*
X204765364Y-144958149D01*
X204440250Y-144740915D01*
X204079003Y-144591282D01*
X203695505Y-144515000D01*
X203304495Y-144515000D01*
X202920997Y-144591282D01*
X202559750Y-144740915D01*
X202234636Y-144958149D01*
X201958149Y-145234636D01*
X201740915Y-145559750D01*
X201591282Y-145920997D01*
X201515000Y-146304495D01*
X200685000Y-146304495D01*
X200685000Y-139599017D01*
X207405510Y-139599017D01*
X207405510Y-139920983D01*
X207468322Y-140236763D01*
X207591533Y-140534222D01*
X207770408Y-140801927D01*
X207998073Y-141029592D01*
X208265778Y-141208467D01*
X208563237Y-141331678D01*
X208879017Y-141394490D01*
X209200983Y-141394490D01*
X209516763Y-141331678D01*
X209814222Y-141208467D01*
X210081927Y-141029592D01*
X210309592Y-140801927D01*
X210488467Y-140534222D01*
X210611678Y-140236763D01*
X210674490Y-139920983D01*
X210674490Y-139599017D01*
X210611678Y-139283237D01*
X210488467Y-138985778D01*
X210309592Y-138718073D01*
X210081927Y-138490408D01*
X209814222Y-138311533D01*
X209516763Y-138188322D01*
X209200983Y-138125510D01*
X208879017Y-138125510D01*
X208563237Y-138188322D01*
X208265778Y-138311533D01*
X207998073Y-138490408D01*
X207770408Y-138718073D01*
X207591533Y-138985778D01*
X207468322Y-139283237D01*
X207405510Y-139599017D01*
X200685000Y-139599017D01*
X200685000Y-134950510D01*
X207402438Y-134950510D01*
X207402438Y-136949490D01*
X207414698Y-137073972D01*
X207451008Y-137193670D01*
X207509973Y-137303984D01*
X207589325Y-137400675D01*
X207686016Y-137480027D01*
X207796330Y-137538992D01*
X207916028Y-137575302D01*
X208040510Y-137587562D01*
X210039490Y-137587562D01*
X210163972Y-137575302D01*
X210283670Y-137538992D01*
X210393984Y-137480027D01*
X210490675Y-137400675D01*
X210570027Y-137303984D01*
X210628992Y-137193670D01*
X210665302Y-137073972D01*
X210677562Y-136949490D01*
X210677562Y-134950510D01*
X210665302Y-134826028D01*
X210628992Y-134706330D01*
X210570027Y-134596016D01*
X210490675Y-134499325D01*
X210393984Y-134419973D01*
X210283670Y-134361008D01*
X210163972Y-134324698D01*
X210039490Y-134312438D01*
X208040510Y-134312438D01*
X207916028Y-134324698D01*
X207796330Y-134361008D01*
X207686016Y-134419973D01*
X207589325Y-134499325D01*
X207509973Y-134596016D01*
X207451008Y-134706330D01*
X207414698Y-134826028D01*
X207402438Y-134950510D01*
X200685000Y-134950510D01*
X200685000Y-133163137D01*
X218155000Y-133163137D01*
X218155000Y-133376863D01*
X218196696Y-133586483D01*
X218278485Y-133783940D01*
X218397225Y-133961647D01*
X218548353Y-134112775D01*
X218726060Y-134231515D01*
X218923517Y-134313304D01*
X219133137Y-134355000D01*
X219346863Y-134355000D01*
X219556483Y-134313304D01*
X219753940Y-134231515D01*
X219931647Y-134112775D01*
X220082775Y-133961647D01*
X220201515Y-133783940D01*
X220283304Y-133586483D01*
X220313806Y-133433137D01*
X240815000Y-133433137D01*
X240815000Y-133646863D01*
X240856696Y-133856483D01*
X240938485Y-134053940D01*
X241057225Y-134231647D01*
X241208353Y-134382775D01*
X241386060Y-134501515D01*
X241583517Y-134583304D01*
X241793137Y-134625000D01*
X242006863Y-134625000D01*
X242216483Y-134583304D01*
X242413940Y-134501515D01*
X242591647Y-134382775D01*
X242742775Y-134231647D01*
X242861515Y-134053940D01*
X242943304Y-133856483D01*
X242985000Y-133646863D01*
X242985000Y-133481392D01*
X242994087Y-133470320D01*
X243024146Y-133414084D01*
X243062337Y-133342634D01*
X243104365Y-133204085D01*
X243118556Y-133060000D01*
X243115000Y-133023895D01*
X243115000Y-103777216D01*
X243286060Y-103891515D01*
X243483517Y-103973304D01*
X243693137Y-104015000D01*
X243845554Y-104015000D01*
X245393066Y-105562512D01*
X245297225Y-105658353D01*
X245178485Y-105836060D01*
X245096696Y-106033517D01*
X245055000Y-106243137D01*
X245055000Y-106456863D01*
X245096696Y-106666483D01*
X245178485Y-106863940D01*
X245297225Y-107041647D01*
X245448353Y-107192775D01*
X245626060Y-107311515D01*
X245823517Y-107393304D01*
X246033137Y-107435000D01*
X246246863Y-107435000D01*
X246427761Y-107399017D01*
X248335510Y-107399017D01*
X248335510Y-107720983D01*
X248398322Y-108036763D01*
X248521533Y-108334222D01*
X248700408Y-108601927D01*
X248928073Y-108829592D01*
X249195778Y-109008467D01*
X249493237Y-109131678D01*
X249809017Y-109194490D01*
X250130983Y-109194490D01*
X250446763Y-109131678D01*
X250744222Y-109008467D01*
X251011927Y-108829592D01*
X251239592Y-108601927D01*
X251418467Y-108334222D01*
X251541678Y-108036763D01*
X251604490Y-107720983D01*
X251604490Y-107399017D01*
X251541678Y-107083237D01*
X251418467Y-106785778D01*
X251239592Y-106518073D01*
X251011927Y-106290408D01*
X250744222Y-106111533D01*
X250446763Y-105988322D01*
X250130983Y-105925510D01*
X249809017Y-105925510D01*
X249493237Y-105988322D01*
X249195778Y-106111533D01*
X248928073Y-106290408D01*
X248700408Y-106518073D01*
X248521533Y-106785778D01*
X248398322Y-107083237D01*
X248335510Y-107399017D01*
X246427761Y-107399017D01*
X246456483Y-107393304D01*
X246653940Y-107311515D01*
X246831647Y-107192775D01*
X246982775Y-107041647D01*
X247101515Y-106863940D01*
X247183304Y-106666483D01*
X247225000Y-106456863D01*
X247225000Y-106243137D01*
X247183304Y-106033517D01*
X247101515Y-105836060D01*
X246982775Y-105658353D01*
X246875000Y-105550578D01*
X246875000Y-105306105D01*
X246878556Y-105270000D01*
X246864365Y-105125915D01*
X246822337Y-104987366D01*
X246754087Y-104859680D01*
X246685253Y-104775806D01*
X246685250Y-104775803D01*
X246662237Y-104747762D01*
X246634197Y-104724750D01*
X244885000Y-102975554D01*
X244885000Y-102883137D01*
X254035000Y-102883137D01*
X254035000Y-103096863D01*
X254076696Y-103306483D01*
X254158485Y-103503940D01*
X254277225Y-103681647D01*
X254385001Y-103789423D01*
X254385000Y-115653895D01*
X254381444Y-115690000D01*
X254395635Y-115834085D01*
X254400003Y-115848485D01*
X254437663Y-115972632D01*
X254505913Y-116100319D01*
X254597762Y-116212237D01*
X254625808Y-116235254D01*
X254815000Y-116424446D01*
X254815000Y-116576863D01*
X254856696Y-116786483D01*
X254938485Y-116983940D01*
X255057225Y-117161647D01*
X255208353Y-117312775D01*
X255386060Y-117431515D01*
X255583517Y-117513304D01*
X255793137Y-117555000D01*
X256006863Y-117555000D01*
X256216483Y-117513304D01*
X256413940Y-117431515D01*
X256591647Y-117312775D01*
X256742775Y-117161647D01*
X256861515Y-116983940D01*
X256943304Y-116786483D01*
X256985000Y-116576863D01*
X256985000Y-116363137D01*
X256943304Y-116153517D01*
X256861515Y-115956060D01*
X256742775Y-115778353D01*
X256591647Y-115627225D01*
X256413940Y-115508485D01*
X256216483Y-115426696D01*
X256006863Y-115385000D01*
X255855000Y-115385000D01*
X255855000Y-103789422D01*
X255962775Y-103681647D01*
X256081515Y-103503940D01*
X256163304Y-103306483D01*
X256205000Y-103096863D01*
X256205000Y-102883137D01*
X256163304Y-102673517D01*
X256081515Y-102476060D01*
X255962775Y-102298353D01*
X255811647Y-102147225D01*
X255633940Y-102028485D01*
X255436483Y-101946696D01*
X255226863Y-101905000D01*
X255013137Y-101905000D01*
X254803517Y-101946696D01*
X254606060Y-102028485D01*
X254428353Y-102147225D01*
X254277225Y-102298353D01*
X254158485Y-102476060D01*
X254076696Y-102673517D01*
X254035000Y-102883137D01*
X244885000Y-102883137D01*
X244885000Y-102823137D01*
X244843304Y-102613517D01*
X244761515Y-102416060D01*
X244642775Y-102238353D01*
X244491647Y-102087225D01*
X244313940Y-101968485D01*
X244116483Y-101886696D01*
X243906863Y-101845000D01*
X243693137Y-101845000D01*
X243483517Y-101886696D01*
X243375727Y-101931344D01*
X243423304Y-101816483D01*
X243465000Y-101606863D01*
X243465000Y-101393137D01*
X243423304Y-101183517D01*
X243341515Y-100986060D01*
X243222775Y-100808353D01*
X243071647Y-100657225D01*
X242893940Y-100538485D01*
X242696483Y-100456696D01*
X242486863Y-100415000D01*
X242273137Y-100415000D01*
X242063517Y-100456696D01*
X241866060Y-100538485D01*
X241688353Y-100657225D01*
X241537225Y-100808353D01*
X241418485Y-100986060D01*
X241336696Y-101183517D01*
X241295000Y-101393137D01*
X241295000Y-101606863D01*
X241336696Y-101816483D01*
X241418485Y-102013940D01*
X241537225Y-102191647D01*
X241645001Y-102299423D01*
X241645000Y-132484466D01*
X241583517Y-132496696D01*
X241386060Y-132578485D01*
X241208353Y-132697225D01*
X241057225Y-132848353D01*
X240938485Y-133026060D01*
X240856696Y-133223517D01*
X240815000Y-133433137D01*
X220313806Y-133433137D01*
X220325000Y-133376863D01*
X220325000Y-133163137D01*
X220283304Y-132953517D01*
X220201515Y-132756060D01*
X220082775Y-132578353D01*
X219975000Y-132470578D01*
X219975000Y-124254446D01*
X220524447Y-123705000D01*
X220676863Y-123705000D01*
X220886483Y-123663304D01*
X221083940Y-123581515D01*
X221261647Y-123462775D01*
X221412775Y-123311647D01*
X221531515Y-123133940D01*
X221613304Y-122936483D01*
X221655000Y-122726863D01*
X221655000Y-122513137D01*
X221613304Y-122303517D01*
X221531515Y-122106060D01*
X221412775Y-121928353D01*
X221305000Y-121820578D01*
X221305000Y-115639422D01*
X221342775Y-115601647D01*
X221461515Y-115423940D01*
X221543304Y-115226483D01*
X221585000Y-115016863D01*
X221585000Y-114803137D01*
X221543304Y-114593517D01*
X221461515Y-114396060D01*
X221342775Y-114218353D01*
X221191647Y-114067225D01*
X221013940Y-113948485D01*
X220816483Y-113866696D01*
X220606863Y-113825000D01*
X220393137Y-113825000D01*
X220183517Y-113866696D01*
X219986060Y-113948485D01*
X219808353Y-114067225D01*
X219657225Y-114218353D01*
X219538485Y-114396060D01*
X219456696Y-114593517D01*
X219415000Y-114803137D01*
X219415000Y-115016863D01*
X219456696Y-115226483D01*
X219538485Y-115423940D01*
X219657225Y-115601647D01*
X219808353Y-115752775D01*
X219835001Y-115770581D01*
X219835000Y-121820578D01*
X219727225Y-121928353D01*
X219608485Y-122106060D01*
X219526696Y-122303517D01*
X219485000Y-122513137D01*
X219485000Y-122665553D01*
X218745808Y-123404746D01*
X218717763Y-123427762D01*
X218625914Y-123539680D01*
X218603553Y-123581515D01*
X218557664Y-123667367D01*
X218515635Y-123805915D01*
X218501444Y-123950000D01*
X218505001Y-123986115D01*
X218505000Y-132470578D01*
X218397225Y-132578353D01*
X218278485Y-132756060D01*
X218196696Y-132953517D01*
X218155000Y-133163137D01*
X200685000Y-133163137D01*
X200685000Y-118633137D01*
X205375000Y-118633137D01*
X205375000Y-118846863D01*
X205416696Y-119056483D01*
X205498485Y-119253940D01*
X205617225Y-119431647D01*
X205725001Y-119539423D01*
X205725000Y-127243895D01*
X205721444Y-127280000D01*
X205725000Y-127316104D01*
X205735635Y-127424084D01*
X205777663Y-127562632D01*
X205845913Y-127690319D01*
X205937762Y-127802237D01*
X205965808Y-127825254D01*
X206615000Y-128474447D01*
X206615000Y-128626863D01*
X206656696Y-128836483D01*
X206738485Y-129033940D01*
X206857225Y-129211647D01*
X207008353Y-129362775D01*
X207186060Y-129481515D01*
X207383517Y-129563304D01*
X207593137Y-129605000D01*
X207806863Y-129605000D01*
X208016483Y-129563304D01*
X208213940Y-129481515D01*
X208391647Y-129362775D01*
X208542775Y-129211647D01*
X208661515Y-129033940D01*
X208743304Y-128836483D01*
X208785000Y-128626863D01*
X208785000Y-128413137D01*
X208743304Y-128203517D01*
X208661515Y-128006060D01*
X208542775Y-127828353D01*
X208391647Y-127677225D01*
X208213940Y-127558485D01*
X208016483Y-127476696D01*
X207806863Y-127435000D01*
X207654447Y-127435000D01*
X207195000Y-126975554D01*
X207195000Y-119539422D01*
X207302775Y-119431647D01*
X207421515Y-119253940D01*
X207503304Y-119056483D01*
X207545000Y-118846863D01*
X207545000Y-118633137D01*
X207503304Y-118423517D01*
X207421515Y-118226060D01*
X207302775Y-118048353D01*
X207151647Y-117897225D01*
X206973940Y-117778485D01*
X206776483Y-117696696D01*
X206566863Y-117655000D01*
X206353137Y-117655000D01*
X206143517Y-117696696D01*
X205946060Y-117778485D01*
X205768353Y-117897225D01*
X205617225Y-118048353D01*
X205498485Y-118226060D01*
X205416696Y-118423517D01*
X205375000Y-118633137D01*
X200685000Y-118633137D01*
X200685000Y-97304495D01*
X201515000Y-97304495D01*
X201515000Y-97695505D01*
X201591282Y-98079003D01*
X201740915Y-98440250D01*
X201958149Y-98765364D01*
X202234636Y-99041851D01*
X202559750Y-99259085D01*
X202920997Y-99408718D01*
X203304495Y-99485000D01*
X203695505Y-99485000D01*
X204079003Y-99408718D01*
X204440250Y-99259085D01*
X204765364Y-99041851D01*
X205041851Y-98765364D01*
X205259085Y-98440250D01*
X205408718Y-98079003D01*
X205485000Y-97695505D01*
X205485000Y-97304495D01*
X205408718Y-96920997D01*
X205259085Y-96559750D01*
X205041851Y-96234636D01*
X205037215Y-96230000D01*
X206877815Y-96230000D01*
X206906487Y-96521111D01*
X206991401Y-96801034D01*
X207129294Y-97059014D01*
X207314866Y-97285134D01*
X207344687Y-97309607D01*
X207275820Y-97330498D01*
X207165506Y-97389463D01*
X207068815Y-97468815D01*
X206989463Y-97565506D01*
X206930498Y-97675820D01*
X206894188Y-97795518D01*
X206881928Y-97920000D01*
X206881928Y-99620000D01*
X206894188Y-99744482D01*
X206930498Y-99864180D01*
X206989463Y-99974494D01*
X207068815Y-100071185D01*
X207165506Y-100150537D01*
X207275820Y-100209502D01*
X207395518Y-100245812D01*
X207520000Y-100258072D01*
X207635000Y-100258072D01*
X207635001Y-104953885D01*
X207631444Y-104990000D01*
X207645635Y-105134085D01*
X207667469Y-105206060D01*
X207687664Y-105272633D01*
X207755914Y-105400320D01*
X207841928Y-105505128D01*
X207841928Y-106025000D01*
X207858512Y-106193377D01*
X207907625Y-106355283D01*
X207987382Y-106504497D01*
X208094716Y-106635284D01*
X208195000Y-106717585D01*
X208195001Y-109462415D01*
X208094716Y-109544716D01*
X207987382Y-109675503D01*
X207907625Y-109824717D01*
X207858512Y-109986623D01*
X207841928Y-110155000D01*
X207841928Y-111105000D01*
X207858512Y-111273377D01*
X207907625Y-111435283D01*
X207987382Y-111584497D01*
X208094716Y-111715284D01*
X208135001Y-111748345D01*
X208135000Y-114230578D01*
X208027225Y-114338353D01*
X207908485Y-114516060D01*
X207826696Y-114713517D01*
X207785000Y-114923137D01*
X207785000Y-115136863D01*
X207826696Y-115346483D01*
X207908485Y-115543940D01*
X208027225Y-115721647D01*
X208135000Y-115829422D01*
X208135001Y-119580577D01*
X208127225Y-119588353D01*
X208008485Y-119766060D01*
X207926696Y-119963517D01*
X207885000Y-120173137D01*
X207885000Y-120386863D01*
X207926696Y-120596483D01*
X208008485Y-120793940D01*
X208127225Y-120971647D01*
X208278353Y-121122775D01*
X208456060Y-121241515D01*
X208653517Y-121323304D01*
X208863137Y-121365000D01*
X209076863Y-121365000D01*
X209286483Y-121323304D01*
X209483940Y-121241515D01*
X209661647Y-121122775D01*
X209812775Y-120971647D01*
X209931515Y-120793940D01*
X210013304Y-120596483D01*
X210055000Y-120386863D01*
X210055000Y-120173137D01*
X210013304Y-119963517D01*
X209931515Y-119766060D01*
X209812775Y-119588353D01*
X209661647Y-119437225D01*
X209605000Y-119399375D01*
X209605000Y-118787683D01*
X209616696Y-118846483D01*
X209698485Y-119043940D01*
X209817225Y-119221647D01*
X209968353Y-119372775D01*
X210146060Y-119491515D01*
X210343517Y-119573304D01*
X210553137Y-119615000D01*
X210766863Y-119615000D01*
X210976483Y-119573304D01*
X211173940Y-119491515D01*
X211351647Y-119372775D01*
X211502775Y-119221647D01*
X211621515Y-119043940D01*
X211703304Y-118846483D01*
X211745000Y-118636863D01*
X211745000Y-118423137D01*
X211703304Y-118213517D01*
X211621515Y-118016060D01*
X211522586Y-117868003D01*
X211596483Y-117853304D01*
X211793940Y-117771515D01*
X211971647Y-117652775D01*
X212122775Y-117501647D01*
X212241515Y-117323940D01*
X212323304Y-117126483D01*
X212365000Y-116916863D01*
X212365000Y-116703137D01*
X212323304Y-116493517D01*
X212241515Y-116296060D01*
X212165000Y-116181547D01*
X212165000Y-115390673D01*
X212228485Y-115543940D01*
X212347225Y-115721647D01*
X212455001Y-115829423D01*
X212455000Y-117330578D01*
X212347225Y-117438353D01*
X212228485Y-117616060D01*
X212146696Y-117813517D01*
X212105000Y-118023137D01*
X212105000Y-118236863D01*
X212146696Y-118446483D01*
X212228485Y-118643940D01*
X212347225Y-118821647D01*
X212498353Y-118972775D01*
X212676060Y-119091515D01*
X212873517Y-119173304D01*
X213083137Y-119215000D01*
X213296863Y-119215000D01*
X213506483Y-119173304D01*
X213703940Y-119091515D01*
X213881647Y-118972775D01*
X214032775Y-118821647D01*
X214151515Y-118643940D01*
X214233304Y-118446483D01*
X214275000Y-118236863D01*
X214275000Y-118023137D01*
X214233304Y-117813517D01*
X214151515Y-117616060D01*
X214032775Y-117438353D01*
X213925000Y-117330578D01*
X213925000Y-115829422D01*
X214032775Y-115721647D01*
X214151515Y-115543940D01*
X214233304Y-115346483D01*
X214275000Y-115136863D01*
X214275000Y-114923137D01*
X214233304Y-114713517D01*
X214151515Y-114516060D01*
X214032775Y-114338353D01*
X213881647Y-114187225D01*
X213703940Y-114068485D01*
X213506483Y-113986696D01*
X213296863Y-113945000D01*
X213083137Y-113945000D01*
X212873517Y-113986696D01*
X212676060Y-114068485D01*
X212498353Y-114187225D01*
X212347225Y-114338353D01*
X212228485Y-114516060D01*
X212165000Y-114669327D01*
X212165000Y-111846142D01*
X212305437Y-111913279D01*
X212385999Y-111924408D01*
X212553000Y-111797502D01*
X212553000Y-110757000D01*
X212807000Y-110757000D01*
X212807000Y-111797502D01*
X212974001Y-111924408D01*
X213054563Y-111913279D01*
X213248949Y-111820351D01*
X213421470Y-111691286D01*
X213565497Y-111531044D01*
X213675495Y-111345782D01*
X213747236Y-111142621D01*
X213777964Y-110929367D01*
X213613419Y-110757000D01*
X212807000Y-110757000D01*
X212553000Y-110757000D01*
X212533000Y-110757000D01*
X212533000Y-110503000D01*
X212553000Y-110503000D01*
X212553000Y-109462498D01*
X212807000Y-109462498D01*
X212807000Y-110503000D01*
X213613419Y-110503000D01*
X213777964Y-110330633D01*
X213747236Y-110117379D01*
X213675495Y-109914218D01*
X213565497Y-109728956D01*
X213421470Y-109568714D01*
X213248949Y-109439649D01*
X213054563Y-109346721D01*
X212974001Y-109335592D01*
X212807000Y-109462498D01*
X212553000Y-109462498D01*
X212385999Y-109335592D01*
X212305437Y-109346721D01*
X212165000Y-109413858D01*
X212165000Y-106766142D01*
X212305437Y-106833279D01*
X212385999Y-106844408D01*
X212553000Y-106717502D01*
X212553000Y-105677000D01*
X212807000Y-105677000D01*
X212807000Y-106717502D01*
X212974001Y-106844408D01*
X213054563Y-106833279D01*
X213248949Y-106740351D01*
X213421470Y-106611286D01*
X213565497Y-106451044D01*
X213675495Y-106265782D01*
X213747236Y-106062621D01*
X213777964Y-105849367D01*
X213613419Y-105677000D01*
X212807000Y-105677000D01*
X212553000Y-105677000D01*
X212533000Y-105677000D01*
X212533000Y-105423000D01*
X212553000Y-105423000D01*
X212553000Y-104382498D01*
X212807000Y-104382498D01*
X212807000Y-105423000D01*
X213613419Y-105423000D01*
X213777964Y-105250633D01*
X213747236Y-105037379D01*
X213675495Y-104834218D01*
X213565497Y-104648956D01*
X213421470Y-104488714D01*
X213320447Y-104413137D01*
X221455000Y-104413137D01*
X221455000Y-104626863D01*
X221496696Y-104836483D01*
X221578485Y-105033940D01*
X221697225Y-105211647D01*
X221848353Y-105362775D01*
X222026060Y-105481515D01*
X222223517Y-105563304D01*
X222433137Y-105605000D01*
X222646863Y-105605000D01*
X222856483Y-105563304D01*
X223053940Y-105481515D01*
X223231647Y-105362775D01*
X223382775Y-105211647D01*
X223501515Y-105033940D01*
X223583304Y-104836483D01*
X223625000Y-104626863D01*
X223625000Y-104413137D01*
X223583304Y-104203517D01*
X223501515Y-104006060D01*
X223382775Y-103828353D01*
X223275000Y-103720578D01*
X223275000Y-102023898D01*
X223291647Y-102012775D01*
X223442775Y-101861647D01*
X223561515Y-101683940D01*
X223643304Y-101486483D01*
X223685000Y-101276863D01*
X223685000Y-101063137D01*
X223643304Y-100853517D01*
X223561515Y-100656060D01*
X223442775Y-100478353D01*
X223291647Y-100327225D01*
X223113940Y-100208485D01*
X222916483Y-100126696D01*
X222706863Y-100085000D01*
X222493137Y-100085000D01*
X222283517Y-100126696D01*
X222086060Y-100208485D01*
X221908353Y-100327225D01*
X221757225Y-100478353D01*
X221638485Y-100656060D01*
X221556696Y-100853517D01*
X221515000Y-101063137D01*
X221515000Y-101276863D01*
X221556696Y-101486483D01*
X221638485Y-101683940D01*
X221757225Y-101861647D01*
X221805001Y-101909423D01*
X221805000Y-103720578D01*
X221697225Y-103828353D01*
X221578485Y-104006060D01*
X221496696Y-104203517D01*
X221455000Y-104413137D01*
X213320447Y-104413137D01*
X213248949Y-104359649D01*
X213054563Y-104266721D01*
X212974001Y-104255592D01*
X212807000Y-104382498D01*
X212553000Y-104382498D01*
X212385999Y-104255592D01*
X212305437Y-104266721D01*
X212165000Y-104333858D01*
X212165000Y-102119422D01*
X212272775Y-102011647D01*
X212391515Y-101833940D01*
X212473304Y-101636483D01*
X212515000Y-101426863D01*
X212515000Y-101213137D01*
X212473304Y-101003517D01*
X212409637Y-100849810D01*
X213056878Y-100202568D01*
X213158889Y-100233513D01*
X213377050Y-100255000D01*
X213522950Y-100255000D01*
X213741111Y-100233513D01*
X214021034Y-100148599D01*
X214279014Y-100010706D01*
X214505134Y-99825134D01*
X214690706Y-99599014D01*
X214720000Y-99544209D01*
X214749294Y-99599014D01*
X214934866Y-99825134D01*
X215160986Y-100010706D01*
X215418966Y-100148599D01*
X215698889Y-100233513D01*
X215917050Y-100255000D01*
X216062950Y-100255000D01*
X216281111Y-100233513D01*
X216561034Y-100148599D01*
X216819014Y-100010706D01*
X217045134Y-99825134D01*
X217230706Y-99599014D01*
X217265201Y-99534477D01*
X217334822Y-99651355D01*
X217529731Y-99867588D01*
X217763080Y-100041641D01*
X218025901Y-100166825D01*
X218173110Y-100211476D01*
X218403000Y-100090155D01*
X218403000Y-98897000D01*
X218383000Y-98897000D01*
X218383000Y-98643000D01*
X218403000Y-98643000D01*
X218403000Y-98623000D01*
X218657000Y-98623000D01*
X218657000Y-98643000D01*
X218677000Y-98643000D01*
X218677000Y-98897000D01*
X218657000Y-98897000D01*
X218657000Y-100090155D01*
X218886890Y-100211476D01*
X219034099Y-100166825D01*
X219296920Y-100041641D01*
X219530269Y-99867588D01*
X219725178Y-99651355D01*
X219794799Y-99534477D01*
X219829294Y-99599014D01*
X220014866Y-99825134D01*
X220240986Y-100010706D01*
X220498966Y-100148599D01*
X220778889Y-100233513D01*
X220997050Y-100255000D01*
X221142950Y-100255000D01*
X221361111Y-100233513D01*
X221641034Y-100148599D01*
X221899014Y-100010706D01*
X222125134Y-99825134D01*
X222310706Y-99599014D01*
X222340000Y-99544209D01*
X222369294Y-99599014D01*
X222554866Y-99825134D01*
X222780986Y-100010706D01*
X223038966Y-100148599D01*
X223318889Y-100233513D01*
X223537050Y-100255000D01*
X223682950Y-100255000D01*
X223901111Y-100233513D01*
X224181034Y-100148599D01*
X224439014Y-100010706D01*
X224665134Y-99825134D01*
X224850706Y-99599014D01*
X224880000Y-99544209D01*
X224909294Y-99599014D01*
X225094866Y-99825134D01*
X225320986Y-100010706D01*
X225578966Y-100148599D01*
X225858889Y-100233513D01*
X226077050Y-100255000D01*
X226222950Y-100255000D01*
X226441111Y-100233513D01*
X226721034Y-100148599D01*
X226979014Y-100010706D01*
X227205134Y-99825134D01*
X227390706Y-99599014D01*
X227420000Y-99544209D01*
X227449294Y-99599014D01*
X227634866Y-99825134D01*
X227860986Y-100010706D01*
X227955000Y-100060958D01*
X227955001Y-104190577D01*
X227847225Y-104298353D01*
X227728485Y-104476060D01*
X227646696Y-104673517D01*
X227605000Y-104883137D01*
X227605000Y-105096863D01*
X227646696Y-105306483D01*
X227728485Y-105503940D01*
X227847225Y-105681647D01*
X227955000Y-105789422D01*
X227955001Y-106380577D01*
X227847225Y-106488353D01*
X227728485Y-106666060D01*
X227646696Y-106863517D01*
X227605000Y-107073137D01*
X227605000Y-107286863D01*
X227646696Y-107496483D01*
X227728485Y-107693940D01*
X227847225Y-107871647D01*
X227875578Y-107900000D01*
X227847225Y-107928353D01*
X227728485Y-108106060D01*
X227646696Y-108303517D01*
X227605000Y-108513137D01*
X227605000Y-108726863D01*
X227646696Y-108936483D01*
X227728485Y-109133940D01*
X227847225Y-109311647D01*
X227955001Y-109419423D01*
X227955001Y-109603887D01*
X227955000Y-109603896D01*
X227955001Y-110980577D01*
X227847225Y-111088353D01*
X227728485Y-111266060D01*
X227646696Y-111463517D01*
X227605000Y-111673137D01*
X227605000Y-111886863D01*
X227646696Y-112096483D01*
X227728485Y-112293940D01*
X227847225Y-112471647D01*
X227955000Y-112579422D01*
X227955001Y-112900577D01*
X227847225Y-113008353D01*
X227728485Y-113186060D01*
X227646696Y-113383517D01*
X227605000Y-113593137D01*
X227605000Y-113806863D01*
X227646696Y-114016483D01*
X227728485Y-114213940D01*
X227847225Y-114391647D01*
X227955000Y-114499422D01*
X227955001Y-115780577D01*
X227847225Y-115888353D01*
X227728485Y-116066060D01*
X227646696Y-116263517D01*
X227605000Y-116473137D01*
X227605000Y-116686863D01*
X227646696Y-116896483D01*
X227728485Y-117093940D01*
X227847225Y-117271647D01*
X227955000Y-117379422D01*
X227955001Y-121746056D01*
X227908353Y-121777225D01*
X227757225Y-121928353D01*
X227638485Y-122106060D01*
X227556696Y-122303517D01*
X227515000Y-122513137D01*
X227515000Y-122726863D01*
X227556696Y-122936483D01*
X227638485Y-123133940D01*
X227757225Y-123311647D01*
X227908353Y-123462775D01*
X228086060Y-123581515D01*
X228283517Y-123663304D01*
X228493137Y-123705000D01*
X228706863Y-123705000D01*
X228916483Y-123663304D01*
X229113940Y-123581515D01*
X229291647Y-123462775D01*
X229442775Y-123311647D01*
X229561515Y-123133940D01*
X229643304Y-122936483D01*
X229685000Y-122726863D01*
X229685000Y-122513137D01*
X229643304Y-122303517D01*
X229561515Y-122106060D01*
X229442775Y-121928353D01*
X229425000Y-121910578D01*
X229425000Y-117379422D01*
X229532775Y-117271647D01*
X229651515Y-117093940D01*
X229733304Y-116896483D01*
X229775000Y-116686863D01*
X229775000Y-116473137D01*
X229733304Y-116263517D01*
X229651515Y-116066060D01*
X229532775Y-115888353D01*
X229425000Y-115780578D01*
X229425000Y-114499422D01*
X229532775Y-114391647D01*
X229651515Y-114213940D01*
X229733304Y-114016483D01*
X229775000Y-113806863D01*
X229775000Y-113593137D01*
X229733304Y-113383517D01*
X229651515Y-113186060D01*
X229532775Y-113008353D01*
X229425000Y-112900578D01*
X229425000Y-112579422D01*
X229532775Y-112471647D01*
X229651515Y-112293940D01*
X229733304Y-112096483D01*
X229775000Y-111886863D01*
X229775000Y-111673137D01*
X229733304Y-111463517D01*
X229651515Y-111266060D01*
X229532775Y-111088353D01*
X229425000Y-110980578D01*
X229425000Y-109419422D01*
X229532775Y-109311647D01*
X229651515Y-109133940D01*
X229733304Y-108936483D01*
X229775000Y-108726863D01*
X229775000Y-108513137D01*
X229733304Y-108303517D01*
X229651515Y-108106060D01*
X229532775Y-107928353D01*
X229504422Y-107900000D01*
X229532775Y-107871647D01*
X229651515Y-107693940D01*
X229733304Y-107496483D01*
X229775000Y-107286863D01*
X229775000Y-107073137D01*
X229733304Y-106863517D01*
X229651515Y-106666060D01*
X229532775Y-106488353D01*
X229425000Y-106380578D01*
X229425000Y-105789422D01*
X229532775Y-105681647D01*
X229651515Y-105503940D01*
X229733304Y-105306483D01*
X229775000Y-105096863D01*
X229775000Y-104883137D01*
X229733304Y-104673517D01*
X229651515Y-104476060D01*
X229532775Y-104298353D01*
X229425000Y-104190578D01*
X229425000Y-100060957D01*
X229519014Y-100010706D01*
X229745134Y-99825134D01*
X229930706Y-99599014D01*
X229960000Y-99544209D01*
X229989294Y-99599014D01*
X230174866Y-99825134D01*
X230400986Y-100010706D01*
X230658966Y-100148599D01*
X230938889Y-100233513D01*
X231157050Y-100255000D01*
X231302950Y-100255000D01*
X231521111Y-100233513D01*
X231801034Y-100148599D01*
X232059014Y-100010706D01*
X232285134Y-99825134D01*
X232470706Y-99599014D01*
X232500000Y-99544209D01*
X232529294Y-99599014D01*
X232714866Y-99825134D01*
X232940986Y-100010706D01*
X233198966Y-100148599D01*
X233478889Y-100233513D01*
X233697050Y-100255000D01*
X233842950Y-100255000D01*
X234061111Y-100233513D01*
X234341034Y-100148599D01*
X234599014Y-100010706D01*
X234825134Y-99825134D01*
X235010706Y-99599014D01*
X235040000Y-99544209D01*
X235069294Y-99599014D01*
X235254866Y-99825134D01*
X235480986Y-100010706D01*
X235738966Y-100148599D01*
X235832291Y-100176909D01*
X235756060Y-100208485D01*
X235578353Y-100327225D01*
X235427225Y-100478353D01*
X235308485Y-100656060D01*
X235226696Y-100853517D01*
X235185000Y-101063137D01*
X235185000Y-101276863D01*
X235204668Y-101375738D01*
X235191444Y-101510000D01*
X235195001Y-101546115D01*
X235195000Y-104060578D01*
X235087225Y-104168353D01*
X234968485Y-104346060D01*
X234886696Y-104543517D01*
X234845000Y-104753137D01*
X234845000Y-104966863D01*
X234886696Y-105176483D01*
X234968485Y-105373940D01*
X235087225Y-105551647D01*
X235238353Y-105702775D01*
X235416060Y-105821515D01*
X235613517Y-105903304D01*
X235620821Y-105904757D01*
X235587225Y-105938353D01*
X235468485Y-106116060D01*
X235386696Y-106313517D01*
X235345000Y-106523137D01*
X235345000Y-106736863D01*
X235386696Y-106946483D01*
X235468485Y-107143940D01*
X235587225Y-107321647D01*
X235605001Y-107339423D01*
X235605000Y-110230578D01*
X235497225Y-110338353D01*
X235378485Y-110516060D01*
X235296696Y-110713517D01*
X235255000Y-110923137D01*
X235255000Y-111136863D01*
X235296696Y-111346483D01*
X235378485Y-111543940D01*
X235497225Y-111721647D01*
X235648353Y-111872775D01*
X235826060Y-111991515D01*
X236023517Y-112073304D01*
X236233137Y-112115000D01*
X236446863Y-112115000D01*
X236656483Y-112073304D01*
X236675840Y-112065286D01*
X238215000Y-113604447D01*
X238215000Y-113756863D01*
X238256696Y-113966483D01*
X238338485Y-114163940D01*
X238457225Y-114341647D01*
X238608353Y-114492775D01*
X238786060Y-114611515D01*
X238983517Y-114693304D01*
X239193137Y-114735000D01*
X239406863Y-114735000D01*
X239616483Y-114693304D01*
X239813940Y-114611515D01*
X239991647Y-114492775D01*
X240142775Y-114341647D01*
X240261515Y-114163940D01*
X240343304Y-113966483D01*
X240385000Y-113756863D01*
X240385000Y-113543137D01*
X240343304Y-113333517D01*
X240261515Y-113136060D01*
X240142775Y-112958353D01*
X240136990Y-112952568D01*
X240151647Y-112942775D01*
X240302775Y-112791647D01*
X240421515Y-112613940D01*
X240503304Y-112416483D01*
X240545000Y-112206863D01*
X240545000Y-111993137D01*
X240503304Y-111783517D01*
X240421515Y-111586060D01*
X240302775Y-111408353D01*
X240195000Y-111300578D01*
X240195000Y-108519422D01*
X240302775Y-108411647D01*
X240421515Y-108233940D01*
X240503304Y-108036483D01*
X240545000Y-107826863D01*
X240545000Y-107613137D01*
X240503304Y-107403517D01*
X240421515Y-107206060D01*
X240302775Y-107028353D01*
X240195000Y-106920578D01*
X240195000Y-106573898D01*
X240211647Y-106562775D01*
X240362775Y-106411647D01*
X240481515Y-106233940D01*
X240563304Y-106036483D01*
X240605000Y-105826863D01*
X240605000Y-105613137D01*
X240563304Y-105403517D01*
X240481515Y-105206060D01*
X240362775Y-105028353D01*
X240211647Y-104877225D01*
X240033940Y-104758485D01*
X239836483Y-104676696D01*
X239626863Y-104635000D01*
X239413137Y-104635000D01*
X239203517Y-104676696D01*
X239006060Y-104758485D01*
X238828353Y-104877225D01*
X238677225Y-105028353D01*
X238558485Y-105206060D01*
X238476696Y-105403517D01*
X238475000Y-105412043D01*
X238475000Y-104167262D01*
X238511647Y-104142775D01*
X238662775Y-103991647D01*
X238781515Y-103813940D01*
X238863304Y-103616483D01*
X238905000Y-103406863D01*
X238905000Y-103193137D01*
X238863304Y-102983517D01*
X238781515Y-102786060D01*
X238662775Y-102608353D01*
X238511647Y-102457225D01*
X238333940Y-102338485D01*
X238136483Y-102256696D01*
X237926863Y-102215000D01*
X237713137Y-102215000D01*
X237503517Y-102256696D01*
X237306060Y-102338485D01*
X237128353Y-102457225D01*
X236977225Y-102608353D01*
X236858485Y-102786060D01*
X236776696Y-102983517D01*
X236735000Y-103193137D01*
X236735000Y-103406863D01*
X236776696Y-103616483D01*
X236858485Y-103813940D01*
X236977225Y-103991647D01*
X237005001Y-104019423D01*
X237005001Y-104702867D01*
X236973304Y-104543517D01*
X236891515Y-104346060D01*
X236772775Y-104168353D01*
X236665000Y-104060578D01*
X236665000Y-102180781D01*
X236783940Y-102131515D01*
X236961647Y-102012775D01*
X237112775Y-101861647D01*
X237231515Y-101683940D01*
X237313304Y-101486483D01*
X237355000Y-101276863D01*
X237355000Y-101063137D01*
X237313304Y-100853517D01*
X237231515Y-100656060D01*
X237112775Y-100478353D01*
X236961647Y-100327225D01*
X236783940Y-100208485D01*
X236741529Y-100190918D01*
X236881034Y-100148599D01*
X237139014Y-100010706D01*
X237365134Y-99825134D01*
X237550706Y-99599014D01*
X237585201Y-99534477D01*
X237654822Y-99651355D01*
X237849731Y-99867588D01*
X238083080Y-100041641D01*
X238345901Y-100166825D01*
X238493110Y-100211476D01*
X238723000Y-100090155D01*
X238723000Y-98897000D01*
X238703000Y-98897000D01*
X238703000Y-98643000D01*
X238723000Y-98643000D01*
X238723000Y-98623000D01*
X238977000Y-98623000D01*
X238977000Y-98643000D01*
X238997000Y-98643000D01*
X238997000Y-98897000D01*
X238977000Y-98897000D01*
X238977000Y-100090155D01*
X239206890Y-100211476D01*
X239354099Y-100166825D01*
X239616920Y-100041641D01*
X239850269Y-99867588D01*
X240045178Y-99651355D01*
X240114799Y-99534477D01*
X240149294Y-99599014D01*
X240334866Y-99825134D01*
X240560986Y-100010706D01*
X240818966Y-100148599D01*
X241098889Y-100233513D01*
X241317050Y-100255000D01*
X241462950Y-100255000D01*
X241681111Y-100233513D01*
X241961034Y-100148599D01*
X242219014Y-100010706D01*
X242445134Y-99825134D01*
X242630706Y-99599014D01*
X242660000Y-99544209D01*
X242689294Y-99599014D01*
X242874866Y-99825134D01*
X243100986Y-100010706D01*
X243358966Y-100148599D01*
X243638889Y-100233513D01*
X243857050Y-100255000D01*
X244002950Y-100255000D01*
X244221111Y-100233513D01*
X244501034Y-100148599D01*
X244759014Y-100010706D01*
X244985134Y-99825134D01*
X245170706Y-99599014D01*
X245200000Y-99544209D01*
X245229294Y-99599014D01*
X245414866Y-99825134D01*
X245640986Y-100010706D01*
X245898966Y-100148599D01*
X246178889Y-100233513D01*
X246397050Y-100255000D01*
X246542950Y-100255000D01*
X246761111Y-100233513D01*
X247041034Y-100148599D01*
X247299014Y-100010706D01*
X247525134Y-99825134D01*
X247710706Y-99599014D01*
X247740000Y-99544209D01*
X247769294Y-99599014D01*
X247954866Y-99825134D01*
X248180986Y-100010706D01*
X248438966Y-100148599D01*
X248718889Y-100233513D01*
X248937050Y-100255000D01*
X249082950Y-100255000D01*
X249301111Y-100233513D01*
X249581034Y-100148599D01*
X249839014Y-100010706D01*
X250065134Y-99825134D01*
X250250706Y-99599014D01*
X250280000Y-99544209D01*
X250309294Y-99599014D01*
X250494866Y-99825134D01*
X250720986Y-100010706D01*
X250978966Y-100148599D01*
X251258889Y-100233513D01*
X251477050Y-100255000D01*
X251622950Y-100255000D01*
X251841111Y-100233513D01*
X252121034Y-100148599D01*
X252379014Y-100010706D01*
X252605134Y-99825134D01*
X252790706Y-99599014D01*
X252820000Y-99544209D01*
X252849294Y-99599014D01*
X253034866Y-99825134D01*
X253260986Y-100010706D01*
X253518966Y-100148599D01*
X253798889Y-100233513D01*
X254017050Y-100255000D01*
X254162950Y-100255000D01*
X254381111Y-100233513D01*
X254661034Y-100148599D01*
X254919014Y-100010706D01*
X255145134Y-99825134D01*
X255330706Y-99599014D01*
X255365201Y-99534477D01*
X255434822Y-99651355D01*
X255629731Y-99867588D01*
X255863080Y-100041641D01*
X256125901Y-100166825D01*
X256273110Y-100211476D01*
X256503000Y-100090155D01*
X256503000Y-98897000D01*
X256757000Y-98897000D01*
X256757000Y-100090155D01*
X256986890Y-100211476D01*
X257134099Y-100166825D01*
X257396920Y-100041641D01*
X257630269Y-99867588D01*
X257825178Y-99651355D01*
X257974157Y-99401252D01*
X258071481Y-99126891D01*
X257950814Y-98897000D01*
X256757000Y-98897000D01*
X256503000Y-98897000D01*
X256483000Y-98897000D01*
X256483000Y-98643000D01*
X256503000Y-98643000D01*
X256503000Y-98623000D01*
X256757000Y-98623000D01*
X256757000Y-98643000D01*
X257950814Y-98643000D01*
X258071481Y-98413109D01*
X257974157Y-98138748D01*
X257825178Y-97888645D01*
X257630269Y-97672412D01*
X257401244Y-97501584D01*
X257459014Y-97470706D01*
X257661542Y-97304495D01*
X259515000Y-97304495D01*
X259515000Y-97695505D01*
X259591282Y-98079003D01*
X259740915Y-98440250D01*
X259958149Y-98765364D01*
X260234636Y-99041851D01*
X260559750Y-99259085D01*
X260920997Y-99408718D01*
X261304495Y-99485000D01*
X261695505Y-99485000D01*
X262079003Y-99408718D01*
X262440250Y-99259085D01*
X262765364Y-99041851D01*
X263041851Y-98765364D01*
X263259085Y-98440250D01*
X263408718Y-98079003D01*
X263485000Y-97695505D01*
X263485000Y-97304495D01*
X263408718Y-96920997D01*
X263259085Y-96559750D01*
X263041851Y-96234636D01*
X262765364Y-95958149D01*
X262440250Y-95740915D01*
X262079003Y-95591282D01*
X261695505Y-95515000D01*
X261304495Y-95515000D01*
X260920997Y-95591282D01*
X260559750Y-95740915D01*
X260234636Y-95958149D01*
X259958149Y-96234636D01*
X259740915Y-96559750D01*
X259591282Y-96920997D01*
X259515000Y-97304495D01*
X257661542Y-97304495D01*
X257685134Y-97285134D01*
X257870706Y-97059014D01*
X258008599Y-96801034D01*
X258093513Y-96521111D01*
X258122185Y-96230000D01*
X258093513Y-95938889D01*
X258008599Y-95658966D01*
X257870706Y-95400986D01*
X257685134Y-95174866D01*
X257459014Y-94989294D01*
X257201034Y-94851401D01*
X256921111Y-94766487D01*
X256702950Y-94745000D01*
X256557050Y-94745000D01*
X256338889Y-94766487D01*
X256058966Y-94851401D01*
X255800986Y-94989294D01*
X255574866Y-95174866D01*
X255389294Y-95400986D01*
X255360000Y-95455791D01*
X255330706Y-95400986D01*
X255145134Y-95174866D01*
X254919014Y-94989294D01*
X254661034Y-94851401D01*
X254381111Y-94766487D01*
X254162950Y-94745000D01*
X254017050Y-94745000D01*
X253798889Y-94766487D01*
X253518966Y-94851401D01*
X253260986Y-94989294D01*
X253034866Y-95174866D01*
X252849294Y-95400986D01*
X252820000Y-95455791D01*
X252790706Y-95400986D01*
X252605134Y-95174866D01*
X252379014Y-94989294D01*
X252121034Y-94851401D01*
X251841111Y-94766487D01*
X251622950Y-94745000D01*
X251477050Y-94745000D01*
X251258889Y-94766487D01*
X250978966Y-94851401D01*
X250720986Y-94989294D01*
X250494866Y-95174866D01*
X250309294Y-95400986D01*
X250274799Y-95465523D01*
X250205178Y-95348645D01*
X250010269Y-95132412D01*
X249776920Y-94958359D01*
X249514099Y-94833175D01*
X249366890Y-94788524D01*
X249137000Y-94909845D01*
X249137000Y-96103000D01*
X249157000Y-96103000D01*
X249157000Y-96357000D01*
X249137000Y-96357000D01*
X249137000Y-96377000D01*
X248883000Y-96377000D01*
X248883000Y-96357000D01*
X248863000Y-96357000D01*
X248863000Y-96103000D01*
X248883000Y-96103000D01*
X248883000Y-94909845D01*
X248653110Y-94788524D01*
X248505901Y-94833175D01*
X248243080Y-94958359D01*
X248009731Y-95132412D01*
X247814822Y-95348645D01*
X247745201Y-95465523D01*
X247710706Y-95400986D01*
X247525134Y-95174866D01*
X247299014Y-94989294D01*
X247041034Y-94851401D01*
X246761111Y-94766487D01*
X246542950Y-94745000D01*
X246397050Y-94745000D01*
X246178889Y-94766487D01*
X245898966Y-94851401D01*
X245640986Y-94989294D01*
X245414866Y-95174866D01*
X245229294Y-95400986D01*
X245194799Y-95465523D01*
X245125178Y-95348645D01*
X244930269Y-95132412D01*
X244696920Y-94958359D01*
X244434099Y-94833175D01*
X244286890Y-94788524D01*
X244057000Y-94909845D01*
X244057000Y-96103000D01*
X244077000Y-96103000D01*
X244077000Y-96357000D01*
X244057000Y-96357000D01*
X244057000Y-96377000D01*
X243803000Y-96377000D01*
X243803000Y-96357000D01*
X243783000Y-96357000D01*
X243783000Y-96103000D01*
X243803000Y-96103000D01*
X243803000Y-94909845D01*
X243573110Y-94788524D01*
X243425901Y-94833175D01*
X243163080Y-94958359D01*
X242929731Y-95132412D01*
X242734822Y-95348645D01*
X242665201Y-95465523D01*
X242630706Y-95400986D01*
X242445134Y-95174866D01*
X242219014Y-94989294D01*
X241961034Y-94851401D01*
X241681111Y-94766487D01*
X241462950Y-94745000D01*
X241317050Y-94745000D01*
X241098889Y-94766487D01*
X240818966Y-94851401D01*
X240560986Y-94989294D01*
X240334866Y-95174866D01*
X240149294Y-95400986D01*
X240120000Y-95455791D01*
X240090706Y-95400986D01*
X239905134Y-95174866D01*
X239679014Y-94989294D01*
X239421034Y-94851401D01*
X239141111Y-94766487D01*
X238922950Y-94745000D01*
X238777050Y-94745000D01*
X238558889Y-94766487D01*
X238278966Y-94851401D01*
X238020986Y-94989294D01*
X237794866Y-95174866D01*
X237609294Y-95400986D01*
X237580000Y-95455791D01*
X237550706Y-95400986D01*
X237365134Y-95174866D01*
X237139014Y-94989294D01*
X236881034Y-94851401D01*
X236601111Y-94766487D01*
X236382950Y-94745000D01*
X236237050Y-94745000D01*
X236018889Y-94766487D01*
X235738966Y-94851401D01*
X235480986Y-94989294D01*
X235254866Y-95174866D01*
X235069294Y-95400986D01*
X235040000Y-95455791D01*
X235010706Y-95400986D01*
X234825134Y-95174866D01*
X234599014Y-94989294D01*
X234341034Y-94851401D01*
X234061111Y-94766487D01*
X233842950Y-94745000D01*
X233697050Y-94745000D01*
X233478889Y-94766487D01*
X233198966Y-94851401D01*
X232940986Y-94989294D01*
X232714866Y-95174866D01*
X232529294Y-95400986D01*
X232494799Y-95465523D01*
X232425178Y-95348645D01*
X232230269Y-95132412D01*
X231996920Y-94958359D01*
X231734099Y-94833175D01*
X231586890Y-94788524D01*
X231357000Y-94909845D01*
X231357000Y-96103000D01*
X231377000Y-96103000D01*
X231377000Y-96357000D01*
X231357000Y-96357000D01*
X231357000Y-96377000D01*
X231103000Y-96377000D01*
X231103000Y-96357000D01*
X231083000Y-96357000D01*
X231083000Y-96103000D01*
X231103000Y-96103000D01*
X231103000Y-94909845D01*
X230873110Y-94788524D01*
X230725901Y-94833175D01*
X230463080Y-94958359D01*
X230229731Y-95132412D01*
X230034822Y-95348645D01*
X229965201Y-95465523D01*
X229930706Y-95400986D01*
X229745134Y-95174866D01*
X229519014Y-94989294D01*
X229261034Y-94851401D01*
X228981111Y-94766487D01*
X228762950Y-94745000D01*
X228617050Y-94745000D01*
X228398889Y-94766487D01*
X228118966Y-94851401D01*
X227860986Y-94989294D01*
X227634866Y-95174866D01*
X227449294Y-95400986D01*
X227420000Y-95455791D01*
X227390706Y-95400986D01*
X227205134Y-95174866D01*
X226979014Y-94989294D01*
X226721034Y-94851401D01*
X226441111Y-94766487D01*
X226222950Y-94745000D01*
X226077050Y-94745000D01*
X225858889Y-94766487D01*
X225578966Y-94851401D01*
X225320986Y-94989294D01*
X225094866Y-95174866D01*
X224909294Y-95400986D01*
X224874799Y-95465523D01*
X224805178Y-95348645D01*
X224610269Y-95132412D01*
X224376920Y-94958359D01*
X224114099Y-94833175D01*
X223966890Y-94788524D01*
X223737000Y-94909845D01*
X223737000Y-96103000D01*
X223757000Y-96103000D01*
X223757000Y-96357000D01*
X223737000Y-96357000D01*
X223737000Y-96377000D01*
X223483000Y-96377000D01*
X223483000Y-96357000D01*
X223463000Y-96357000D01*
X223463000Y-96103000D01*
X223483000Y-96103000D01*
X223483000Y-94909845D01*
X223253110Y-94788524D01*
X223105901Y-94833175D01*
X222843080Y-94958359D01*
X222609731Y-95132412D01*
X222414822Y-95348645D01*
X222345201Y-95465523D01*
X222310706Y-95400986D01*
X222125134Y-95174866D01*
X221899014Y-94989294D01*
X221641034Y-94851401D01*
X221361111Y-94766487D01*
X221142950Y-94745000D01*
X220997050Y-94745000D01*
X220778889Y-94766487D01*
X220498966Y-94851401D01*
X220240986Y-94989294D01*
X220014866Y-95174866D01*
X219829294Y-95400986D01*
X219800000Y-95455791D01*
X219770706Y-95400986D01*
X219585134Y-95174866D01*
X219359014Y-94989294D01*
X219101034Y-94851401D01*
X218821111Y-94766487D01*
X218602950Y-94745000D01*
X218457050Y-94745000D01*
X218238889Y-94766487D01*
X217958966Y-94851401D01*
X217700986Y-94989294D01*
X217474866Y-95174866D01*
X217289294Y-95400986D01*
X217260000Y-95455791D01*
X217230706Y-95400986D01*
X217045134Y-95174866D01*
X216819014Y-94989294D01*
X216561034Y-94851401D01*
X216281111Y-94766487D01*
X216062950Y-94745000D01*
X215917050Y-94745000D01*
X215698889Y-94766487D01*
X215418966Y-94851401D01*
X215160986Y-94989294D01*
X214934866Y-95174866D01*
X214749294Y-95400986D01*
X214714799Y-95465523D01*
X214645178Y-95348645D01*
X214450269Y-95132412D01*
X214216920Y-94958359D01*
X213954099Y-94833175D01*
X213806890Y-94788524D01*
X213577000Y-94909845D01*
X213577000Y-96103000D01*
X213597000Y-96103000D01*
X213597000Y-96357000D01*
X213577000Y-96357000D01*
X213577000Y-96377000D01*
X213323000Y-96377000D01*
X213323000Y-96357000D01*
X213303000Y-96357000D01*
X213303000Y-96103000D01*
X213323000Y-96103000D01*
X213323000Y-94909845D01*
X213093110Y-94788524D01*
X212945901Y-94833175D01*
X212683080Y-94958359D01*
X212449731Y-95132412D01*
X212254822Y-95348645D01*
X212185201Y-95465523D01*
X212150706Y-95400986D01*
X211965134Y-95174866D01*
X211739014Y-94989294D01*
X211481034Y-94851401D01*
X211201111Y-94766487D01*
X210982950Y-94745000D01*
X210837050Y-94745000D01*
X210618889Y-94766487D01*
X210338966Y-94851401D01*
X210080986Y-94989294D01*
X209854866Y-95174866D01*
X209669294Y-95400986D01*
X209640000Y-95455791D01*
X209610706Y-95400986D01*
X209425134Y-95174866D01*
X209199014Y-94989294D01*
X208941034Y-94851401D01*
X208661111Y-94766487D01*
X208442950Y-94745000D01*
X208297050Y-94745000D01*
X208078889Y-94766487D01*
X207798966Y-94851401D01*
X207540986Y-94989294D01*
X207314866Y-95174866D01*
X207129294Y-95400986D01*
X206991401Y-95658966D01*
X206906487Y-95938889D01*
X206877815Y-96230000D01*
X205037215Y-96230000D01*
X204765364Y-95958149D01*
X204440250Y-95740915D01*
X204079003Y-95591282D01*
X203695505Y-95515000D01*
X203304495Y-95515000D01*
X202920997Y-95591282D01*
X202559750Y-95740915D01*
X202234636Y-95958149D01*
X201958149Y-96234636D01*
X201740915Y-96559750D01*
X201591282Y-96920997D01*
X201515000Y-97304495D01*
X200685000Y-97304495D01*
X200685000Y-97033505D01*
X200732312Y-96550984D01*
X200862714Y-96119070D01*
X201074524Y-95720715D01*
X201359675Y-95371086D01*
X201707303Y-95083503D01*
X202104177Y-94868914D01*
X202535161Y-94735502D01*
X203015654Y-94685000D01*
X261966495Y-94685000D01*
X262449016Y-94732312D01*
M02*
