G04 #@! TF.GenerationSoftware,KiCad,Pcbnew,(5.1.0)-1*
G04 #@! TF.CreationDate,2019-05-14T12:18:11-07:00*
G04 #@! TF.ProjectId,ROVPCB,524f5650-4342-42e6-9b69-6361645f7063,rev?*
G04 #@! TF.SameCoordinates,Original*
G04 #@! TF.FileFunction,Soldermask,Top*
G04 #@! TF.FilePolarity,Negative*
%FSLAX46Y46*%
G04 Gerber Fmt 4.6, Leading zero omitted, Abs format (unit mm)*
G04 Created by KiCad (PCBNEW (5.1.0)-1) date 2019-05-14 12:18:11*
%MOMM*%
%LPD*%
G04 APERTURE LIST*
%ADD10C,0.150000*%
G04 APERTURE END LIST*
D10*
G36*
X261893779Y-145201879D02*
G01*
X262139463Y-145303645D01*
X262139465Y-145303646D01*
X262250769Y-145378017D01*
X262360574Y-145451386D01*
X262548614Y-145639426D01*
X262696355Y-145860537D01*
X262798121Y-146106221D01*
X262850000Y-146367035D01*
X262850000Y-146632965D01*
X262798121Y-146893779D01*
X262696355Y-147139463D01*
X262696354Y-147139465D01*
X262548613Y-147360575D01*
X262360575Y-147548613D01*
X262139465Y-147696354D01*
X262139464Y-147696355D01*
X262139463Y-147696355D01*
X261893779Y-147798121D01*
X261632965Y-147850000D01*
X261367035Y-147850000D01*
X261106221Y-147798121D01*
X260860537Y-147696355D01*
X260860536Y-147696355D01*
X260860535Y-147696354D01*
X260639425Y-147548613D01*
X260451387Y-147360575D01*
X260303646Y-147139465D01*
X260303645Y-147139463D01*
X260201879Y-146893779D01*
X260150000Y-146632965D01*
X260150000Y-146367035D01*
X260201879Y-146106221D01*
X260303645Y-145860537D01*
X260451386Y-145639426D01*
X260639426Y-145451386D01*
X260749231Y-145378017D01*
X260860535Y-145303646D01*
X260860537Y-145303645D01*
X261106221Y-145201879D01*
X261367035Y-145150000D01*
X261632965Y-145150000D01*
X261893779Y-145201879D01*
X261893779Y-145201879D01*
G37*
G36*
X203893779Y-145201879D02*
G01*
X204139463Y-145303645D01*
X204139465Y-145303646D01*
X204250769Y-145378017D01*
X204360574Y-145451386D01*
X204548614Y-145639426D01*
X204696355Y-145860537D01*
X204798121Y-146106221D01*
X204850000Y-146367035D01*
X204850000Y-146632965D01*
X204798121Y-146893779D01*
X204696355Y-147139463D01*
X204696354Y-147139465D01*
X204548613Y-147360575D01*
X204360575Y-147548613D01*
X204139465Y-147696354D01*
X204139464Y-147696355D01*
X204139463Y-147696355D01*
X203893779Y-147798121D01*
X203632965Y-147850000D01*
X203367035Y-147850000D01*
X203106221Y-147798121D01*
X202860537Y-147696355D01*
X202860536Y-147696355D01*
X202860535Y-147696354D01*
X202639425Y-147548613D01*
X202451387Y-147360575D01*
X202303646Y-147139465D01*
X202303645Y-147139463D01*
X202201879Y-146893779D01*
X202150000Y-146632965D01*
X202150000Y-146367035D01*
X202201879Y-146106221D01*
X202303645Y-145860537D01*
X202451386Y-145639426D01*
X202639426Y-145451386D01*
X202749231Y-145378017D01*
X202860535Y-145303646D01*
X202860537Y-145303645D01*
X203106221Y-145201879D01*
X203367035Y-145150000D01*
X203632965Y-145150000D01*
X203893779Y-145201879D01*
X203893779Y-145201879D01*
G37*
G36*
X209331539Y-138798919D02*
G01*
X209513437Y-138874264D01*
X209677135Y-138983643D01*
X209816357Y-139122865D01*
X209925736Y-139286563D01*
X210001081Y-139468461D01*
X210039490Y-139661557D01*
X210039490Y-139858443D01*
X210001081Y-140051539D01*
X209925736Y-140233437D01*
X209816357Y-140397135D01*
X209677135Y-140536357D01*
X209513437Y-140645736D01*
X209331539Y-140721081D01*
X209138443Y-140759490D01*
X208941557Y-140759490D01*
X208748461Y-140721081D01*
X208566563Y-140645736D01*
X208402865Y-140536357D01*
X208263643Y-140397135D01*
X208154264Y-140233437D01*
X208078919Y-140051539D01*
X208040510Y-139858443D01*
X208040510Y-139661557D01*
X208078919Y-139468461D01*
X208154264Y-139286563D01*
X208263643Y-139122865D01*
X208402865Y-138983643D01*
X208566563Y-138874264D01*
X208748461Y-138798919D01*
X208941557Y-138760510D01*
X209138443Y-138760510D01*
X209331539Y-138798919D01*
X209331539Y-138798919D01*
G37*
G36*
X235390000Y-138580000D02*
G01*
X232890000Y-138580000D01*
X232890000Y-137180000D01*
X235390000Y-137180000D01*
X235390000Y-138580000D01*
X235390000Y-138580000D01*
G37*
G36*
X223490000Y-138580000D02*
G01*
X220990000Y-138580000D01*
X220990000Y-137180000D01*
X223490000Y-137180000D01*
X223490000Y-138580000D01*
X223490000Y-138580000D01*
G37*
G36*
X210039490Y-136949490D02*
G01*
X208040510Y-136949490D01*
X208040510Y-134950510D01*
X210039490Y-134950510D01*
X210039490Y-136949490D01*
X210039490Y-136949490D01*
G37*
G36*
X235390000Y-136280000D02*
G01*
X232890000Y-136280000D01*
X232890000Y-134880000D01*
X235390000Y-134880000D01*
X235390000Y-136280000D01*
X235390000Y-136280000D01*
G37*
G36*
X223490000Y-136280000D02*
G01*
X220990000Y-136280000D01*
X220990000Y-134880000D01*
X223490000Y-134880000D01*
X223490000Y-136280000D01*
X223490000Y-136280000D01*
G37*
G36*
X235440000Y-133980000D02*
G01*
X232940000Y-133980000D01*
X232940000Y-132580000D01*
X235440000Y-132580000D01*
X235440000Y-133980000D01*
X235440000Y-133980000D01*
G37*
G36*
X223490000Y-133980000D02*
G01*
X220990000Y-133980000D01*
X220990000Y-132580000D01*
X223490000Y-132580000D01*
X223490000Y-133980000D01*
X223490000Y-133980000D01*
G37*
G36*
X235390000Y-131680000D02*
G01*
X232890000Y-131680000D01*
X232890000Y-130280000D01*
X235390000Y-130280000D01*
X235390000Y-131680000D01*
X235390000Y-131680000D01*
G37*
G36*
X223490000Y-131680000D02*
G01*
X220990000Y-131680000D01*
X220990000Y-130280000D01*
X223490000Y-130280000D01*
X223490000Y-131680000D01*
X223490000Y-131680000D01*
G37*
G36*
X223490000Y-129380000D02*
G01*
X220990000Y-129380000D01*
X220990000Y-127980000D01*
X223490000Y-127980000D01*
X223490000Y-129380000D01*
X223490000Y-129380000D01*
G37*
G36*
X235390000Y-129380000D02*
G01*
X232890000Y-129380000D01*
X232890000Y-127980000D01*
X235390000Y-127980000D01*
X235390000Y-129380000D01*
X235390000Y-129380000D01*
G37*
G36*
X217019116Y-126691095D02*
G01*
X217048311Y-126699952D01*
X217075223Y-126714337D01*
X217098808Y-126733692D01*
X217118163Y-126757277D01*
X217132548Y-126784189D01*
X217141405Y-126813384D01*
X217145000Y-126849890D01*
X217145000Y-127400110D01*
X217141405Y-127436616D01*
X217132548Y-127465811D01*
X217118163Y-127492723D01*
X217098808Y-127516308D01*
X217075223Y-127535663D01*
X217048311Y-127550048D01*
X217019116Y-127558905D01*
X216982610Y-127562500D01*
X216357390Y-127562500D01*
X216320884Y-127558905D01*
X216291689Y-127550048D01*
X216264777Y-127535663D01*
X216241192Y-127516308D01*
X216221837Y-127492723D01*
X216207452Y-127465811D01*
X216198595Y-127436616D01*
X216195000Y-127400110D01*
X216195000Y-126849890D01*
X216198595Y-126813384D01*
X216207452Y-126784189D01*
X216221837Y-126757277D01*
X216241192Y-126733692D01*
X216264777Y-126714337D01*
X216291689Y-126699952D01*
X216320884Y-126691095D01*
X216357390Y-126687500D01*
X216982610Y-126687500D01*
X217019116Y-126691095D01*
X217019116Y-126691095D01*
G37*
G36*
X214239116Y-126271095D02*
G01*
X214268311Y-126279952D01*
X214295223Y-126294337D01*
X214318808Y-126313692D01*
X214338163Y-126337277D01*
X214352548Y-126364189D01*
X214361405Y-126393384D01*
X214365000Y-126429890D01*
X214365000Y-126980110D01*
X214361405Y-127016616D01*
X214352548Y-127045811D01*
X214338163Y-127072723D01*
X214318808Y-127096308D01*
X214295223Y-127115663D01*
X214268311Y-127130048D01*
X214239116Y-127138905D01*
X214202610Y-127142500D01*
X213577390Y-127142500D01*
X213540884Y-127138905D01*
X213511689Y-127130048D01*
X213484777Y-127115663D01*
X213461192Y-127096308D01*
X213441837Y-127072723D01*
X213427452Y-127045811D01*
X213418595Y-127016616D01*
X213415000Y-126980110D01*
X213415000Y-126429890D01*
X213418595Y-126393384D01*
X213427452Y-126364189D01*
X213441837Y-126337277D01*
X213461192Y-126313692D01*
X213484777Y-126294337D01*
X213511689Y-126279952D01*
X213540884Y-126271095D01*
X213577390Y-126267500D01*
X214202610Y-126267500D01*
X214239116Y-126271095D01*
X214239116Y-126271095D01*
G37*
G36*
X217019116Y-125116095D02*
G01*
X217048311Y-125124952D01*
X217075223Y-125139337D01*
X217098808Y-125158692D01*
X217118163Y-125182277D01*
X217132548Y-125209189D01*
X217141405Y-125238384D01*
X217145000Y-125274890D01*
X217145000Y-125825110D01*
X217141405Y-125861616D01*
X217132548Y-125890811D01*
X217118163Y-125917723D01*
X217098808Y-125941308D01*
X217075223Y-125960663D01*
X217048311Y-125975048D01*
X217019116Y-125983905D01*
X216982610Y-125987500D01*
X216357390Y-125987500D01*
X216320884Y-125983905D01*
X216291689Y-125975048D01*
X216264777Y-125960663D01*
X216241192Y-125941308D01*
X216221837Y-125917723D01*
X216207452Y-125890811D01*
X216198595Y-125861616D01*
X216195000Y-125825110D01*
X216195000Y-125274890D01*
X216198595Y-125238384D01*
X216207452Y-125209189D01*
X216221837Y-125182277D01*
X216241192Y-125158692D01*
X216264777Y-125139337D01*
X216291689Y-125124952D01*
X216320884Y-125116095D01*
X216357390Y-125112500D01*
X216982610Y-125112500D01*
X217019116Y-125116095D01*
X217019116Y-125116095D01*
G37*
G36*
X214239116Y-124696095D02*
G01*
X214268311Y-124704952D01*
X214295223Y-124719337D01*
X214318808Y-124738692D01*
X214338163Y-124762277D01*
X214352548Y-124789189D01*
X214361405Y-124818384D01*
X214365000Y-124854890D01*
X214365000Y-125405110D01*
X214361405Y-125441616D01*
X214352548Y-125470811D01*
X214338163Y-125497723D01*
X214318808Y-125521308D01*
X214295223Y-125540663D01*
X214268311Y-125555048D01*
X214239116Y-125563905D01*
X214202610Y-125567500D01*
X213577390Y-125567500D01*
X213540884Y-125563905D01*
X213511689Y-125555048D01*
X213484777Y-125540663D01*
X213461192Y-125521308D01*
X213441837Y-125497723D01*
X213427452Y-125470811D01*
X213418595Y-125441616D01*
X213415000Y-125405110D01*
X213415000Y-124854890D01*
X213418595Y-124818384D01*
X213427452Y-124789189D01*
X213441837Y-124762277D01*
X213461192Y-124738692D01*
X213484777Y-124719337D01*
X213511689Y-124704952D01*
X213540884Y-124696095D01*
X213577390Y-124692500D01*
X214202610Y-124692500D01*
X214239116Y-124696095D01*
X214239116Y-124696095D01*
G37*
G36*
X212339823Y-122995833D02*
G01*
X212342051Y-122996509D01*
X212344106Y-122997608D01*
X212345908Y-122999087D01*
X212353375Y-123008185D01*
X212370703Y-123025511D01*
X212391077Y-123039125D01*
X212413716Y-123048502D01*
X212437749Y-123053282D01*
X212462253Y-123053282D01*
X212486287Y-123048501D01*
X212508925Y-123039124D01*
X212529300Y-123025510D01*
X212546625Y-123008185D01*
X212554092Y-122999087D01*
X212555894Y-122997608D01*
X212557949Y-122996509D01*
X212560177Y-122995833D01*
X212568640Y-122995000D01*
X212831360Y-122995000D01*
X212839823Y-122995833D01*
X212842051Y-122996509D01*
X212844106Y-122997608D01*
X212845908Y-122999087D01*
X212853375Y-123008185D01*
X212870703Y-123025511D01*
X212891077Y-123039125D01*
X212913716Y-123048502D01*
X212937749Y-123053282D01*
X212962253Y-123053282D01*
X212986287Y-123048501D01*
X213008925Y-123039124D01*
X213029300Y-123025510D01*
X213046625Y-123008185D01*
X213054092Y-122999087D01*
X213055894Y-122997608D01*
X213057949Y-122996509D01*
X213060177Y-122995833D01*
X213068640Y-122995000D01*
X213331360Y-122995000D01*
X213339823Y-122995833D01*
X213342051Y-122996509D01*
X213344106Y-122997608D01*
X213345908Y-122999087D01*
X213353375Y-123008185D01*
X213370703Y-123025511D01*
X213391077Y-123039125D01*
X213413716Y-123048502D01*
X213437749Y-123053282D01*
X213462253Y-123053282D01*
X213486287Y-123048501D01*
X213508925Y-123039124D01*
X213529300Y-123025510D01*
X213546625Y-123008185D01*
X213554092Y-122999087D01*
X213555894Y-122997608D01*
X213557949Y-122996509D01*
X213560177Y-122995833D01*
X213568640Y-122995000D01*
X213831360Y-122995000D01*
X213839823Y-122995833D01*
X213842051Y-122996509D01*
X213844106Y-122997608D01*
X213845908Y-122999087D01*
X213853375Y-123008185D01*
X213870703Y-123025511D01*
X213891077Y-123039125D01*
X213913716Y-123048502D01*
X213937749Y-123053282D01*
X213962253Y-123053282D01*
X213986287Y-123048501D01*
X214008925Y-123039124D01*
X214029300Y-123025510D01*
X214046625Y-123008185D01*
X214054092Y-122999087D01*
X214055894Y-122997608D01*
X214057949Y-122996509D01*
X214060177Y-122995833D01*
X214068640Y-122995000D01*
X214331360Y-122995000D01*
X214339823Y-122995833D01*
X214342051Y-122996509D01*
X214344106Y-122997608D01*
X214345908Y-122999087D01*
X214353375Y-123008185D01*
X214370703Y-123025511D01*
X214391077Y-123039125D01*
X214413716Y-123048502D01*
X214437749Y-123053282D01*
X214462253Y-123053282D01*
X214486287Y-123048501D01*
X214508925Y-123039124D01*
X214529300Y-123025510D01*
X214546625Y-123008185D01*
X214554092Y-122999087D01*
X214555894Y-122997608D01*
X214557949Y-122996509D01*
X214560177Y-122995833D01*
X214568640Y-122995000D01*
X214831357Y-122995000D01*
X214839113Y-122995764D01*
X214849236Y-122995764D01*
X214849236Y-123005887D01*
X214850000Y-123013643D01*
X214850000Y-123826360D01*
X214849167Y-123834823D01*
X214848491Y-123837051D01*
X214847392Y-123839106D01*
X214845911Y-123840911D01*
X214844106Y-123842392D01*
X214842051Y-123843491D01*
X214839823Y-123844167D01*
X214831360Y-123845000D01*
X214568640Y-123845000D01*
X214560177Y-123844167D01*
X214557949Y-123843491D01*
X214555894Y-123842392D01*
X214554092Y-123840913D01*
X214546625Y-123831815D01*
X214529297Y-123814489D01*
X214508923Y-123800875D01*
X214486284Y-123791498D01*
X214462251Y-123786718D01*
X214437747Y-123786718D01*
X214413713Y-123791499D01*
X214391075Y-123800876D01*
X214370700Y-123814490D01*
X214353375Y-123831815D01*
X214345908Y-123840913D01*
X214344106Y-123842392D01*
X214342051Y-123843491D01*
X214339823Y-123844167D01*
X214331360Y-123845000D01*
X214068640Y-123845000D01*
X214060177Y-123844167D01*
X214057949Y-123843491D01*
X214055894Y-123842392D01*
X214054092Y-123840913D01*
X214046625Y-123831815D01*
X214029297Y-123814489D01*
X214008923Y-123800875D01*
X213986284Y-123791498D01*
X213962251Y-123786718D01*
X213937747Y-123786718D01*
X213913713Y-123791499D01*
X213891075Y-123800876D01*
X213870700Y-123814490D01*
X213853375Y-123831815D01*
X213845908Y-123840913D01*
X213844106Y-123842392D01*
X213842051Y-123843491D01*
X213839823Y-123844167D01*
X213831360Y-123845000D01*
X213568640Y-123845000D01*
X213560177Y-123844167D01*
X213557949Y-123843491D01*
X213555894Y-123842392D01*
X213554092Y-123840913D01*
X213546625Y-123831815D01*
X213529297Y-123814489D01*
X213508923Y-123800875D01*
X213486284Y-123791498D01*
X213462251Y-123786718D01*
X213437747Y-123786718D01*
X213413713Y-123791499D01*
X213391075Y-123800876D01*
X213370700Y-123814490D01*
X213353375Y-123831815D01*
X213345908Y-123840913D01*
X213344106Y-123842392D01*
X213342051Y-123843491D01*
X213339823Y-123844167D01*
X213331360Y-123845000D01*
X213068640Y-123845000D01*
X213060177Y-123844167D01*
X213057949Y-123843491D01*
X213055894Y-123842392D01*
X213054092Y-123840913D01*
X213046625Y-123831815D01*
X213029297Y-123814489D01*
X213008923Y-123800875D01*
X212986284Y-123791498D01*
X212962251Y-123786718D01*
X212937747Y-123786718D01*
X212913713Y-123791499D01*
X212891075Y-123800876D01*
X212870700Y-123814490D01*
X212853375Y-123831815D01*
X212845908Y-123840913D01*
X212844106Y-123842392D01*
X212842051Y-123843491D01*
X212839823Y-123844167D01*
X212831360Y-123845000D01*
X212568640Y-123845000D01*
X212560177Y-123844167D01*
X212557949Y-123843491D01*
X212555894Y-123842392D01*
X212554092Y-123840913D01*
X212546625Y-123831815D01*
X212529297Y-123814489D01*
X212508923Y-123800875D01*
X212486284Y-123791498D01*
X212462251Y-123786718D01*
X212437747Y-123786718D01*
X212413713Y-123791499D01*
X212391075Y-123800876D01*
X212370700Y-123814490D01*
X212353375Y-123831815D01*
X212345908Y-123840913D01*
X212344106Y-123842392D01*
X212342051Y-123843491D01*
X212339823Y-123844167D01*
X212331360Y-123845000D01*
X212068640Y-123845000D01*
X212060177Y-123844167D01*
X212057949Y-123843491D01*
X212055894Y-123842392D01*
X212054089Y-123840911D01*
X212052608Y-123839106D01*
X212051509Y-123837051D01*
X212050833Y-123834823D01*
X212050000Y-123826360D01*
X212050000Y-123013643D01*
X212050764Y-123005887D01*
X212050764Y-122995764D01*
X212060887Y-122995764D01*
X212068643Y-122995000D01*
X212331360Y-122995000D01*
X212339823Y-122995833D01*
X212339823Y-122995833D01*
G37*
G36*
X215814823Y-120070833D02*
G01*
X215817051Y-120071509D01*
X215819106Y-120072608D01*
X215820911Y-120074089D01*
X215822392Y-120075894D01*
X215823491Y-120077949D01*
X215824167Y-120080177D01*
X215825000Y-120088640D01*
X215825000Y-120351360D01*
X215824167Y-120359823D01*
X215823491Y-120362051D01*
X215822392Y-120364106D01*
X215820913Y-120365908D01*
X215811815Y-120373375D01*
X215794489Y-120390703D01*
X215780875Y-120411077D01*
X215771498Y-120433716D01*
X215766718Y-120457749D01*
X215766718Y-120482253D01*
X215771499Y-120506287D01*
X215780876Y-120528925D01*
X215794490Y-120549300D01*
X215811815Y-120566625D01*
X215820913Y-120574092D01*
X215822392Y-120575894D01*
X215823491Y-120577949D01*
X215824167Y-120580177D01*
X215825000Y-120588640D01*
X215825000Y-120851360D01*
X215824167Y-120859823D01*
X215823491Y-120862051D01*
X215822392Y-120864106D01*
X215820913Y-120865908D01*
X215811815Y-120873375D01*
X215794489Y-120890703D01*
X215780875Y-120911077D01*
X215771498Y-120933716D01*
X215766718Y-120957749D01*
X215766718Y-120982253D01*
X215771499Y-121006287D01*
X215780876Y-121028925D01*
X215794490Y-121049300D01*
X215811815Y-121066625D01*
X215820913Y-121074092D01*
X215822392Y-121075894D01*
X215823491Y-121077949D01*
X215824167Y-121080177D01*
X215825000Y-121088640D01*
X215825000Y-121351360D01*
X215824167Y-121359823D01*
X215823491Y-121362051D01*
X215822392Y-121364106D01*
X215820913Y-121365908D01*
X215811815Y-121373375D01*
X215794489Y-121390703D01*
X215780875Y-121411077D01*
X215771498Y-121433716D01*
X215766718Y-121457749D01*
X215766718Y-121482253D01*
X215771499Y-121506287D01*
X215780876Y-121528925D01*
X215794490Y-121549300D01*
X215811815Y-121566625D01*
X215820913Y-121574092D01*
X215822392Y-121575894D01*
X215823491Y-121577949D01*
X215824167Y-121580177D01*
X215825000Y-121588640D01*
X215825000Y-121851360D01*
X215824167Y-121859823D01*
X215823491Y-121862051D01*
X215822392Y-121864106D01*
X215820913Y-121865908D01*
X215811815Y-121873375D01*
X215794489Y-121890703D01*
X215780875Y-121911077D01*
X215771498Y-121933716D01*
X215766718Y-121957749D01*
X215766718Y-121982253D01*
X215771499Y-122006287D01*
X215780876Y-122028925D01*
X215794490Y-122049300D01*
X215811815Y-122066625D01*
X215820913Y-122074092D01*
X215822392Y-122075894D01*
X215823491Y-122077949D01*
X215824167Y-122080177D01*
X215825000Y-122088640D01*
X215825000Y-122351360D01*
X215824167Y-122359823D01*
X215823491Y-122362051D01*
X215822392Y-122364106D01*
X215820913Y-122365908D01*
X215811815Y-122373375D01*
X215794489Y-122390703D01*
X215780875Y-122411077D01*
X215771498Y-122433716D01*
X215766718Y-122457749D01*
X215766718Y-122482253D01*
X215771499Y-122506287D01*
X215780876Y-122528925D01*
X215794490Y-122549300D01*
X215811815Y-122566625D01*
X215820913Y-122574092D01*
X215822392Y-122575894D01*
X215823491Y-122577949D01*
X215824167Y-122580177D01*
X215825000Y-122588640D01*
X215825000Y-122851360D01*
X215824167Y-122859823D01*
X215823491Y-122862051D01*
X215822392Y-122864106D01*
X215820911Y-122865911D01*
X215819106Y-122867392D01*
X215817051Y-122868491D01*
X215814823Y-122869167D01*
X215806360Y-122870000D01*
X214993643Y-122870000D01*
X214985887Y-122869236D01*
X214975764Y-122869236D01*
X214975764Y-122859113D01*
X214975000Y-122851357D01*
X214975000Y-122588640D01*
X214975833Y-122580177D01*
X214976509Y-122577949D01*
X214977608Y-122575894D01*
X214979087Y-122574092D01*
X214988185Y-122566625D01*
X215005511Y-122549297D01*
X215019125Y-122528923D01*
X215028502Y-122506284D01*
X215033282Y-122482251D01*
X215033282Y-122457747D01*
X215028501Y-122433713D01*
X215019124Y-122411075D01*
X215005510Y-122390700D01*
X214988185Y-122373375D01*
X214979087Y-122365908D01*
X214977608Y-122364106D01*
X214976509Y-122362051D01*
X214975833Y-122359823D01*
X214975000Y-122351360D01*
X214975000Y-122088640D01*
X214975833Y-122080177D01*
X214976509Y-122077949D01*
X214977608Y-122075894D01*
X214979087Y-122074092D01*
X214988185Y-122066625D01*
X215005511Y-122049297D01*
X215019125Y-122028923D01*
X215028502Y-122006284D01*
X215033282Y-121982251D01*
X215033282Y-121957747D01*
X215028501Y-121933713D01*
X215019124Y-121911075D01*
X215005510Y-121890700D01*
X214988185Y-121873375D01*
X214979087Y-121865908D01*
X214977608Y-121864106D01*
X214976509Y-121862051D01*
X214975833Y-121859823D01*
X214975000Y-121851360D01*
X214975000Y-121588640D01*
X214975833Y-121580177D01*
X214976509Y-121577949D01*
X214977608Y-121575894D01*
X214979087Y-121574092D01*
X214988185Y-121566625D01*
X215005511Y-121549297D01*
X215019125Y-121528923D01*
X215028502Y-121506284D01*
X215033282Y-121482251D01*
X215033282Y-121457747D01*
X215028501Y-121433713D01*
X215019124Y-121411075D01*
X215005510Y-121390700D01*
X214988185Y-121373375D01*
X214979087Y-121365908D01*
X214977608Y-121364106D01*
X214976509Y-121362051D01*
X214975833Y-121359823D01*
X214975000Y-121351360D01*
X214975000Y-121088640D01*
X214975833Y-121080177D01*
X214976509Y-121077949D01*
X214977608Y-121075894D01*
X214979087Y-121074092D01*
X214988185Y-121066625D01*
X215005511Y-121049297D01*
X215019125Y-121028923D01*
X215028502Y-121006284D01*
X215033282Y-120982251D01*
X215033282Y-120957747D01*
X215028501Y-120933713D01*
X215019124Y-120911075D01*
X215005510Y-120890700D01*
X214988185Y-120873375D01*
X214979087Y-120865908D01*
X214977608Y-120864106D01*
X214976509Y-120862051D01*
X214975833Y-120859823D01*
X214975000Y-120851360D01*
X214975000Y-120588640D01*
X214975833Y-120580177D01*
X214976509Y-120577949D01*
X214977608Y-120575894D01*
X214979087Y-120574092D01*
X214988185Y-120566625D01*
X215005511Y-120549297D01*
X215019125Y-120528923D01*
X215028502Y-120506284D01*
X215033282Y-120482251D01*
X215033282Y-120457747D01*
X215028501Y-120433713D01*
X215019124Y-120411075D01*
X215005510Y-120390700D01*
X214988185Y-120373375D01*
X214979087Y-120365908D01*
X214977608Y-120364106D01*
X214976509Y-120362051D01*
X214975833Y-120359823D01*
X214975000Y-120351360D01*
X214975000Y-120088643D01*
X214975764Y-120080887D01*
X214975764Y-120070764D01*
X214985887Y-120070764D01*
X214993643Y-120070000D01*
X215806360Y-120070000D01*
X215814823Y-120070833D01*
X215814823Y-120070833D01*
G37*
G36*
X211914113Y-120070764D02*
G01*
X211924236Y-120070764D01*
X211924236Y-120080887D01*
X211925000Y-120088643D01*
X211925000Y-120351360D01*
X211924167Y-120359823D01*
X211923491Y-120362051D01*
X211922392Y-120364106D01*
X211920913Y-120365908D01*
X211911815Y-120373375D01*
X211894489Y-120390703D01*
X211880875Y-120411077D01*
X211871498Y-120433716D01*
X211866718Y-120457749D01*
X211866718Y-120482253D01*
X211871499Y-120506287D01*
X211880876Y-120528925D01*
X211894490Y-120549300D01*
X211911815Y-120566625D01*
X211920913Y-120574092D01*
X211922392Y-120575894D01*
X211923491Y-120577949D01*
X211924167Y-120580177D01*
X211925000Y-120588640D01*
X211925000Y-120851360D01*
X211924167Y-120859823D01*
X211923491Y-120862051D01*
X211922392Y-120864106D01*
X211920913Y-120865908D01*
X211911815Y-120873375D01*
X211894489Y-120890703D01*
X211880875Y-120911077D01*
X211871498Y-120933716D01*
X211866718Y-120957749D01*
X211866718Y-120982253D01*
X211871499Y-121006287D01*
X211880876Y-121028925D01*
X211894490Y-121049300D01*
X211911815Y-121066625D01*
X211920913Y-121074092D01*
X211922392Y-121075894D01*
X211923491Y-121077949D01*
X211924167Y-121080177D01*
X211925000Y-121088640D01*
X211925000Y-121351360D01*
X211924167Y-121359823D01*
X211923491Y-121362051D01*
X211922392Y-121364106D01*
X211920913Y-121365908D01*
X211911815Y-121373375D01*
X211894489Y-121390703D01*
X211880875Y-121411077D01*
X211871498Y-121433716D01*
X211866718Y-121457749D01*
X211866718Y-121482253D01*
X211871499Y-121506287D01*
X211880876Y-121528925D01*
X211894490Y-121549300D01*
X211911815Y-121566625D01*
X211920913Y-121574092D01*
X211922392Y-121575894D01*
X211923491Y-121577949D01*
X211924167Y-121580177D01*
X211925000Y-121588640D01*
X211925000Y-121851360D01*
X211924167Y-121859823D01*
X211923491Y-121862051D01*
X211922392Y-121864106D01*
X211920913Y-121865908D01*
X211911815Y-121873375D01*
X211894489Y-121890703D01*
X211880875Y-121911077D01*
X211871498Y-121933716D01*
X211866718Y-121957749D01*
X211866718Y-121982253D01*
X211871499Y-122006287D01*
X211880876Y-122028925D01*
X211894490Y-122049300D01*
X211911815Y-122066625D01*
X211920913Y-122074092D01*
X211922392Y-122075894D01*
X211923491Y-122077949D01*
X211924167Y-122080177D01*
X211925000Y-122088640D01*
X211925000Y-122351360D01*
X211924167Y-122359823D01*
X211923491Y-122362051D01*
X211922392Y-122364106D01*
X211920913Y-122365908D01*
X211911815Y-122373375D01*
X211894489Y-122390703D01*
X211880875Y-122411077D01*
X211871498Y-122433716D01*
X211866718Y-122457749D01*
X211866718Y-122482253D01*
X211871499Y-122506287D01*
X211880876Y-122528925D01*
X211894490Y-122549300D01*
X211911815Y-122566625D01*
X211920913Y-122574092D01*
X211922392Y-122575894D01*
X211923491Y-122577949D01*
X211924167Y-122580177D01*
X211925000Y-122588640D01*
X211925000Y-122851357D01*
X211924236Y-122859113D01*
X211924236Y-122869236D01*
X211914113Y-122869236D01*
X211906357Y-122870000D01*
X211093640Y-122870000D01*
X211085177Y-122869167D01*
X211082949Y-122868491D01*
X211080894Y-122867392D01*
X211079089Y-122865911D01*
X211077608Y-122864106D01*
X211076509Y-122862051D01*
X211075833Y-122859823D01*
X211075000Y-122851360D01*
X211075000Y-122588640D01*
X211075833Y-122580177D01*
X211076509Y-122577949D01*
X211077608Y-122575894D01*
X211079087Y-122574092D01*
X211088185Y-122566625D01*
X211105511Y-122549297D01*
X211119125Y-122528923D01*
X211128502Y-122506284D01*
X211133282Y-122482251D01*
X211133282Y-122457747D01*
X211128501Y-122433713D01*
X211119124Y-122411075D01*
X211105510Y-122390700D01*
X211088185Y-122373375D01*
X211079087Y-122365908D01*
X211077608Y-122364106D01*
X211076509Y-122362051D01*
X211075833Y-122359823D01*
X211075000Y-122351360D01*
X211075000Y-122088640D01*
X211075833Y-122080177D01*
X211076509Y-122077949D01*
X211077608Y-122075894D01*
X211079087Y-122074092D01*
X211088185Y-122066625D01*
X211105511Y-122049297D01*
X211119125Y-122028923D01*
X211128502Y-122006284D01*
X211133282Y-121982251D01*
X211133282Y-121957747D01*
X211128501Y-121933713D01*
X211119124Y-121911075D01*
X211105510Y-121890700D01*
X211088185Y-121873375D01*
X211079087Y-121865908D01*
X211077608Y-121864106D01*
X211076509Y-121862051D01*
X211075833Y-121859823D01*
X211075000Y-121851360D01*
X211075000Y-121588640D01*
X211075833Y-121580177D01*
X211076509Y-121577949D01*
X211077608Y-121575894D01*
X211079087Y-121574092D01*
X211088185Y-121566625D01*
X211105511Y-121549297D01*
X211119125Y-121528923D01*
X211128502Y-121506284D01*
X211133282Y-121482251D01*
X211133282Y-121457747D01*
X211128501Y-121433713D01*
X211119124Y-121411075D01*
X211105510Y-121390700D01*
X211088185Y-121373375D01*
X211079087Y-121365908D01*
X211077608Y-121364106D01*
X211076509Y-121362051D01*
X211075833Y-121359823D01*
X211075000Y-121351360D01*
X211075000Y-121088640D01*
X211075833Y-121080177D01*
X211076509Y-121077949D01*
X211077608Y-121075894D01*
X211079087Y-121074092D01*
X211088185Y-121066625D01*
X211105511Y-121049297D01*
X211119125Y-121028923D01*
X211128502Y-121006284D01*
X211133282Y-120982251D01*
X211133282Y-120957747D01*
X211128501Y-120933713D01*
X211119124Y-120911075D01*
X211105510Y-120890700D01*
X211088185Y-120873375D01*
X211079087Y-120865908D01*
X211077608Y-120864106D01*
X211076509Y-120862051D01*
X211075833Y-120859823D01*
X211075000Y-120851360D01*
X211075000Y-120588640D01*
X211075833Y-120580177D01*
X211076509Y-120577949D01*
X211077608Y-120575894D01*
X211079087Y-120574092D01*
X211088185Y-120566625D01*
X211105511Y-120549297D01*
X211119125Y-120528923D01*
X211128502Y-120506284D01*
X211133282Y-120482251D01*
X211133282Y-120457747D01*
X211128501Y-120433713D01*
X211119124Y-120411075D01*
X211105510Y-120390700D01*
X211088185Y-120373375D01*
X211079087Y-120365908D01*
X211077608Y-120364106D01*
X211076509Y-120362051D01*
X211075833Y-120359823D01*
X211075000Y-120351360D01*
X211075000Y-120088640D01*
X211075833Y-120080177D01*
X211076509Y-120077949D01*
X211077608Y-120075894D01*
X211079089Y-120074089D01*
X211080894Y-120072608D01*
X211082949Y-120071509D01*
X211085177Y-120070833D01*
X211093640Y-120070000D01*
X211906357Y-120070000D01*
X211914113Y-120070764D01*
X211914113Y-120070764D01*
G37*
G36*
X218639116Y-121936095D02*
G01*
X218668311Y-121944952D01*
X218695223Y-121959337D01*
X218718808Y-121978692D01*
X218738163Y-122002277D01*
X218752548Y-122029189D01*
X218761405Y-122058384D01*
X218765000Y-122094890D01*
X218765000Y-122645110D01*
X218761405Y-122681616D01*
X218752548Y-122710811D01*
X218738163Y-122737723D01*
X218718808Y-122761308D01*
X218695223Y-122780663D01*
X218668311Y-122795048D01*
X218639116Y-122803905D01*
X218602610Y-122807500D01*
X217977390Y-122807500D01*
X217940884Y-122803905D01*
X217911689Y-122795048D01*
X217884777Y-122780663D01*
X217861192Y-122761308D01*
X217841837Y-122737723D01*
X217827452Y-122710811D01*
X217818595Y-122681616D01*
X217815000Y-122645110D01*
X217815000Y-122094890D01*
X217818595Y-122058384D01*
X217827452Y-122029189D01*
X217841837Y-122002277D01*
X217861192Y-121978692D01*
X217884777Y-121959337D01*
X217911689Y-121944952D01*
X217940884Y-121936095D01*
X217977390Y-121932500D01*
X218602610Y-121932500D01*
X218639116Y-121936095D01*
X218639116Y-121936095D01*
G37*
G36*
X218639116Y-120361095D02*
G01*
X218668311Y-120369952D01*
X218695223Y-120384337D01*
X218718808Y-120403692D01*
X218738163Y-120427277D01*
X218752548Y-120454189D01*
X218761405Y-120483384D01*
X218765000Y-120519890D01*
X218765000Y-121070110D01*
X218761405Y-121106616D01*
X218752548Y-121135811D01*
X218738163Y-121162723D01*
X218718808Y-121186308D01*
X218695223Y-121205663D01*
X218668311Y-121220048D01*
X218639116Y-121228905D01*
X218602610Y-121232500D01*
X217977390Y-121232500D01*
X217940884Y-121228905D01*
X217911689Y-121220048D01*
X217884777Y-121205663D01*
X217861192Y-121186308D01*
X217841837Y-121162723D01*
X217827452Y-121135811D01*
X217818595Y-121106616D01*
X217815000Y-121070110D01*
X217815000Y-120519890D01*
X217818595Y-120483384D01*
X217827452Y-120454189D01*
X217841837Y-120427277D01*
X217861192Y-120403692D01*
X217884777Y-120384337D01*
X217911689Y-120369952D01*
X217940884Y-120361095D01*
X217977390Y-120357500D01*
X218602610Y-120357500D01*
X218639116Y-120361095D01*
X218639116Y-120361095D01*
G37*
G36*
X212339823Y-119095833D02*
G01*
X212342051Y-119096509D01*
X212344106Y-119097608D01*
X212345908Y-119099087D01*
X212353375Y-119108185D01*
X212370703Y-119125511D01*
X212391077Y-119139125D01*
X212413716Y-119148502D01*
X212437749Y-119153282D01*
X212462253Y-119153282D01*
X212486287Y-119148501D01*
X212508925Y-119139124D01*
X212529300Y-119125510D01*
X212546625Y-119108185D01*
X212554092Y-119099087D01*
X212555894Y-119097608D01*
X212557949Y-119096509D01*
X212560177Y-119095833D01*
X212568640Y-119095000D01*
X212831360Y-119095000D01*
X212839823Y-119095833D01*
X212842051Y-119096509D01*
X212844106Y-119097608D01*
X212845908Y-119099087D01*
X212853375Y-119108185D01*
X212870703Y-119125511D01*
X212891077Y-119139125D01*
X212913716Y-119148502D01*
X212937749Y-119153282D01*
X212962253Y-119153282D01*
X212986287Y-119148501D01*
X213008925Y-119139124D01*
X213029300Y-119125510D01*
X213046625Y-119108185D01*
X213054092Y-119099087D01*
X213055894Y-119097608D01*
X213057949Y-119096509D01*
X213060177Y-119095833D01*
X213068640Y-119095000D01*
X213331360Y-119095000D01*
X213339823Y-119095833D01*
X213342051Y-119096509D01*
X213344106Y-119097608D01*
X213345908Y-119099087D01*
X213353375Y-119108185D01*
X213370703Y-119125511D01*
X213391077Y-119139125D01*
X213413716Y-119148502D01*
X213437749Y-119153282D01*
X213462253Y-119153282D01*
X213486287Y-119148501D01*
X213508925Y-119139124D01*
X213529300Y-119125510D01*
X213546625Y-119108185D01*
X213554092Y-119099087D01*
X213555894Y-119097608D01*
X213557949Y-119096509D01*
X213560177Y-119095833D01*
X213568640Y-119095000D01*
X213831360Y-119095000D01*
X213839823Y-119095833D01*
X213842051Y-119096509D01*
X213844106Y-119097608D01*
X213845908Y-119099087D01*
X213853375Y-119108185D01*
X213870703Y-119125511D01*
X213891077Y-119139125D01*
X213913716Y-119148502D01*
X213937749Y-119153282D01*
X213962253Y-119153282D01*
X213986287Y-119148501D01*
X214008925Y-119139124D01*
X214029300Y-119125510D01*
X214046625Y-119108185D01*
X214054092Y-119099087D01*
X214055894Y-119097608D01*
X214057949Y-119096509D01*
X214060177Y-119095833D01*
X214068640Y-119095000D01*
X214331360Y-119095000D01*
X214339823Y-119095833D01*
X214342051Y-119096509D01*
X214344106Y-119097608D01*
X214345908Y-119099087D01*
X214353375Y-119108185D01*
X214370703Y-119125511D01*
X214391077Y-119139125D01*
X214413716Y-119148502D01*
X214437749Y-119153282D01*
X214462253Y-119153282D01*
X214486287Y-119148501D01*
X214508925Y-119139124D01*
X214529300Y-119125510D01*
X214546625Y-119108185D01*
X214554092Y-119099087D01*
X214555894Y-119097608D01*
X214557949Y-119096509D01*
X214560177Y-119095833D01*
X214568640Y-119095000D01*
X214831360Y-119095000D01*
X214839823Y-119095833D01*
X214842051Y-119096509D01*
X214844106Y-119097608D01*
X214845911Y-119099089D01*
X214847392Y-119100894D01*
X214848491Y-119102949D01*
X214849167Y-119105177D01*
X214850000Y-119113640D01*
X214850000Y-119926357D01*
X214849236Y-119934113D01*
X214849236Y-119944236D01*
X214839113Y-119944236D01*
X214831357Y-119945000D01*
X214568640Y-119945000D01*
X214560177Y-119944167D01*
X214557949Y-119943491D01*
X214555894Y-119942392D01*
X214554092Y-119940913D01*
X214546625Y-119931815D01*
X214529297Y-119914489D01*
X214508923Y-119900875D01*
X214486284Y-119891498D01*
X214462251Y-119886718D01*
X214437747Y-119886718D01*
X214413713Y-119891499D01*
X214391075Y-119900876D01*
X214370700Y-119914490D01*
X214353375Y-119931815D01*
X214345908Y-119940913D01*
X214344106Y-119942392D01*
X214342051Y-119943491D01*
X214339823Y-119944167D01*
X214331360Y-119945000D01*
X214068640Y-119945000D01*
X214060177Y-119944167D01*
X214057949Y-119943491D01*
X214055894Y-119942392D01*
X214054092Y-119940913D01*
X214046625Y-119931815D01*
X214029297Y-119914489D01*
X214008923Y-119900875D01*
X213986284Y-119891498D01*
X213962251Y-119886718D01*
X213937747Y-119886718D01*
X213913713Y-119891499D01*
X213891075Y-119900876D01*
X213870700Y-119914490D01*
X213853375Y-119931815D01*
X213845908Y-119940913D01*
X213844106Y-119942392D01*
X213842051Y-119943491D01*
X213839823Y-119944167D01*
X213831360Y-119945000D01*
X213568640Y-119945000D01*
X213560177Y-119944167D01*
X213557949Y-119943491D01*
X213555894Y-119942392D01*
X213554092Y-119940913D01*
X213546625Y-119931815D01*
X213529297Y-119914489D01*
X213508923Y-119900875D01*
X213486284Y-119891498D01*
X213462251Y-119886718D01*
X213437747Y-119886718D01*
X213413713Y-119891499D01*
X213391075Y-119900876D01*
X213370700Y-119914490D01*
X213353375Y-119931815D01*
X213345908Y-119940913D01*
X213344106Y-119942392D01*
X213342051Y-119943491D01*
X213339823Y-119944167D01*
X213331360Y-119945000D01*
X213068640Y-119945000D01*
X213060177Y-119944167D01*
X213057949Y-119943491D01*
X213055894Y-119942392D01*
X213054092Y-119940913D01*
X213046625Y-119931815D01*
X213029297Y-119914489D01*
X213008923Y-119900875D01*
X212986284Y-119891498D01*
X212962251Y-119886718D01*
X212937747Y-119886718D01*
X212913713Y-119891499D01*
X212891075Y-119900876D01*
X212870700Y-119914490D01*
X212853375Y-119931815D01*
X212845908Y-119940913D01*
X212844106Y-119942392D01*
X212842051Y-119943491D01*
X212839823Y-119944167D01*
X212831360Y-119945000D01*
X212568640Y-119945000D01*
X212560177Y-119944167D01*
X212557949Y-119943491D01*
X212555894Y-119942392D01*
X212554092Y-119940913D01*
X212546625Y-119931815D01*
X212529297Y-119914489D01*
X212508923Y-119900875D01*
X212486284Y-119891498D01*
X212462251Y-119886718D01*
X212437747Y-119886718D01*
X212413713Y-119891499D01*
X212391075Y-119900876D01*
X212370700Y-119914490D01*
X212353375Y-119931815D01*
X212345908Y-119940913D01*
X212344106Y-119942392D01*
X212342051Y-119943491D01*
X212339823Y-119944167D01*
X212331360Y-119945000D01*
X212068643Y-119945000D01*
X212060887Y-119944236D01*
X212050764Y-119944236D01*
X212050764Y-119934113D01*
X212050000Y-119926357D01*
X212050000Y-119113640D01*
X212050833Y-119105177D01*
X212051509Y-119102949D01*
X212052608Y-119100894D01*
X212054089Y-119099089D01*
X212055894Y-119097608D01*
X212057949Y-119096509D01*
X212060177Y-119095833D01*
X212068640Y-119095000D01*
X212331360Y-119095000D01*
X212339823Y-119095833D01*
X212339823Y-119095833D01*
G37*
G36*
X235876491Y-112954075D02*
G01*
X235910379Y-112964355D01*
X235941612Y-112981050D01*
X235968986Y-113003514D01*
X235991450Y-113030888D01*
X236008145Y-113062121D01*
X236018425Y-113096009D01*
X236022500Y-113137388D01*
X236022500Y-114162612D01*
X236018425Y-114203991D01*
X236008145Y-114237879D01*
X235991450Y-114269112D01*
X235968986Y-114296486D01*
X235941612Y-114318950D01*
X235910379Y-114335645D01*
X235876491Y-114345925D01*
X235835112Y-114350000D01*
X235234888Y-114350000D01*
X235193509Y-114345925D01*
X235159621Y-114335645D01*
X235128388Y-114318950D01*
X235101014Y-114296486D01*
X235078550Y-114269112D01*
X235061855Y-114237879D01*
X235051575Y-114203991D01*
X235047500Y-114162612D01*
X235047500Y-113137388D01*
X235051575Y-113096009D01*
X235061855Y-113062121D01*
X235078550Y-113030888D01*
X235101014Y-113003514D01*
X235128388Y-112981050D01*
X235159621Y-112964355D01*
X235193509Y-112954075D01*
X235234888Y-112950000D01*
X235835112Y-112950000D01*
X235876491Y-112954075D01*
X235876491Y-112954075D01*
G37*
G36*
X237751491Y-112954075D02*
G01*
X237785379Y-112964355D01*
X237816612Y-112981050D01*
X237843986Y-113003514D01*
X237866450Y-113030888D01*
X237883145Y-113062121D01*
X237893425Y-113096009D01*
X237897500Y-113137388D01*
X237897500Y-114162612D01*
X237893425Y-114203991D01*
X237883145Y-114237879D01*
X237866450Y-114269112D01*
X237843986Y-114296486D01*
X237816612Y-114318950D01*
X237785379Y-114335645D01*
X237751491Y-114345925D01*
X237710112Y-114350000D01*
X237109888Y-114350000D01*
X237068509Y-114345925D01*
X237034621Y-114335645D01*
X237003388Y-114318950D01*
X236976014Y-114296486D01*
X236953550Y-114269112D01*
X236936855Y-114237879D01*
X236926575Y-114203991D01*
X236922500Y-114162612D01*
X236922500Y-113137388D01*
X236926575Y-113096009D01*
X236936855Y-113062121D01*
X236953550Y-113030888D01*
X236976014Y-113003514D01*
X237003388Y-112981050D01*
X237034621Y-112964355D01*
X237068509Y-112954075D01*
X237109888Y-112950000D01*
X237710112Y-112950000D01*
X237751491Y-112954075D01*
X237751491Y-112954075D01*
G37*
G36*
X232170000Y-111875000D02*
G01*
X231670000Y-111875000D01*
X231670000Y-111525000D01*
X232170000Y-111525000D01*
X232170000Y-111875000D01*
X232170000Y-111875000D01*
G37*
G36*
X234220000Y-111875000D02*
G01*
X233720000Y-111875000D01*
X233720000Y-111525000D01*
X234220000Y-111525000D01*
X234220000Y-111875000D01*
X234220000Y-111875000D01*
G37*
G36*
X212768214Y-109936511D02*
G01*
X212853040Y-109962243D01*
X212853042Y-109962244D01*
X212931214Y-110004028D01*
X212999738Y-110060263D01*
X213055972Y-110128785D01*
X213086514Y-110185925D01*
X213097757Y-110206959D01*
X213123489Y-110291785D01*
X213130000Y-110357895D01*
X213130000Y-110902105D01*
X213123489Y-110968215D01*
X213097757Y-111053041D01*
X213097756Y-111053043D01*
X213055972Y-111131215D01*
X212999738Y-111199738D01*
X212931215Y-111255972D01*
X212882563Y-111281977D01*
X212853041Y-111297757D01*
X212768215Y-111323489D01*
X212680000Y-111332177D01*
X212591786Y-111323489D01*
X212506960Y-111297757D01*
X212477438Y-111281977D01*
X212428786Y-111255972D01*
X212360263Y-111199738D01*
X212304030Y-111131217D01*
X212262243Y-111053041D01*
X212236511Y-110968213D01*
X212230000Y-110902106D01*
X212230000Y-110357895D01*
X212236511Y-110291788D01*
X212236511Y-110291786D01*
X212262243Y-110206960D01*
X212271308Y-110190000D01*
X212304028Y-110128786D01*
X212360263Y-110060262D01*
X212428785Y-110004028D01*
X212506957Y-109962244D01*
X212506959Y-109962243D01*
X212591785Y-109936511D01*
X212680000Y-109927823D01*
X212768214Y-109936511D01*
X212768214Y-109936511D01*
G37*
G36*
X211518214Y-109936511D02*
G01*
X211603040Y-109962243D01*
X211603042Y-109962244D01*
X211681214Y-110004028D01*
X211749738Y-110060263D01*
X211805972Y-110128785D01*
X211836514Y-110185925D01*
X211847757Y-110206959D01*
X211873489Y-110291785D01*
X211880000Y-110357895D01*
X211880000Y-110902105D01*
X211873489Y-110968215D01*
X211847757Y-111053041D01*
X211847756Y-111053043D01*
X211805972Y-111131215D01*
X211749738Y-111199738D01*
X211681215Y-111255972D01*
X211632563Y-111281977D01*
X211603041Y-111297757D01*
X211518215Y-111323489D01*
X211430000Y-111332177D01*
X211341786Y-111323489D01*
X211256960Y-111297757D01*
X211227438Y-111281977D01*
X211178786Y-111255972D01*
X211110263Y-111199738D01*
X211054030Y-111131217D01*
X211012243Y-111053041D01*
X210986511Y-110968213D01*
X210980000Y-110902106D01*
X210980000Y-110357895D01*
X210986511Y-110291788D01*
X210986511Y-110291786D01*
X211012243Y-110206960D01*
X211021308Y-110190000D01*
X211054028Y-110128786D01*
X211110263Y-110060262D01*
X211178785Y-110004028D01*
X211256957Y-109962244D01*
X211256959Y-109962243D01*
X211341785Y-109936511D01*
X211430000Y-109927823D01*
X211518214Y-109936511D01*
X211518214Y-109936511D01*
G37*
G36*
X210268214Y-109936511D02*
G01*
X210353040Y-109962243D01*
X210353042Y-109962244D01*
X210431214Y-110004028D01*
X210499738Y-110060263D01*
X210555972Y-110128785D01*
X210586514Y-110185925D01*
X210597757Y-110206959D01*
X210623489Y-110291785D01*
X210630000Y-110357895D01*
X210630000Y-110902105D01*
X210623489Y-110968215D01*
X210597757Y-111053041D01*
X210597756Y-111053043D01*
X210555972Y-111131215D01*
X210499738Y-111199738D01*
X210431215Y-111255972D01*
X210382563Y-111281977D01*
X210353041Y-111297757D01*
X210268215Y-111323489D01*
X210180000Y-111332177D01*
X210091786Y-111323489D01*
X210006960Y-111297757D01*
X209977438Y-111281977D01*
X209928786Y-111255972D01*
X209860263Y-111199738D01*
X209804030Y-111131217D01*
X209762243Y-111053041D01*
X209736511Y-110968213D01*
X209730000Y-110902106D01*
X209730000Y-110357895D01*
X209736511Y-110291788D01*
X209736511Y-110291786D01*
X209762243Y-110206960D01*
X209771308Y-110190000D01*
X209804028Y-110128786D01*
X209860263Y-110060262D01*
X209928785Y-110004028D01*
X210006957Y-109962244D01*
X210006959Y-109962243D01*
X210091785Y-109936511D01*
X210180000Y-109927823D01*
X210268214Y-109936511D01*
X210268214Y-109936511D01*
G37*
G36*
X209249083Y-109933715D02*
G01*
X209279454Y-109942928D01*
X209307445Y-109957890D01*
X209331977Y-109978023D01*
X209352110Y-110002555D01*
X209367072Y-110030546D01*
X209376285Y-110060917D01*
X209380000Y-110098640D01*
X209380000Y-111161360D01*
X209376285Y-111199083D01*
X209367072Y-111229454D01*
X209352110Y-111257445D01*
X209331977Y-111281977D01*
X209307445Y-111302110D01*
X209279454Y-111317072D01*
X209249083Y-111326285D01*
X209211360Y-111330000D01*
X208648640Y-111330000D01*
X208610917Y-111326285D01*
X208580546Y-111317072D01*
X208552555Y-111302110D01*
X208528023Y-111281977D01*
X208507890Y-111257445D01*
X208492928Y-111229454D01*
X208483715Y-111199083D01*
X208480000Y-111161360D01*
X208480000Y-110098640D01*
X208483715Y-110060917D01*
X208492928Y-110030546D01*
X208507890Y-110002555D01*
X208528023Y-109978023D01*
X208552555Y-109957890D01*
X208580546Y-109942928D01*
X208610917Y-109933715D01*
X208648640Y-109930000D01*
X209211360Y-109930000D01*
X209249083Y-109933715D01*
X209249083Y-109933715D01*
G37*
G36*
X234220000Y-111225000D02*
G01*
X233720000Y-111225000D01*
X233720000Y-110875000D01*
X234220000Y-110875000D01*
X234220000Y-111225000D01*
X234220000Y-111225000D01*
G37*
G36*
X232170000Y-111225000D02*
G01*
X231670000Y-111225000D01*
X231670000Y-110875000D01*
X232170000Y-110875000D01*
X232170000Y-111225000D01*
X232170000Y-111225000D01*
G37*
G36*
X234220000Y-110575000D02*
G01*
X233720000Y-110575000D01*
X233720000Y-110225000D01*
X234220000Y-110225000D01*
X234220000Y-110575000D01*
X234220000Y-110575000D01*
G37*
G36*
X232170000Y-110575000D02*
G01*
X231670000Y-110575000D01*
X231670000Y-110225000D01*
X232170000Y-110225000D01*
X232170000Y-110575000D01*
X232170000Y-110575000D01*
G37*
G36*
X238988991Y-108794075D02*
G01*
X239022879Y-108804355D01*
X239054112Y-108821050D01*
X239081486Y-108843514D01*
X239103950Y-108870888D01*
X239120645Y-108902121D01*
X239130925Y-108936009D01*
X239135000Y-108977388D01*
X239135000Y-110002612D01*
X239130925Y-110043991D01*
X239120645Y-110077879D01*
X239103950Y-110109112D01*
X239081486Y-110136486D01*
X239054112Y-110158950D01*
X239022879Y-110175645D01*
X238988991Y-110185925D01*
X238947612Y-110190000D01*
X238347388Y-110190000D01*
X238306009Y-110185925D01*
X238272121Y-110175645D01*
X238240888Y-110158950D01*
X238213514Y-110136486D01*
X238191050Y-110109112D01*
X238174355Y-110077879D01*
X238164075Y-110043991D01*
X238160000Y-110002612D01*
X238160000Y-108977388D01*
X238164075Y-108936009D01*
X238174355Y-108902121D01*
X238191050Y-108870888D01*
X238213514Y-108843514D01*
X238240888Y-108821050D01*
X238272121Y-108804355D01*
X238306009Y-108794075D01*
X238347388Y-108790000D01*
X238947612Y-108790000D01*
X238988991Y-108794075D01*
X238988991Y-108794075D01*
G37*
G36*
X237113991Y-108794075D02*
G01*
X237147879Y-108804355D01*
X237179112Y-108821050D01*
X237206486Y-108843514D01*
X237228950Y-108870888D01*
X237245645Y-108902121D01*
X237255925Y-108936009D01*
X237260000Y-108977388D01*
X237260000Y-110002612D01*
X237255925Y-110043991D01*
X237245645Y-110077879D01*
X237228950Y-110109112D01*
X237206486Y-110136486D01*
X237179112Y-110158950D01*
X237147879Y-110175645D01*
X237113991Y-110185925D01*
X237072612Y-110190000D01*
X236472388Y-110190000D01*
X236431009Y-110185925D01*
X236397121Y-110175645D01*
X236365888Y-110158950D01*
X236338514Y-110136486D01*
X236316050Y-110109112D01*
X236299355Y-110077879D01*
X236289075Y-110043991D01*
X236285000Y-110002612D01*
X236285000Y-108977388D01*
X236289075Y-108936009D01*
X236299355Y-108902121D01*
X236316050Y-108870888D01*
X236338514Y-108843514D01*
X236365888Y-108821050D01*
X236397121Y-108804355D01*
X236431009Y-108794075D01*
X236472388Y-108790000D01*
X237072612Y-108790000D01*
X237113991Y-108794075D01*
X237113991Y-108794075D01*
G37*
G36*
X234220000Y-109925000D02*
G01*
X233720000Y-109925000D01*
X233720000Y-109575000D01*
X234220000Y-109575000D01*
X234220000Y-109925000D01*
X234220000Y-109925000D01*
G37*
G36*
X232170000Y-109925000D02*
G01*
X231670000Y-109925000D01*
X231670000Y-109575000D01*
X232170000Y-109575000D01*
X232170000Y-109925000D01*
X232170000Y-109925000D01*
G37*
G36*
X244643991Y-107801575D02*
G01*
X244677879Y-107811855D01*
X244709112Y-107828550D01*
X244736486Y-107851014D01*
X244758950Y-107878388D01*
X244775645Y-107909621D01*
X244785925Y-107943509D01*
X244790000Y-107984888D01*
X244790000Y-108585112D01*
X244785925Y-108626491D01*
X244775645Y-108660379D01*
X244758950Y-108691612D01*
X244736486Y-108718986D01*
X244709112Y-108741450D01*
X244677879Y-108758145D01*
X244643991Y-108768425D01*
X244602612Y-108772500D01*
X243577388Y-108772500D01*
X243536009Y-108768425D01*
X243502121Y-108758145D01*
X243470888Y-108741450D01*
X243443514Y-108718986D01*
X243421050Y-108691612D01*
X243404355Y-108660379D01*
X243394075Y-108626491D01*
X243390000Y-108585112D01*
X243390000Y-107984888D01*
X243394075Y-107943509D01*
X243404355Y-107909621D01*
X243421050Y-107878388D01*
X243443514Y-107851014D01*
X243470888Y-107828550D01*
X243502121Y-107811855D01*
X243536009Y-107801575D01*
X243577388Y-107797500D01*
X244602612Y-107797500D01*
X244643991Y-107801575D01*
X244643991Y-107801575D01*
G37*
G36*
X250261539Y-106598919D02*
G01*
X250443437Y-106674264D01*
X250607135Y-106783643D01*
X250746357Y-106922865D01*
X250855736Y-107086563D01*
X250931081Y-107268461D01*
X250969490Y-107461557D01*
X250969490Y-107658443D01*
X250931081Y-107851539D01*
X250855736Y-108033437D01*
X250746357Y-108197135D01*
X250607135Y-108336357D01*
X250443437Y-108445736D01*
X250261539Y-108521081D01*
X250068443Y-108559490D01*
X249871557Y-108559490D01*
X249678461Y-108521081D01*
X249496563Y-108445736D01*
X249332865Y-108336357D01*
X249193643Y-108197135D01*
X249084264Y-108033437D01*
X249008919Y-107851539D01*
X248970510Y-107658443D01*
X248970510Y-107461557D01*
X249008919Y-107268461D01*
X249084264Y-107086563D01*
X249193643Y-106922865D01*
X249332865Y-106783643D01*
X249496563Y-106674264D01*
X249678461Y-106598919D01*
X249871557Y-106560510D01*
X250068443Y-106560510D01*
X250261539Y-106598919D01*
X250261539Y-106598919D01*
G37*
G36*
X235530000Y-107840000D02*
G01*
X234130000Y-107840000D01*
X234130000Y-105540000D01*
X235530000Y-105540000D01*
X235530000Y-107840000D01*
X235530000Y-107840000D01*
G37*
G36*
X231130000Y-107840000D02*
G01*
X229730000Y-107840000D01*
X229730000Y-105540000D01*
X231130000Y-105540000D01*
X231130000Y-107840000D01*
X231130000Y-107840000D01*
G37*
G36*
X244643991Y-105926575D02*
G01*
X244677879Y-105936855D01*
X244709112Y-105953550D01*
X244736486Y-105976014D01*
X244758950Y-106003388D01*
X244775645Y-106034621D01*
X244785925Y-106068509D01*
X244790000Y-106109888D01*
X244790000Y-106710112D01*
X244785925Y-106751491D01*
X244775645Y-106785379D01*
X244758950Y-106816612D01*
X244736486Y-106843986D01*
X244709112Y-106866450D01*
X244677879Y-106883145D01*
X244643991Y-106893425D01*
X244602612Y-106897500D01*
X243577388Y-106897500D01*
X243536009Y-106893425D01*
X243502121Y-106883145D01*
X243470888Y-106866450D01*
X243443514Y-106843986D01*
X243421050Y-106816612D01*
X243404355Y-106785379D01*
X243394075Y-106751491D01*
X243390000Y-106710112D01*
X243390000Y-106109888D01*
X243394075Y-106068509D01*
X243404355Y-106034621D01*
X243421050Y-106003388D01*
X243443514Y-105976014D01*
X243470888Y-105953550D01*
X243502121Y-105936855D01*
X243536009Y-105926575D01*
X243577388Y-105922500D01*
X244602612Y-105922500D01*
X244643991Y-105926575D01*
X244643991Y-105926575D01*
G37*
G36*
X210268214Y-104856511D02*
G01*
X210353040Y-104882243D01*
X210353042Y-104882244D01*
X210431214Y-104924028D01*
X210499738Y-104980263D01*
X210555972Y-105048785D01*
X210569984Y-105075000D01*
X210597757Y-105126959D01*
X210623489Y-105211785D01*
X210630000Y-105277895D01*
X210630000Y-105822105D01*
X210623489Y-105888215D01*
X210600627Y-105963579D01*
X210597756Y-105973043D01*
X210555972Y-106051215D01*
X210499738Y-106119738D01*
X210431215Y-106175972D01*
X210382563Y-106201977D01*
X210353041Y-106217757D01*
X210268215Y-106243489D01*
X210180000Y-106252177D01*
X210091786Y-106243489D01*
X210006960Y-106217757D01*
X209977438Y-106201977D01*
X209928786Y-106175972D01*
X209860263Y-106119738D01*
X209804030Y-106051217D01*
X209762243Y-105973041D01*
X209736511Y-105888213D01*
X209730000Y-105822106D01*
X209730000Y-105277895D01*
X209736511Y-105211788D01*
X209736511Y-105211786D01*
X209762243Y-105126960D01*
X209762245Y-105126957D01*
X209804028Y-105048786D01*
X209860263Y-104980262D01*
X209928785Y-104924028D01*
X210006957Y-104882244D01*
X210006959Y-104882243D01*
X210091785Y-104856511D01*
X210180000Y-104847823D01*
X210268214Y-104856511D01*
X210268214Y-104856511D01*
G37*
G36*
X212768214Y-104856511D02*
G01*
X212853040Y-104882243D01*
X212853042Y-104882244D01*
X212931214Y-104924028D01*
X212999738Y-104980263D01*
X213055972Y-105048785D01*
X213069984Y-105075000D01*
X213097757Y-105126959D01*
X213123489Y-105211785D01*
X213130000Y-105277895D01*
X213130000Y-105822105D01*
X213123489Y-105888215D01*
X213100627Y-105963579D01*
X213097756Y-105973043D01*
X213055972Y-106051215D01*
X212999738Y-106119738D01*
X212931215Y-106175972D01*
X212882563Y-106201977D01*
X212853041Y-106217757D01*
X212768215Y-106243489D01*
X212680000Y-106252177D01*
X212591786Y-106243489D01*
X212506960Y-106217757D01*
X212477438Y-106201977D01*
X212428786Y-106175972D01*
X212360263Y-106119738D01*
X212304030Y-106051217D01*
X212262243Y-105973041D01*
X212236511Y-105888213D01*
X212230000Y-105822106D01*
X212230000Y-105277895D01*
X212236511Y-105211788D01*
X212236511Y-105211786D01*
X212262243Y-105126960D01*
X212262245Y-105126957D01*
X212304028Y-105048786D01*
X212360263Y-104980262D01*
X212428785Y-104924028D01*
X212506957Y-104882244D01*
X212506959Y-104882243D01*
X212591785Y-104856511D01*
X212680000Y-104847823D01*
X212768214Y-104856511D01*
X212768214Y-104856511D01*
G37*
G36*
X211518214Y-104856511D02*
G01*
X211603040Y-104882243D01*
X211603042Y-104882244D01*
X211681214Y-104924028D01*
X211749738Y-104980263D01*
X211805972Y-105048785D01*
X211819984Y-105075000D01*
X211847757Y-105126959D01*
X211873489Y-105211785D01*
X211880000Y-105277895D01*
X211880000Y-105822105D01*
X211873489Y-105888215D01*
X211850627Y-105963579D01*
X211847756Y-105973043D01*
X211805972Y-106051215D01*
X211749738Y-106119738D01*
X211681215Y-106175972D01*
X211632563Y-106201977D01*
X211603041Y-106217757D01*
X211518215Y-106243489D01*
X211430000Y-106252177D01*
X211341786Y-106243489D01*
X211256960Y-106217757D01*
X211227438Y-106201977D01*
X211178786Y-106175972D01*
X211110263Y-106119738D01*
X211054030Y-106051217D01*
X211012243Y-105973041D01*
X210986511Y-105888213D01*
X210980000Y-105822106D01*
X210980000Y-105277895D01*
X210986511Y-105211788D01*
X210986511Y-105211786D01*
X211012243Y-105126960D01*
X211012245Y-105126957D01*
X211054028Y-105048786D01*
X211110263Y-104980262D01*
X211178785Y-104924028D01*
X211256957Y-104882244D01*
X211256959Y-104882243D01*
X211341785Y-104856511D01*
X211430000Y-104847823D01*
X211518214Y-104856511D01*
X211518214Y-104856511D01*
G37*
G36*
X209249083Y-104853715D02*
G01*
X209279454Y-104862928D01*
X209307445Y-104877890D01*
X209331977Y-104898023D01*
X209352110Y-104922555D01*
X209367072Y-104950546D01*
X209376285Y-104980917D01*
X209380000Y-105018640D01*
X209380000Y-106081360D01*
X209376285Y-106119083D01*
X209367072Y-106149454D01*
X209352110Y-106177445D01*
X209331977Y-106201977D01*
X209307445Y-106222110D01*
X209279454Y-106237072D01*
X209249083Y-106246285D01*
X209211360Y-106250000D01*
X208648640Y-106250000D01*
X208610917Y-106246285D01*
X208580546Y-106237072D01*
X208552555Y-106222110D01*
X208528023Y-106201977D01*
X208507890Y-106177445D01*
X208492928Y-106149454D01*
X208483715Y-106119083D01*
X208480000Y-106081360D01*
X208480000Y-105018640D01*
X208483715Y-104980917D01*
X208492928Y-104950546D01*
X208507890Y-104922555D01*
X208528023Y-104898023D01*
X208552555Y-104877890D01*
X208580546Y-104862928D01*
X208610917Y-104853715D01*
X208648640Y-104850000D01*
X209211360Y-104850000D01*
X209249083Y-104853715D01*
X209249083Y-104853715D01*
G37*
G36*
X227540800Y-105990800D02*
G01*
X224539200Y-105990800D01*
X224539200Y-104189200D01*
X227540800Y-104189200D01*
X227540800Y-105990800D01*
X227540800Y-105990800D01*
G37*
G36*
X250549116Y-104146095D02*
G01*
X250578311Y-104154952D01*
X250605223Y-104169337D01*
X250628808Y-104188692D01*
X250648163Y-104212277D01*
X250662548Y-104239189D01*
X250671405Y-104268384D01*
X250675000Y-104304890D01*
X250675000Y-104855110D01*
X250671405Y-104891616D01*
X250662548Y-104920811D01*
X250648163Y-104947723D01*
X250628808Y-104971308D01*
X250605223Y-104990663D01*
X250578311Y-105005048D01*
X250549116Y-105013905D01*
X250512610Y-105017500D01*
X249887390Y-105017500D01*
X249850884Y-105013905D01*
X249821689Y-105005048D01*
X249794777Y-104990663D01*
X249771192Y-104971308D01*
X249751837Y-104947723D01*
X249737452Y-104920811D01*
X249728595Y-104891616D01*
X249725000Y-104855110D01*
X249725000Y-104304890D01*
X249728595Y-104268384D01*
X249737452Y-104239189D01*
X249751837Y-104212277D01*
X249771192Y-104188692D01*
X249794777Y-104169337D01*
X249821689Y-104154952D01*
X249850884Y-104146095D01*
X249887390Y-104142500D01*
X250512610Y-104142500D01*
X250549116Y-104146095D01*
X250549116Y-104146095D01*
G37*
G36*
X248379600Y-104953200D02*
G01*
X247160400Y-104953200D01*
X247160400Y-102596802D01*
X248379600Y-102596802D01*
X248379600Y-104953200D01*
X248379600Y-104953200D01*
G37*
G36*
X246093600Y-104953200D02*
G01*
X244874400Y-104953200D01*
X244874400Y-102596802D01*
X246093600Y-102596802D01*
X246093600Y-104953200D01*
X246093600Y-104953200D01*
G37*
G36*
X250549116Y-102571095D02*
G01*
X250578311Y-102579952D01*
X250605223Y-102594337D01*
X250628808Y-102613692D01*
X250648163Y-102637277D01*
X250662548Y-102664189D01*
X250671405Y-102693384D01*
X250675000Y-102729890D01*
X250675000Y-103280110D01*
X250671405Y-103316616D01*
X250662548Y-103345811D01*
X250648163Y-103372723D01*
X250628808Y-103396308D01*
X250605223Y-103415663D01*
X250578311Y-103430048D01*
X250549116Y-103438905D01*
X250512610Y-103442500D01*
X249887390Y-103442500D01*
X249850884Y-103438905D01*
X249821689Y-103430048D01*
X249794777Y-103415663D01*
X249771192Y-103396308D01*
X249751837Y-103372723D01*
X249737452Y-103345811D01*
X249728595Y-103316616D01*
X249725000Y-103280110D01*
X249725000Y-102729890D01*
X249728595Y-102693384D01*
X249737452Y-102664189D01*
X249751837Y-102637277D01*
X249771192Y-102613692D01*
X249794777Y-102594337D01*
X249821689Y-102579952D01*
X249850884Y-102571095D01*
X249887390Y-102567500D01*
X250512610Y-102567500D01*
X250549116Y-102571095D01*
X250549116Y-102571095D01*
G37*
G36*
X246101616Y-100778595D02*
G01*
X246130811Y-100787452D01*
X246157723Y-100801837D01*
X246181308Y-100821192D01*
X246200663Y-100844777D01*
X246215048Y-100871689D01*
X246223905Y-100900884D01*
X246227500Y-100937390D01*
X246227500Y-101562610D01*
X246223905Y-101599116D01*
X246215048Y-101628311D01*
X246200663Y-101655223D01*
X246181308Y-101678808D01*
X246157723Y-101698163D01*
X246130811Y-101712548D01*
X246101616Y-101721405D01*
X246065110Y-101725000D01*
X245514890Y-101725000D01*
X245478384Y-101721405D01*
X245449189Y-101712548D01*
X245422277Y-101698163D01*
X245398692Y-101678808D01*
X245379337Y-101655223D01*
X245364952Y-101628311D01*
X245356095Y-101599116D01*
X245352500Y-101562610D01*
X245352500Y-100937390D01*
X245356095Y-100900884D01*
X245364952Y-100871689D01*
X245379337Y-100844777D01*
X245398692Y-100821192D01*
X245422277Y-100801837D01*
X245449189Y-100787452D01*
X245478384Y-100778595D01*
X245514890Y-100775000D01*
X246065110Y-100775000D01*
X246101616Y-100778595D01*
X246101616Y-100778595D01*
G37*
G36*
X244526616Y-100778595D02*
G01*
X244555811Y-100787452D01*
X244582723Y-100801837D01*
X244606308Y-100821192D01*
X244625663Y-100844777D01*
X244640048Y-100871689D01*
X244648905Y-100900884D01*
X244652500Y-100937390D01*
X244652500Y-101562610D01*
X244648905Y-101599116D01*
X244640048Y-101628311D01*
X244625663Y-101655223D01*
X244606308Y-101678808D01*
X244582723Y-101698163D01*
X244555811Y-101712548D01*
X244526616Y-101721405D01*
X244490110Y-101725000D01*
X243939890Y-101725000D01*
X243903384Y-101721405D01*
X243874189Y-101712548D01*
X243847277Y-101698163D01*
X243823692Y-101678808D01*
X243804337Y-101655223D01*
X243789952Y-101628311D01*
X243781095Y-101599116D01*
X243777500Y-101562610D01*
X243777500Y-100937390D01*
X243781095Y-100900884D01*
X243789952Y-100871689D01*
X243804337Y-100844777D01*
X243823692Y-100821192D01*
X243847277Y-100801837D01*
X243874189Y-100787452D01*
X243903384Y-100778595D01*
X243939890Y-100775000D01*
X244490110Y-100775000D01*
X244526616Y-100778595D01*
X244526616Y-100778595D01*
G37*
G36*
X248296616Y-100778595D02*
G01*
X248325811Y-100787452D01*
X248352723Y-100801837D01*
X248376308Y-100821192D01*
X248395663Y-100844777D01*
X248410048Y-100871689D01*
X248418905Y-100900884D01*
X248422500Y-100937390D01*
X248422500Y-101562610D01*
X248418905Y-101599116D01*
X248410048Y-101628311D01*
X248395663Y-101655223D01*
X248376308Y-101678808D01*
X248352723Y-101698163D01*
X248325811Y-101712548D01*
X248296616Y-101721405D01*
X248260110Y-101725000D01*
X247709890Y-101725000D01*
X247673384Y-101721405D01*
X247644189Y-101712548D01*
X247617277Y-101698163D01*
X247593692Y-101678808D01*
X247574337Y-101655223D01*
X247559952Y-101628311D01*
X247551095Y-101599116D01*
X247547500Y-101562610D01*
X247547500Y-100937390D01*
X247551095Y-100900884D01*
X247559952Y-100871689D01*
X247574337Y-100844777D01*
X247593692Y-100821192D01*
X247617277Y-100801837D01*
X247644189Y-100787452D01*
X247673384Y-100778595D01*
X247709890Y-100775000D01*
X248260110Y-100775000D01*
X248296616Y-100778595D01*
X248296616Y-100778595D01*
G37*
G36*
X249871616Y-100778595D02*
G01*
X249900811Y-100787452D01*
X249927723Y-100801837D01*
X249951308Y-100821192D01*
X249970663Y-100844777D01*
X249985048Y-100871689D01*
X249993905Y-100900884D01*
X249997500Y-100937390D01*
X249997500Y-101562610D01*
X249993905Y-101599116D01*
X249985048Y-101628311D01*
X249970663Y-101655223D01*
X249951308Y-101678808D01*
X249927723Y-101698163D01*
X249900811Y-101712548D01*
X249871616Y-101721405D01*
X249835110Y-101725000D01*
X249284890Y-101725000D01*
X249248384Y-101721405D01*
X249219189Y-101712548D01*
X249192277Y-101698163D01*
X249168692Y-101678808D01*
X249149337Y-101655223D01*
X249134952Y-101628311D01*
X249126095Y-101599116D01*
X249122500Y-101562610D01*
X249122500Y-100937390D01*
X249126095Y-100900884D01*
X249134952Y-100871689D01*
X249149337Y-100844777D01*
X249168692Y-100821192D01*
X249192277Y-100801837D01*
X249219189Y-100787452D01*
X249248384Y-100778595D01*
X249284890Y-100775000D01*
X249835110Y-100775000D01*
X249871616Y-100778595D01*
X249871616Y-100778595D01*
G37*
G36*
X256796627Y-97932299D02*
G01*
X256876742Y-97956601D01*
X256956855Y-97980903D01*
X256956857Y-97980904D01*
X257104518Y-98059831D01*
X257233949Y-98166051D01*
X257340169Y-98295482D01*
X257419096Y-98443143D01*
X257467701Y-98603373D01*
X257484112Y-98770000D01*
X257467701Y-98936627D01*
X257419096Y-99096857D01*
X257340169Y-99244518D01*
X257233949Y-99373949D01*
X257104518Y-99480169D01*
X256956857Y-99559096D01*
X256956855Y-99559097D01*
X256876742Y-99583398D01*
X256796627Y-99607701D01*
X256671752Y-99620000D01*
X256588248Y-99620000D01*
X256463373Y-99607701D01*
X256383258Y-99583398D01*
X256303145Y-99559097D01*
X256303143Y-99559096D01*
X256155482Y-99480169D01*
X256026051Y-99373949D01*
X255919831Y-99244518D01*
X255840904Y-99096857D01*
X255792299Y-98936627D01*
X255775888Y-98770000D01*
X255792299Y-98603373D01*
X255840904Y-98443143D01*
X255919831Y-98295482D01*
X256026051Y-98166051D01*
X256155482Y-98059831D01*
X256303143Y-97980904D01*
X256303145Y-97980903D01*
X256383258Y-97956601D01*
X256463373Y-97932299D01*
X256588248Y-97920000D01*
X256671752Y-97920000D01*
X256796627Y-97932299D01*
X256796627Y-97932299D01*
G37*
G36*
X251716627Y-97932299D02*
G01*
X251796742Y-97956601D01*
X251876855Y-97980903D01*
X251876857Y-97980904D01*
X252024518Y-98059831D01*
X252153949Y-98166051D01*
X252260169Y-98295482D01*
X252339096Y-98443143D01*
X252387701Y-98603373D01*
X252404112Y-98770000D01*
X252387701Y-98936627D01*
X252339096Y-99096857D01*
X252260169Y-99244518D01*
X252153949Y-99373949D01*
X252024518Y-99480169D01*
X251876857Y-99559096D01*
X251876855Y-99559097D01*
X251796742Y-99583398D01*
X251716627Y-99607701D01*
X251591752Y-99620000D01*
X251508248Y-99620000D01*
X251383373Y-99607701D01*
X251303258Y-99583398D01*
X251223145Y-99559097D01*
X251223143Y-99559096D01*
X251075482Y-99480169D01*
X250946051Y-99373949D01*
X250839831Y-99244518D01*
X250760904Y-99096857D01*
X250712299Y-98936627D01*
X250695888Y-98770000D01*
X250712299Y-98603373D01*
X250760904Y-98443143D01*
X250839831Y-98295482D01*
X250946051Y-98166051D01*
X251075482Y-98059831D01*
X251223143Y-97980904D01*
X251223145Y-97980903D01*
X251303258Y-97956601D01*
X251383373Y-97932299D01*
X251508248Y-97920000D01*
X251591752Y-97920000D01*
X251716627Y-97932299D01*
X251716627Y-97932299D01*
G37*
G36*
X249176627Y-97932299D02*
G01*
X249256742Y-97956601D01*
X249336855Y-97980903D01*
X249336857Y-97980904D01*
X249484518Y-98059831D01*
X249613949Y-98166051D01*
X249720169Y-98295482D01*
X249799096Y-98443143D01*
X249847701Y-98603373D01*
X249864112Y-98770000D01*
X249847701Y-98936627D01*
X249799096Y-99096857D01*
X249720169Y-99244518D01*
X249613949Y-99373949D01*
X249484518Y-99480169D01*
X249336857Y-99559096D01*
X249336855Y-99559097D01*
X249256742Y-99583398D01*
X249176627Y-99607701D01*
X249051752Y-99620000D01*
X248968248Y-99620000D01*
X248843373Y-99607701D01*
X248763258Y-99583398D01*
X248683145Y-99559097D01*
X248683143Y-99559096D01*
X248535482Y-99480169D01*
X248406051Y-99373949D01*
X248299831Y-99244518D01*
X248220904Y-99096857D01*
X248172299Y-98936627D01*
X248155888Y-98770000D01*
X248172299Y-98603373D01*
X248220904Y-98443143D01*
X248299831Y-98295482D01*
X248406051Y-98166051D01*
X248535482Y-98059831D01*
X248683143Y-97980904D01*
X248683145Y-97980903D01*
X248763258Y-97956601D01*
X248843373Y-97932299D01*
X248968248Y-97920000D01*
X249051752Y-97920000D01*
X249176627Y-97932299D01*
X249176627Y-97932299D01*
G37*
G36*
X254256627Y-97932299D02*
G01*
X254336742Y-97956601D01*
X254416855Y-97980903D01*
X254416857Y-97980904D01*
X254564518Y-98059831D01*
X254693949Y-98166051D01*
X254800169Y-98295482D01*
X254879096Y-98443143D01*
X254927701Y-98603373D01*
X254944112Y-98770000D01*
X254927701Y-98936627D01*
X254879096Y-99096857D01*
X254800169Y-99244518D01*
X254693949Y-99373949D01*
X254564518Y-99480169D01*
X254416857Y-99559096D01*
X254416855Y-99559097D01*
X254336742Y-99583398D01*
X254256627Y-99607701D01*
X254131752Y-99620000D01*
X254048248Y-99620000D01*
X253923373Y-99607701D01*
X253843258Y-99583398D01*
X253763145Y-99559097D01*
X253763143Y-99559096D01*
X253615482Y-99480169D01*
X253486051Y-99373949D01*
X253379831Y-99244518D01*
X253300904Y-99096857D01*
X253252299Y-98936627D01*
X253235888Y-98770000D01*
X253252299Y-98603373D01*
X253300904Y-98443143D01*
X253379831Y-98295482D01*
X253486051Y-98166051D01*
X253615482Y-98059831D01*
X253763143Y-97980904D01*
X253763145Y-97980903D01*
X253843258Y-97956601D01*
X253923373Y-97932299D01*
X254048248Y-97920000D01*
X254131752Y-97920000D01*
X254256627Y-97932299D01*
X254256627Y-97932299D01*
G37*
G36*
X241556627Y-97932299D02*
G01*
X241636742Y-97956601D01*
X241716855Y-97980903D01*
X241716857Y-97980904D01*
X241864518Y-98059831D01*
X241993949Y-98166051D01*
X242100169Y-98295482D01*
X242179096Y-98443143D01*
X242227701Y-98603373D01*
X242244112Y-98770000D01*
X242227701Y-98936627D01*
X242179096Y-99096857D01*
X242100169Y-99244518D01*
X241993949Y-99373949D01*
X241864518Y-99480169D01*
X241716857Y-99559096D01*
X241716855Y-99559097D01*
X241636742Y-99583398D01*
X241556627Y-99607701D01*
X241431752Y-99620000D01*
X241348248Y-99620000D01*
X241223373Y-99607701D01*
X241143258Y-99583398D01*
X241063145Y-99559097D01*
X241063143Y-99559096D01*
X240915482Y-99480169D01*
X240786051Y-99373949D01*
X240679831Y-99244518D01*
X240600904Y-99096857D01*
X240552299Y-98936627D01*
X240535888Y-98770000D01*
X240552299Y-98603373D01*
X240600904Y-98443143D01*
X240679831Y-98295482D01*
X240786051Y-98166051D01*
X240915482Y-98059831D01*
X241063143Y-97980904D01*
X241063145Y-97980903D01*
X241143258Y-97956601D01*
X241223373Y-97932299D01*
X241348248Y-97920000D01*
X241431752Y-97920000D01*
X241556627Y-97932299D01*
X241556627Y-97932299D01*
G37*
G36*
X239016627Y-97932299D02*
G01*
X239096742Y-97956601D01*
X239176855Y-97980903D01*
X239176857Y-97980904D01*
X239324518Y-98059831D01*
X239453949Y-98166051D01*
X239560169Y-98295482D01*
X239639096Y-98443143D01*
X239687701Y-98603373D01*
X239704112Y-98770000D01*
X239687701Y-98936627D01*
X239639096Y-99096857D01*
X239560169Y-99244518D01*
X239453949Y-99373949D01*
X239324518Y-99480169D01*
X239176857Y-99559096D01*
X239176855Y-99559097D01*
X239096742Y-99583398D01*
X239016627Y-99607701D01*
X238891752Y-99620000D01*
X238808248Y-99620000D01*
X238683373Y-99607701D01*
X238603258Y-99583398D01*
X238523145Y-99559097D01*
X238523143Y-99559096D01*
X238375482Y-99480169D01*
X238246051Y-99373949D01*
X238139831Y-99244518D01*
X238060904Y-99096857D01*
X238012299Y-98936627D01*
X237995888Y-98770000D01*
X238012299Y-98603373D01*
X238060904Y-98443143D01*
X238139831Y-98295482D01*
X238246051Y-98166051D01*
X238375482Y-98059831D01*
X238523143Y-97980904D01*
X238523145Y-97980903D01*
X238603258Y-97956601D01*
X238683373Y-97932299D01*
X238808248Y-97920000D01*
X238891752Y-97920000D01*
X239016627Y-97932299D01*
X239016627Y-97932299D01*
G37*
G36*
X236476627Y-97932299D02*
G01*
X236556742Y-97956601D01*
X236636855Y-97980903D01*
X236636857Y-97980904D01*
X236784518Y-98059831D01*
X236913949Y-98166051D01*
X237020169Y-98295482D01*
X237099096Y-98443143D01*
X237147701Y-98603373D01*
X237164112Y-98770000D01*
X237147701Y-98936627D01*
X237099096Y-99096857D01*
X237020169Y-99244518D01*
X236913949Y-99373949D01*
X236784518Y-99480169D01*
X236636857Y-99559096D01*
X236636855Y-99559097D01*
X236556742Y-99583398D01*
X236476627Y-99607701D01*
X236351752Y-99620000D01*
X236268248Y-99620000D01*
X236143373Y-99607701D01*
X236063258Y-99583398D01*
X235983145Y-99559097D01*
X235983143Y-99559096D01*
X235835482Y-99480169D01*
X235706051Y-99373949D01*
X235599831Y-99244518D01*
X235520904Y-99096857D01*
X235472299Y-98936627D01*
X235455888Y-98770000D01*
X235472299Y-98603373D01*
X235520904Y-98443143D01*
X235599831Y-98295482D01*
X235706051Y-98166051D01*
X235835482Y-98059831D01*
X235983143Y-97980904D01*
X235983145Y-97980903D01*
X236063258Y-97956601D01*
X236143373Y-97932299D01*
X236268248Y-97920000D01*
X236351752Y-97920000D01*
X236476627Y-97932299D01*
X236476627Y-97932299D01*
G37*
G36*
X233936627Y-97932299D02*
G01*
X234016742Y-97956601D01*
X234096855Y-97980903D01*
X234096857Y-97980904D01*
X234244518Y-98059831D01*
X234373949Y-98166051D01*
X234480169Y-98295482D01*
X234559096Y-98443143D01*
X234607701Y-98603373D01*
X234624112Y-98770000D01*
X234607701Y-98936627D01*
X234559096Y-99096857D01*
X234480169Y-99244518D01*
X234373949Y-99373949D01*
X234244518Y-99480169D01*
X234096857Y-99559096D01*
X234096855Y-99559097D01*
X234016742Y-99583398D01*
X233936627Y-99607701D01*
X233811752Y-99620000D01*
X233728248Y-99620000D01*
X233603373Y-99607701D01*
X233523258Y-99583398D01*
X233443145Y-99559097D01*
X233443143Y-99559096D01*
X233295482Y-99480169D01*
X233166051Y-99373949D01*
X233059831Y-99244518D01*
X232980904Y-99096857D01*
X232932299Y-98936627D01*
X232915888Y-98770000D01*
X232932299Y-98603373D01*
X232980904Y-98443143D01*
X233059831Y-98295482D01*
X233166051Y-98166051D01*
X233295482Y-98059831D01*
X233443143Y-97980904D01*
X233443145Y-97980903D01*
X233523258Y-97956601D01*
X233603373Y-97932299D01*
X233728248Y-97920000D01*
X233811752Y-97920000D01*
X233936627Y-97932299D01*
X233936627Y-97932299D01*
G37*
G36*
X231396627Y-97932299D02*
G01*
X231476742Y-97956601D01*
X231556855Y-97980903D01*
X231556857Y-97980904D01*
X231704518Y-98059831D01*
X231833949Y-98166051D01*
X231940169Y-98295482D01*
X232019096Y-98443143D01*
X232067701Y-98603373D01*
X232084112Y-98770000D01*
X232067701Y-98936627D01*
X232019096Y-99096857D01*
X231940169Y-99244518D01*
X231833949Y-99373949D01*
X231704518Y-99480169D01*
X231556857Y-99559096D01*
X231556855Y-99559097D01*
X231476742Y-99583398D01*
X231396627Y-99607701D01*
X231271752Y-99620000D01*
X231188248Y-99620000D01*
X231063373Y-99607701D01*
X230983258Y-99583398D01*
X230903145Y-99559097D01*
X230903143Y-99559096D01*
X230755482Y-99480169D01*
X230626051Y-99373949D01*
X230519831Y-99244518D01*
X230440904Y-99096857D01*
X230392299Y-98936627D01*
X230375888Y-98770000D01*
X230392299Y-98603373D01*
X230440904Y-98443143D01*
X230519831Y-98295482D01*
X230626051Y-98166051D01*
X230755482Y-98059831D01*
X230903143Y-97980904D01*
X230903145Y-97980903D01*
X230983258Y-97956601D01*
X231063373Y-97932299D01*
X231188248Y-97920000D01*
X231271752Y-97920000D01*
X231396627Y-97932299D01*
X231396627Y-97932299D01*
G37*
G36*
X228856627Y-97932299D02*
G01*
X228936742Y-97956601D01*
X229016855Y-97980903D01*
X229016857Y-97980904D01*
X229164518Y-98059831D01*
X229293949Y-98166051D01*
X229400169Y-98295482D01*
X229479096Y-98443143D01*
X229527701Y-98603373D01*
X229544112Y-98770000D01*
X229527701Y-98936627D01*
X229479096Y-99096857D01*
X229400169Y-99244518D01*
X229293949Y-99373949D01*
X229164518Y-99480169D01*
X229016857Y-99559096D01*
X229016855Y-99559097D01*
X228936742Y-99583398D01*
X228856627Y-99607701D01*
X228731752Y-99620000D01*
X228648248Y-99620000D01*
X228523373Y-99607701D01*
X228443258Y-99583398D01*
X228363145Y-99559097D01*
X228363143Y-99559096D01*
X228215482Y-99480169D01*
X228086051Y-99373949D01*
X227979831Y-99244518D01*
X227900904Y-99096857D01*
X227852299Y-98936627D01*
X227835888Y-98770000D01*
X227852299Y-98603373D01*
X227900904Y-98443143D01*
X227979831Y-98295482D01*
X228086051Y-98166051D01*
X228215482Y-98059831D01*
X228363143Y-97980904D01*
X228363145Y-97980903D01*
X228443258Y-97956601D01*
X228523373Y-97932299D01*
X228648248Y-97920000D01*
X228731752Y-97920000D01*
X228856627Y-97932299D01*
X228856627Y-97932299D01*
G37*
G36*
X246636627Y-97932299D02*
G01*
X246716742Y-97956601D01*
X246796855Y-97980903D01*
X246796857Y-97980904D01*
X246944518Y-98059831D01*
X247073949Y-98166051D01*
X247180169Y-98295482D01*
X247259096Y-98443143D01*
X247307701Y-98603373D01*
X247324112Y-98770000D01*
X247307701Y-98936627D01*
X247259096Y-99096857D01*
X247180169Y-99244518D01*
X247073949Y-99373949D01*
X246944518Y-99480169D01*
X246796857Y-99559096D01*
X246796855Y-99559097D01*
X246716742Y-99583398D01*
X246636627Y-99607701D01*
X246511752Y-99620000D01*
X246428248Y-99620000D01*
X246303373Y-99607701D01*
X246223258Y-99583398D01*
X246143145Y-99559097D01*
X246143143Y-99559096D01*
X245995482Y-99480169D01*
X245866051Y-99373949D01*
X245759831Y-99244518D01*
X245680904Y-99096857D01*
X245632299Y-98936627D01*
X245615888Y-98770000D01*
X245632299Y-98603373D01*
X245680904Y-98443143D01*
X245759831Y-98295482D01*
X245866051Y-98166051D01*
X245995482Y-98059831D01*
X246143143Y-97980904D01*
X246143145Y-97980903D01*
X246223258Y-97956601D01*
X246303373Y-97932299D01*
X246428248Y-97920000D01*
X246511752Y-97920000D01*
X246636627Y-97932299D01*
X246636627Y-97932299D01*
G37*
G36*
X209220000Y-99620000D02*
G01*
X207520000Y-99620000D01*
X207520000Y-97920000D01*
X209220000Y-97920000D01*
X209220000Y-99620000D01*
X209220000Y-99620000D01*
G37*
G36*
X211076627Y-97932299D02*
G01*
X211156742Y-97956601D01*
X211236855Y-97980903D01*
X211236857Y-97980904D01*
X211384518Y-98059831D01*
X211513949Y-98166051D01*
X211620169Y-98295482D01*
X211699096Y-98443143D01*
X211747701Y-98603373D01*
X211764112Y-98770000D01*
X211747701Y-98936627D01*
X211699096Y-99096857D01*
X211620169Y-99244518D01*
X211513949Y-99373949D01*
X211384518Y-99480169D01*
X211236857Y-99559096D01*
X211236855Y-99559097D01*
X211156742Y-99583398D01*
X211076627Y-99607701D01*
X210951752Y-99620000D01*
X210868248Y-99620000D01*
X210743373Y-99607701D01*
X210663258Y-99583398D01*
X210583145Y-99559097D01*
X210583143Y-99559096D01*
X210435482Y-99480169D01*
X210306051Y-99373949D01*
X210199831Y-99244518D01*
X210120904Y-99096857D01*
X210072299Y-98936627D01*
X210055888Y-98770000D01*
X210072299Y-98603373D01*
X210120904Y-98443143D01*
X210199831Y-98295482D01*
X210306051Y-98166051D01*
X210435482Y-98059831D01*
X210583143Y-97980904D01*
X210583145Y-97980903D01*
X210663258Y-97956601D01*
X210743373Y-97932299D01*
X210868248Y-97920000D01*
X210951752Y-97920000D01*
X211076627Y-97932299D01*
X211076627Y-97932299D01*
G37*
G36*
X213616627Y-97932299D02*
G01*
X213696742Y-97956601D01*
X213776855Y-97980903D01*
X213776857Y-97980904D01*
X213924518Y-98059831D01*
X214053949Y-98166051D01*
X214160169Y-98295482D01*
X214239096Y-98443143D01*
X214287701Y-98603373D01*
X214304112Y-98770000D01*
X214287701Y-98936627D01*
X214239096Y-99096857D01*
X214160169Y-99244518D01*
X214053949Y-99373949D01*
X213924518Y-99480169D01*
X213776857Y-99559096D01*
X213776855Y-99559097D01*
X213696742Y-99583398D01*
X213616627Y-99607701D01*
X213491752Y-99620000D01*
X213408248Y-99620000D01*
X213283373Y-99607701D01*
X213203258Y-99583398D01*
X213123145Y-99559097D01*
X213123143Y-99559096D01*
X212975482Y-99480169D01*
X212846051Y-99373949D01*
X212739831Y-99244518D01*
X212660904Y-99096857D01*
X212612299Y-98936627D01*
X212595888Y-98770000D01*
X212612299Y-98603373D01*
X212660904Y-98443143D01*
X212739831Y-98295482D01*
X212846051Y-98166051D01*
X212975482Y-98059831D01*
X213123143Y-97980904D01*
X213123145Y-97980903D01*
X213203258Y-97956601D01*
X213283373Y-97932299D01*
X213408248Y-97920000D01*
X213491752Y-97920000D01*
X213616627Y-97932299D01*
X213616627Y-97932299D01*
G37*
G36*
X244096627Y-97932299D02*
G01*
X244176742Y-97956601D01*
X244256855Y-97980903D01*
X244256857Y-97980904D01*
X244404518Y-98059831D01*
X244533949Y-98166051D01*
X244640169Y-98295482D01*
X244719096Y-98443143D01*
X244767701Y-98603373D01*
X244784112Y-98770000D01*
X244767701Y-98936627D01*
X244719096Y-99096857D01*
X244640169Y-99244518D01*
X244533949Y-99373949D01*
X244404518Y-99480169D01*
X244256857Y-99559096D01*
X244256855Y-99559097D01*
X244176742Y-99583398D01*
X244096627Y-99607701D01*
X243971752Y-99620000D01*
X243888248Y-99620000D01*
X243763373Y-99607701D01*
X243683258Y-99583398D01*
X243603145Y-99559097D01*
X243603143Y-99559096D01*
X243455482Y-99480169D01*
X243326051Y-99373949D01*
X243219831Y-99244518D01*
X243140904Y-99096857D01*
X243092299Y-98936627D01*
X243075888Y-98770000D01*
X243092299Y-98603373D01*
X243140904Y-98443143D01*
X243219831Y-98295482D01*
X243326051Y-98166051D01*
X243455482Y-98059831D01*
X243603143Y-97980904D01*
X243603145Y-97980903D01*
X243683258Y-97956601D01*
X243763373Y-97932299D01*
X243888248Y-97920000D01*
X243971752Y-97920000D01*
X244096627Y-97932299D01*
X244096627Y-97932299D01*
G37*
G36*
X221236627Y-97932299D02*
G01*
X221316742Y-97956601D01*
X221396855Y-97980903D01*
X221396857Y-97980904D01*
X221544518Y-98059831D01*
X221673949Y-98166051D01*
X221780169Y-98295482D01*
X221859096Y-98443143D01*
X221907701Y-98603373D01*
X221924112Y-98770000D01*
X221907701Y-98936627D01*
X221859096Y-99096857D01*
X221780169Y-99244518D01*
X221673949Y-99373949D01*
X221544518Y-99480169D01*
X221396857Y-99559096D01*
X221396855Y-99559097D01*
X221316742Y-99583398D01*
X221236627Y-99607701D01*
X221111752Y-99620000D01*
X221028248Y-99620000D01*
X220903373Y-99607701D01*
X220823258Y-99583398D01*
X220743145Y-99559097D01*
X220743143Y-99559096D01*
X220595482Y-99480169D01*
X220466051Y-99373949D01*
X220359831Y-99244518D01*
X220280904Y-99096857D01*
X220232299Y-98936627D01*
X220215888Y-98770000D01*
X220232299Y-98603373D01*
X220280904Y-98443143D01*
X220359831Y-98295482D01*
X220466051Y-98166051D01*
X220595482Y-98059831D01*
X220743143Y-97980904D01*
X220743145Y-97980903D01*
X220823258Y-97956601D01*
X220903373Y-97932299D01*
X221028248Y-97920000D01*
X221111752Y-97920000D01*
X221236627Y-97932299D01*
X221236627Y-97932299D01*
G37*
G36*
X223776627Y-97932299D02*
G01*
X223856742Y-97956601D01*
X223936855Y-97980903D01*
X223936857Y-97980904D01*
X224084518Y-98059831D01*
X224213949Y-98166051D01*
X224320169Y-98295482D01*
X224399096Y-98443143D01*
X224447701Y-98603373D01*
X224464112Y-98770000D01*
X224447701Y-98936627D01*
X224399096Y-99096857D01*
X224320169Y-99244518D01*
X224213949Y-99373949D01*
X224084518Y-99480169D01*
X223936857Y-99559096D01*
X223936855Y-99559097D01*
X223856742Y-99583398D01*
X223776627Y-99607701D01*
X223651752Y-99620000D01*
X223568248Y-99620000D01*
X223443373Y-99607701D01*
X223363258Y-99583398D01*
X223283145Y-99559097D01*
X223283143Y-99559096D01*
X223135482Y-99480169D01*
X223006051Y-99373949D01*
X222899831Y-99244518D01*
X222820904Y-99096857D01*
X222772299Y-98936627D01*
X222755888Y-98770000D01*
X222772299Y-98603373D01*
X222820904Y-98443143D01*
X222899831Y-98295482D01*
X223006051Y-98166051D01*
X223135482Y-98059831D01*
X223283143Y-97980904D01*
X223283145Y-97980903D01*
X223363258Y-97956601D01*
X223443373Y-97932299D01*
X223568248Y-97920000D01*
X223651752Y-97920000D01*
X223776627Y-97932299D01*
X223776627Y-97932299D01*
G37*
G36*
X218696627Y-97932299D02*
G01*
X218776742Y-97956601D01*
X218856855Y-97980903D01*
X218856857Y-97980904D01*
X219004518Y-98059831D01*
X219133949Y-98166051D01*
X219240169Y-98295482D01*
X219319096Y-98443143D01*
X219367701Y-98603373D01*
X219384112Y-98770000D01*
X219367701Y-98936627D01*
X219319096Y-99096857D01*
X219240169Y-99244518D01*
X219133949Y-99373949D01*
X219004518Y-99480169D01*
X218856857Y-99559096D01*
X218856855Y-99559097D01*
X218776742Y-99583398D01*
X218696627Y-99607701D01*
X218571752Y-99620000D01*
X218488248Y-99620000D01*
X218363373Y-99607701D01*
X218283258Y-99583398D01*
X218203145Y-99559097D01*
X218203143Y-99559096D01*
X218055482Y-99480169D01*
X217926051Y-99373949D01*
X217819831Y-99244518D01*
X217740904Y-99096857D01*
X217692299Y-98936627D01*
X217675888Y-98770000D01*
X217692299Y-98603373D01*
X217740904Y-98443143D01*
X217819831Y-98295482D01*
X217926051Y-98166051D01*
X218055482Y-98059831D01*
X218203143Y-97980904D01*
X218203145Y-97980903D01*
X218283258Y-97956601D01*
X218363373Y-97932299D01*
X218488248Y-97920000D01*
X218571752Y-97920000D01*
X218696627Y-97932299D01*
X218696627Y-97932299D01*
G37*
G36*
X216156627Y-97932299D02*
G01*
X216236742Y-97956601D01*
X216316855Y-97980903D01*
X216316857Y-97980904D01*
X216464518Y-98059831D01*
X216593949Y-98166051D01*
X216700169Y-98295482D01*
X216779096Y-98443143D01*
X216827701Y-98603373D01*
X216844112Y-98770000D01*
X216827701Y-98936627D01*
X216779096Y-99096857D01*
X216700169Y-99244518D01*
X216593949Y-99373949D01*
X216464518Y-99480169D01*
X216316857Y-99559096D01*
X216316855Y-99559097D01*
X216236742Y-99583398D01*
X216156627Y-99607701D01*
X216031752Y-99620000D01*
X215948248Y-99620000D01*
X215823373Y-99607701D01*
X215743258Y-99583398D01*
X215663145Y-99559097D01*
X215663143Y-99559096D01*
X215515482Y-99480169D01*
X215386051Y-99373949D01*
X215279831Y-99244518D01*
X215200904Y-99096857D01*
X215152299Y-98936627D01*
X215135888Y-98770000D01*
X215152299Y-98603373D01*
X215200904Y-98443143D01*
X215279831Y-98295482D01*
X215386051Y-98166051D01*
X215515482Y-98059831D01*
X215663143Y-97980904D01*
X215663145Y-97980903D01*
X215743258Y-97956601D01*
X215823373Y-97932299D01*
X215948248Y-97920000D01*
X216031752Y-97920000D01*
X216156627Y-97932299D01*
X216156627Y-97932299D01*
G37*
G36*
X226316627Y-97932299D02*
G01*
X226396742Y-97956601D01*
X226476855Y-97980903D01*
X226476857Y-97980904D01*
X226624518Y-98059831D01*
X226753949Y-98166051D01*
X226860169Y-98295482D01*
X226939096Y-98443143D01*
X226987701Y-98603373D01*
X227004112Y-98770000D01*
X226987701Y-98936627D01*
X226939096Y-99096857D01*
X226860169Y-99244518D01*
X226753949Y-99373949D01*
X226624518Y-99480169D01*
X226476857Y-99559096D01*
X226476855Y-99559097D01*
X226396742Y-99583398D01*
X226316627Y-99607701D01*
X226191752Y-99620000D01*
X226108248Y-99620000D01*
X225983373Y-99607701D01*
X225903258Y-99583398D01*
X225823145Y-99559097D01*
X225823143Y-99559096D01*
X225675482Y-99480169D01*
X225546051Y-99373949D01*
X225439831Y-99244518D01*
X225360904Y-99096857D01*
X225312299Y-98936627D01*
X225295888Y-98770000D01*
X225312299Y-98603373D01*
X225360904Y-98443143D01*
X225439831Y-98295482D01*
X225546051Y-98166051D01*
X225675482Y-98059831D01*
X225823143Y-97980904D01*
X225823145Y-97980903D01*
X225903258Y-97956601D01*
X225983373Y-97932299D01*
X226108248Y-97920000D01*
X226191752Y-97920000D01*
X226316627Y-97932299D01*
X226316627Y-97932299D01*
G37*
G36*
X203893779Y-96201879D02*
G01*
X204139463Y-96303645D01*
X204139465Y-96303646D01*
X204250769Y-96378017D01*
X204360574Y-96451386D01*
X204548614Y-96639426D01*
X204696355Y-96860537D01*
X204798121Y-97106221D01*
X204850000Y-97367035D01*
X204850000Y-97632965D01*
X204798121Y-97893779D01*
X204696355Y-98139463D01*
X204592108Y-98295481D01*
X204548613Y-98360575D01*
X204360575Y-98548613D01*
X204139465Y-98696354D01*
X204139464Y-98696355D01*
X204139463Y-98696355D01*
X203893779Y-98798121D01*
X203632965Y-98850000D01*
X203367035Y-98850000D01*
X203106221Y-98798121D01*
X202860537Y-98696355D01*
X202860536Y-98696355D01*
X202860535Y-98696354D01*
X202639425Y-98548613D01*
X202451387Y-98360575D01*
X202407893Y-98295481D01*
X202303645Y-98139463D01*
X202201879Y-97893779D01*
X202150000Y-97632965D01*
X202150000Y-97367035D01*
X202201879Y-97106221D01*
X202303645Y-96860537D01*
X202451386Y-96639426D01*
X202639426Y-96451386D01*
X202749231Y-96378017D01*
X202860535Y-96303646D01*
X202860537Y-96303645D01*
X203106221Y-96201879D01*
X203367035Y-96150000D01*
X203632965Y-96150000D01*
X203893779Y-96201879D01*
X203893779Y-96201879D01*
G37*
G36*
X261893779Y-96201879D02*
G01*
X262139463Y-96303645D01*
X262139465Y-96303646D01*
X262250769Y-96378017D01*
X262360574Y-96451386D01*
X262548614Y-96639426D01*
X262696355Y-96860537D01*
X262798121Y-97106221D01*
X262850000Y-97367035D01*
X262850000Y-97632965D01*
X262798121Y-97893779D01*
X262696355Y-98139463D01*
X262592108Y-98295481D01*
X262548613Y-98360575D01*
X262360575Y-98548613D01*
X262139465Y-98696354D01*
X262139464Y-98696355D01*
X262139463Y-98696355D01*
X261893779Y-98798121D01*
X261632965Y-98850000D01*
X261367035Y-98850000D01*
X261106221Y-98798121D01*
X260860537Y-98696355D01*
X260860536Y-98696355D01*
X260860535Y-98696354D01*
X260639425Y-98548613D01*
X260451387Y-98360575D01*
X260407893Y-98295481D01*
X260303645Y-98139463D01*
X260201879Y-97893779D01*
X260150000Y-97632965D01*
X260150000Y-97367035D01*
X260201879Y-97106221D01*
X260303645Y-96860537D01*
X260451386Y-96639426D01*
X260639426Y-96451386D01*
X260749231Y-96378017D01*
X260860535Y-96303646D01*
X260860537Y-96303645D01*
X261106221Y-96201879D01*
X261367035Y-96150000D01*
X261632965Y-96150000D01*
X261893779Y-96201879D01*
X261893779Y-96201879D01*
G37*
G36*
X221236627Y-95392299D02*
G01*
X221316742Y-95416601D01*
X221396855Y-95440903D01*
X221396857Y-95440904D01*
X221544518Y-95519831D01*
X221673949Y-95626051D01*
X221780169Y-95755482D01*
X221859096Y-95903143D01*
X221907701Y-96063373D01*
X221924112Y-96230000D01*
X221907701Y-96396627D01*
X221859096Y-96556857D01*
X221780169Y-96704518D01*
X221673949Y-96833949D01*
X221544518Y-96940169D01*
X221396857Y-97019096D01*
X221396855Y-97019097D01*
X221316742Y-97043399D01*
X221236627Y-97067701D01*
X221111752Y-97080000D01*
X221028248Y-97080000D01*
X220903373Y-97067701D01*
X220823258Y-97043399D01*
X220743145Y-97019097D01*
X220743143Y-97019096D01*
X220595482Y-96940169D01*
X220466051Y-96833949D01*
X220359831Y-96704518D01*
X220280904Y-96556857D01*
X220232299Y-96396627D01*
X220215888Y-96230000D01*
X220232299Y-96063373D01*
X220280904Y-95903143D01*
X220359831Y-95755482D01*
X220466051Y-95626051D01*
X220595482Y-95519831D01*
X220743143Y-95440904D01*
X220743145Y-95440903D01*
X220823258Y-95416601D01*
X220903373Y-95392299D01*
X221028248Y-95380000D01*
X221111752Y-95380000D01*
X221236627Y-95392299D01*
X221236627Y-95392299D01*
G37*
G36*
X208536627Y-95392299D02*
G01*
X208616742Y-95416601D01*
X208696855Y-95440903D01*
X208696857Y-95440904D01*
X208844518Y-95519831D01*
X208973949Y-95626051D01*
X209080169Y-95755482D01*
X209159096Y-95903143D01*
X209207701Y-96063373D01*
X209224112Y-96230000D01*
X209207701Y-96396627D01*
X209159096Y-96556857D01*
X209080169Y-96704518D01*
X208973949Y-96833949D01*
X208844518Y-96940169D01*
X208696857Y-97019096D01*
X208696855Y-97019097D01*
X208616742Y-97043399D01*
X208536627Y-97067701D01*
X208411752Y-97080000D01*
X208328248Y-97080000D01*
X208203373Y-97067701D01*
X208123258Y-97043399D01*
X208043145Y-97019097D01*
X208043143Y-97019096D01*
X207895482Y-96940169D01*
X207766051Y-96833949D01*
X207659831Y-96704518D01*
X207580904Y-96556857D01*
X207532299Y-96396627D01*
X207515888Y-96230000D01*
X207532299Y-96063373D01*
X207580904Y-95903143D01*
X207659831Y-95755482D01*
X207766051Y-95626051D01*
X207895482Y-95519831D01*
X208043143Y-95440904D01*
X208043145Y-95440903D01*
X208123258Y-95416601D01*
X208203373Y-95392299D01*
X208328248Y-95380000D01*
X208411752Y-95380000D01*
X208536627Y-95392299D01*
X208536627Y-95392299D01*
G37*
G36*
X211076627Y-95392299D02*
G01*
X211156742Y-95416601D01*
X211236855Y-95440903D01*
X211236857Y-95440904D01*
X211384518Y-95519831D01*
X211513949Y-95626051D01*
X211620169Y-95755482D01*
X211699096Y-95903143D01*
X211747701Y-96063373D01*
X211764112Y-96230000D01*
X211747701Y-96396627D01*
X211699096Y-96556857D01*
X211620169Y-96704518D01*
X211513949Y-96833949D01*
X211384518Y-96940169D01*
X211236857Y-97019096D01*
X211236855Y-97019097D01*
X211156742Y-97043399D01*
X211076627Y-97067701D01*
X210951752Y-97080000D01*
X210868248Y-97080000D01*
X210743373Y-97067701D01*
X210663258Y-97043399D01*
X210583145Y-97019097D01*
X210583143Y-97019096D01*
X210435482Y-96940169D01*
X210306051Y-96833949D01*
X210199831Y-96704518D01*
X210120904Y-96556857D01*
X210072299Y-96396627D01*
X210055888Y-96230000D01*
X210072299Y-96063373D01*
X210120904Y-95903143D01*
X210199831Y-95755482D01*
X210306051Y-95626051D01*
X210435482Y-95519831D01*
X210583143Y-95440904D01*
X210583145Y-95440903D01*
X210663258Y-95416601D01*
X210743373Y-95392299D01*
X210868248Y-95380000D01*
X210951752Y-95380000D01*
X211076627Y-95392299D01*
X211076627Y-95392299D01*
G37*
G36*
X213616627Y-95392299D02*
G01*
X213696742Y-95416601D01*
X213776855Y-95440903D01*
X213776857Y-95440904D01*
X213924518Y-95519831D01*
X214053949Y-95626051D01*
X214160169Y-95755482D01*
X214239096Y-95903143D01*
X214287701Y-96063373D01*
X214304112Y-96230000D01*
X214287701Y-96396627D01*
X214239096Y-96556857D01*
X214160169Y-96704518D01*
X214053949Y-96833949D01*
X213924518Y-96940169D01*
X213776857Y-97019096D01*
X213776855Y-97019097D01*
X213696742Y-97043399D01*
X213616627Y-97067701D01*
X213491752Y-97080000D01*
X213408248Y-97080000D01*
X213283373Y-97067701D01*
X213203258Y-97043399D01*
X213123145Y-97019097D01*
X213123143Y-97019096D01*
X212975482Y-96940169D01*
X212846051Y-96833949D01*
X212739831Y-96704518D01*
X212660904Y-96556857D01*
X212612299Y-96396627D01*
X212595888Y-96230000D01*
X212612299Y-96063373D01*
X212660904Y-95903143D01*
X212739831Y-95755482D01*
X212846051Y-95626051D01*
X212975482Y-95519831D01*
X213123143Y-95440904D01*
X213123145Y-95440903D01*
X213203258Y-95416601D01*
X213283373Y-95392299D01*
X213408248Y-95380000D01*
X213491752Y-95380000D01*
X213616627Y-95392299D01*
X213616627Y-95392299D01*
G37*
G36*
X216156627Y-95392299D02*
G01*
X216236742Y-95416601D01*
X216316855Y-95440903D01*
X216316857Y-95440904D01*
X216464518Y-95519831D01*
X216593949Y-95626051D01*
X216700169Y-95755482D01*
X216779096Y-95903143D01*
X216827701Y-96063373D01*
X216844112Y-96230000D01*
X216827701Y-96396627D01*
X216779096Y-96556857D01*
X216700169Y-96704518D01*
X216593949Y-96833949D01*
X216464518Y-96940169D01*
X216316857Y-97019096D01*
X216316855Y-97019097D01*
X216236742Y-97043399D01*
X216156627Y-97067701D01*
X216031752Y-97080000D01*
X215948248Y-97080000D01*
X215823373Y-97067701D01*
X215743258Y-97043399D01*
X215663145Y-97019097D01*
X215663143Y-97019096D01*
X215515482Y-96940169D01*
X215386051Y-96833949D01*
X215279831Y-96704518D01*
X215200904Y-96556857D01*
X215152299Y-96396627D01*
X215135888Y-96230000D01*
X215152299Y-96063373D01*
X215200904Y-95903143D01*
X215279831Y-95755482D01*
X215386051Y-95626051D01*
X215515482Y-95519831D01*
X215663143Y-95440904D01*
X215663145Y-95440903D01*
X215743258Y-95416601D01*
X215823373Y-95392299D01*
X215948248Y-95380000D01*
X216031752Y-95380000D01*
X216156627Y-95392299D01*
X216156627Y-95392299D01*
G37*
G36*
X223776627Y-95392299D02*
G01*
X223856742Y-95416601D01*
X223936855Y-95440903D01*
X223936857Y-95440904D01*
X224084518Y-95519831D01*
X224213949Y-95626051D01*
X224320169Y-95755482D01*
X224399096Y-95903143D01*
X224447701Y-96063373D01*
X224464112Y-96230000D01*
X224447701Y-96396627D01*
X224399096Y-96556857D01*
X224320169Y-96704518D01*
X224213949Y-96833949D01*
X224084518Y-96940169D01*
X223936857Y-97019096D01*
X223936855Y-97019097D01*
X223856742Y-97043399D01*
X223776627Y-97067701D01*
X223651752Y-97080000D01*
X223568248Y-97080000D01*
X223443373Y-97067701D01*
X223363258Y-97043399D01*
X223283145Y-97019097D01*
X223283143Y-97019096D01*
X223135482Y-96940169D01*
X223006051Y-96833949D01*
X222899831Y-96704518D01*
X222820904Y-96556857D01*
X222772299Y-96396627D01*
X222755888Y-96230000D01*
X222772299Y-96063373D01*
X222820904Y-95903143D01*
X222899831Y-95755482D01*
X223006051Y-95626051D01*
X223135482Y-95519831D01*
X223283143Y-95440904D01*
X223283145Y-95440903D01*
X223363258Y-95416601D01*
X223443373Y-95392299D01*
X223568248Y-95380000D01*
X223651752Y-95380000D01*
X223776627Y-95392299D01*
X223776627Y-95392299D01*
G37*
G36*
X241556627Y-95392299D02*
G01*
X241636742Y-95416601D01*
X241716855Y-95440903D01*
X241716857Y-95440904D01*
X241864518Y-95519831D01*
X241993949Y-95626051D01*
X242100169Y-95755482D01*
X242179096Y-95903143D01*
X242227701Y-96063373D01*
X242244112Y-96230000D01*
X242227701Y-96396627D01*
X242179096Y-96556857D01*
X242100169Y-96704518D01*
X241993949Y-96833949D01*
X241864518Y-96940169D01*
X241716857Y-97019096D01*
X241716855Y-97019097D01*
X241636742Y-97043399D01*
X241556627Y-97067701D01*
X241431752Y-97080000D01*
X241348248Y-97080000D01*
X241223373Y-97067701D01*
X241143258Y-97043399D01*
X241063145Y-97019097D01*
X241063143Y-97019096D01*
X240915482Y-96940169D01*
X240786051Y-96833949D01*
X240679831Y-96704518D01*
X240600904Y-96556857D01*
X240552299Y-96396627D01*
X240535888Y-96230000D01*
X240552299Y-96063373D01*
X240600904Y-95903143D01*
X240679831Y-95755482D01*
X240786051Y-95626051D01*
X240915482Y-95519831D01*
X241063143Y-95440904D01*
X241063145Y-95440903D01*
X241143258Y-95416601D01*
X241223373Y-95392299D01*
X241348248Y-95380000D01*
X241431752Y-95380000D01*
X241556627Y-95392299D01*
X241556627Y-95392299D01*
G37*
G36*
X236476627Y-95392299D02*
G01*
X236556742Y-95416601D01*
X236636855Y-95440903D01*
X236636857Y-95440904D01*
X236784518Y-95519831D01*
X236913949Y-95626051D01*
X237020169Y-95755482D01*
X237099096Y-95903143D01*
X237147701Y-96063373D01*
X237164112Y-96230000D01*
X237147701Y-96396627D01*
X237099096Y-96556857D01*
X237020169Y-96704518D01*
X236913949Y-96833949D01*
X236784518Y-96940169D01*
X236636857Y-97019096D01*
X236636855Y-97019097D01*
X236556742Y-97043399D01*
X236476627Y-97067701D01*
X236351752Y-97080000D01*
X236268248Y-97080000D01*
X236143373Y-97067701D01*
X236063258Y-97043399D01*
X235983145Y-97019097D01*
X235983143Y-97019096D01*
X235835482Y-96940169D01*
X235706051Y-96833949D01*
X235599831Y-96704518D01*
X235520904Y-96556857D01*
X235472299Y-96396627D01*
X235455888Y-96230000D01*
X235472299Y-96063373D01*
X235520904Y-95903143D01*
X235599831Y-95755482D01*
X235706051Y-95626051D01*
X235835482Y-95519831D01*
X235983143Y-95440904D01*
X235983145Y-95440903D01*
X236063258Y-95416601D01*
X236143373Y-95392299D01*
X236268248Y-95380000D01*
X236351752Y-95380000D01*
X236476627Y-95392299D01*
X236476627Y-95392299D01*
G37*
G36*
X233936627Y-95392299D02*
G01*
X234016742Y-95416601D01*
X234096855Y-95440903D01*
X234096857Y-95440904D01*
X234244518Y-95519831D01*
X234373949Y-95626051D01*
X234480169Y-95755482D01*
X234559096Y-95903143D01*
X234607701Y-96063373D01*
X234624112Y-96230000D01*
X234607701Y-96396627D01*
X234559096Y-96556857D01*
X234480169Y-96704518D01*
X234373949Y-96833949D01*
X234244518Y-96940169D01*
X234096857Y-97019096D01*
X234096855Y-97019097D01*
X234016742Y-97043399D01*
X233936627Y-97067701D01*
X233811752Y-97080000D01*
X233728248Y-97080000D01*
X233603373Y-97067701D01*
X233523258Y-97043399D01*
X233443145Y-97019097D01*
X233443143Y-97019096D01*
X233295482Y-96940169D01*
X233166051Y-96833949D01*
X233059831Y-96704518D01*
X232980904Y-96556857D01*
X232932299Y-96396627D01*
X232915888Y-96230000D01*
X232932299Y-96063373D01*
X232980904Y-95903143D01*
X233059831Y-95755482D01*
X233166051Y-95626051D01*
X233295482Y-95519831D01*
X233443143Y-95440904D01*
X233443145Y-95440903D01*
X233523258Y-95416601D01*
X233603373Y-95392299D01*
X233728248Y-95380000D01*
X233811752Y-95380000D01*
X233936627Y-95392299D01*
X233936627Y-95392299D01*
G37*
G36*
X256796627Y-95392299D02*
G01*
X256876742Y-95416601D01*
X256956855Y-95440903D01*
X256956857Y-95440904D01*
X257104518Y-95519831D01*
X257233949Y-95626051D01*
X257340169Y-95755482D01*
X257419096Y-95903143D01*
X257467701Y-96063373D01*
X257484112Y-96230000D01*
X257467701Y-96396627D01*
X257419096Y-96556857D01*
X257340169Y-96704518D01*
X257233949Y-96833949D01*
X257104518Y-96940169D01*
X256956857Y-97019096D01*
X256956855Y-97019097D01*
X256876742Y-97043399D01*
X256796627Y-97067701D01*
X256671752Y-97080000D01*
X256588248Y-97080000D01*
X256463373Y-97067701D01*
X256383258Y-97043399D01*
X256303145Y-97019097D01*
X256303143Y-97019096D01*
X256155482Y-96940169D01*
X256026051Y-96833949D01*
X255919831Y-96704518D01*
X255840904Y-96556857D01*
X255792299Y-96396627D01*
X255775888Y-96230000D01*
X255792299Y-96063373D01*
X255840904Y-95903143D01*
X255919831Y-95755482D01*
X256026051Y-95626051D01*
X256155482Y-95519831D01*
X256303143Y-95440904D01*
X256303145Y-95440903D01*
X256383258Y-95416601D01*
X256463373Y-95392299D01*
X256588248Y-95380000D01*
X256671752Y-95380000D01*
X256796627Y-95392299D01*
X256796627Y-95392299D01*
G37*
G36*
X218696627Y-95392299D02*
G01*
X218776742Y-95416601D01*
X218856855Y-95440903D01*
X218856857Y-95440904D01*
X219004518Y-95519831D01*
X219133949Y-95626051D01*
X219240169Y-95755482D01*
X219319096Y-95903143D01*
X219367701Y-96063373D01*
X219384112Y-96230000D01*
X219367701Y-96396627D01*
X219319096Y-96556857D01*
X219240169Y-96704518D01*
X219133949Y-96833949D01*
X219004518Y-96940169D01*
X218856857Y-97019096D01*
X218856855Y-97019097D01*
X218776742Y-97043399D01*
X218696627Y-97067701D01*
X218571752Y-97080000D01*
X218488248Y-97080000D01*
X218363373Y-97067701D01*
X218283258Y-97043399D01*
X218203145Y-97019097D01*
X218203143Y-97019096D01*
X218055482Y-96940169D01*
X217926051Y-96833949D01*
X217819831Y-96704518D01*
X217740904Y-96556857D01*
X217692299Y-96396627D01*
X217675888Y-96230000D01*
X217692299Y-96063373D01*
X217740904Y-95903143D01*
X217819831Y-95755482D01*
X217926051Y-95626051D01*
X218055482Y-95519831D01*
X218203143Y-95440904D01*
X218203145Y-95440903D01*
X218283258Y-95416601D01*
X218363373Y-95392299D01*
X218488248Y-95380000D01*
X218571752Y-95380000D01*
X218696627Y-95392299D01*
X218696627Y-95392299D01*
G37*
G36*
X254256627Y-95392299D02*
G01*
X254336742Y-95416601D01*
X254416855Y-95440903D01*
X254416857Y-95440904D01*
X254564518Y-95519831D01*
X254693949Y-95626051D01*
X254800169Y-95755482D01*
X254879096Y-95903143D01*
X254927701Y-96063373D01*
X254944112Y-96230000D01*
X254927701Y-96396627D01*
X254879096Y-96556857D01*
X254800169Y-96704518D01*
X254693949Y-96833949D01*
X254564518Y-96940169D01*
X254416857Y-97019096D01*
X254416855Y-97019097D01*
X254336742Y-97043399D01*
X254256627Y-97067701D01*
X254131752Y-97080000D01*
X254048248Y-97080000D01*
X253923373Y-97067701D01*
X253843258Y-97043399D01*
X253763145Y-97019097D01*
X253763143Y-97019096D01*
X253615482Y-96940169D01*
X253486051Y-96833949D01*
X253379831Y-96704518D01*
X253300904Y-96556857D01*
X253252299Y-96396627D01*
X253235888Y-96230000D01*
X253252299Y-96063373D01*
X253300904Y-95903143D01*
X253379831Y-95755482D01*
X253486051Y-95626051D01*
X253615482Y-95519831D01*
X253763143Y-95440904D01*
X253763145Y-95440903D01*
X253843258Y-95416601D01*
X253923373Y-95392299D01*
X254048248Y-95380000D01*
X254131752Y-95380000D01*
X254256627Y-95392299D01*
X254256627Y-95392299D01*
G37*
G36*
X231396627Y-95392299D02*
G01*
X231476742Y-95416601D01*
X231556855Y-95440903D01*
X231556857Y-95440904D01*
X231704518Y-95519831D01*
X231833949Y-95626051D01*
X231940169Y-95755482D01*
X232019096Y-95903143D01*
X232067701Y-96063373D01*
X232084112Y-96230000D01*
X232067701Y-96396627D01*
X232019096Y-96556857D01*
X231940169Y-96704518D01*
X231833949Y-96833949D01*
X231704518Y-96940169D01*
X231556857Y-97019096D01*
X231556855Y-97019097D01*
X231476742Y-97043399D01*
X231396627Y-97067701D01*
X231271752Y-97080000D01*
X231188248Y-97080000D01*
X231063373Y-97067701D01*
X230983258Y-97043399D01*
X230903145Y-97019097D01*
X230903143Y-97019096D01*
X230755482Y-96940169D01*
X230626051Y-96833949D01*
X230519831Y-96704518D01*
X230440904Y-96556857D01*
X230392299Y-96396627D01*
X230375888Y-96230000D01*
X230392299Y-96063373D01*
X230440904Y-95903143D01*
X230519831Y-95755482D01*
X230626051Y-95626051D01*
X230755482Y-95519831D01*
X230903143Y-95440904D01*
X230903145Y-95440903D01*
X230983258Y-95416601D01*
X231063373Y-95392299D01*
X231188248Y-95380000D01*
X231271752Y-95380000D01*
X231396627Y-95392299D01*
X231396627Y-95392299D01*
G37*
G36*
X251716627Y-95392299D02*
G01*
X251796742Y-95416601D01*
X251876855Y-95440903D01*
X251876857Y-95440904D01*
X252024518Y-95519831D01*
X252153949Y-95626051D01*
X252260169Y-95755482D01*
X252339096Y-95903143D01*
X252387701Y-96063373D01*
X252404112Y-96230000D01*
X252387701Y-96396627D01*
X252339096Y-96556857D01*
X252260169Y-96704518D01*
X252153949Y-96833949D01*
X252024518Y-96940169D01*
X251876857Y-97019096D01*
X251876855Y-97019097D01*
X251796742Y-97043399D01*
X251716627Y-97067701D01*
X251591752Y-97080000D01*
X251508248Y-97080000D01*
X251383373Y-97067701D01*
X251303258Y-97043399D01*
X251223145Y-97019097D01*
X251223143Y-97019096D01*
X251075482Y-96940169D01*
X250946051Y-96833949D01*
X250839831Y-96704518D01*
X250760904Y-96556857D01*
X250712299Y-96396627D01*
X250695888Y-96230000D01*
X250712299Y-96063373D01*
X250760904Y-95903143D01*
X250839831Y-95755482D01*
X250946051Y-95626051D01*
X251075482Y-95519831D01*
X251223143Y-95440904D01*
X251223145Y-95440903D01*
X251303258Y-95416601D01*
X251383373Y-95392299D01*
X251508248Y-95380000D01*
X251591752Y-95380000D01*
X251716627Y-95392299D01*
X251716627Y-95392299D01*
G37*
G36*
X239016627Y-95392299D02*
G01*
X239096742Y-95416601D01*
X239176855Y-95440903D01*
X239176857Y-95440904D01*
X239324518Y-95519831D01*
X239453949Y-95626051D01*
X239560169Y-95755482D01*
X239639096Y-95903143D01*
X239687701Y-96063373D01*
X239704112Y-96230000D01*
X239687701Y-96396627D01*
X239639096Y-96556857D01*
X239560169Y-96704518D01*
X239453949Y-96833949D01*
X239324518Y-96940169D01*
X239176857Y-97019096D01*
X239176855Y-97019097D01*
X239096742Y-97043399D01*
X239016627Y-97067701D01*
X238891752Y-97080000D01*
X238808248Y-97080000D01*
X238683373Y-97067701D01*
X238603258Y-97043399D01*
X238523145Y-97019097D01*
X238523143Y-97019096D01*
X238375482Y-96940169D01*
X238246051Y-96833949D01*
X238139831Y-96704518D01*
X238060904Y-96556857D01*
X238012299Y-96396627D01*
X237995888Y-96230000D01*
X238012299Y-96063373D01*
X238060904Y-95903143D01*
X238139831Y-95755482D01*
X238246051Y-95626051D01*
X238375482Y-95519831D01*
X238523143Y-95440904D01*
X238523145Y-95440903D01*
X238603258Y-95416601D01*
X238683373Y-95392299D01*
X238808248Y-95380000D01*
X238891752Y-95380000D01*
X239016627Y-95392299D01*
X239016627Y-95392299D01*
G37*
G36*
X228856627Y-95392299D02*
G01*
X228936742Y-95416601D01*
X229016855Y-95440903D01*
X229016857Y-95440904D01*
X229164518Y-95519831D01*
X229293949Y-95626051D01*
X229400169Y-95755482D01*
X229479096Y-95903143D01*
X229527701Y-96063373D01*
X229544112Y-96230000D01*
X229527701Y-96396627D01*
X229479096Y-96556857D01*
X229400169Y-96704518D01*
X229293949Y-96833949D01*
X229164518Y-96940169D01*
X229016857Y-97019096D01*
X229016855Y-97019097D01*
X228936742Y-97043399D01*
X228856627Y-97067701D01*
X228731752Y-97080000D01*
X228648248Y-97080000D01*
X228523373Y-97067701D01*
X228443258Y-97043399D01*
X228363145Y-97019097D01*
X228363143Y-97019096D01*
X228215482Y-96940169D01*
X228086051Y-96833949D01*
X227979831Y-96704518D01*
X227900904Y-96556857D01*
X227852299Y-96396627D01*
X227835888Y-96230000D01*
X227852299Y-96063373D01*
X227900904Y-95903143D01*
X227979831Y-95755482D01*
X228086051Y-95626051D01*
X228215482Y-95519831D01*
X228363143Y-95440904D01*
X228363145Y-95440903D01*
X228443258Y-95416601D01*
X228523373Y-95392299D01*
X228648248Y-95380000D01*
X228731752Y-95380000D01*
X228856627Y-95392299D01*
X228856627Y-95392299D01*
G37*
G36*
X249176627Y-95392299D02*
G01*
X249256742Y-95416601D01*
X249336855Y-95440903D01*
X249336857Y-95440904D01*
X249484518Y-95519831D01*
X249613949Y-95626051D01*
X249720169Y-95755482D01*
X249799096Y-95903143D01*
X249847701Y-96063373D01*
X249864112Y-96230000D01*
X249847701Y-96396627D01*
X249799096Y-96556857D01*
X249720169Y-96704518D01*
X249613949Y-96833949D01*
X249484518Y-96940169D01*
X249336857Y-97019096D01*
X249336855Y-97019097D01*
X249256742Y-97043399D01*
X249176627Y-97067701D01*
X249051752Y-97080000D01*
X248968248Y-97080000D01*
X248843373Y-97067701D01*
X248763258Y-97043399D01*
X248683145Y-97019097D01*
X248683143Y-97019096D01*
X248535482Y-96940169D01*
X248406051Y-96833949D01*
X248299831Y-96704518D01*
X248220904Y-96556857D01*
X248172299Y-96396627D01*
X248155888Y-96230000D01*
X248172299Y-96063373D01*
X248220904Y-95903143D01*
X248299831Y-95755482D01*
X248406051Y-95626051D01*
X248535482Y-95519831D01*
X248683143Y-95440904D01*
X248683145Y-95440903D01*
X248763258Y-95416601D01*
X248843373Y-95392299D01*
X248968248Y-95380000D01*
X249051752Y-95380000D01*
X249176627Y-95392299D01*
X249176627Y-95392299D01*
G37*
G36*
X246636627Y-95392299D02*
G01*
X246716742Y-95416601D01*
X246796855Y-95440903D01*
X246796857Y-95440904D01*
X246944518Y-95519831D01*
X247073949Y-95626051D01*
X247180169Y-95755482D01*
X247259096Y-95903143D01*
X247307701Y-96063373D01*
X247324112Y-96230000D01*
X247307701Y-96396627D01*
X247259096Y-96556857D01*
X247180169Y-96704518D01*
X247073949Y-96833949D01*
X246944518Y-96940169D01*
X246796857Y-97019096D01*
X246796855Y-97019097D01*
X246716742Y-97043399D01*
X246636627Y-97067701D01*
X246511752Y-97080000D01*
X246428248Y-97080000D01*
X246303373Y-97067701D01*
X246223258Y-97043399D01*
X246143145Y-97019097D01*
X246143143Y-97019096D01*
X245995482Y-96940169D01*
X245866051Y-96833949D01*
X245759831Y-96704518D01*
X245680904Y-96556857D01*
X245632299Y-96396627D01*
X245615888Y-96230000D01*
X245632299Y-96063373D01*
X245680904Y-95903143D01*
X245759831Y-95755482D01*
X245866051Y-95626051D01*
X245995482Y-95519831D01*
X246143143Y-95440904D01*
X246143145Y-95440903D01*
X246223258Y-95416601D01*
X246303373Y-95392299D01*
X246428248Y-95380000D01*
X246511752Y-95380000D01*
X246636627Y-95392299D01*
X246636627Y-95392299D01*
G37*
G36*
X226316627Y-95392299D02*
G01*
X226396742Y-95416601D01*
X226476855Y-95440903D01*
X226476857Y-95440904D01*
X226624518Y-95519831D01*
X226753949Y-95626051D01*
X226860169Y-95755482D01*
X226939096Y-95903143D01*
X226987701Y-96063373D01*
X227004112Y-96230000D01*
X226987701Y-96396627D01*
X226939096Y-96556857D01*
X226860169Y-96704518D01*
X226753949Y-96833949D01*
X226624518Y-96940169D01*
X226476857Y-97019096D01*
X226476855Y-97019097D01*
X226396742Y-97043399D01*
X226316627Y-97067701D01*
X226191752Y-97080000D01*
X226108248Y-97080000D01*
X225983373Y-97067701D01*
X225903258Y-97043399D01*
X225823145Y-97019097D01*
X225823143Y-97019096D01*
X225675482Y-96940169D01*
X225546051Y-96833949D01*
X225439831Y-96704518D01*
X225360904Y-96556857D01*
X225312299Y-96396627D01*
X225295888Y-96230000D01*
X225312299Y-96063373D01*
X225360904Y-95903143D01*
X225439831Y-95755482D01*
X225546051Y-95626051D01*
X225675482Y-95519831D01*
X225823143Y-95440904D01*
X225823145Y-95440903D01*
X225903258Y-95416601D01*
X225983373Y-95392299D01*
X226108248Y-95380000D01*
X226191752Y-95380000D01*
X226316627Y-95392299D01*
X226316627Y-95392299D01*
G37*
G36*
X244096627Y-95392299D02*
G01*
X244176742Y-95416601D01*
X244256855Y-95440903D01*
X244256857Y-95440904D01*
X244404518Y-95519831D01*
X244533949Y-95626051D01*
X244640169Y-95755482D01*
X244719096Y-95903143D01*
X244767701Y-96063373D01*
X244784112Y-96230000D01*
X244767701Y-96396627D01*
X244719096Y-96556857D01*
X244640169Y-96704518D01*
X244533949Y-96833949D01*
X244404518Y-96940169D01*
X244256857Y-97019096D01*
X244256855Y-97019097D01*
X244176742Y-97043399D01*
X244096627Y-97067701D01*
X243971752Y-97080000D01*
X243888248Y-97080000D01*
X243763373Y-97067701D01*
X243683258Y-97043399D01*
X243603145Y-97019097D01*
X243603143Y-97019096D01*
X243455482Y-96940169D01*
X243326051Y-96833949D01*
X243219831Y-96704518D01*
X243140904Y-96556857D01*
X243092299Y-96396627D01*
X243075888Y-96230000D01*
X243092299Y-96063373D01*
X243140904Y-95903143D01*
X243219831Y-95755482D01*
X243326051Y-95626051D01*
X243455482Y-95519831D01*
X243603143Y-95440904D01*
X243603145Y-95440903D01*
X243683258Y-95416601D01*
X243763373Y-95392299D01*
X243888248Y-95380000D01*
X243971752Y-95380000D01*
X244096627Y-95392299D01*
X244096627Y-95392299D01*
G37*
M02*
