G04 #@! TF.GenerationSoftware,KiCad,Pcbnew,(5.1.0)-1*
G04 #@! TF.CreationDate,2019-04-24T15:00:35-07:00*
G04 #@! TF.ProjectId,ROVPCB,524f5650-4342-42e6-9b69-6361645f7063,rev?*
G04 #@! TF.SameCoordinates,Original*
G04 #@! TF.FileFunction,Legend,Top*
G04 #@! TF.FilePolarity,Positive*
%FSLAX46Y46*%
G04 Gerber Fmt 4.6, Leading zero omitted, Abs format (unit mm)*
G04 Created by KiCad (PCBNEW (5.1.0)-1) date 2019-04-24 15:00:35*
%MOMM*%
%LPD*%
G04 APERTURE LIST*
%ADD10C,0.250000*%
%ADD11C,0.120000*%
%ADD12C,0.150000*%
%ADD13C,0.100000*%
%ADD14C,0.203200*%
%ADD15C,0.152400*%
G04 APERTURE END LIST*
D10*
X248818095Y-109907142D02*
X248770476Y-109954761D01*
X248627619Y-110002380D01*
X248532380Y-110002380D01*
X248389523Y-109954761D01*
X248294285Y-109859523D01*
X248246666Y-109764285D01*
X248199047Y-109573809D01*
X248199047Y-109430952D01*
X248246666Y-109240476D01*
X248294285Y-109145238D01*
X248389523Y-109050000D01*
X248532380Y-109002380D01*
X248627619Y-109002380D01*
X248770476Y-109050000D01*
X248818095Y-109097619D01*
X249960952Y-109954761D02*
X250103809Y-110002380D01*
X250341904Y-110002380D01*
X250437142Y-109954761D01*
X250484761Y-109907142D01*
X250532380Y-109811904D01*
X250532380Y-109716666D01*
X250484761Y-109621428D01*
X250437142Y-109573809D01*
X250341904Y-109526190D01*
X250151428Y-109478571D01*
X250056190Y-109430952D01*
X250008571Y-109383333D01*
X249960952Y-109288095D01*
X249960952Y-109192857D01*
X250008571Y-109097619D01*
X250056190Y-109050000D01*
X250151428Y-109002380D01*
X250389523Y-109002380D01*
X250532380Y-109050000D01*
X251341904Y-109954761D02*
X251246666Y-110002380D01*
X251056190Y-110002380D01*
X250960952Y-109954761D01*
X250913333Y-109859523D01*
X250913333Y-109478571D01*
X250960952Y-109383333D01*
X251056190Y-109335714D01*
X251246666Y-109335714D01*
X251341904Y-109383333D01*
X251389523Y-109478571D01*
X251389523Y-109573809D01*
X250913333Y-109669047D01*
X251818095Y-109335714D02*
X251818095Y-110002380D01*
X251818095Y-109430952D02*
X251865714Y-109383333D01*
X251960952Y-109335714D01*
X252103809Y-109335714D01*
X252199047Y-109383333D01*
X252246666Y-109478571D01*
X252246666Y-110002380D01*
X252675238Y-109954761D02*
X252770476Y-110002380D01*
X252960952Y-110002380D01*
X253056190Y-109954761D01*
X253103809Y-109859523D01*
X253103809Y-109811904D01*
X253056190Y-109716666D01*
X252960952Y-109669047D01*
X252818095Y-109669047D01*
X252722857Y-109621428D01*
X252675238Y-109526190D01*
X252675238Y-109478571D01*
X252722857Y-109383333D01*
X252818095Y-109335714D01*
X252960952Y-109335714D01*
X253056190Y-109383333D01*
X253913333Y-109954761D02*
X253818095Y-110002380D01*
X253627619Y-110002380D01*
X253532380Y-109954761D01*
X253484761Y-109859523D01*
X253484761Y-109478571D01*
X253532380Y-109383333D01*
X253627619Y-109335714D01*
X253818095Y-109335714D01*
X253913333Y-109383333D01*
X253960952Y-109478571D01*
X253960952Y-109573809D01*
X253484761Y-109669047D01*
X203229047Y-136722380D02*
X203229047Y-135722380D01*
X203610000Y-135722380D01*
X203705238Y-135770000D01*
X203752857Y-135817619D01*
X203800476Y-135912857D01*
X203800476Y-136055714D01*
X203752857Y-136150952D01*
X203705238Y-136198571D01*
X203610000Y-136246190D01*
X203229047Y-136246190D01*
X204800476Y-136722380D02*
X204467142Y-136246190D01*
X204229047Y-136722380D02*
X204229047Y-135722380D01*
X204610000Y-135722380D01*
X204705238Y-135770000D01*
X204752857Y-135817619D01*
X204800476Y-135912857D01*
X204800476Y-136055714D01*
X204752857Y-136150952D01*
X204705238Y-136198571D01*
X204610000Y-136246190D01*
X204229047Y-136246190D01*
X205562380Y-136198571D02*
X205705238Y-136246190D01*
X205752857Y-136293809D01*
X205800476Y-136389047D01*
X205800476Y-136531904D01*
X205752857Y-136627142D01*
X205705238Y-136674761D01*
X205610000Y-136722380D01*
X205229047Y-136722380D01*
X205229047Y-135722380D01*
X205562380Y-135722380D01*
X205657619Y-135770000D01*
X205705238Y-135817619D01*
X205752857Y-135912857D01*
X205752857Y-136008095D01*
X205705238Y-136103333D01*
X205657619Y-136150952D01*
X205562380Y-136198571D01*
X205229047Y-136198571D01*
X206229047Y-136341428D02*
X206990952Y-136341428D01*
X203229047Y-140222380D02*
X203229047Y-139222380D01*
X203610000Y-139222380D01*
X203705238Y-139270000D01*
X203752857Y-139317619D01*
X203800476Y-139412857D01*
X203800476Y-139555714D01*
X203752857Y-139650952D01*
X203705238Y-139698571D01*
X203610000Y-139746190D01*
X203229047Y-139746190D01*
X204800476Y-140222380D02*
X204467142Y-139746190D01*
X204229047Y-140222380D02*
X204229047Y-139222380D01*
X204610000Y-139222380D01*
X204705238Y-139270000D01*
X204752857Y-139317619D01*
X204800476Y-139412857D01*
X204800476Y-139555714D01*
X204752857Y-139650952D01*
X204705238Y-139698571D01*
X204610000Y-139746190D01*
X204229047Y-139746190D01*
X205562380Y-139698571D02*
X205705238Y-139746190D01*
X205752857Y-139793809D01*
X205800476Y-139889047D01*
X205800476Y-140031904D01*
X205752857Y-140127142D01*
X205705238Y-140174761D01*
X205610000Y-140222380D01*
X205229047Y-140222380D01*
X205229047Y-139222380D01*
X205562380Y-139222380D01*
X205657619Y-139270000D01*
X205705238Y-139317619D01*
X205752857Y-139412857D01*
X205752857Y-139508095D01*
X205705238Y-139603333D01*
X205657619Y-139650952D01*
X205562380Y-139698571D01*
X205229047Y-139698571D01*
X206229047Y-139841428D02*
X206990952Y-139841428D01*
X206610000Y-140222380D02*
X206610000Y-139460476D01*
X215326190Y-117616666D02*
X215802380Y-117616666D01*
X215230952Y-117902380D02*
X215564285Y-116902380D01*
X215897619Y-117902380D01*
X216659523Y-117854761D02*
X216564285Y-117902380D01*
X216373809Y-117902380D01*
X216278571Y-117854761D01*
X216230952Y-117807142D01*
X216183333Y-117711904D01*
X216183333Y-117426190D01*
X216230952Y-117330952D01*
X216278571Y-117283333D01*
X216373809Y-117235714D01*
X216564285Y-117235714D01*
X216659523Y-117283333D01*
X217516666Y-117854761D02*
X217421428Y-117902380D01*
X217230952Y-117902380D01*
X217135714Y-117854761D01*
X217088095Y-117807142D01*
X217040476Y-117711904D01*
X217040476Y-117426190D01*
X217088095Y-117330952D01*
X217135714Y-117283333D01*
X217230952Y-117235714D01*
X217421428Y-117235714D01*
X217516666Y-117283333D01*
X218326190Y-117854761D02*
X218230952Y-117902380D01*
X218040476Y-117902380D01*
X217945238Y-117854761D01*
X217897619Y-117759523D01*
X217897619Y-117378571D01*
X217945238Y-117283333D01*
X218040476Y-117235714D01*
X218230952Y-117235714D01*
X218326190Y-117283333D01*
X218373809Y-117378571D01*
X218373809Y-117473809D01*
X217897619Y-117569047D01*
X218945238Y-117902380D02*
X218850000Y-117854761D01*
X218802380Y-117759523D01*
X218802380Y-116902380D01*
X219326190Y-117807142D02*
X219373809Y-117854761D01*
X219326190Y-117902380D01*
X219278571Y-117854761D01*
X219326190Y-117807142D01*
X219326190Y-117902380D01*
X223762380Y-108012380D02*
X223286190Y-108012380D01*
X223286190Y-107012380D01*
X224524285Y-107345714D02*
X224524285Y-108012380D01*
X224095714Y-107345714D02*
X224095714Y-107869523D01*
X224143333Y-107964761D01*
X224238571Y-108012380D01*
X224381428Y-108012380D01*
X224476666Y-107964761D01*
X224524285Y-107917142D01*
X224905238Y-108012380D02*
X225429047Y-107345714D01*
X224905238Y-107345714D02*
X225429047Y-108012380D01*
X228228095Y-114882380D02*
X228799523Y-114882380D01*
X228513809Y-115882380D02*
X228513809Y-114882380D01*
X229513809Y-115834761D02*
X229418571Y-115882380D01*
X229228095Y-115882380D01*
X229132857Y-115834761D01*
X229085238Y-115739523D01*
X229085238Y-115358571D01*
X229132857Y-115263333D01*
X229228095Y-115215714D01*
X229418571Y-115215714D01*
X229513809Y-115263333D01*
X229561428Y-115358571D01*
X229561428Y-115453809D01*
X229085238Y-115549047D01*
X229990000Y-115882380D02*
X229990000Y-115215714D01*
X229990000Y-115310952D02*
X230037619Y-115263333D01*
X230132857Y-115215714D01*
X230275714Y-115215714D01*
X230370952Y-115263333D01*
X230418571Y-115358571D01*
X230418571Y-115882380D01*
X230418571Y-115358571D02*
X230466190Y-115263333D01*
X230561428Y-115215714D01*
X230704285Y-115215714D01*
X230799523Y-115263333D01*
X230847142Y-115358571D01*
X230847142Y-115882380D01*
X231323333Y-115215714D02*
X231323333Y-116215714D01*
X231323333Y-115263333D02*
X231418571Y-115215714D01*
X231609047Y-115215714D01*
X231704285Y-115263333D01*
X231751904Y-115310952D01*
X231799523Y-115406190D01*
X231799523Y-115691904D01*
X231751904Y-115787142D01*
X231704285Y-115834761D01*
X231609047Y-115882380D01*
X231418571Y-115882380D01*
X231323333Y-115834761D01*
X232942380Y-114834761D02*
X232085238Y-116120476D01*
X233275714Y-115882380D02*
X233275714Y-114882380D01*
X233656666Y-114882380D01*
X233751904Y-114930000D01*
X233799523Y-114977619D01*
X233847142Y-115072857D01*
X233847142Y-115215714D01*
X233799523Y-115310952D01*
X233751904Y-115358571D01*
X233656666Y-115406190D01*
X233275714Y-115406190D01*
X234275714Y-115882380D02*
X234275714Y-115215714D01*
X234275714Y-115406190D02*
X234323333Y-115310952D01*
X234370952Y-115263333D01*
X234466190Y-115215714D01*
X234561428Y-115215714D01*
X235275714Y-115834761D02*
X235180476Y-115882380D01*
X234990000Y-115882380D01*
X234894761Y-115834761D01*
X234847142Y-115739523D01*
X234847142Y-115358571D01*
X234894761Y-115263333D01*
X234990000Y-115215714D01*
X235180476Y-115215714D01*
X235275714Y-115263333D01*
X235323333Y-115358571D01*
X235323333Y-115453809D01*
X234847142Y-115549047D01*
X235704285Y-115834761D02*
X235799523Y-115882380D01*
X235990000Y-115882380D01*
X236085238Y-115834761D01*
X236132857Y-115739523D01*
X236132857Y-115691904D01*
X236085238Y-115596666D01*
X235990000Y-115549047D01*
X235847142Y-115549047D01*
X235751904Y-115501428D01*
X235704285Y-115406190D01*
X235704285Y-115358571D01*
X235751904Y-115263333D01*
X235847142Y-115215714D01*
X235990000Y-115215714D01*
X236085238Y-115263333D01*
X236513809Y-115834761D02*
X236609047Y-115882380D01*
X236799523Y-115882380D01*
X236894761Y-115834761D01*
X236942380Y-115739523D01*
X236942380Y-115691904D01*
X236894761Y-115596666D01*
X236799523Y-115549047D01*
X236656666Y-115549047D01*
X236561428Y-115501428D01*
X236513809Y-115406190D01*
X236513809Y-115358571D01*
X236561428Y-115263333D01*
X236656666Y-115215714D01*
X236799523Y-115215714D01*
X236894761Y-115263333D01*
X238085238Y-114834761D02*
X237228095Y-116120476D01*
X238418571Y-115882380D02*
X238418571Y-114882380D01*
X238418571Y-115358571D02*
X238990000Y-115358571D01*
X238990000Y-115882380D02*
X238990000Y-114882380D01*
X239894761Y-115215714D02*
X239894761Y-115882380D01*
X239466190Y-115215714D02*
X239466190Y-115739523D01*
X239513809Y-115834761D01*
X239609047Y-115882380D01*
X239751904Y-115882380D01*
X239847142Y-115834761D01*
X239894761Y-115787142D01*
X240370952Y-115882380D02*
X240370952Y-115215714D01*
X240370952Y-115310952D02*
X240418571Y-115263333D01*
X240513809Y-115215714D01*
X240656666Y-115215714D01*
X240751904Y-115263333D01*
X240799523Y-115358571D01*
X240799523Y-115882380D01*
X240799523Y-115358571D02*
X240847142Y-115263333D01*
X240942380Y-115215714D01*
X241085238Y-115215714D01*
X241180476Y-115263333D01*
X241228095Y-115358571D01*
X241228095Y-115882380D01*
X241704285Y-115882380D02*
X241704285Y-115215714D01*
X241704285Y-114882380D02*
X241656666Y-114930000D01*
X241704285Y-114977619D01*
X241751904Y-114930000D01*
X241704285Y-114882380D01*
X241704285Y-114977619D01*
X242609047Y-115882380D02*
X242609047Y-114882380D01*
X242609047Y-115834761D02*
X242513809Y-115882380D01*
X242323333Y-115882380D01*
X242228095Y-115834761D01*
X242180476Y-115787142D01*
X242132857Y-115691904D01*
X242132857Y-115406190D01*
X242180476Y-115310952D01*
X242228095Y-115263333D01*
X242323333Y-115215714D01*
X242513809Y-115215714D01*
X242609047Y-115263333D01*
X245522380Y-146037380D02*
X245760476Y-147037380D01*
X245950952Y-146323095D01*
X246141428Y-147037380D01*
X246379523Y-146037380D01*
X246665238Y-146037380D02*
X246903333Y-147037380D01*
X247093809Y-146323095D01*
X247284285Y-147037380D01*
X247522380Y-146037380D01*
X247903333Y-146037380D02*
X247903333Y-146846904D01*
X247950952Y-146942142D01*
X247998571Y-146989761D01*
X248093809Y-147037380D01*
X248284285Y-147037380D01*
X248379523Y-146989761D01*
X248427142Y-146942142D01*
X248474761Y-146846904D01*
X248474761Y-146037380D01*
X250284285Y-147037380D02*
X249950952Y-146561190D01*
X249712857Y-147037380D02*
X249712857Y-146037380D01*
X250093809Y-146037380D01*
X250189047Y-146085000D01*
X250236666Y-146132619D01*
X250284285Y-146227857D01*
X250284285Y-146370714D01*
X250236666Y-146465952D01*
X250189047Y-146513571D01*
X250093809Y-146561190D01*
X249712857Y-146561190D01*
X250855714Y-147037380D02*
X250760476Y-146989761D01*
X250712857Y-146942142D01*
X250665238Y-146846904D01*
X250665238Y-146561190D01*
X250712857Y-146465952D01*
X250760476Y-146418333D01*
X250855714Y-146370714D01*
X250998571Y-146370714D01*
X251093809Y-146418333D01*
X251141428Y-146465952D01*
X251189047Y-146561190D01*
X251189047Y-146846904D01*
X251141428Y-146942142D01*
X251093809Y-146989761D01*
X250998571Y-147037380D01*
X250855714Y-147037380D01*
X251570000Y-146989761D02*
X251665238Y-147037380D01*
X251855714Y-147037380D01*
X251950952Y-146989761D01*
X251998571Y-146894523D01*
X251998571Y-146846904D01*
X251950952Y-146751666D01*
X251855714Y-146704047D01*
X251712857Y-146704047D01*
X251617619Y-146656428D01*
X251570000Y-146561190D01*
X251570000Y-146513571D01*
X251617619Y-146418333D01*
X251712857Y-146370714D01*
X251855714Y-146370714D01*
X251950952Y-146418333D01*
X252855714Y-147037380D02*
X252855714Y-146513571D01*
X252808095Y-146418333D01*
X252712857Y-146370714D01*
X252522380Y-146370714D01*
X252427142Y-146418333D01*
X252855714Y-146989761D02*
X252760476Y-147037380D01*
X252522380Y-147037380D01*
X252427142Y-146989761D01*
X252379523Y-146894523D01*
X252379523Y-146799285D01*
X252427142Y-146704047D01*
X252522380Y-146656428D01*
X252760476Y-146656428D01*
X252855714Y-146608809D01*
X253331904Y-147037380D02*
X253331904Y-146370714D01*
X253331904Y-146561190D02*
X253379523Y-146465952D01*
X253427142Y-146418333D01*
X253522380Y-146370714D01*
X253617619Y-146370714D01*
X253950952Y-147037380D02*
X253950952Y-146370714D01*
X253950952Y-146037380D02*
X253903333Y-146085000D01*
X253950952Y-146132619D01*
X253998571Y-146085000D01*
X253950952Y-146037380D01*
X253950952Y-146132619D01*
X254570000Y-147037380D02*
X254474761Y-146989761D01*
X254427142Y-146942142D01*
X254379523Y-146846904D01*
X254379523Y-146561190D01*
X254427142Y-146465952D01*
X254474761Y-146418333D01*
X254570000Y-146370714D01*
X254712857Y-146370714D01*
X254808095Y-146418333D01*
X254855714Y-146465952D01*
X254903333Y-146561190D01*
X254903333Y-146846904D01*
X254855714Y-146942142D01*
X254808095Y-146989761D01*
X254712857Y-147037380D01*
X254570000Y-147037380D01*
X256665238Y-147037380D02*
X256331904Y-146561190D01*
X256093809Y-147037380D02*
X256093809Y-146037380D01*
X256474761Y-146037380D01*
X256570000Y-146085000D01*
X256617619Y-146132619D01*
X256665238Y-146227857D01*
X256665238Y-146370714D01*
X256617619Y-146465952D01*
X256570000Y-146513571D01*
X256474761Y-146561190D01*
X256093809Y-146561190D01*
X257284285Y-146037380D02*
X257474761Y-146037380D01*
X257570000Y-146085000D01*
X257665238Y-146180238D01*
X257712857Y-146370714D01*
X257712857Y-146704047D01*
X257665238Y-146894523D01*
X257570000Y-146989761D01*
X257474761Y-147037380D01*
X257284285Y-147037380D01*
X257189047Y-146989761D01*
X257093809Y-146894523D01*
X257046190Y-146704047D01*
X257046190Y-146370714D01*
X257093809Y-146180238D01*
X257189047Y-146085000D01*
X257284285Y-146037380D01*
X257998571Y-146037380D02*
X258331904Y-147037380D01*
X258665238Y-146037380D01*
X248379523Y-147787380D02*
X248379523Y-148501666D01*
X248331904Y-148644523D01*
X248236666Y-148739761D01*
X248093809Y-148787380D01*
X247998571Y-148787380D01*
X249284285Y-148787380D02*
X249284285Y-148263571D01*
X249236666Y-148168333D01*
X249141428Y-148120714D01*
X248950952Y-148120714D01*
X248855714Y-148168333D01*
X249284285Y-148739761D02*
X249189047Y-148787380D01*
X248950952Y-148787380D01*
X248855714Y-148739761D01*
X248808095Y-148644523D01*
X248808095Y-148549285D01*
X248855714Y-148454047D01*
X248950952Y-148406428D01*
X249189047Y-148406428D01*
X249284285Y-148358809D01*
X250189047Y-148739761D02*
X250093809Y-148787380D01*
X249903333Y-148787380D01*
X249808095Y-148739761D01*
X249760476Y-148692142D01*
X249712857Y-148596904D01*
X249712857Y-148311190D01*
X249760476Y-148215952D01*
X249808095Y-148168333D01*
X249903333Y-148120714D01*
X250093809Y-148120714D01*
X250189047Y-148168333D01*
X250760476Y-148787380D02*
X250665238Y-148739761D01*
X250617619Y-148692142D01*
X250570000Y-148596904D01*
X250570000Y-148311190D01*
X250617619Y-148215952D01*
X250665238Y-148168333D01*
X250760476Y-148120714D01*
X250903333Y-148120714D01*
X250998571Y-148168333D01*
X251046190Y-148215952D01*
X251093809Y-148311190D01*
X251093809Y-148596904D01*
X251046190Y-148692142D01*
X250998571Y-148739761D01*
X250903333Y-148787380D01*
X250760476Y-148787380D01*
X251522380Y-148787380D02*
X251522380Y-147787380D01*
X251522380Y-148168333D02*
X251617619Y-148120714D01*
X251808095Y-148120714D01*
X251903333Y-148168333D01*
X251950952Y-148215952D01*
X251998571Y-148311190D01*
X251998571Y-148596904D01*
X251950952Y-148692142D01*
X251903333Y-148739761D01*
X251808095Y-148787380D01*
X251617619Y-148787380D01*
X251522380Y-148739761D01*
X253189047Y-148787380D02*
X253189047Y-147787380D01*
X253760476Y-148787380D01*
X253760476Y-147787380D01*
X254617619Y-148739761D02*
X254522380Y-148787380D01*
X254331904Y-148787380D01*
X254236666Y-148739761D01*
X254189047Y-148644523D01*
X254189047Y-148263571D01*
X254236666Y-148168333D01*
X254331904Y-148120714D01*
X254522380Y-148120714D01*
X254617619Y-148168333D01*
X254665238Y-148263571D01*
X254665238Y-148358809D01*
X254189047Y-148454047D01*
X255522380Y-148787380D02*
X255522380Y-148263571D01*
X255474761Y-148168333D01*
X255379523Y-148120714D01*
X255189047Y-148120714D01*
X255093809Y-148168333D01*
X255522380Y-148739761D02*
X255427142Y-148787380D01*
X255189047Y-148787380D01*
X255093809Y-148739761D01*
X255046190Y-148644523D01*
X255046190Y-148549285D01*
X255093809Y-148454047D01*
X255189047Y-148406428D01*
X255427142Y-148406428D01*
X255522380Y-148358809D01*
X256141428Y-148787380D02*
X256046190Y-148739761D01*
X255998571Y-148644523D01*
X255998571Y-147787380D01*
X200810000Y-111082380D02*
X200810000Y-110082380D01*
X201190952Y-110082380D01*
X201286190Y-110130000D01*
X201333809Y-110177619D01*
X201381428Y-110272857D01*
X201381428Y-110415714D01*
X201333809Y-110510952D01*
X201286190Y-110558571D01*
X201190952Y-110606190D01*
X200810000Y-110606190D01*
X201810000Y-111082380D02*
X201810000Y-110415714D01*
X201810000Y-110606190D02*
X201857619Y-110510952D01*
X201905238Y-110463333D01*
X202000476Y-110415714D01*
X202095714Y-110415714D01*
X202810000Y-111034761D02*
X202714761Y-111082380D01*
X202524285Y-111082380D01*
X202429047Y-111034761D01*
X202381428Y-110939523D01*
X202381428Y-110558571D01*
X202429047Y-110463333D01*
X202524285Y-110415714D01*
X202714761Y-110415714D01*
X202810000Y-110463333D01*
X202857619Y-110558571D01*
X202857619Y-110653809D01*
X202381428Y-110749047D01*
X203238571Y-111034761D02*
X203333809Y-111082380D01*
X203524285Y-111082380D01*
X203619523Y-111034761D01*
X203667142Y-110939523D01*
X203667142Y-110891904D01*
X203619523Y-110796666D01*
X203524285Y-110749047D01*
X203381428Y-110749047D01*
X203286190Y-110701428D01*
X203238571Y-110606190D01*
X203238571Y-110558571D01*
X203286190Y-110463333D01*
X203381428Y-110415714D01*
X203524285Y-110415714D01*
X203619523Y-110463333D01*
X204048095Y-111034761D02*
X204143333Y-111082380D01*
X204333809Y-111082380D01*
X204429047Y-111034761D01*
X204476666Y-110939523D01*
X204476666Y-110891904D01*
X204429047Y-110796666D01*
X204333809Y-110749047D01*
X204190952Y-110749047D01*
X204095714Y-110701428D01*
X204048095Y-110606190D01*
X204048095Y-110558571D01*
X204095714Y-110463333D01*
X204190952Y-110415714D01*
X204333809Y-110415714D01*
X204429047Y-110463333D01*
X205333809Y-110415714D02*
X205333809Y-111082380D01*
X204905238Y-110415714D02*
X204905238Y-110939523D01*
X204952857Y-111034761D01*
X205048095Y-111082380D01*
X205190952Y-111082380D01*
X205286190Y-111034761D01*
X205333809Y-110987142D01*
X205810000Y-111082380D02*
X205810000Y-110415714D01*
X205810000Y-110606190D02*
X205857619Y-110510952D01*
X205905238Y-110463333D01*
X206000476Y-110415714D01*
X206095714Y-110415714D01*
X206810000Y-111034761D02*
X206714761Y-111082380D01*
X206524285Y-111082380D01*
X206429047Y-111034761D01*
X206381428Y-110939523D01*
X206381428Y-110558571D01*
X206429047Y-110463333D01*
X206524285Y-110415714D01*
X206714761Y-110415714D01*
X206810000Y-110463333D01*
X206857619Y-110558571D01*
X206857619Y-110653809D01*
X206381428Y-110749047D01*
X201976666Y-105002380D02*
X202548095Y-105002380D01*
X202262380Y-106002380D02*
X202262380Y-105002380D01*
X203262380Y-105954761D02*
X203167142Y-106002380D01*
X202976666Y-106002380D01*
X202881428Y-105954761D01*
X202833809Y-105859523D01*
X202833809Y-105478571D01*
X202881428Y-105383333D01*
X202976666Y-105335714D01*
X203167142Y-105335714D01*
X203262380Y-105383333D01*
X203310000Y-105478571D01*
X203310000Y-105573809D01*
X202833809Y-105669047D01*
X203738571Y-106002380D02*
X203738571Y-105335714D01*
X203738571Y-105430952D02*
X203786190Y-105383333D01*
X203881428Y-105335714D01*
X204024285Y-105335714D01*
X204119523Y-105383333D01*
X204167142Y-105478571D01*
X204167142Y-106002380D01*
X204167142Y-105478571D02*
X204214761Y-105383333D01*
X204310000Y-105335714D01*
X204452857Y-105335714D01*
X204548095Y-105383333D01*
X204595714Y-105478571D01*
X204595714Y-106002380D01*
X205071904Y-105335714D02*
X205071904Y-106335714D01*
X205071904Y-105383333D02*
X205167142Y-105335714D01*
X205357619Y-105335714D01*
X205452857Y-105383333D01*
X205500476Y-105430952D01*
X205548095Y-105526190D01*
X205548095Y-105811904D01*
X205500476Y-105907142D01*
X205452857Y-105954761D01*
X205357619Y-106002380D01*
X205167142Y-106002380D01*
X205071904Y-105954761D01*
D11*
X207380000Y-103250000D02*
X207380000Y-106850000D01*
X207380000Y-106850000D02*
X214230000Y-106850000D01*
X214230000Y-106850000D02*
X214230000Y-103250000D01*
X214230000Y-103250000D02*
X207380000Y-103250000D01*
X207070000Y-105250000D02*
X207070000Y-107160000D01*
X207070000Y-107160000D02*
X208980000Y-107160000D01*
X207380000Y-105550000D02*
X207680000Y-105550000D01*
X207680000Y-105550000D02*
X207680000Y-106550000D01*
X207680000Y-106550000D02*
X213930000Y-106550000D01*
X213930000Y-106550000D02*
X213930000Y-105550000D01*
X213930000Y-105550000D02*
X214230000Y-105550000D01*
X207380000Y-104800000D02*
X207680000Y-104800000D01*
X207680000Y-104800000D02*
X207680000Y-103700000D01*
X207680000Y-103700000D02*
X207980000Y-103700000D01*
X207980000Y-103700000D02*
X207980000Y-103250000D01*
X214230000Y-104800000D02*
X213930000Y-104800000D01*
X213930000Y-104800000D02*
X213930000Y-103700000D01*
X213930000Y-103700000D02*
X213630000Y-103700000D01*
X213630000Y-103700000D02*
X213630000Y-103250000D01*
X207980000Y-103700000D02*
X209180000Y-103700000D01*
X209180000Y-103700000D02*
X209180000Y-103400000D01*
X209180000Y-103400000D02*
X209930000Y-103400000D01*
X209930000Y-103400000D02*
X209930000Y-103700000D01*
X209930000Y-103700000D02*
X211680000Y-103700000D01*
X211680000Y-103700000D02*
X211680000Y-103400000D01*
X211680000Y-103400000D02*
X212430000Y-103400000D01*
X212430000Y-103400000D02*
X212430000Y-103700000D01*
X212430000Y-103700000D02*
X213630000Y-103700000D01*
X212430000Y-108780000D02*
X213630000Y-108780000D01*
X212430000Y-108480000D02*
X212430000Y-108780000D01*
X211680000Y-108480000D02*
X212430000Y-108480000D01*
X211680000Y-108780000D02*
X211680000Y-108480000D01*
X209930000Y-108780000D02*
X211680000Y-108780000D01*
X209930000Y-108480000D02*
X209930000Y-108780000D01*
X209180000Y-108480000D02*
X209930000Y-108480000D01*
X209180000Y-108780000D02*
X209180000Y-108480000D01*
X207980000Y-108780000D02*
X209180000Y-108780000D01*
X213630000Y-108780000D02*
X213630000Y-108330000D01*
X213930000Y-108780000D02*
X213630000Y-108780000D01*
X213930000Y-109880000D02*
X213930000Y-108780000D01*
X214230000Y-109880000D02*
X213930000Y-109880000D01*
X207980000Y-108780000D02*
X207980000Y-108330000D01*
X207680000Y-108780000D02*
X207980000Y-108780000D01*
X207680000Y-109880000D02*
X207680000Y-108780000D01*
X207380000Y-109880000D02*
X207680000Y-109880000D01*
X213930000Y-110630000D02*
X214230000Y-110630000D01*
X213930000Y-111630000D02*
X213930000Y-110630000D01*
X207680000Y-111630000D02*
X213930000Y-111630000D01*
X207680000Y-110630000D02*
X207680000Y-111630000D01*
X207380000Y-110630000D02*
X207680000Y-110630000D01*
X207070000Y-112240000D02*
X208980000Y-112240000D01*
X207070000Y-110330000D02*
X207070000Y-112240000D01*
X214230000Y-108330000D02*
X207380000Y-108330000D01*
X214230000Y-111930000D02*
X214230000Y-108330000D01*
X207380000Y-111930000D02*
X214230000Y-111930000D01*
X207380000Y-108330000D02*
X207380000Y-111930000D01*
X214400000Y-125754721D02*
X214400000Y-126080279D01*
X213380000Y-125754721D02*
X213380000Y-126080279D01*
X217180000Y-126174721D02*
X217180000Y-126500279D01*
X216160000Y-126174721D02*
X216160000Y-126500279D01*
X218800000Y-121745279D02*
X218800000Y-121419721D01*
X217780000Y-121745279D02*
X217780000Y-121419721D01*
D12*
X215600000Y-119320000D02*
X215600000Y-119845000D01*
X211300000Y-123620000D02*
X211300000Y-123095000D01*
X215600000Y-123620000D02*
X215600000Y-123095000D01*
X211300000Y-119320000D02*
X211825000Y-119320000D01*
X211300000Y-123620000D02*
X211825000Y-123620000D01*
X215600000Y-123620000D02*
X215075000Y-123620000D01*
X215600000Y-119320000D02*
X215075000Y-119320000D01*
D13*
X231585000Y-109375000D02*
X231585000Y-109525000D01*
X231595000Y-109375000D02*
X231745000Y-109375000D01*
X231595000Y-112075000D02*
X231745000Y-112075000D01*
X231595000Y-112075000D02*
X231595000Y-111925000D01*
X234295000Y-111925000D02*
X234295000Y-112075000D01*
X234295000Y-112075000D02*
X234145000Y-112075000D01*
X234145000Y-109375000D02*
X234395000Y-109375000D01*
D14*
X224244000Y-104059000D02*
G75*
G03X224244000Y-104059000I-200000J0D01*
G01*
D12*
X234140000Y-138780000D02*
X222140000Y-138780000D01*
X222140000Y-127780000D02*
X234140000Y-127780000D01*
D11*
X237451422Y-110200000D02*
X237968578Y-110200000D01*
X237451422Y-108780000D02*
X237968578Y-108780000D01*
X236213922Y-112940000D02*
X236731078Y-112940000D01*
X236213922Y-114360000D02*
X236731078Y-114360000D01*
X249690000Y-103629721D02*
X249690000Y-103955279D01*
X250710000Y-103629721D02*
X250710000Y-103955279D01*
X248935279Y-101760000D02*
X248609721Y-101760000D01*
X248935279Y-100740000D02*
X248609721Y-100740000D01*
X244839721Y-100740000D02*
X245165279Y-100740000D01*
X244839721Y-101760000D02*
X245165279Y-101760000D01*
X243380000Y-107606078D02*
X243380000Y-107088922D01*
X244800000Y-107606078D02*
X244800000Y-107088922D01*
D15*
X247630300Y-102200201D02*
X245623700Y-102200201D01*
X245623700Y-105349801D02*
X247630300Y-105349801D01*
D12*
X230955000Y-105015000D02*
X230955000Y-105240000D01*
X234305000Y-105015000D02*
X234305000Y-105315000D01*
X234305000Y-108365000D02*
X234305000Y-108065000D01*
X230955000Y-108365000D02*
X230955000Y-108065000D01*
X230955000Y-105015000D02*
X234305000Y-105015000D01*
X230955000Y-108365000D02*
X234305000Y-108365000D01*
X230955000Y-105240000D02*
X229730000Y-105240000D01*
X203566666Y-103952380D02*
X203566666Y-104666666D01*
X203519047Y-104809523D01*
X203423809Y-104904761D01*
X203280952Y-104952380D01*
X203185714Y-104952380D01*
X204566666Y-104952380D02*
X203995238Y-104952380D01*
X204280952Y-104952380D02*
X204280952Y-103952380D01*
X204185714Y-104095238D01*
X204090476Y-104190476D01*
X203995238Y-104238095D01*
X203466666Y-108952380D02*
X203466666Y-109666666D01*
X203419047Y-109809523D01*
X203323809Y-109904761D01*
X203180952Y-109952380D01*
X203085714Y-109952380D01*
X203895238Y-109047619D02*
X203942857Y-109000000D01*
X204038095Y-108952380D01*
X204276190Y-108952380D01*
X204371428Y-109000000D01*
X204419047Y-109047619D01*
X204466666Y-109142857D01*
X204466666Y-109238095D01*
X204419047Y-109380952D01*
X203847619Y-109952380D01*
X204466666Y-109952380D01*
X215677142Y-126084166D02*
X215724761Y-126131785D01*
X215772380Y-126274642D01*
X215772380Y-126369880D01*
X215724761Y-126512738D01*
X215629523Y-126607976D01*
X215534285Y-126655595D01*
X215343809Y-126703214D01*
X215200952Y-126703214D01*
X215010476Y-126655595D01*
X214915238Y-126607976D01*
X214820000Y-126512738D01*
X214772380Y-126369880D01*
X214772380Y-126274642D01*
X214820000Y-126131785D01*
X214867619Y-126084166D01*
X215772380Y-125131785D02*
X215772380Y-125703214D01*
X215772380Y-125417500D02*
X214772380Y-125417500D01*
X214915238Y-125512738D01*
X215010476Y-125607976D01*
X215058095Y-125703214D01*
X218457142Y-126504166D02*
X218504761Y-126551785D01*
X218552380Y-126694642D01*
X218552380Y-126789880D01*
X218504761Y-126932738D01*
X218409523Y-127027976D01*
X218314285Y-127075595D01*
X218123809Y-127123214D01*
X217980952Y-127123214D01*
X217790476Y-127075595D01*
X217695238Y-127027976D01*
X217600000Y-126932738D01*
X217552380Y-126789880D01*
X217552380Y-126694642D01*
X217600000Y-126551785D01*
X217647619Y-126504166D01*
X217647619Y-126123214D02*
X217600000Y-126075595D01*
X217552380Y-125980357D01*
X217552380Y-125742261D01*
X217600000Y-125647023D01*
X217647619Y-125599404D01*
X217742857Y-125551785D01*
X217838095Y-125551785D01*
X217980952Y-125599404D01*
X218552380Y-126170833D01*
X218552380Y-125551785D01*
X217217142Y-121749166D02*
X217264761Y-121796785D01*
X217312380Y-121939642D01*
X217312380Y-122034880D01*
X217264761Y-122177738D01*
X217169523Y-122272976D01*
X217074285Y-122320595D01*
X216883809Y-122368214D01*
X216740952Y-122368214D01*
X216550476Y-122320595D01*
X216455238Y-122272976D01*
X216360000Y-122177738D01*
X216312380Y-122034880D01*
X216312380Y-121939642D01*
X216360000Y-121796785D01*
X216407619Y-121749166D01*
X216312380Y-121415833D02*
X216312380Y-120796785D01*
X216693333Y-121130119D01*
X216693333Y-120987261D01*
X216740952Y-120892023D01*
X216788571Y-120844404D01*
X216883809Y-120796785D01*
X217121904Y-120796785D01*
X217217142Y-120844404D01*
X217264761Y-120892023D01*
X217312380Y-120987261D01*
X217312380Y-121272976D01*
X217264761Y-121368214D01*
X217217142Y-121415833D01*
X208228095Y-120782380D02*
X208228095Y-121591904D01*
X208275714Y-121687142D01*
X208323333Y-121734761D01*
X208418571Y-121782380D01*
X208609047Y-121782380D01*
X208704285Y-121734761D01*
X208751904Y-121687142D01*
X208799523Y-121591904D01*
X208799523Y-120782380D01*
X209799523Y-121782380D02*
X209228095Y-121782380D01*
X209513809Y-121782380D02*
X209513809Y-120782380D01*
X209418571Y-120925238D01*
X209323333Y-121020476D01*
X209228095Y-121068095D01*
X232138095Y-112652380D02*
X232138095Y-113461904D01*
X232185714Y-113557142D01*
X232233333Y-113604761D01*
X232328571Y-113652380D01*
X232519047Y-113652380D01*
X232614285Y-113604761D01*
X232661904Y-113557142D01*
X232709523Y-113461904D01*
X232709523Y-112652380D01*
X233138095Y-112747619D02*
X233185714Y-112700000D01*
X233280952Y-112652380D01*
X233519047Y-112652380D01*
X233614285Y-112700000D01*
X233661904Y-112747619D01*
X233709523Y-112842857D01*
X233709523Y-112938095D01*
X233661904Y-113080952D01*
X233090476Y-113652380D01*
X233709523Y-113652380D01*
X227378095Y-134732380D02*
X227378095Y-135541904D01*
X227425714Y-135637142D01*
X227473333Y-135684761D01*
X227568571Y-135732380D01*
X227759047Y-135732380D01*
X227854285Y-135684761D01*
X227901904Y-135637142D01*
X227949523Y-135541904D01*
X227949523Y-134732380D01*
X228901904Y-134732380D02*
X228425714Y-134732380D01*
X228378095Y-135208571D01*
X228425714Y-135160952D01*
X228520952Y-135113333D01*
X228759047Y-135113333D01*
X228854285Y-135160952D01*
X228901904Y-135208571D01*
X228949523Y-135303809D01*
X228949523Y-135541904D01*
X228901904Y-135637142D01*
X228854285Y-135684761D01*
X228759047Y-135732380D01*
X228520952Y-135732380D01*
X228425714Y-135684761D01*
X228378095Y-135637142D01*
X224919523Y-132266666D02*
X225395714Y-132266666D01*
X224824285Y-132552380D02*
X225157619Y-131552380D01*
X225490952Y-132552380D01*
X225681428Y-131885714D02*
X226062380Y-131885714D01*
X225824285Y-131552380D02*
X225824285Y-132409523D01*
X225871904Y-132504761D01*
X225967142Y-132552380D01*
X226062380Y-132552380D01*
X226538571Y-132552380D02*
X226443333Y-132504761D01*
X226395714Y-132409523D01*
X226395714Y-131552380D01*
X227348095Y-132552380D02*
X227348095Y-132028571D01*
X227300476Y-131933333D01*
X227205238Y-131885714D01*
X227014761Y-131885714D01*
X226919523Y-131933333D01*
X227348095Y-132504761D02*
X227252857Y-132552380D01*
X227014761Y-132552380D01*
X226919523Y-132504761D01*
X226871904Y-132409523D01*
X226871904Y-132314285D01*
X226919523Y-132219047D01*
X227014761Y-132171428D01*
X227252857Y-132171428D01*
X227348095Y-132123809D01*
X227776666Y-132504761D02*
X227871904Y-132552380D01*
X228062380Y-132552380D01*
X228157619Y-132504761D01*
X228205238Y-132409523D01*
X228205238Y-132361904D01*
X228157619Y-132266666D01*
X228062380Y-132219047D01*
X227919523Y-132219047D01*
X227824285Y-132171428D01*
X227776666Y-132076190D01*
X227776666Y-132028571D01*
X227824285Y-131933333D01*
X227919523Y-131885714D01*
X228062380Y-131885714D01*
X228157619Y-131933333D01*
X228824285Y-131552380D02*
X229014761Y-131552380D01*
X229110000Y-131600000D01*
X229205238Y-131695238D01*
X229252857Y-131885714D01*
X229252857Y-132219047D01*
X229205238Y-132409523D01*
X229110000Y-132504761D01*
X229014761Y-132552380D01*
X228824285Y-132552380D01*
X228729047Y-132504761D01*
X228633809Y-132409523D01*
X228586190Y-132219047D01*
X228586190Y-131885714D01*
X228633809Y-131695238D01*
X228729047Y-131600000D01*
X228824285Y-131552380D01*
X229681428Y-132028571D02*
X230014761Y-132028571D01*
X230157619Y-132552380D02*
X229681428Y-132552380D01*
X229681428Y-131552380D01*
X230157619Y-131552380D01*
X230586190Y-132552380D02*
X230586190Y-131552380D01*
X230919523Y-132266666D01*
X231252857Y-131552380D01*
X231252857Y-132552380D01*
X210992380Y-138188333D02*
X211706666Y-138188333D01*
X211849523Y-138235952D01*
X211944761Y-138331190D01*
X211992380Y-138474047D01*
X211992380Y-138569285D01*
X210992380Y-137807380D02*
X210992380Y-137188333D01*
X211373333Y-137521666D01*
X211373333Y-137378809D01*
X211420952Y-137283571D01*
X211468571Y-137235952D01*
X211563809Y-137188333D01*
X211801904Y-137188333D01*
X211897142Y-137235952D01*
X211944761Y-137283571D01*
X211992380Y-137378809D01*
X211992380Y-137664523D01*
X211944761Y-137759761D01*
X211897142Y-137807380D01*
X237543333Y-108292380D02*
X237210000Y-107816190D01*
X236971904Y-108292380D02*
X236971904Y-107292380D01*
X237352857Y-107292380D01*
X237448095Y-107340000D01*
X237495714Y-107387619D01*
X237543333Y-107482857D01*
X237543333Y-107625714D01*
X237495714Y-107720952D01*
X237448095Y-107768571D01*
X237352857Y-107816190D01*
X236971904Y-107816190D01*
X238495714Y-108292380D02*
X237924285Y-108292380D01*
X238210000Y-108292380D02*
X238210000Y-107292380D01*
X238114761Y-107435238D01*
X238019523Y-107530476D01*
X237924285Y-107578095D01*
X236305833Y-112452380D02*
X235972500Y-111976190D01*
X235734404Y-112452380D02*
X235734404Y-111452380D01*
X236115357Y-111452380D01*
X236210595Y-111500000D01*
X236258214Y-111547619D01*
X236305833Y-111642857D01*
X236305833Y-111785714D01*
X236258214Y-111880952D01*
X236210595Y-111928571D01*
X236115357Y-111976190D01*
X235734404Y-111976190D01*
X236686785Y-111547619D02*
X236734404Y-111500000D01*
X236829642Y-111452380D01*
X237067738Y-111452380D01*
X237162976Y-111500000D01*
X237210595Y-111547619D01*
X237258214Y-111642857D01*
X237258214Y-111738095D01*
X237210595Y-111880952D01*
X236639166Y-112452380D01*
X237258214Y-112452380D01*
X251987142Y-103959166D02*
X252034761Y-104006785D01*
X252082380Y-104149642D01*
X252082380Y-104244880D01*
X252034761Y-104387738D01*
X251939523Y-104482976D01*
X251844285Y-104530595D01*
X251653809Y-104578214D01*
X251510952Y-104578214D01*
X251320476Y-104530595D01*
X251225238Y-104482976D01*
X251130000Y-104387738D01*
X251082380Y-104244880D01*
X251082380Y-104149642D01*
X251130000Y-104006785D01*
X251177619Y-103959166D01*
X251415714Y-103102023D02*
X252082380Y-103102023D01*
X251034761Y-103340119D02*
X251749047Y-103578214D01*
X251749047Y-102959166D01*
X250973333Y-101257142D02*
X250925714Y-101304761D01*
X250782857Y-101352380D01*
X250687619Y-101352380D01*
X250544761Y-101304761D01*
X250449523Y-101209523D01*
X250401904Y-101114285D01*
X250354285Y-100923809D01*
X250354285Y-100780952D01*
X250401904Y-100590476D01*
X250449523Y-100495238D01*
X250544761Y-100400000D01*
X250687619Y-100352380D01*
X250782857Y-100352380D01*
X250925714Y-100400000D01*
X250973333Y-100447619D01*
X251878095Y-100352380D02*
X251401904Y-100352380D01*
X251354285Y-100828571D01*
X251401904Y-100780952D01*
X251497142Y-100733333D01*
X251735238Y-100733333D01*
X251830476Y-100780952D01*
X251878095Y-100828571D01*
X251925714Y-100923809D01*
X251925714Y-101161904D01*
X251878095Y-101257142D01*
X251830476Y-101304761D01*
X251735238Y-101352380D01*
X251497142Y-101352380D01*
X251401904Y-101304761D01*
X251354285Y-101257142D01*
X242203333Y-101537142D02*
X242155714Y-101584761D01*
X242012857Y-101632380D01*
X241917619Y-101632380D01*
X241774761Y-101584761D01*
X241679523Y-101489523D01*
X241631904Y-101394285D01*
X241584285Y-101203809D01*
X241584285Y-101060952D01*
X241631904Y-100870476D01*
X241679523Y-100775238D01*
X241774761Y-100680000D01*
X241917619Y-100632380D01*
X242012857Y-100632380D01*
X242155714Y-100680000D01*
X242203333Y-100727619D01*
X243060476Y-100632380D02*
X242870000Y-100632380D01*
X242774761Y-100680000D01*
X242727142Y-100727619D01*
X242631904Y-100870476D01*
X242584285Y-101060952D01*
X242584285Y-101441904D01*
X242631904Y-101537142D01*
X242679523Y-101584761D01*
X242774761Y-101632380D01*
X242965238Y-101632380D01*
X243060476Y-101584761D01*
X243108095Y-101537142D01*
X243155714Y-101441904D01*
X243155714Y-101203809D01*
X243108095Y-101108571D01*
X243060476Y-101060952D01*
X242965238Y-101013333D01*
X242774761Y-101013333D01*
X242679523Y-101060952D01*
X242631904Y-101108571D01*
X242584285Y-101203809D01*
X242892380Y-107514166D02*
X242416190Y-107847500D01*
X242892380Y-108085595D02*
X241892380Y-108085595D01*
X241892380Y-107704642D01*
X241940000Y-107609404D01*
X241987619Y-107561785D01*
X242082857Y-107514166D01*
X242225714Y-107514166D01*
X242320952Y-107561785D01*
X242368571Y-107609404D01*
X242416190Y-107704642D01*
X242416190Y-108085595D01*
X241892380Y-107180833D02*
X241892380Y-106561785D01*
X242273333Y-106895119D01*
X242273333Y-106752261D01*
X242320952Y-106657023D01*
X242368571Y-106609404D01*
X242463809Y-106561785D01*
X242701904Y-106561785D01*
X242797142Y-106609404D01*
X242844761Y-106657023D01*
X242892380Y-106752261D01*
X242892380Y-107037976D01*
X242844761Y-107133214D01*
X242797142Y-107180833D01*
X245838095Y-105852380D02*
X245838095Y-106661904D01*
X245885714Y-106757142D01*
X245933333Y-106804761D01*
X246028571Y-106852380D01*
X246219047Y-106852380D01*
X246314285Y-106804761D01*
X246361904Y-106757142D01*
X246409523Y-106661904D01*
X246409523Y-105852380D01*
X247314285Y-105852380D02*
X247123809Y-105852380D01*
X247028571Y-105900000D01*
X246980952Y-105947619D01*
X246885714Y-106090476D01*
X246838095Y-106280952D01*
X246838095Y-106661904D01*
X246885714Y-106757142D01*
X246933333Y-106804761D01*
X247028571Y-106852380D01*
X247219047Y-106852380D01*
X247314285Y-106804761D01*
X247361904Y-106757142D01*
X247409523Y-106661904D01*
X247409523Y-106423809D01*
X247361904Y-106328571D01*
X247314285Y-106280952D01*
X247219047Y-106233333D01*
X247028571Y-106233333D01*
X246933333Y-106280952D01*
X246885714Y-106328571D01*
X246838095Y-106423809D01*
X240461904Y-104066666D02*
X240938095Y-104066666D01*
X240366666Y-104352380D02*
X240700000Y-103352380D01*
X241033333Y-104352380D01*
X241366666Y-104352380D02*
X241366666Y-103352380D01*
X241604761Y-103352380D01*
X241747619Y-103400000D01*
X241842857Y-103495238D01*
X241890476Y-103590476D01*
X241938095Y-103780952D01*
X241938095Y-103923809D01*
X241890476Y-104114285D01*
X241842857Y-104209523D01*
X241747619Y-104304761D01*
X241604761Y-104352380D01*
X241366666Y-104352380D01*
X242938095Y-104257142D02*
X242890476Y-104304761D01*
X242747619Y-104352380D01*
X242652380Y-104352380D01*
X242509523Y-104304761D01*
X242414285Y-104209523D01*
X242366666Y-104114285D01*
X242319047Y-103923809D01*
X242319047Y-103780952D01*
X242366666Y-103590476D01*
X242414285Y-103495238D01*
X242509523Y-103400000D01*
X242652380Y-103352380D01*
X242747619Y-103352380D01*
X242890476Y-103400000D01*
X242938095Y-103447619D01*
X248024000Y-105751781D02*
X248024000Y-105989877D01*
X247785904Y-105894639D02*
X248024000Y-105989877D01*
X248262095Y-105894639D01*
X247881142Y-106180353D02*
X248024000Y-105989877D01*
X248166857Y-106180353D01*
X231868095Y-103542380D02*
X231868095Y-104351904D01*
X231915714Y-104447142D01*
X231963333Y-104494761D01*
X232058571Y-104542380D01*
X232249047Y-104542380D01*
X232344285Y-104494761D01*
X232391904Y-104447142D01*
X232439523Y-104351904D01*
X232439523Y-103542380D01*
X233344285Y-103875714D02*
X233344285Y-104542380D01*
X233106190Y-103494761D02*
X232868095Y-104209047D01*
X233487142Y-104209047D01*
M02*
